M48
; DRILL file {KiCad 9.0.4} date 2025-10-31T13:00:31+0100
; FORMAT={-:-/ absolute / metric / decimal}
; #@! TF.CreationDate,2025-10-31T13:00:31+01:00
; #@! TF.GenerationSoftware,Kicad,Pcbnew,9.0.4
; #@! TF.FileFunction,Plated,1,2,PTH
FMAT,2
METRIC
; #@! TA.AperFunction,Plated,PTH,ViaDrill
T1C0.300
; #@! TA.AperFunction,Plated,PTH,ComponentDrill
T2C0.780
; #@! TA.AperFunction,Plated,PTH,ViaDrill
T3C1.000
; #@! TA.AperFunction,Plated,PTH,ComponentDrill
T4C1.000
; #@! TA.AperFunction,Plated,PTH,ComponentDrill
T5C1.250
; #@! TA.AperFunction,Plated,PTH,ComponentDrill
T6C1.300
; #@! TA.AperFunction,Plated,PTH,ComponentDrill
T7C1.460
; #@! TA.AperFunction,Plated,PTH,ComponentDrill
T8C1.970
; #@! TA.AperFunction,Plated,PTH,ViaDrill
T9C4.100
; #@! TA.AperFunction,Plated,PTH,ComponentDrill
T10C4.100
; #@! TA.AperFunction,Plated,PTH,ComponentDrill
T11C5.100
%
G90
G05
T1
X2.515Y-14.943
X2.515Y-17.483
X2.515Y-20.023
X2.515Y-22.563
X2.515Y-30.183
X2.515Y-32.723
X2.515Y-35.263
X2.515Y-37.803
X2.515Y-40.343
X2.515Y-42.883
X2.515Y-45.423
X2.515Y-47.963
X2.515Y-50.503
X2.515Y-53.043
X2.515Y-55.583
X2.515Y-58.123
X2.515Y-60.663
X2.515Y-63.203
X2.515Y-65.743
X2.515Y-68.283
X2.515Y-70.823
X2.515Y-73.363
X2.515Y-75.903
X2.515Y-78.443
X2.515Y-80.983
X2.515Y-83.523
X2.515Y-86.063
X2.515Y-88.603
X2.515Y-91.143
X2.515Y-93.683
X2.515Y-96.223
X2.515Y-98.763
X2.515Y-101.303
X2.515Y-103.843
X2.515Y-106.383
X2.515Y-108.923
X2.515Y-111.463
X2.515Y-114.003
X2.515Y-116.543
X2.515Y-119.083
X2.515Y-129.243
X2.515Y-131.783
X2.515Y-134.323
X5.055Y-14.943
X5.055Y-17.483
X5.055Y-20.023
X5.055Y-32.723
X5.055Y-35.263
X5.055Y-37.803
X5.055Y-40.343
X5.055Y-47.963
X5.055Y-50.503
X5.055Y-53.043
X5.055Y-55.583
X5.055Y-58.123
X5.055Y-63.203
X5.055Y-65.743
X5.055Y-68.283
X5.055Y-70.823
X5.055Y-73.363
X5.055Y-75.903
X5.055Y-78.443
X5.055Y-80.983
X5.055Y-83.523
X5.055Y-86.063
X5.055Y-88.603
X5.055Y-91.143
X5.055Y-93.683
X5.055Y-96.223
X5.055Y-98.763
X5.055Y-101.303
X5.055Y-103.843
X5.055Y-106.383
X5.055Y-108.923
X5.055Y-111.463
X5.055Y-114.003
X5.055Y-116.543
X5.055Y-129.243
X5.055Y-131.783
X5.055Y-134.323
X7.595Y-14.943
X7.595Y-17.483
X7.595Y-20.023
X7.595Y-32.723
X7.595Y-35.263
X7.595Y-37.803
X7.595Y-40.343
X7.595Y-42.883
X7.595Y-45.423
X7.595Y-47.963
X7.595Y-50.503
X7.595Y-53.043
X7.595Y-55.583
X7.595Y-63.203
X7.595Y-65.743
X7.595Y-68.283
X7.595Y-70.823
X7.595Y-73.363
X7.595Y-75.903
X7.595Y-78.443
X7.595Y-80.983
X7.595Y-83.523
X7.595Y-86.063
X7.595Y-88.603
X7.595Y-91.143
X7.595Y-93.683
X7.595Y-96.223
X7.595Y-98.763
X7.595Y-101.303
X7.595Y-103.843
X7.595Y-106.383
X7.595Y-108.923
X7.595Y-111.463
X7.595Y-114.003
X7.595Y-116.543
X7.595Y-131.783
X7.595Y-134.323
X10.135Y-14.943
X10.135Y-17.483
X10.135Y-20.023
X10.135Y-32.723
X10.135Y-35.263
X10.135Y-37.803
X10.135Y-40.343
X10.135Y-42.883
X10.135Y-45.423
X10.135Y-47.963
X10.135Y-50.503
X10.135Y-53.043
X10.135Y-55.583
X10.135Y-60.663
X10.135Y-63.203
X10.135Y-65.743
X10.135Y-68.283
X10.135Y-70.823
X10.135Y-73.363
X10.135Y-75.903
X10.135Y-78.443
X10.135Y-80.983
X10.135Y-83.523
X10.135Y-86.063
X10.135Y-88.603
X10.135Y-91.143
X10.135Y-93.683
X10.135Y-96.223
X10.135Y-98.763
X10.135Y-101.303
X10.135Y-103.843
X10.135Y-106.383
X10.135Y-108.923
X10.135Y-111.463
X10.135Y-114.003
X10.135Y-116.543
X10.135Y-119.083
X10.135Y-129.243
X10.135Y-131.783
X10.135Y-134.323
X12.675Y-14.943
X12.675Y-17.483
X12.675Y-20.023
X12.675Y-22.563
X12.675Y-25.103
X12.675Y-27.643
X12.675Y-30.183
X12.675Y-32.723
X12.675Y-35.263
X12.675Y-37.803
X12.675Y-40.343
X12.675Y-42.883
X12.675Y-45.423
X12.675Y-47.963
X12.675Y-50.503
X12.675Y-53.043
X12.675Y-55.583
X12.675Y-60.663
X12.675Y-63.203
X12.675Y-65.743
X12.675Y-68.283
X12.675Y-70.823
X12.675Y-73.363
X12.675Y-75.903
X12.675Y-78.443
X12.675Y-80.983
X12.675Y-83.523
X12.675Y-86.063
X12.675Y-88.603
X12.675Y-91.143
X12.675Y-93.683
X12.675Y-96.223
X12.675Y-98.763
X12.675Y-101.303
X12.675Y-103.843
X12.675Y-106.383
X12.675Y-108.923
X12.675Y-111.463
X12.675Y-114.003
X12.675Y-116.543
X12.675Y-119.083
X12.675Y-121.623
X12.675Y-124.163
X12.675Y-126.703
X12.675Y-129.243
X12.675Y-131.783
X12.675Y-134.323
X15.215Y-2.243
X15.215Y-4.783
X15.215Y-7.323
X15.215Y-9.863
X15.215Y-12.403
X15.215Y-14.943
X15.215Y-17.483
X15.215Y-20.023
X15.215Y-22.563
X15.215Y-25.103
X15.215Y-27.643
X15.215Y-30.183
X15.215Y-32.723
X15.215Y-35.263
X15.215Y-37.803
X15.215Y-40.343
X15.215Y-42.883
X15.215Y-45.423
X15.215Y-47.963
X15.215Y-50.503
X15.215Y-53.043
X15.215Y-55.583
X15.215Y-60.663
X15.215Y-63.203
X15.215Y-65.743
X15.215Y-68.283
X15.215Y-70.823
X15.215Y-73.363
X15.215Y-75.903
X15.215Y-78.443
X15.215Y-80.983
X15.215Y-83.523
X15.215Y-86.063
X15.215Y-88.603
X15.215Y-91.143
X15.215Y-93.683
X15.215Y-101.303
X15.215Y-111.463
X15.215Y-114.003
X15.215Y-116.543
X15.215Y-119.083
X15.215Y-121.623
X15.215Y-124.163
X15.215Y-126.703
X15.215Y-129.243
X15.215Y-131.783
X15.215Y-134.323
X15.215Y-136.863
X15.215Y-139.403
X15.215Y-141.943
X15.215Y-144.483
X15.215Y-147.023
X17.755Y-2.243
X17.755Y-4.783
X17.755Y-7.323
X17.755Y-9.863
X17.755Y-12.403
X17.755Y-14.943
X17.755Y-17.483
X17.755Y-20.023
X17.755Y-22.563
X17.755Y-25.103
X17.755Y-27.643
X17.755Y-30.183
X17.755Y-32.723
X17.755Y-35.263
X17.755Y-37.803
X17.755Y-40.343
X17.755Y-42.883
X17.755Y-45.423
X17.755Y-47.963
X17.755Y-50.503
X17.755Y-53.043
X17.755Y-55.583
X17.755Y-60.663
X17.755Y-63.203
X17.755Y-65.743
X17.755Y-68.283
X17.755Y-70.823
X17.755Y-73.363
X17.755Y-75.903
X17.755Y-78.443
X17.755Y-80.983
X17.755Y-83.523
X17.755Y-86.063
X17.755Y-88.603
X17.755Y-91.143
X17.755Y-93.683
X17.755Y-101.303
X17.755Y-111.463
X17.755Y-114.003
X17.755Y-116.543
X17.755Y-119.083
X17.755Y-121.623
X17.755Y-124.163
X17.755Y-126.703
X17.755Y-129.243
X17.755Y-131.783
X17.755Y-134.323
X17.755Y-136.863
X17.755Y-139.403
X17.755Y-141.943
X17.755Y-144.483
X17.755Y-147.023
X20.295Y-2.243
X20.295Y-4.783
X20.295Y-7.323
X20.295Y-9.863
X20.295Y-12.403
X20.295Y-14.943
X20.295Y-17.483
X20.295Y-20.023
X20.295Y-22.563
X20.295Y-25.103
X20.295Y-27.643
X20.295Y-30.183
X20.295Y-32.723
X20.295Y-35.263
X20.295Y-37.803
X20.295Y-40.343
X20.295Y-42.883
X20.295Y-45.423
X20.295Y-47.963
X20.295Y-50.503
X20.295Y-53.043
X20.295Y-55.583
X20.295Y-60.663
X20.295Y-63.203
X20.295Y-65.743
X20.295Y-68.283
X20.295Y-70.823
X20.295Y-73.363
X20.295Y-75.903
X20.295Y-78.443
X20.295Y-80.983
X20.295Y-83.523
X20.295Y-86.063
X20.295Y-88.603
X20.295Y-91.143
X20.295Y-93.683
X20.295Y-96.223
X20.295Y-98.763
X20.295Y-101.303
X20.295Y-103.843
X20.295Y-106.383
X20.295Y-111.463
X20.295Y-114.003
X20.295Y-116.543
X20.295Y-119.083
X20.295Y-121.623
X20.295Y-124.163
X20.295Y-126.703
X20.295Y-129.243
X20.295Y-131.783
X20.295Y-134.323
X20.295Y-136.863
X20.295Y-139.403
X20.295Y-141.943
X22.835Y-2.243
X22.835Y-4.783
X22.835Y-7.323
X22.835Y-9.863
X22.835Y-12.403
X22.835Y-14.943
X22.835Y-17.483
X22.835Y-20.023
X22.835Y-22.563
X22.835Y-25.103
X22.835Y-27.643
X22.835Y-30.183
X22.835Y-32.723
X22.835Y-35.263
X22.835Y-37.803
X22.835Y-40.343
X22.835Y-42.883
X22.835Y-45.423
X22.835Y-47.963
X22.835Y-50.503
X22.835Y-53.043
X22.835Y-55.583
X22.835Y-60.663
X22.835Y-63.203
X22.835Y-65.743
X22.835Y-68.283
X22.835Y-70.823
X22.835Y-80.983
X22.835Y-83.523
X22.835Y-86.063
X22.835Y-88.603
X22.835Y-91.143
X22.835Y-93.683
X22.835Y-96.223
X22.835Y-98.763
X22.835Y-101.303
X22.835Y-103.843
X22.835Y-106.383
X22.835Y-111.463
X22.835Y-114.003
X22.835Y-116.543
X22.835Y-119.083
X22.835Y-121.623
X22.835Y-124.163
X22.835Y-126.703
X22.835Y-129.243
X22.835Y-131.783
X22.835Y-134.323
X22.835Y-139.403
X25.375Y-2.243
X25.375Y-4.783
X25.375Y-7.323
X25.375Y-9.863
X25.375Y-12.403
X25.375Y-14.943
X25.375Y-17.483
X25.375Y-20.023
X25.375Y-22.563
X25.375Y-25.103
X25.375Y-27.643
X25.375Y-30.183
X25.375Y-32.723
X25.375Y-35.263
X25.375Y-37.803
X25.375Y-40.343
X25.375Y-42.883
X25.375Y-45.423
X25.375Y-47.963
X25.375Y-50.503
X25.375Y-53.043
X25.375Y-55.583
X25.375Y-60.663
X25.375Y-63.203
X25.375Y-65.743
X25.375Y-68.283
X25.375Y-70.823
X25.375Y-80.983
X25.375Y-83.523
X25.375Y-86.063
X25.375Y-88.603
X25.375Y-91.143
X25.375Y-93.683
X25.375Y-96.223
X25.375Y-98.763
X25.375Y-101.303
X25.375Y-139.403
X27.915Y-2.243
X27.915Y-4.783
X27.915Y-7.323
X27.915Y-9.863
X27.915Y-12.403
X27.915Y-14.943
X27.915Y-17.483
X27.915Y-20.023
X27.915Y-22.563
X27.915Y-25.103
X27.915Y-27.643
X27.915Y-30.183
X27.915Y-32.723
X27.915Y-35.263
X27.915Y-37.803
X27.915Y-40.343
X27.915Y-42.883
X27.915Y-45.423
X27.915Y-47.963
X27.915Y-50.503
X27.915Y-53.043
X27.915Y-55.583
X27.915Y-60.663
X27.915Y-63.203
X27.915Y-65.743
X27.915Y-68.283
X27.915Y-70.823
X27.915Y-78.443
X27.915Y-80.983
X27.915Y-83.523
X27.915Y-86.063
X27.915Y-88.603
X27.915Y-91.143
X27.915Y-93.683
X27.915Y-96.223
X27.915Y-98.763
X27.915Y-106.383
X27.915Y-111.463
X27.915Y-114.003
X27.915Y-116.543
X27.915Y-119.083
X27.915Y-131.783
X27.915Y-134.323
X27.915Y-139.403
X30.455Y-2.243
X30.455Y-4.783
X30.455Y-7.323
X30.455Y-9.863
X30.455Y-12.403
X30.455Y-14.943
X30.455Y-17.483
X30.455Y-20.023
X30.455Y-22.563
X30.455Y-25.103
X30.455Y-27.643
X30.455Y-30.183
X30.455Y-32.723
X30.455Y-35.263
X30.455Y-37.803
X30.455Y-40.343
X30.455Y-42.883
X30.455Y-45.423
X30.455Y-47.963
X30.455Y-50.503
X30.455Y-53.043
X30.455Y-55.583
X30.455Y-60.663
X30.455Y-63.203
X30.455Y-65.743
X30.455Y-68.283
X30.455Y-70.823
X30.455Y-73.363
X30.455Y-75.903
X30.455Y-78.443
X30.455Y-80.983
X30.455Y-83.523
X30.455Y-86.063
X30.455Y-88.603
X30.455Y-91.143
X30.455Y-93.683
X30.455Y-96.223
X30.455Y-103.843
X30.455Y-106.383
X30.455Y-111.463
X30.455Y-114.003
X30.455Y-116.543
X30.455Y-119.083
X30.455Y-121.623
X30.455Y-124.163
X30.455Y-126.703
X30.455Y-129.243
X30.455Y-139.403
X32.995Y-2.243
X32.995Y-4.783
X32.995Y-7.323
X32.995Y-9.863
X32.995Y-12.403
X32.995Y-14.943
X32.995Y-17.483
X32.995Y-20.023
X32.995Y-22.563
X32.995Y-25.103
X32.995Y-27.643
X32.995Y-30.183
X32.995Y-32.723
X32.995Y-35.263
X32.995Y-37.803
X32.995Y-40.343
X32.995Y-42.883
X32.995Y-45.423
X32.995Y-47.963
X32.995Y-50.503
X32.995Y-53.043
X32.995Y-55.583
X32.995Y-60.663
X32.995Y-63.203
X32.995Y-101.303
X32.995Y-103.843
X32.995Y-106.383
X32.995Y-116.543
X32.995Y-119.083
X32.995Y-121.623
X32.995Y-124.163
X32.995Y-126.703
X32.995Y-129.243
X32.995Y-131.783
X32.995Y-136.863
X32.995Y-139.403
X35.535Y-2.243
X35.535Y-4.783
X35.535Y-7.323
X35.535Y-9.863
X35.535Y-12.403
X35.535Y-14.943
X35.535Y-17.483
X35.535Y-20.023
X35.535Y-22.563
X35.535Y-25.103
X35.535Y-27.643
X35.535Y-30.183
X35.535Y-32.723
X35.535Y-35.263
X35.535Y-37.803
X35.535Y-40.343
X35.535Y-42.883
X35.535Y-45.423
X35.535Y-47.963
X35.535Y-50.503
X35.535Y-53.043
X35.535Y-55.583
X35.535Y-60.663
X35.535Y-68.283
X35.535Y-70.823
X35.535Y-73.363
X35.535Y-75.903
X35.535Y-78.443
X35.535Y-80.983
X35.535Y-88.603
X35.535Y-91.143
X35.535Y-93.683
X35.535Y-96.223
X35.535Y-98.763
X35.535Y-101.303
X35.535Y-103.843
X35.535Y-106.383
X35.535Y-116.543
X35.535Y-119.083
X35.535Y-121.623
X35.535Y-124.163
X35.535Y-126.703
X35.535Y-129.243
X35.535Y-131.783
X35.535Y-136.863
X35.535Y-139.403
X38.075Y-2.243
X38.075Y-4.783
X38.075Y-7.323
X38.075Y-9.863
X38.075Y-12.403
X38.075Y-14.943
X38.075Y-17.483
X38.075Y-20.023
X38.075Y-22.563
X38.075Y-30.183
X38.075Y-32.723
X38.075Y-35.263
X38.075Y-37.803
X38.075Y-40.343
X38.075Y-42.883
X38.075Y-45.423
X38.075Y-47.963
X38.075Y-50.503
X38.075Y-53.043
X38.075Y-55.583
X38.075Y-65.743
X38.075Y-68.283
X38.075Y-70.823
X38.075Y-73.363
X38.075Y-75.903
X38.075Y-78.443
X38.075Y-80.983
X38.075Y-88.603
X38.075Y-91.143
X38.075Y-93.683
X38.075Y-101.303
X38.075Y-111.463
X38.075Y-114.003
X38.075Y-116.543
X38.075Y-119.083
X38.075Y-126.703
X38.075Y-129.243
X38.075Y-139.403
X40.615Y-2.243
X40.615Y-4.783
X40.615Y-7.323
X40.615Y-9.863
X40.615Y-12.403
X40.615Y-14.943
X40.615Y-17.483
X40.615Y-20.023
X40.615Y-32.723
X40.615Y-35.263
X40.615Y-37.803
X40.615Y-40.343
X40.615Y-42.883
X40.615Y-45.423
X40.615Y-47.963
X40.615Y-50.503
X40.615Y-53.043
X40.615Y-55.583
X40.615Y-63.203
X40.615Y-65.743
X40.615Y-68.283
X40.615Y-70.823
X40.615Y-73.363
X40.615Y-75.903
X40.615Y-78.443
X40.615Y-80.983
X40.615Y-88.603
X40.615Y-91.143
X40.615Y-93.683
X40.615Y-101.303
X40.615Y-111.463
X40.615Y-114.003
X40.615Y-116.543
X40.615Y-129.243
X43.155Y-2.243
X43.155Y-4.783
X43.155Y-7.323
X43.155Y-9.863
X43.155Y-12.403
X43.155Y-14.943
X43.155Y-17.483
X43.155Y-20.023
X43.155Y-32.723
X43.155Y-35.263
X43.155Y-37.803
X43.155Y-40.343
X43.155Y-42.883
X43.155Y-45.423
X43.155Y-47.963
X43.155Y-50.503
X43.155Y-53.043
X43.155Y-55.583
X43.155Y-63.203
X43.155Y-65.743
X43.155Y-68.283
X43.155Y-70.823
X43.155Y-73.363
X43.155Y-75.903
X43.155Y-78.443
X43.155Y-80.983
X43.155Y-83.523
X43.155Y-86.063
X43.155Y-88.603
X43.155Y-91.143
X43.155Y-93.683
X43.155Y-96.223
X43.155Y-98.763
X43.155Y-101.303
X43.155Y-103.843
X43.155Y-106.383
X43.155Y-108.923
X43.155Y-111.463
X43.155Y-114.003
X43.155Y-116.543
X43.155Y-131.783
X43.155Y-134.323
X43.155Y-136.863
X43.155Y-139.403
X45.695Y-2.243
X45.695Y-4.783
X45.695Y-7.323
X45.695Y-9.863
X45.695Y-12.403
X45.695Y-14.943
X45.695Y-17.483
X45.695Y-20.023
X45.695Y-32.723
X45.695Y-35.263
X45.695Y-37.803
X45.695Y-40.343
X45.695Y-47.963
X45.695Y-50.503
X45.695Y-53.043
X45.695Y-55.583
X45.695Y-63.203
X45.695Y-80.983
X45.695Y-88.603
X45.695Y-91.143
X45.695Y-93.683
X45.695Y-96.223
X45.695Y-98.763
X45.695Y-116.543
X45.695Y-119.083
X45.695Y-129.243
X45.695Y-131.783
X45.695Y-134.323
X45.695Y-136.863
X45.695Y-139.403
X45.695Y-141.943
X45.695Y-144.483
X48.235Y-2.243
X48.235Y-4.783
X48.235Y-7.323
X48.235Y-9.863
X48.235Y-12.403
X48.235Y-14.943
X48.235Y-17.483
X48.235Y-20.023
X48.235Y-22.563
X48.235Y-27.643
X48.235Y-30.183
X48.235Y-32.723
X48.235Y-35.263
X48.235Y-37.803
X48.235Y-40.343
X48.235Y-42.883
X48.235Y-45.423
X48.235Y-47.963
X48.235Y-50.503
X48.235Y-53.043
X48.235Y-55.583
X48.235Y-68.283
X48.235Y-75.903
X48.235Y-80.983
X48.235Y-103.843
X48.235Y-119.083
X48.235Y-121.623
X48.235Y-126.703
X48.235Y-129.243
X48.235Y-131.783
X48.235Y-134.323
X48.235Y-136.863
X48.235Y-139.403
X48.235Y-141.943
X48.235Y-144.483
X50.775Y-2.243
X50.775Y-4.783
X50.775Y-7.323
X50.775Y-9.863
X50.775Y-12.403
X50.775Y-14.943
X50.775Y-17.483
X50.775Y-20.023
X50.775Y-22.563
X50.775Y-25.103
X50.775Y-27.643
X50.775Y-30.183
X50.775Y-32.723
X50.775Y-35.263
X50.775Y-37.803
X50.775Y-40.343
X50.775Y-42.883
X50.775Y-45.423
X50.775Y-47.963
X50.775Y-50.503
X50.775Y-75.903
X50.775Y-80.983
X50.775Y-83.523
X50.775Y-101.303
X50.775Y-103.843
X50.775Y-121.623
X50.775Y-124.163
X50.775Y-126.703
X50.775Y-129.243
X50.775Y-131.783
X50.775Y-134.323
X50.775Y-136.863
X50.775Y-139.403
X50.775Y-141.943
X50.775Y-144.483
X52.25Y-72.812
X52.5Y-87.0
X53.315Y-2.243
X53.315Y-4.783
X53.315Y-7.323
X53.315Y-9.863
X53.315Y-12.403
X53.315Y-14.943
X53.315Y-17.483
X53.315Y-27.643
X53.315Y-30.183
X53.315Y-32.723
X53.315Y-35.263
X53.315Y-37.803
X53.315Y-40.343
X53.315Y-42.883
X53.315Y-45.423
X53.315Y-47.963
X53.315Y-50.503
X53.315Y-53.043
X53.315Y-55.583
X53.315Y-75.903
X53.315Y-80.983
X53.315Y-116.543
X53.315Y-124.163
X53.315Y-126.703
X53.315Y-129.243
X53.315Y-131.783
X53.315Y-134.323
X53.315Y-136.863
X53.315Y-139.403
X53.315Y-141.943
X53.315Y-147.023
X54.0Y-74.5
X55.5Y-70.5
X55.5Y-72.5
X55.855Y-2.243
X55.855Y-4.783
X55.855Y-7.323
X55.855Y-9.863
X55.855Y-12.403
X55.855Y-14.943
X55.855Y-17.483
X55.855Y-27.643
X55.855Y-30.183
X55.855Y-32.723
X55.855Y-35.263
X55.855Y-80.983
X55.855Y-98.763
X55.855Y-134.323
X55.855Y-136.863
X55.855Y-139.403
X55.855Y-144.483
X55.855Y-147.023
X56.1Y-74.924
X58.0Y-61.5
X58.395Y-2.243
X58.395Y-4.783
X58.395Y-7.323
X58.395Y-9.863
X58.395Y-27.643
X58.395Y-30.183
X58.395Y-32.723
X58.395Y-78.443
X58.395Y-80.983
X58.395Y-134.323
X58.395Y-141.943
X58.395Y-144.483
X58.395Y-147.023
X60.0Y-57.5
X60.5Y-47.5
X60.935Y-2.243
X60.935Y-4.783
X60.935Y-7.323
X60.935Y-17.483
X60.935Y-20.023
X60.935Y-22.563
X60.935Y-25.103
X60.935Y-30.183
X60.935Y-65.743
X60.935Y-80.983
X60.935Y-88.603
X60.935Y-91.143
X60.935Y-101.303
X60.935Y-108.923
X60.935Y-131.783
X60.935Y-136.863
X60.935Y-139.403
X60.935Y-141.943
X60.935Y-144.483
X60.935Y-147.023
X61.5Y-28.0
X61.5Y-72.25
X61.5Y-73.0
X62.5Y-30.0
X62.5Y-72.25
X62.5Y-73.0
X63.0Y-40.0
X63.475Y-2.243
X63.475Y-4.783
X63.475Y-17.483
X63.475Y-20.023
X63.475Y-22.563
X63.475Y-25.103
X63.475Y-27.643
X63.475Y-103.843
X63.475Y-106.383
X63.475Y-108.923
X63.475Y-111.463
X63.475Y-134.323
X63.475Y-136.863
X63.475Y-139.403
X63.475Y-141.943
X63.475Y-144.483
X63.475Y-147.023
X65.0Y-78.0
X66.0Y-44.5
X66.015Y-2.243
X66.015Y-4.783
X66.015Y-17.483
X66.015Y-20.023
X66.015Y-22.563
X66.015Y-25.103
X66.015Y-88.603
X66.015Y-91.143
X66.015Y-96.223
X66.015Y-98.763
X66.015Y-101.303
X66.015Y-103.843
X66.015Y-108.923
X66.015Y-111.463
X66.015Y-116.543
X66.015Y-119.083
X66.015Y-121.623
X66.015Y-124.163
X66.015Y-126.703
X66.015Y-129.243
X66.015Y-131.783
X66.015Y-134.323
X66.015Y-136.863
X66.015Y-139.403
X66.015Y-147.023
X67.343Y-79.343
X67.5Y-75.0
X68.0Y-44.5
X68.448Y-74.052
X68.5Y-78.5
X68.555Y-2.243
X68.555Y-4.783
X68.555Y-17.483
X68.555Y-20.023
X68.555Y-22.563
X68.555Y-25.103
X68.555Y-35.263
X68.555Y-47.963
X68.555Y-65.743
X68.555Y-80.983
X68.555Y-86.063
X68.555Y-88.603
X68.555Y-91.143
X68.555Y-96.223
X68.555Y-98.763
X68.555Y-101.303
X68.555Y-103.843
X68.555Y-108.923
X68.555Y-111.463
X68.555Y-116.543
X68.555Y-119.083
X68.555Y-121.623
X68.555Y-124.163
X68.555Y-131.783
X68.555Y-134.323
X68.555Y-136.863
X68.555Y-139.403
X68.555Y-147.023
X69.5Y-74.0
X69.5Y-77.5
X70.5Y-73.0
X70.5Y-77.5
X71.095Y-2.243
X71.095Y-4.783
X71.095Y-17.483
X71.095Y-20.023
X71.095Y-22.563
X71.095Y-25.103
X71.095Y-32.723
X71.095Y-50.503
X71.095Y-80.983
X71.095Y-88.603
X71.095Y-91.143
X71.095Y-96.223
X71.095Y-98.763
X71.095Y-101.303
X71.095Y-103.843
X71.095Y-106.383
X71.095Y-108.923
X71.095Y-111.463
X71.095Y-116.543
X71.095Y-119.083
X71.095Y-121.623
X71.095Y-147.023
X73.635Y-2.243
X73.635Y-4.783
X73.635Y-20.023
X73.635Y-22.563
X73.635Y-30.183
X73.635Y-45.423
X73.635Y-55.583
X73.635Y-68.283
X73.635Y-75.903
X73.635Y-78.443
X73.635Y-86.063
X73.635Y-88.603
X73.635Y-91.143
X73.635Y-96.223
X73.635Y-98.763
X73.635Y-101.303
X73.635Y-103.843
X73.635Y-106.383
X73.635Y-108.923
X73.635Y-111.463
X73.635Y-116.543
X73.635Y-119.083
X73.635Y-147.023
X74.0Y-53.5
X74.5Y-59.0
X76.175Y-14.943
X76.175Y-22.563
X76.175Y-45.423
X76.175Y-50.503
X76.175Y-63.203
X76.175Y-73.363
X76.175Y-86.063
X76.175Y-88.603
X76.175Y-91.143
X76.175Y-96.223
X76.175Y-98.763
X76.175Y-101.303
X76.175Y-103.843
X76.175Y-106.383
X76.175Y-108.923
X76.175Y-111.463
X76.175Y-134.323
X78.715Y-35.263
X78.715Y-45.423
X78.715Y-50.503
X78.715Y-60.663
X78.715Y-63.203
X78.715Y-70.823
X78.715Y-73.363
X78.715Y-80.983
X78.715Y-86.063
X78.715Y-88.603
X78.715Y-91.143
X78.715Y-96.223
X78.715Y-98.763
X78.715Y-101.303
X78.715Y-103.843
X78.715Y-106.383
X78.715Y-108.923
X78.715Y-111.463
X78.715Y-124.163
X78.715Y-126.703
X78.715Y-129.243
X78.715Y-134.323
X81.255Y-14.943
X81.255Y-20.023
X81.255Y-35.263
X81.255Y-40.343
X81.255Y-50.503
X81.255Y-68.283
X81.255Y-70.823
X81.255Y-73.363
X81.255Y-96.223
X81.255Y-98.763
X81.255Y-101.303
X81.255Y-103.843
X81.255Y-106.383
X81.255Y-108.923
X81.255Y-111.463
X81.255Y-114.003
X81.255Y-116.543
X81.255Y-119.083
X81.255Y-121.623
X81.255Y-124.163
X81.255Y-126.703
X81.255Y-129.243
X81.255Y-131.783
X81.255Y-134.323
X83.795Y-14.943
X83.795Y-20.023
X83.795Y-35.263
X83.795Y-40.343
X83.795Y-50.503
X83.795Y-55.583
X83.795Y-58.123
X83.795Y-68.283
X83.795Y-70.823
X83.795Y-78.443
X83.795Y-80.983
X83.795Y-83.523
X83.795Y-86.063
X83.795Y-88.603
X83.795Y-96.223
X83.795Y-98.763
X83.795Y-101.303
X83.795Y-103.843
X83.795Y-108.923
X83.795Y-111.463
X83.795Y-114.003
X83.795Y-116.543
X83.795Y-119.083
X83.795Y-121.623
X83.795Y-124.163
X83.795Y-126.703
X83.795Y-129.243
X83.795Y-131.783
X83.795Y-134.323
X86.335Y-14.943
X86.335Y-37.803
X86.335Y-40.343
X86.335Y-50.503
X86.335Y-68.283
X86.335Y-75.903
X86.335Y-78.443
X86.335Y-80.983
X86.335Y-83.523
X86.335Y-86.063
X86.335Y-88.603
X86.335Y-91.143
X86.335Y-93.683
X86.335Y-96.223
X86.335Y-98.763
X86.335Y-101.303
X86.335Y-103.843
X86.335Y-106.383
X86.335Y-108.923
X86.335Y-111.463
X86.335Y-114.003
X86.335Y-116.543
X86.335Y-119.083
X86.335Y-121.623
X86.335Y-124.163
X86.335Y-126.703
X86.335Y-129.243
X86.335Y-131.783
X86.335Y-134.323
X88.875Y-14.943
X88.875Y-37.803
X88.875Y-40.343
X88.875Y-42.883
X88.875Y-45.423
X88.875Y-73.363
X88.875Y-75.903
X88.875Y-78.443
X88.875Y-80.983
X88.875Y-83.523
X88.875Y-86.063
X88.875Y-88.603
X88.875Y-91.143
X88.875Y-93.683
X88.875Y-96.223
X88.875Y-98.763
X88.875Y-101.303
X88.875Y-103.843
X88.875Y-106.383
X88.875Y-108.923
X88.875Y-111.463
X88.875Y-114.003
X88.875Y-116.543
X88.875Y-119.083
X88.875Y-121.623
X88.875Y-124.163
X88.875Y-126.703
X88.875Y-129.243
X88.875Y-131.783
X88.875Y-134.323
T2
X57.0Y-119.85
X57.0Y-121.85
X57.0Y-123.85
X57.0Y-125.85
X57.0Y-127.85
X57.0Y-129.85
X77.0Y-119.85
X77.0Y-121.85
X77.0Y-123.85
X77.0Y-125.85
X77.0Y-127.85
X77.0Y-129.85
T3
X16.5Y-109.0
X35.0Y-113.5
X35.5Y-85.5
X40.0Y-109.0
X51.0Y-60.5
X56.0Y-60.5
X56.0Y-78.5
X57.0Y-76.0
X57.5Y-72.0
X66.25Y-76.25
T4
X5.503Y-44.0
X5.503Y-61.145
X45.0Y-44.0
X45.0Y-61.145
X86.5Y-19.88
X86.5Y-22.42
X86.5Y-24.96
X86.5Y-27.5
X86.5Y-30.04
X86.5Y-32.58
X86.5Y-35.12
T5
X60.57Y-71.0
X60.57Y-79.0
X63.43Y-71.0
X63.43Y-79.0
T6
X25.4Y-123.0
X25.4Y-128.0
X27.94Y-123.0
X27.94Y-128.0
X77.85Y-76.83
X77.85Y-83.18
T7
X57.0Y-117.7
X57.0Y-132.0
X77.0Y-117.7
X77.0Y-132.0
T8
X68.125Y-106.5
X68.5Y-93.5
X83.625Y-106.5
X84.0Y-93.5
T9
X7.0Y-7.0
X7.0Y-143.0
X83.0Y-7.0
X83.0Y-143.0
T10
X7.0Y-26.0
X7.0Y-124.0
X43.0Y-26.0
X43.0Y-124.0
T11
X25.0Y-75.0
M30
