%TF.GenerationSoftware,KiCad,Pcbnew,9.0.4*%
%TF.CreationDate,2025-10-31T13:00:25+01:00*%
%TF.ProjectId,Amperry_robot,416d7065-7272-4795-9f72-6f626f742e6b,rev?*%
%TF.SameCoordinates,Original*%
%TF.FileFunction,Copper,L2,Bot*%
%TF.FilePolarity,Positive*%
%FSLAX46Y46*%
G04 Gerber Fmt 4.6, Leading zero omitted, Abs format (unit mm)*
G04 Created by KiCad (PCBNEW 9.0.4) date 2025-10-31 13:00:25*
%MOMM*%
%LPD*%
G01*
G04 APERTURE LIST*
G04 Aperture macros list*
%AMRoundRect*
0 Rectangle with rounded corners*
0 $1 Rounding radius*
0 $2 $3 $4 $5 $6 $7 $8 $9 X,Y pos of 4 corners*
0 Add a 4 corners polygon primitive as box body*
4,1,4,$2,$3,$4,$5,$6,$7,$8,$9,$2,$3,0*
0 Add four circle primitives for the rounded corners*
1,1,$1+$1,$2,$3*
1,1,$1+$1,$4,$5*
1,1,$1+$1,$6,$7*
1,1,$1+$1,$8,$9*
0 Add four rect primitives between the rounded corners*
20,1,$1+$1,$2,$3,$4,$5,0*
20,1,$1+$1,$4,$5,$6,$7,0*
20,1,$1+$1,$6,$7,$8,$9,0*
20,1,$1+$1,$8,$9,$2,$3,0*%
G04 Aperture macros list end*
%TA.AperFunction,ComponentPad*%
%ADD10R,1.337000X1.337000*%
%TD*%
%TA.AperFunction,ComponentPad*%
%ADD11C,1.337000*%
%TD*%
%TA.AperFunction,ComponentPad*%
%ADD12C,2.190000*%
%TD*%
%TA.AperFunction,ComponentPad*%
%ADD13R,1.950000X1.950000*%
%TD*%
%TA.AperFunction,ComponentPad*%
%ADD14C,1.950000*%
%TD*%
%TA.AperFunction,ComponentPad*%
%ADD15C,9.000000*%
%TD*%
%TA.AperFunction,ComponentPad*%
%ADD16C,6.000000*%
%TD*%
%TA.AperFunction,ComponentPad*%
%ADD17R,1.700000X1.700000*%
%TD*%
%TA.AperFunction,ComponentPad*%
%ADD18C,1.700000*%
%TD*%
%TA.AperFunction,ComponentPad*%
%ADD19C,1.600000*%
%TD*%
%TA.AperFunction,ComponentPad*%
%ADD20C,1.875000*%
%TD*%
%TA.AperFunction,ComponentPad*%
%ADD21C,2.955000*%
%TD*%
%TA.AperFunction,SMDPad,CuDef*%
%ADD22RoundRect,0.250000X-1.950000X-1.000000X1.950000X-1.000000X1.950000X1.000000X-1.950000X1.000000X0*%
%TD*%
%TA.AperFunction,SMDPad,CuDef*%
%ADD23RoundRect,0.250000X1.000000X-1.950000X1.000000X1.950000X-1.000000X1.950000X-1.000000X-1.950000X0*%
%TD*%
%TA.AperFunction,SMDPad,CuDef*%
%ADD24RoundRect,0.250000X-1.000000X1.950000X-1.000000X-1.950000X1.000000X-1.950000X1.000000X1.950000X0*%
%TD*%
%TA.AperFunction,ViaPad*%
%ADD25C,1.500000*%
%TD*%
%TA.AperFunction,ViaPad*%
%ADD26C,0.600000*%
%TD*%
%TA.AperFunction,ViaPad*%
%ADD27C,9.000000*%
%TD*%
%TA.AperFunction,Conductor*%
%ADD28C,0.250000*%
%TD*%
%TA.AperFunction,Conductor*%
%ADD29C,1.000000*%
%TD*%
%TA.AperFunction,Conductor*%
%ADD30C,0.500000*%
%TD*%
G04 APERTURE END LIST*
D10*
%TO.P,S2,1,NC*%
%TO.N,/inputs/VB5V*%
X57000000Y-119850000D03*
D11*
%TO.P,S2,2,NO_1*%
%TO.N,/inputs/VB9V*%
X57000000Y-121850000D03*
%TO.P,S2,3,COM*%
%TO.N,VBMAX*%
X57000000Y-123850000D03*
%TO.P,S2,4,NO_2*%
X57000000Y-125850000D03*
%TO.P,S2,5,NO_3*%
%TO.N,/inputs/VB15V*%
X57000000Y-127850000D03*
%TO.P,S2,6,NO_4*%
%TO.N,/inputs/VB20V*%
X57000000Y-129850000D03*
D12*
%TO.P,S2,7,MH1*%
%TO.N,unconnected-(S2-MH1-Pad7)*%
X57000000Y-117700000D03*
%TO.P,S2,8,MH2*%
%TO.N,unconnected-(S2-MH2-Pad8)*%
X57000000Y-132000000D03*
%TD*%
D10*
%TO.P,S1,1,NC*%
%TO.N,/inputs/Isink1A*%
X77000000Y-119850000D03*
D11*
%TO.P,S1,2,NO_1*%
%TO.N,/inputs/Isink2A*%
X77000000Y-121850000D03*
%TO.P,S1,3,COM*%
%TO.N,ISINKC*%
X77000000Y-123850000D03*
%TO.P,S1,4,NO_2*%
X77000000Y-125850000D03*
%TO.P,S1,5,NO_3*%
%TO.N,/inputs/Isink3A*%
X77000000Y-127850000D03*
%TO.P,S1,6,NO_4*%
%TO.N,/inputs/Isink5A*%
X77000000Y-129850000D03*
D12*
%TO.P,S1,7,MH1*%
%TO.N,unconnected-(S1-MH1-Pad7)*%
X77000000Y-117700000D03*
%TO.P,S1,8,MH2*%
%TO.N,unconnected-(S1-MH2-Pad8)*%
X77000000Y-132000000D03*
%TD*%
D13*
%TO.P,J5,1,1*%
%TO.N,GND*%
X77850000Y-83180000D03*
D14*
%TO.P,J5,2,2*%
%TO.N,VBUS*%
X77850000Y-76830000D03*
%TD*%
D15*
%TO.P,REF\u002A\u002A,1*%
%TO.N,N/C*%
X7000000Y-26000000D03*
%TO.P,REF\u002A\u002A,2*%
X43000000Y-26000000D03*
%TO.P,REF\u002A\u002A,3*%
X7000000Y-124000000D03*
X43000000Y-124000000D03*
D16*
%TO.P,REF\u002A\u002A,5*%
X25000000Y-75000000D03*
%TD*%
D17*
%TO.P,J2,1,Pin_1*%
%TO.N,+3V3*%
X86500000Y-35120000D03*
D18*
%TO.P,J2,2,Pin_2*%
%TO.N,HPI_INT*%
X86500000Y-32580000D03*
%TO.P,J2,3,Pin_3*%
%TO.N,GPIO*%
X86500000Y-30040000D03*
%TO.P,J2,4,Pin_4*%
%TO.N,FLIP*%
X86500000Y-27500000D03*
%TO.P,J2,5,Pin_5*%
%TO.N,SDA*%
X86500000Y-24960000D03*
%TO.P,J2,6,Pin_6*%
%TO.N,SCL*%
X86500000Y-22420000D03*
%TO.P,J2,7,Pin_7*%
%TO.N,GND*%
X86500000Y-19880000D03*
%TD*%
D19*
%TO.P,IC1,1,in-*%
%TO.N,GND*%
X5503000Y-44000000D03*
%TO.P,IC1,2,in+*%
%TO.N,VPBnk*%
X5503000Y-61145000D03*
%TO.P,IC1,3,out+*%
%TO.N,+28V*%
X45000000Y-61145000D03*
%TO.P,IC1,4,out-*%
%TO.N,GND*%
X45000000Y-44000000D03*
%TD*%
D13*
%TO.P,P13,A1,A1*%
%TO.N,+28V*%
X25400000Y-128000000D03*
D14*
%TO.P,P13,A2,A2*%
%TO.N,Net-(Q7-D)*%
X27940000Y-128000000D03*
%TO.P,P13,B1,B1*%
%TO.N,+28V*%
X25400000Y-123000000D03*
%TO.P,P13,B2,B2*%
%TO.N,Net-(Q7-D)*%
X27940000Y-123000000D03*
%TD*%
D20*
%TO.P,J1,MH1,MH1*%
%TO.N,unconnected-(J1-PadMH1)*%
X60570000Y-79000000D03*
D19*
%TO.P,J1,MH2,MH2*%
%TO.N,unconnected-(J1-PadMH2)*%
X60570000Y-71000000D03*
%TO.P,J1,MH3,MH3*%
%TO.N,unconnected-(J1-PadMH3)*%
X63430000Y-71000000D03*
D20*
%TO.P,J1,MH4,MH4*%
%TO.N,unconnected-(J1-PadMH4)*%
X63430000Y-79000000D03*
%TD*%
D21*
%TO.P,J3,1,1*%
%TO.N,VBUS*%
X68500000Y-93500000D03*
%TO.P,J3,2,2*%
X84000000Y-93500000D03*
%TD*%
%TO.P,J4,1,1*%
%TO.N,GND*%
X68125000Y-106500000D03*
%TO.P,J4,2,2*%
X83625000Y-106500000D03*
%TD*%
D22*
%TO.P,C10,1*%
%TO.N,+28V*%
X38800000Y-84500000D03*
%TO.P,C10,2*%
%TO.N,GND*%
X47200000Y-84500000D03*
%TD*%
D23*
%TO.P,C5,1*%
%TO.N,+28V*%
X40100000Y-105200000D03*
%TO.P,C5,2*%
%TO.N,GND*%
X40100000Y-96800000D03*
%TD*%
D24*
%TO.P,C12,1*%
%TO.N,VBUS*%
X56500000Y-95300000D03*
%TO.P,C12,2*%
%TO.N,GND*%
X56500000Y-103700000D03*
%TD*%
D23*
%TO.P,C11,1*%
%TO.N,+28V*%
X16000000Y-105200000D03*
%TO.P,C11,2*%
%TO.N,GND*%
X16000000Y-96800000D03*
%TD*%
D25*
%TO.N,*%
X35000000Y-113500000D03*
D26*
%TO.N,ISINKC*%
X70500000Y-73000000D03*
X70500000Y-77500000D03*
%TO.N,ISINKF*%
X61500000Y-28000000D03*
X66000000Y-44500000D03*
%TO.N,VBMAX*%
X69500000Y-74000000D03*
X69500000Y-77500000D03*
%TO.N,VBMIN*%
X68448000Y-74052000D03*
X68500000Y-78500000D03*
%TO.N,GND*%
X86335000Y-114003137D03*
X17755000Y-93683137D03*
X22835000Y-106383137D03*
X25375000Y-27643137D03*
X30455000Y-32723137D03*
X15215000Y-17483137D03*
X66015000Y-147023137D03*
X60935000Y-144483137D03*
X27915000Y-80983137D03*
X83795000Y-134323137D03*
X12675000Y-129243137D03*
X2515000Y-37803137D03*
X22835000Y-47963137D03*
X83795000Y-119083137D03*
X60935000Y-147023137D03*
X38075000Y-65743137D03*
X15215000Y-68283137D03*
X35535000Y-139403137D03*
X30455000Y-116543137D03*
X15215000Y-88603137D03*
X86335000Y-83523137D03*
X43155000Y-53043137D03*
X58395000Y-78443137D03*
X88875000Y-121623137D03*
X15215000Y-111463137D03*
X35535000Y-101303137D03*
X66015000Y-139403137D03*
X68555000Y-121623137D03*
X12675000Y-131783137D03*
X5055000Y-111463137D03*
X12675000Y-25103137D03*
X2515000Y-93683137D03*
X20295000Y-136863137D03*
X10135000Y-78443137D03*
X10135000Y-103843137D03*
X50775000Y-14943137D03*
X50775000Y-101303137D03*
X63475000Y-147023137D03*
X83795000Y-55583137D03*
X68555000Y-80983137D03*
X68555000Y-103843137D03*
X35535000Y-129243137D03*
X50775000Y-126703137D03*
X12675000Y-50503137D03*
X15215000Y-22563137D03*
X55855000Y-14943137D03*
X53315000Y-75903137D03*
X66015000Y-88603137D03*
X20295000Y-42883137D03*
X5055000Y-83523137D03*
X20295000Y-83523137D03*
X22835000Y-22563137D03*
X86335000Y-103843137D03*
X17755000Y-116543137D03*
X38075000Y-20023137D03*
X38075000Y-42883137D03*
X15215000Y-7323137D03*
X40615000Y-78443137D03*
X5055000Y-32723137D03*
X20295000Y-12403137D03*
X20295000Y-86063137D03*
X40615000Y-7323137D03*
X17755000Y-114003137D03*
X76175000Y-86063137D03*
X66015000Y-2243137D03*
X48235000Y-2243137D03*
X50775000Y-35263137D03*
X45695000Y-141943137D03*
X15215000Y-93683137D03*
X86335000Y-111463137D03*
X10135000Y-88603137D03*
X22835000Y-93683137D03*
X7595000Y-40343137D03*
X15215000Y-25103137D03*
X53315000Y-7323137D03*
X83795000Y-116543137D03*
X20295000Y-106383137D03*
X25375000Y-80983137D03*
X25375000Y-60663137D03*
X68555000Y-96223137D03*
X73635000Y-78443137D03*
X68555000Y-22563137D03*
X7595000Y-111463137D03*
X15215000Y-80983137D03*
X27915000Y-4783137D03*
X73635000Y-88603137D03*
X22835000Y-63203137D03*
X55855000Y-98763137D03*
X20295000Y-119083137D03*
X22835000Y-134323137D03*
X30455000Y-50503137D03*
X71095000Y-4783137D03*
X83795000Y-103843137D03*
X55855000Y-144483137D03*
X2515000Y-116543137D03*
X40615000Y-12403137D03*
X63475000Y-103843137D03*
X43155000Y-103843137D03*
X62500000Y-73000000D03*
X22835000Y-119083137D03*
X15215000Y-47963137D03*
X50775000Y-136863137D03*
X53315000Y-14943137D03*
X38075000Y-4783137D03*
X50775000Y-139403137D03*
X68555000Y-116543137D03*
X60935000Y-131783137D03*
X81255000Y-126703137D03*
X60935000Y-4783137D03*
X53315000Y-12403137D03*
X22835000Y-68283137D03*
X25375000Y-70823137D03*
X88875000Y-86063137D03*
X48235000Y-12403137D03*
X78715000Y-45423137D03*
X12675000Y-55583137D03*
X20295000Y-27643137D03*
X10135000Y-119083137D03*
X10135000Y-80983137D03*
X27915000Y-114003137D03*
X25375000Y-63203137D03*
X73635000Y-68283137D03*
X12675000Y-80983137D03*
X17755000Y-83523137D03*
X15215000Y-139403137D03*
X43155000Y-73363137D03*
X5055000Y-14943137D03*
X43155000Y-40343137D03*
X17755000Y-65743137D03*
X30455000Y-55583137D03*
X48235000Y-136863137D03*
X53315000Y-53043137D03*
X81255000Y-73363137D03*
X10135000Y-134323137D03*
X20295000Y-22563137D03*
X30455000Y-129243137D03*
X43155000Y-134323137D03*
X68555000Y-2243137D03*
X88875000Y-83523137D03*
X10135000Y-40343137D03*
X17755000Y-129243137D03*
X32995000Y-60663137D03*
X30455000Y-78443137D03*
X12675000Y-32723137D03*
X32995000Y-37803137D03*
X45695000Y-20023137D03*
X88875000Y-131783137D03*
X27915000Y-40343137D03*
X15215000Y-141943137D03*
X63475000Y-111463137D03*
X27915000Y-131783137D03*
X60935000Y-108923137D03*
X78715000Y-60663137D03*
X88875000Y-98763137D03*
X35535000Y-121623137D03*
X66015000Y-124163137D03*
X55855000Y-136863137D03*
X43155000Y-131783137D03*
X83795000Y-40343137D03*
X32995000Y-7323137D03*
X55855000Y-12403137D03*
X7595000Y-131783137D03*
X53315000Y-55583137D03*
X35535000Y-124163137D03*
X27915000Y-60663137D03*
X63475000Y-2243137D03*
X88875000Y-78443137D03*
X10135000Y-131783137D03*
X50775000Y-2243137D03*
X20295000Y-139403137D03*
X78715000Y-134323137D03*
X27915000Y-63203137D03*
X78715000Y-88603137D03*
X68555000Y-124163137D03*
X12675000Y-45423137D03*
X20295000Y-101303137D03*
X81255000Y-103843137D03*
X32995000Y-50503137D03*
X10135000Y-86063137D03*
X58395000Y-144483137D03*
X27915000Y-22563137D03*
X43155000Y-106383137D03*
X15215000Y-91143137D03*
X62500000Y-72250000D03*
X20295000Y-88603137D03*
X53315000Y-80983137D03*
X25375000Y-20023137D03*
X35535000Y-103843137D03*
X48235000Y-75903137D03*
X60935000Y-2243137D03*
X45695000Y-144483137D03*
X73635000Y-2243137D03*
X83795000Y-131783137D03*
X35535000Y-78443137D03*
X73635000Y-108923137D03*
X38075000Y-111463137D03*
X25375000Y-40343137D03*
X78715000Y-63203137D03*
X48235000Y-121623137D03*
X43155000Y-111463137D03*
X2515000Y-32723137D03*
X35535000Y-126703137D03*
X22835000Y-83523137D03*
X55855000Y-27643137D03*
X32995000Y-27643137D03*
X73635000Y-30183137D03*
X60935000Y-136863137D03*
X83795000Y-98763137D03*
X32995000Y-136863137D03*
X32995000Y-116543137D03*
X40615000Y-42883137D03*
X53315000Y-141943137D03*
X78715000Y-108923137D03*
X17755000Y-70823137D03*
X88875000Y-101303137D03*
X76175000Y-91143137D03*
X45695000Y-116543137D03*
X22835000Y-12403137D03*
X76175000Y-98763137D03*
X12675000Y-111463137D03*
X71095000Y-20023137D03*
X73635000Y-91143137D03*
X12675000Y-78443137D03*
X48235000Y-30183137D03*
X22835000Y-111463137D03*
X32995000Y-35263137D03*
X35535000Y-55583137D03*
X45695000Y-37803137D03*
X30455000Y-75903137D03*
X22835000Y-65743137D03*
X2515000Y-73363137D03*
X2515000Y-17483137D03*
X30455000Y-30183137D03*
X78715000Y-98763137D03*
X48235000Y-22563137D03*
X86335000Y-93683137D03*
X12675000Y-68283137D03*
X55855000Y-80983137D03*
X5055000Y-86063137D03*
X60000000Y-57500000D03*
X40615000Y-45423137D03*
X55855000Y-35263137D03*
X68555000Y-147023137D03*
X10135000Y-111463137D03*
X71095000Y-25103137D03*
X86335000Y-96223137D03*
X68555000Y-98763137D03*
X12675000Y-98763137D03*
X50775000Y-131783137D03*
X66015000Y-136863137D03*
X48235000Y-37803137D03*
X2515000Y-35263137D03*
X55855000Y-9863137D03*
X68555000Y-35263137D03*
X38075000Y-37803137D03*
X86335000Y-106383137D03*
X68555000Y-136863137D03*
X7595000Y-53043137D03*
X86335000Y-98763137D03*
X7595000Y-91143137D03*
X25375000Y-68283137D03*
X20295000Y-124163137D03*
X25375000Y-50503137D03*
X15215000Y-32723137D03*
X10135000Y-60663137D03*
X10135000Y-114003137D03*
X88875000Y-93683137D03*
X22835000Y-80983137D03*
X88875000Y-103843137D03*
X32995000Y-45423137D03*
X30455000Y-63203137D03*
X83795000Y-124163137D03*
X71095000Y-17483137D03*
X5055000Y-91143137D03*
X2515000Y-50503137D03*
X40615000Y-73363137D03*
X83795000Y-126703137D03*
X30455000Y-45423137D03*
X38075000Y-17483137D03*
X15215000Y-53043137D03*
X35535000Y-14943137D03*
X68555000Y-25103137D03*
X20295000Y-7323137D03*
X40615000Y-35263137D03*
X66015000Y-131783137D03*
X5055000Y-17483137D03*
X20295000Y-78443137D03*
X58395000Y-134323137D03*
X25375000Y-55583137D03*
X32995000Y-53043137D03*
X66015000Y-98763137D03*
X27915000Y-37803137D03*
X15215000Y-35263137D03*
X48235000Y-40343137D03*
X88875000Y-96223137D03*
X50775000Y-45423137D03*
X43155000Y-50503137D03*
X17755000Y-141943137D03*
X30455000Y-83523137D03*
X48235000Y-68283137D03*
X76175000Y-63203137D03*
X27915000Y-83523137D03*
X2515000Y-88603137D03*
X20295000Y-47963137D03*
X50775000Y-4783137D03*
X55855000Y-17483137D03*
X10135000Y-20023137D03*
X22835000Y-96223137D03*
X30455000Y-103843137D03*
X61500000Y-73000000D03*
X2515000Y-53043137D03*
X32995000Y-30183137D03*
X50775000Y-75903137D03*
X53315000Y-129243137D03*
X38075000Y-78443137D03*
X35535000Y-37803137D03*
X48235000Y-134323137D03*
X17755000Y-147023137D03*
X40615000Y-53043137D03*
X27915000Y-78443137D03*
X68555000Y-119083137D03*
X78715000Y-70823137D03*
X12675000Y-124163137D03*
X25375000Y-37803137D03*
X38075000Y-9863137D03*
X12675000Y-88603137D03*
X22835000Y-27643137D03*
X78715000Y-103843137D03*
X38075000Y-88603137D03*
X10135000Y-47963137D03*
X20295000Y-17483137D03*
X40615000Y-93683137D03*
X38075000Y-139403137D03*
X35535000Y-70823137D03*
X71095000Y-96223137D03*
X20295000Y-68283137D03*
X81255000Y-96223137D03*
X25375000Y-9863137D03*
X17755000Y-136863137D03*
X43155000Y-32723137D03*
X66015000Y-22563137D03*
X38075000Y-68283137D03*
X53315000Y-45423137D03*
X17755000Y-12403137D03*
X45695000Y-7323137D03*
X22835000Y-14943137D03*
X15215000Y-40343137D03*
X17755000Y-4783137D03*
X40615000Y-17483137D03*
X43155000Y-88603137D03*
X68555000Y-17483137D03*
X63475000Y-134323137D03*
X17755000Y-86063137D03*
X17755000Y-27643137D03*
X10135000Y-108923137D03*
X55855000Y-2243137D03*
X38075000Y-126703137D03*
X22835000Y-131783137D03*
X27915000Y-106383137D03*
X20295000Y-98763137D03*
X86335000Y-119083137D03*
X25375000Y-32723137D03*
X20295000Y-93683137D03*
X30455000Y-7323137D03*
X27915000Y-47963137D03*
X68555000Y-131783137D03*
X2515000Y-42883137D03*
X27915000Y-98763137D03*
X7595000Y-70823137D03*
X22835000Y-124163137D03*
X32995000Y-131783137D03*
X17755000Y-131783137D03*
X86335000Y-126703137D03*
X5055000Y-70823137D03*
X27915000Y-7323137D03*
X22835000Y-37803137D03*
X58000000Y-61500000D03*
X30455000Y-70823137D03*
X40615000Y-70823137D03*
X20295000Y-37803137D03*
X53315000Y-47963137D03*
X5055000Y-108923137D03*
X12675000Y-91143137D03*
X88875000Y-40343137D03*
X15215000Y-65743137D03*
X38075000Y-75903137D03*
X35535000Y-75903137D03*
X73635000Y-96223137D03*
X15215000Y-37803137D03*
X81255000Y-114003137D03*
X68555000Y-86063137D03*
X55855000Y-30183137D03*
X22835000Y-4783137D03*
X2515000Y-91143137D03*
X22835000Y-32723137D03*
X2515000Y-60663137D03*
X30455000Y-17483137D03*
X45695000Y-98763137D03*
X48235000Y-7323137D03*
X12675000Y-30183137D03*
X88875000Y-42883137D03*
X7595000Y-101303137D03*
X7595000Y-96223137D03*
X78715000Y-96223137D03*
X15215000Y-30183137D03*
X17755000Y-68283137D03*
X71095000Y-50503137D03*
X12675000Y-35263137D03*
X53315000Y-116543137D03*
X81255000Y-14943137D03*
X73635000Y-106383137D03*
X50775000Y-22563137D03*
X38075000Y-14943137D03*
X22835000Y-101303137D03*
X68555000Y-47963137D03*
X35535000Y-2243137D03*
X40615000Y-111463137D03*
X43155000Y-96223137D03*
X30455000Y-9863137D03*
X15215000Y-63203137D03*
X10135000Y-106383137D03*
X38075000Y-53043137D03*
X48235000Y-9863137D03*
X25375000Y-53043137D03*
X32995000Y-42883137D03*
X86335000Y-91143137D03*
X20295000Y-134323137D03*
X17755000Y-63203137D03*
X48235000Y-103843137D03*
X55500000Y-72500000D03*
X32995000Y-121623137D03*
X53315000Y-139403137D03*
X7595000Y-47963137D03*
X20295000Y-35263137D03*
X43155000Y-108923137D03*
X66015000Y-108923137D03*
X5055000Y-88603137D03*
X17755000Y-2243137D03*
X30455000Y-65743137D03*
X20295000Y-129243137D03*
X2515000Y-80983137D03*
X68555000Y-88603137D03*
X76175000Y-108923137D03*
X66015000Y-96223137D03*
X83795000Y-70823137D03*
X10135000Y-70823137D03*
X45695000Y-139403137D03*
X38075000Y-45423137D03*
X12675000Y-96223137D03*
X40615000Y-14943137D03*
X30455000Y-68283137D03*
X38075000Y-12403137D03*
X86335000Y-134323137D03*
X17755000Y-20023137D03*
X12675000Y-27643137D03*
X7595000Y-106383137D03*
X2515000Y-131783137D03*
X88875000Y-75903137D03*
X12675000Y-114003137D03*
X43155000Y-136863137D03*
X86335000Y-75903137D03*
X15215000Y-60663137D03*
X10135000Y-65743137D03*
X50775000Y-30183137D03*
X35535000Y-22563137D03*
X38075000Y-40343137D03*
X12675000Y-116543137D03*
X38075000Y-116543137D03*
X86335000Y-101303137D03*
X25375000Y-4783137D03*
X32995000Y-4783137D03*
X83795000Y-86063137D03*
X88875000Y-88603137D03*
X63475000Y-139403137D03*
X73635000Y-45423137D03*
X88875000Y-14943137D03*
X73635000Y-55583137D03*
X15215000Y-27643137D03*
X43155000Y-47963137D03*
X53315000Y-4783137D03*
X22835000Y-42883137D03*
X20295000Y-2243137D03*
X83795000Y-68283137D03*
X12675000Y-101303137D03*
X55855000Y-147023137D03*
X76175000Y-14943137D03*
X15215000Y-144483137D03*
X17755000Y-47963137D03*
X78715000Y-129243137D03*
X27915000Y-134323137D03*
X38075000Y-35263137D03*
X76175000Y-22563137D03*
X45695000Y-17483137D03*
X20295000Y-70823137D03*
X30455000Y-91143137D03*
X35535000Y-32723137D03*
X43155000Y-83523137D03*
X40615000Y-4783137D03*
X53315000Y-30183137D03*
X7595000Y-63203137D03*
X81255000Y-50503137D03*
D27*
X7000000Y-143000000D03*
D26*
X60935000Y-22563137D03*
X30455000Y-88603137D03*
X40615000Y-116543137D03*
X60935000Y-17483137D03*
X35535000Y-20023137D03*
X7595000Y-55583137D03*
X38075000Y-91143137D03*
X53315000Y-136863137D03*
X25375000Y-2243137D03*
X40615000Y-80983137D03*
X78715000Y-50503137D03*
X10135000Y-53043137D03*
X58395000Y-32723137D03*
X35535000Y-50503137D03*
X40615000Y-91143137D03*
X30455000Y-106383137D03*
X45695000Y-9863137D03*
X38075000Y-114003137D03*
X71095000Y-2243137D03*
X27915000Y-9863137D03*
X15215000Y-101303137D03*
X35535000Y-42883137D03*
X30455000Y-93683137D03*
X45695000Y-63203137D03*
X73635000Y-103843137D03*
X22835000Y-45423137D03*
X45695000Y-2243137D03*
X50775000Y-121623137D03*
X30455000Y-27643137D03*
X27915000Y-70823137D03*
X22835000Y-9863137D03*
X53315000Y-147023137D03*
X38075000Y-47963137D03*
X45695000Y-129243137D03*
X81255000Y-134323137D03*
X15215000Y-83523137D03*
X63475000Y-22563137D03*
X50775000Y-141943137D03*
X12675000Y-42883137D03*
X2515000Y-101303137D03*
X30455000Y-73363137D03*
X25375000Y-14943137D03*
X45695000Y-96223137D03*
X38075000Y-22563137D03*
X66015000Y-116543137D03*
X15215000Y-131783137D03*
X27915000Y-17483137D03*
X30455000Y-86063137D03*
X43155000Y-65743137D03*
D27*
X83000000Y-7000000D03*
D26*
X48235000Y-42883137D03*
X27915000Y-12403137D03*
X50775000Y-124163137D03*
X22835000Y-129243137D03*
X38075000Y-93683137D03*
X32995000Y-103843137D03*
X43155000Y-63203137D03*
X60935000Y-25103137D03*
X78715000Y-86063137D03*
X35535000Y-68283137D03*
X27915000Y-139403137D03*
X68555000Y-20023137D03*
X35535000Y-93683137D03*
X12675000Y-60663137D03*
X81255000Y-116543137D03*
X40615000Y-9863137D03*
X15215000Y-116543137D03*
X12675000Y-40343137D03*
X22835000Y-50503137D03*
X66015000Y-4783137D03*
X10135000Y-35263137D03*
X83795000Y-108923137D03*
X5055000Y-131783137D03*
X35535000Y-35263137D03*
X25375000Y-93683137D03*
X45695000Y-131783137D03*
X5055000Y-75903137D03*
X5055000Y-101303137D03*
X27915000Y-32723137D03*
X10135000Y-98763137D03*
X17755000Y-22563137D03*
X83795000Y-88603137D03*
X5055000Y-68283137D03*
X17755000Y-7323137D03*
X43155000Y-75903137D03*
X17755000Y-32723137D03*
X50775000Y-7323137D03*
X60935000Y-141943137D03*
X25375000Y-7323137D03*
X76175000Y-96223137D03*
X43155000Y-17483137D03*
X25375000Y-45423137D03*
X86335000Y-78443137D03*
X32995000Y-40343137D03*
X12675000Y-47963137D03*
X15215000Y-119083137D03*
X88875000Y-129243137D03*
X78715000Y-101303137D03*
X15215000Y-70823137D03*
X48235000Y-32723137D03*
X81255000Y-20023137D03*
X71095000Y-88603137D03*
X2515000Y-103843137D03*
X40615000Y-55583137D03*
X17755000Y-9863137D03*
X7595000Y-75903137D03*
X7595000Y-88603137D03*
X43155000Y-91143137D03*
X81255000Y-98763137D03*
X27915000Y-88603137D03*
X40615000Y-50503137D03*
X63475000Y-106383137D03*
X35535000Y-9863137D03*
X32995000Y-25103137D03*
X55855000Y-134323137D03*
X17755000Y-53043137D03*
X76175000Y-101303137D03*
X58395000Y-4783137D03*
X30455000Y-60663137D03*
X27915000Y-93683137D03*
X40615000Y-32723137D03*
X15215000Y-136863137D03*
X20295000Y-40343137D03*
X73635000Y-116543137D03*
X25375000Y-17483137D03*
X86335000Y-40343137D03*
X32995000Y-119083137D03*
X25375000Y-35263137D03*
X40615000Y-63203137D03*
X20295000Y-65743137D03*
X12675000Y-86063137D03*
X5055000Y-134323137D03*
X32995000Y-9863137D03*
X30455000Y-80983137D03*
X5055000Y-98763137D03*
X35535000Y-131783137D03*
X12675000Y-103843137D03*
X43155000Y-35263137D03*
X2515000Y-14943137D03*
X35535000Y-12403137D03*
X10135000Y-42883137D03*
X40615000Y-40343137D03*
X17755000Y-134323137D03*
X48235000Y-47963137D03*
X83795000Y-129243137D03*
X48235000Y-80983137D03*
X32995000Y-101303137D03*
X12675000Y-73363137D03*
X58395000Y-27643137D03*
X25375000Y-25103137D03*
X60935000Y-139403137D03*
X53315000Y-2243137D03*
X2515000Y-55583137D03*
X20295000Y-114003137D03*
X45695000Y-136863137D03*
X66015000Y-25103137D03*
X35535000Y-4783137D03*
X73635000Y-119083137D03*
X76175000Y-106383137D03*
X22835000Y-7323137D03*
X30455000Y-12403137D03*
X43155000Y-7323137D03*
X17755000Y-35263137D03*
X55855000Y-7323137D03*
X27915000Y-35263137D03*
X48235000Y-126703137D03*
X32995000Y-32723137D03*
X45695000Y-4783137D03*
X38075000Y-70823137D03*
X7595000Y-134323137D03*
X35535000Y-60663137D03*
X10135000Y-75903137D03*
X48235000Y-4783137D03*
X12675000Y-106383137D03*
X20295000Y-126703137D03*
X43155000Y-4783137D03*
X45695000Y-93683137D03*
X63475000Y-144483137D03*
X5055000Y-50503137D03*
X35535000Y-136863137D03*
X60935000Y-80983137D03*
X71095000Y-101303137D03*
X15215000Y-4783137D03*
X20295000Y-50503137D03*
X81255000Y-129243137D03*
X32995000Y-63203137D03*
X35535000Y-96223137D03*
X50775000Y-27643137D03*
X2515000Y-20023137D03*
X35535000Y-98763137D03*
X48235000Y-53043137D03*
X38075000Y-32723137D03*
X30455000Y-96223137D03*
X20295000Y-121623137D03*
X73635000Y-75903137D03*
X30455000Y-126703137D03*
X27915000Y-50503137D03*
X17755000Y-101303137D03*
X40615000Y-2243137D03*
X35535000Y-91143137D03*
X12675000Y-93683137D03*
X10135000Y-73363137D03*
X25375000Y-22563137D03*
X10135000Y-83523137D03*
X66015000Y-119083137D03*
X2515000Y-83523137D03*
X68555000Y-134323137D03*
X88875000Y-111463137D03*
X43155000Y-114003137D03*
X43155000Y-12403137D03*
X53315000Y-35263137D03*
X25375000Y-86063137D03*
X17755000Y-55583137D03*
X53315000Y-40343137D03*
X43155000Y-116543137D03*
X17755000Y-17483137D03*
X71095000Y-108923137D03*
X43155000Y-80983137D03*
X83795000Y-96223137D03*
X2515000Y-96223137D03*
X7595000Y-78443137D03*
X53315000Y-131783137D03*
X53315000Y-27643137D03*
X88875000Y-106383137D03*
X78715000Y-80983137D03*
X17755000Y-78443137D03*
X7595000Y-114003137D03*
X2515000Y-70823137D03*
X53315000Y-42883137D03*
X22835000Y-86063137D03*
X63475000Y-108923137D03*
X45695000Y-35263137D03*
X17755000Y-37803137D03*
X45695000Y-14943137D03*
X83795000Y-35263137D03*
X60935000Y-91143137D03*
X66015000Y-101303137D03*
X10135000Y-37803137D03*
X7595000Y-20023137D03*
X73635000Y-98763137D03*
X48235000Y-20023137D03*
X81255000Y-106383137D03*
X25375000Y-65743137D03*
X73635000Y-86063137D03*
X66015000Y-134323137D03*
X17755000Y-60663137D03*
X7595000Y-98763137D03*
X65000000Y-78000000D03*
X5055000Y-63203137D03*
X88875000Y-114003137D03*
X20295000Y-45423137D03*
X25375000Y-96223137D03*
X5055000Y-93683137D03*
X22835000Y-139403137D03*
X38075000Y-30183137D03*
X81255000Y-68283137D03*
X60935000Y-20023137D03*
X22835000Y-116543137D03*
X40615000Y-65743137D03*
X22835000Y-98763137D03*
X22835000Y-60663137D03*
X30455000Y-25103137D03*
X20295000Y-60663137D03*
X17755000Y-139403137D03*
X12675000Y-75903137D03*
X48235000Y-55583137D03*
X45695000Y-91143137D03*
X78715000Y-91143137D03*
X15215000Y-75903137D03*
X30455000Y-14943137D03*
X32995000Y-2243137D03*
X7595000Y-50503137D03*
X60935000Y-30183137D03*
X12675000Y-70823137D03*
X35535000Y-73363137D03*
X12675000Y-83523137D03*
X50775000Y-32723137D03*
X76175000Y-50503137D03*
X40615000Y-114003137D03*
X86335000Y-80983137D03*
X5055000Y-80983137D03*
X58395000Y-7323137D03*
X25375000Y-98763137D03*
X81255000Y-124163137D03*
X30455000Y-47963137D03*
X22835000Y-114003137D03*
X7595000Y-93683137D03*
X53315000Y-37803137D03*
X17755000Y-91143137D03*
X81255000Y-121623137D03*
X5055000Y-73363137D03*
X52500000Y-87000000D03*
X76175000Y-103843137D03*
X12675000Y-134323137D03*
X43155000Y-14943137D03*
X63475000Y-25103137D03*
X15215000Y-114003137D03*
X10135000Y-50503137D03*
X2515000Y-86063137D03*
X86335000Y-50503137D03*
X76175000Y-111463137D03*
X35535000Y-17483137D03*
X81255000Y-108923137D03*
X22835000Y-35263137D03*
X15215000Y-12403137D03*
X45695000Y-53043137D03*
X5055000Y-106383137D03*
X88875000Y-45423137D03*
X38075000Y-7323137D03*
X17755000Y-50503137D03*
X22835000Y-121623137D03*
X86335000Y-14943137D03*
X25375000Y-91143137D03*
X10135000Y-55583137D03*
X2515000Y-40343137D03*
X88875000Y-108923137D03*
X86335000Y-121623137D03*
X2515000Y-108923137D03*
X78715000Y-106383137D03*
X38075000Y-119083137D03*
X2515000Y-30183137D03*
X22835000Y-126703137D03*
X58395000Y-80983137D03*
X35535000Y-80983137D03*
X50775000Y-40343137D03*
X5055000Y-103843137D03*
X7595000Y-17483137D03*
X5055000Y-65743137D03*
X7595000Y-73363137D03*
X83795000Y-14943137D03*
X63475000Y-17483137D03*
X88875000Y-124163137D03*
X27915000Y-27643137D03*
X22835000Y-17483137D03*
X30455000Y-2243137D03*
X20295000Y-30183137D03*
X15215000Y-78443137D03*
X22835000Y-2243137D03*
X61500000Y-72250000D03*
X71095000Y-80983137D03*
X71095000Y-147023137D03*
X53315000Y-50503137D03*
X22835000Y-70823137D03*
X81255000Y-35263137D03*
X20295000Y-32723137D03*
X45695000Y-88603137D03*
X20295000Y-20023137D03*
X50775000Y-47963137D03*
X48235000Y-141943137D03*
X50775000Y-37803137D03*
X5055000Y-47963137D03*
X25375000Y-42883137D03*
X17755000Y-25103137D03*
X83795000Y-50503137D03*
X43155000Y-86063137D03*
X22835000Y-25103137D03*
X68555000Y-108923137D03*
X43155000Y-70823137D03*
X27915000Y-65743137D03*
X48235000Y-131783137D03*
X20295000Y-96223137D03*
X88875000Y-126703137D03*
X50775000Y-50503137D03*
X63475000Y-27643137D03*
X15215000Y-134323137D03*
X48235000Y-139403137D03*
X43155000Y-37803137D03*
X17755000Y-42883137D03*
X17755000Y-30183137D03*
X17755000Y-75903137D03*
X10135000Y-63203137D03*
X66015000Y-129243137D03*
X40615000Y-20023137D03*
X2515000Y-75903137D03*
X43155000Y-93683137D03*
X17755000Y-80983137D03*
X5055000Y-20023137D03*
X12675000Y-126703137D03*
X68555000Y-111463137D03*
X35535000Y-106383137D03*
X35535000Y-27643137D03*
X2515000Y-63203137D03*
X32995000Y-129243137D03*
X35535000Y-30183137D03*
X20295000Y-91143137D03*
X27915000Y-2243137D03*
X32995000Y-14943137D03*
X30455000Y-119083137D03*
X40615000Y-68283137D03*
X5055000Y-53043137D03*
X27915000Y-42883137D03*
X7595000Y-32723137D03*
X58395000Y-30183137D03*
X88875000Y-119083137D03*
X12675000Y-53043137D03*
X43155000Y-42883137D03*
X66015000Y-17483137D03*
X81255000Y-101303137D03*
X7595000Y-116543137D03*
X22835000Y-20023137D03*
X53315000Y-32723137D03*
X66015000Y-126703137D03*
X38075000Y-55583137D03*
X10135000Y-93683137D03*
X25375000Y-47963137D03*
X10135000Y-14943137D03*
X15215000Y-73363137D03*
X20295000Y-103843137D03*
X27915000Y-86063137D03*
X53315000Y-17483137D03*
X2515000Y-119083137D03*
X73635000Y-4783137D03*
X12675000Y-22563137D03*
X35535000Y-53043137D03*
X7595000Y-68283137D03*
X2515000Y-78443137D03*
X32995000Y-22563137D03*
X2515000Y-129243137D03*
X40615000Y-101303137D03*
X27915000Y-14943137D03*
X30455000Y-20023137D03*
X5055000Y-40343137D03*
D27*
X83000000Y-143000000D03*
D26*
X81255000Y-70823137D03*
X83795000Y-83523137D03*
X86335000Y-116543137D03*
X38075000Y-2243137D03*
X66015000Y-91143137D03*
X86335000Y-108923137D03*
X30455000Y-4783137D03*
X86335000Y-88603137D03*
X15215000Y-129243137D03*
X2515000Y-65743137D03*
X5055000Y-78443137D03*
X88875000Y-116543137D03*
X50775000Y-25103137D03*
X15215000Y-121623137D03*
X5055000Y-37803137D03*
X15215000Y-42883137D03*
X15215000Y-2243137D03*
X7595000Y-103843137D03*
X45695000Y-32723137D03*
X81255000Y-119083137D03*
X38075000Y-50503137D03*
X20295000Y-53043137D03*
X10135000Y-101303137D03*
X78715000Y-35263137D03*
X60935000Y-88603137D03*
X60935000Y-101303137D03*
X5055000Y-114003137D03*
X68555000Y-4783137D03*
X50775000Y-12403137D03*
X22835000Y-30183137D03*
X10135000Y-68283137D03*
X2515000Y-106383137D03*
X50775000Y-103843137D03*
X40615000Y-88603137D03*
X20295000Y-25103137D03*
X32995000Y-12403137D03*
X50775000Y-17483137D03*
X48235000Y-35263137D03*
X30455000Y-35263137D03*
X7595000Y-108923137D03*
X7595000Y-86063137D03*
X71095000Y-98763137D03*
X35535000Y-119083137D03*
X71095000Y-22563137D03*
D27*
X7000000Y-7000000D03*
D26*
X35535000Y-45423137D03*
X71095000Y-91143137D03*
X25375000Y-139403137D03*
X53315000Y-134323137D03*
X66015000Y-20023137D03*
X20295000Y-73363137D03*
X17755000Y-111463137D03*
X30455000Y-124163137D03*
X50775000Y-20023137D03*
X78715000Y-73363137D03*
X43155000Y-139403137D03*
X10135000Y-96223137D03*
X10135000Y-129243137D03*
X30455000Y-53043137D03*
X17755000Y-124163137D03*
X30455000Y-139403137D03*
X55855000Y-139403137D03*
X12675000Y-63203137D03*
X43155000Y-20023137D03*
X20295000Y-116543137D03*
X25375000Y-12403137D03*
X25375000Y-30183137D03*
X12675000Y-108923137D03*
X32995000Y-106383137D03*
X7595000Y-37803137D03*
X53315000Y-9863137D03*
X40615000Y-129243137D03*
X43155000Y-78443137D03*
X27915000Y-45423137D03*
X7595000Y-45423137D03*
X2515000Y-47963137D03*
X48235000Y-17483137D03*
X20295000Y-14943137D03*
X15215000Y-147023137D03*
X27915000Y-96223137D03*
X58395000Y-141943137D03*
X5055000Y-129243137D03*
X2515000Y-111463137D03*
X35535000Y-40343137D03*
X20295000Y-9863137D03*
X20295000Y-80983137D03*
X17755000Y-45423137D03*
X17755000Y-126703137D03*
X40615000Y-75903137D03*
X83795000Y-80983137D03*
X20295000Y-75903137D03*
X88875000Y-73363137D03*
X22835000Y-88603137D03*
X2515000Y-68283137D03*
X48235000Y-144483137D03*
X78715000Y-124163137D03*
X81255000Y-131783137D03*
X35535000Y-47963137D03*
X17755000Y-119083137D03*
X58395000Y-9863137D03*
X20295000Y-141943137D03*
X88875000Y-134323137D03*
X86335000Y-86063137D03*
X73635000Y-20023137D03*
X32995000Y-20023137D03*
X10135000Y-17483137D03*
X30455000Y-42883137D03*
X78715000Y-111463137D03*
X32995000Y-17483137D03*
X43155000Y-98763137D03*
X27915000Y-119083137D03*
X27915000Y-55583137D03*
X68555000Y-139403137D03*
X40615000Y-47963137D03*
X48235000Y-27643137D03*
X20295000Y-55583137D03*
X50775000Y-9863137D03*
X78715000Y-126703137D03*
X7595000Y-42883137D03*
X15215000Y-9863137D03*
X71095000Y-121623137D03*
X32995000Y-55583137D03*
X71095000Y-32723137D03*
X32995000Y-139403137D03*
X5055000Y-35263137D03*
X86335000Y-37803137D03*
X38075000Y-73363137D03*
X27915000Y-30183137D03*
X86335000Y-129243137D03*
X12675000Y-20023137D03*
X48235000Y-50503137D03*
X88875000Y-91143137D03*
X22835000Y-103843137D03*
X86335000Y-124163137D03*
X71095000Y-116543137D03*
X71095000Y-111463137D03*
X60935000Y-65743137D03*
X7595000Y-14943137D03*
X38075000Y-129243137D03*
X12675000Y-65743137D03*
X5055000Y-58123137D03*
X83795000Y-20023137D03*
X63475000Y-20023137D03*
X10135000Y-91143137D03*
X63475000Y-4783137D03*
X2515000Y-22563137D03*
X50775000Y-134323137D03*
X5055000Y-116543137D03*
X50775000Y-42883137D03*
X22835000Y-40343137D03*
X2515000Y-114003137D03*
X66015000Y-103843137D03*
X55855000Y-4783137D03*
X43155000Y-55583137D03*
X30455000Y-121623137D03*
X32995000Y-47963137D03*
X38075000Y-80983137D03*
X50775000Y-144483137D03*
X73635000Y-147023137D03*
X12675000Y-121623137D03*
X83795000Y-101303137D03*
X76175000Y-134323137D03*
X68555000Y-101303137D03*
X15215000Y-50503137D03*
X17755000Y-121623137D03*
X15215000Y-124163137D03*
X45695000Y-80983137D03*
X15215000Y-86063137D03*
X58395000Y-147023137D03*
X76175000Y-45423137D03*
X76175000Y-73363137D03*
X22835000Y-55583137D03*
X15215000Y-20023137D03*
X2515000Y-134323137D03*
X30455000Y-22563137D03*
X73635000Y-22563137D03*
X60935000Y-7323137D03*
X32995000Y-126703137D03*
X86335000Y-131783137D03*
X17755000Y-14943137D03*
X30455000Y-114003137D03*
X50775000Y-83523137D03*
X81255000Y-111463137D03*
X48235000Y-119083137D03*
X22835000Y-91143137D03*
X35535000Y-7323137D03*
X12675000Y-17483137D03*
X88875000Y-80983137D03*
X2515000Y-98763137D03*
X53315000Y-124163137D03*
X10135000Y-116543137D03*
X68555000Y-65743137D03*
X20295000Y-4783137D03*
X12675000Y-119083137D03*
X12675000Y-37803137D03*
X32995000Y-124163137D03*
X43155000Y-101303137D03*
X43155000Y-45423137D03*
X45695000Y-50503137D03*
X27915000Y-111463137D03*
X25375000Y-101303137D03*
X38075000Y-101303137D03*
X2515000Y-58123137D03*
X7595000Y-83523137D03*
X22835000Y-53043137D03*
X20295000Y-111463137D03*
X88875000Y-37803137D03*
X48235000Y-45423137D03*
X53315000Y-126703137D03*
X45695000Y-55583137D03*
X35535000Y-25103137D03*
X5055000Y-55583137D03*
X48235000Y-129243137D03*
X83795000Y-78443137D03*
X48235000Y-14943137D03*
X83795000Y-111463137D03*
X45695000Y-47963137D03*
X20295000Y-131783137D03*
X35535000Y-116543137D03*
X71095000Y-119083137D03*
X63475000Y-136863137D03*
X27915000Y-20023137D03*
X7595000Y-80983137D03*
X45695000Y-12403137D03*
X68555000Y-91143137D03*
X83795000Y-121623137D03*
X25375000Y-88603137D03*
X7595000Y-65743137D03*
X15215000Y-55583137D03*
X66015000Y-121623137D03*
X10135000Y-32723137D03*
X27915000Y-53043137D03*
X43155000Y-2243137D03*
X15215000Y-14943137D03*
X66015000Y-111463137D03*
X27915000Y-91143137D03*
X2515000Y-45423137D03*
X83795000Y-58123137D03*
X30455000Y-111463137D03*
X73635000Y-111463137D03*
X86335000Y-68283137D03*
X15215000Y-126703137D03*
X15215000Y-45423137D03*
X40615000Y-37803137D03*
X43155000Y-9863137D03*
X43155000Y-68283137D03*
X45695000Y-134323137D03*
X30455000Y-40343137D03*
X63475000Y-141943137D03*
X12675000Y-14943137D03*
X25375000Y-83523137D03*
X7595000Y-35263137D03*
X73635000Y-101303137D03*
X35535000Y-88603137D03*
X50775000Y-80983137D03*
X20295000Y-63203137D03*
X27915000Y-25103137D03*
X81255000Y-40343137D03*
X17755000Y-88603137D03*
X50775000Y-129243137D03*
X5055000Y-96223137D03*
X30455000Y-37803137D03*
X17755000Y-144483137D03*
X17755000Y-73363137D03*
X45695000Y-119083137D03*
X45695000Y-40343137D03*
X83795000Y-114003137D03*
X10135000Y-45423137D03*
X27915000Y-68283137D03*
X71095000Y-103843137D03*
X27915000Y-116543137D03*
X58395000Y-2243137D03*
X55855000Y-32723137D03*
X76175000Y-88603137D03*
X71095000Y-106383137D03*
X17755000Y-40343137D03*
D25*
%TO.N,VPBnk*%
X57000000Y-76000000D03*
X51000000Y-60500000D03*
X57500000Y-72000000D03*
X66250000Y-76250000D03*
X56000000Y-78500000D03*
X56000000Y-60500000D03*
D26*
%TO.N,+3V3*%
X67342706Y-79342706D03*
X67500000Y-75000000D03*
%TO.N,VBUS*%
X60500000Y-47500000D03*
X68000000Y-44500000D03*
%TO.N,/G_Q*%
X74000000Y-53500000D03*
X74500000Y-59000000D03*
%TO.N,/CC2*%
X52250000Y-72812500D03*
X55500000Y-70500000D03*
%TO.N,/CC1*%
X54000000Y-74500000D03*
X56100000Y-74924000D03*
D25*
%TO.N,+28V*%
X35500000Y-85500000D03*
X16500000Y-109000000D03*
X40000000Y-109000000D03*
D26*
%TO.N,/FAULT*%
X63000000Y-40000000D03*
X62500000Y-30000000D03*
%TD*%
D28*
%TO.N,ISINKC*%
X70500000Y-73000000D02*
X70500000Y-77500000D01*
%TO.N,ISINKF*%
X66000000Y-44500000D02*
X66000000Y-32500000D01*
X66000000Y-32500000D02*
X61500000Y-28000000D01*
%TO.N,VBMAX*%
X69500000Y-77500000D02*
X69500000Y-74000000D01*
%TO.N,VBMIN*%
X68500000Y-78500000D02*
X68500000Y-78000000D01*
X68448000Y-74052000D02*
X68500000Y-74000000D01*
X68500000Y-78000000D02*
X68448000Y-77948000D01*
X68448000Y-77948000D02*
X68448000Y-74052000D01*
D29*
%TO.N,VPBnk*%
X56000000Y-78500000D02*
X56000000Y-77000000D01*
X56000000Y-77000000D02*
X65500000Y-77000000D01*
X65500000Y-77000000D02*
X66250000Y-76250000D01*
X56000000Y-77000000D02*
X57000000Y-76000000D01*
D30*
X57000000Y-72500000D02*
X57500000Y-72000000D01*
X57000000Y-76000000D02*
X57000000Y-72500000D01*
D29*
X51000000Y-60500000D02*
X56000000Y-60500000D01*
D30*
%TO.N,+3V3*%
X67500000Y-75000000D02*
X67500000Y-79185412D01*
X67500000Y-79185412D02*
X67342706Y-79342706D01*
D29*
%TO.N,VBUS*%
X58300000Y-93500000D02*
X68500000Y-93500000D01*
X56500000Y-95300000D02*
X58300000Y-93500000D01*
D28*
X65000000Y-47500000D02*
X60500000Y-47500000D01*
X68000000Y-44500000D02*
X65000000Y-47500000D01*
D30*
%TO.N,/G_Q*%
X75000000Y-54500000D02*
X74000000Y-53500000D01*
X75000000Y-58500000D02*
X75000000Y-58000000D01*
X74500000Y-59000000D02*
X75000000Y-58500000D01*
X75000000Y-58000000D02*
X75000000Y-54500000D01*
D28*
%TO.N,/CC2*%
X55000000Y-71000000D02*
X55500000Y-70500000D01*
X54062500Y-71000000D02*
X55000000Y-71000000D01*
X52250000Y-72812500D02*
X54062500Y-71000000D01*
%TO.N,/CC1*%
X55576000Y-74924000D02*
X55152000Y-74500000D01*
X55152000Y-74500000D02*
X54000000Y-74500000D01*
X56100000Y-74924000D02*
X55576000Y-74924000D01*
D29*
%TO.N,+28V*%
X37800000Y-85500000D02*
X38800000Y-84500000D01*
X40000000Y-105300000D02*
X40100000Y-105200000D01*
X40000000Y-109000000D02*
X40000000Y-105300000D01*
X16500000Y-105700000D02*
X16000000Y-105200000D01*
X16500000Y-109000000D02*
X16500000Y-105700000D01*
X35500000Y-85500000D02*
X37800000Y-85500000D01*
D28*
%TO.N,/FAULT*%
X63000000Y-30500000D02*
X63000000Y-40000000D01*
X62500000Y-30000000D02*
X63000000Y-30500000D01*
%TD*%
%TA.AperFunction,Conductor*%
%TO.N,GND*%
G36*
X89442539Y-520185D02*
G01*
X89488294Y-572989D01*
X89499500Y-624500D01*
X89499500Y-149375500D01*
X89479815Y-149442539D01*
X89427011Y-149488294D01*
X89375500Y-149499500D01*
X624500Y-149499500D01*
X557461Y-149479815D01*
X511706Y-149427011D01*
X500500Y-149375500D01*
X500500Y-123781669D01*
X1999500Y-123781669D01*
X1999500Y-124218330D01*
X2037557Y-124653320D01*
X2037557Y-124653324D01*
X2113379Y-125083327D01*
X2113383Y-125083344D01*
X2226392Y-125505105D01*
X2375740Y-125915434D01*
X2375746Y-125915449D01*
X2560272Y-126311164D01*
X2560277Y-126311174D01*
X2778603Y-126689326D01*
X2778607Y-126689332D01*
X2778614Y-126689343D01*
X3029057Y-127047013D01*
X3179806Y-127226668D01*
X3309732Y-127381507D01*
X3618493Y-127690268D01*
X3757572Y-127806969D01*
X3952986Y-127970942D01*
X4310656Y-128221385D01*
X4310663Y-128221389D01*
X4310674Y-128221397D01*
X4688826Y-128439723D01*
X4688835Y-128439727D01*
X5084550Y-128624253D01*
X5084555Y-128624255D01*
X5084568Y-128624261D01*
X5494888Y-128773605D01*
X5494889Y-128773605D01*
X5494894Y-128773607D01*
X5612116Y-128805016D01*
X5916663Y-128886619D01*
X6346682Y-128962443D01*
X6781671Y-129000499D01*
X6781672Y-129000500D01*
X6781673Y-129000500D01*
X7218328Y-129000500D01*
X7218328Y-129000499D01*
X7653318Y-128962443D01*
X7660232Y-128961224D01*
X7722099Y-128950315D01*
X8083337Y-128886619D01*
X8505112Y-128773605D01*
X8915432Y-128624261D01*
X9311174Y-128439723D01*
X9689326Y-128221397D01*
X10047012Y-127970943D01*
X10381507Y-127690268D01*
X10690268Y-127381507D01*
X10970943Y-127047012D01*
X11019871Y-126977135D01*
X23924500Y-126977135D01*
X23924500Y-129022870D01*
X23924501Y-129022876D01*
X23930908Y-129082483D01*
X23981202Y-129217328D01*
X23981206Y-129217335D01*
X24067452Y-129332544D01*
X24067455Y-129332547D01*
X24182664Y-129418793D01*
X24182671Y-129418797D01*
X24317517Y-129469091D01*
X24317516Y-129469091D01*
X24324444Y-129469835D01*
X24377127Y-129475500D01*
X26422872Y-129475499D01*
X26482483Y-129469091D01*
X26617331Y-129418796D01*
X26732546Y-129332546D01*
X26818796Y-129217331D01*
X26822834Y-129206505D01*
X26864703Y-129150570D01*
X26930166Y-129126150D01*
X26998440Y-129140999D01*
X27011890Y-129149508D01*
X27166669Y-129261961D01*
X27264436Y-129311776D01*
X27373599Y-129367398D01*
X27373601Y-129367398D01*
X27373604Y-129367400D01*
X27594486Y-129439169D01*
X27712668Y-129457886D01*
X27823871Y-129475500D01*
X27823876Y-129475500D01*
X28056129Y-129475500D01*
X28157502Y-129459443D01*
X28285514Y-129439169D01*
X28506396Y-129367400D01*
X28713331Y-129261961D01*
X28901224Y-129125449D01*
X29065449Y-128961224D01*
X29201961Y-128773331D01*
X29307400Y-128566396D01*
X29379169Y-128345514D01*
X29399443Y-128217502D01*
X29415500Y-128116129D01*
X29415500Y-127883870D01*
X29384836Y-127690268D01*
X29379169Y-127654486D01*
X29307400Y-127433604D01*
X29307398Y-127433601D01*
X29307398Y-127433599D01*
X29251776Y-127324436D01*
X29201961Y-127226669D01*
X29065449Y-127038776D01*
X28901224Y-126874551D01*
X28713331Y-126738039D01*
X28506400Y-126632601D01*
X28285514Y-126560831D01*
X28056129Y-126524500D01*
X28056124Y-126524500D01*
X27823876Y-126524500D01*
X27823871Y-126524500D01*
X27594485Y-126560831D01*
X27373599Y-126632601D01*
X27166665Y-126738041D01*
X27011902Y-126850482D01*
X26946095Y-126873962D01*
X26878042Y-126858136D01*
X26829347Y-126808030D01*
X26822835Y-126793497D01*
X26818797Y-126782671D01*
X26818793Y-126782664D01*
X26732547Y-126667455D01*
X26732544Y-126667452D01*
X26617335Y-126581206D01*
X26617328Y-126581202D01*
X26482482Y-126530908D01*
X26482483Y-126530908D01*
X26422883Y-126524501D01*
X26422881Y-126524500D01*
X26422873Y-126524500D01*
X26422864Y-126524500D01*
X24377129Y-126524500D01*
X24377123Y-126524501D01*
X24317516Y-126530908D01*
X24182671Y-126581202D01*
X24182664Y-126581206D01*
X24067455Y-126667452D01*
X24067452Y-126667455D01*
X23981206Y-126782664D01*
X23981202Y-126782671D01*
X23930908Y-126917517D01*
X23924501Y-126977116D01*
X23924500Y-126977135D01*
X11019871Y-126977135D01*
X11221397Y-126689326D01*
X11439723Y-126311174D01*
X11624261Y-125915432D01*
X11773605Y-125505112D01*
X11886619Y-125083337D01*
X11962443Y-124653318D01*
X12000500Y-124218327D01*
X12000500Y-123781673D01*
X11962443Y-123346682D01*
X11886619Y-122916663D01*
X11877832Y-122883870D01*
X23924500Y-122883870D01*
X23924500Y-123116129D01*
X23960831Y-123345514D01*
X24032601Y-123566400D01*
X24112227Y-123722672D01*
X24138039Y-123773331D01*
X24274551Y-123961224D01*
X24438776Y-124125449D01*
X24626669Y-124261961D01*
X24698852Y-124298740D01*
X24833599Y-124367398D01*
X24833601Y-124367398D01*
X24833604Y-124367400D01*
X25054486Y-124439169D01*
X25172668Y-124457886D01*
X25283871Y-124475500D01*
X25283876Y-124475500D01*
X25516129Y-124475500D01*
X25617502Y-124459443D01*
X25745514Y-124439169D01*
X25966396Y-124367400D01*
X26173331Y-124261961D01*
X26361224Y-124125449D01*
X26525449Y-123961224D01*
X26569682Y-123900341D01*
X26625011Y-123857676D01*
X26694625Y-123851697D01*
X26756420Y-123884302D01*
X26770316Y-123900340D01*
X26814551Y-123961224D01*
X26978776Y-124125449D01*
X27166669Y-124261961D01*
X27238852Y-124298740D01*
X27373599Y-124367398D01*
X27373601Y-124367398D01*
X27373604Y-124367400D01*
X27594486Y-124439169D01*
X27712668Y-124457886D01*
X27823871Y-124475500D01*
X27823876Y-124475500D01*
X28056129Y-124475500D01*
X28157502Y-124459443D01*
X28285514Y-124439169D01*
X28506396Y-124367400D01*
X28713331Y-124261961D01*
X28901224Y-124125449D01*
X29065449Y-123961224D01*
X29195903Y-123781669D01*
X37999500Y-123781669D01*
X37999500Y-124218330D01*
X38037557Y-124653320D01*
X38037557Y-124653324D01*
X38113379Y-125083327D01*
X38113383Y-125083344D01*
X38226392Y-125505105D01*
X38375740Y-125915434D01*
X38375746Y-125915449D01*
X38560272Y-126311164D01*
X38560277Y-126311174D01*
X38778603Y-126689326D01*
X38778607Y-126689332D01*
X38778614Y-126689343D01*
X39029057Y-127047013D01*
X39179806Y-127226668D01*
X39309732Y-127381507D01*
X39618493Y-127690268D01*
X39757572Y-127806969D01*
X39952986Y-127970942D01*
X40310656Y-128221385D01*
X40310663Y-128221389D01*
X40310674Y-128221397D01*
X40688826Y-128439723D01*
X40688835Y-128439727D01*
X41084550Y-128624253D01*
X41084555Y-128624255D01*
X41084568Y-128624261D01*
X41494888Y-128773605D01*
X41494889Y-128773605D01*
X41494894Y-128773607D01*
X41612116Y-128805016D01*
X41916663Y-128886619D01*
X42346682Y-128962443D01*
X42781671Y-129000499D01*
X42781672Y-129000500D01*
X42781673Y-129000500D01*
X43218328Y-129000500D01*
X43218328Y-129000499D01*
X43653318Y-128962443D01*
X43660232Y-128961224D01*
X43722099Y-128950315D01*
X44083337Y-128886619D01*
X44505112Y-128773605D01*
X44915432Y-128624261D01*
X45311174Y-128439723D01*
X45689326Y-128221397D01*
X46047012Y-127970943D01*
X46381507Y-127690268D01*
X46690268Y-127381507D01*
X46970943Y-127047012D01*
X47221397Y-126689326D01*
X47439723Y-126311174D01*
X47624261Y-125915432D01*
X47773605Y-125505112D01*
X47886619Y-125083337D01*
X47962443Y-124653318D01*
X48000500Y-124218327D01*
X48000500Y-123781673D01*
X47962443Y-123346682D01*
X47886619Y-122916663D01*
X47809110Y-122627398D01*
X47773607Y-122494894D01*
X47751299Y-122433604D01*
X47624261Y-122084568D01*
X47602906Y-122038773D01*
X47501235Y-121820740D01*
X47439723Y-121688826D01*
X47221397Y-121310674D01*
X47221389Y-121310663D01*
X47221385Y-121310656D01*
X46970942Y-120952986D01*
X46806969Y-120757572D01*
X46690268Y-120618493D01*
X46381507Y-120309732D01*
X46288787Y-120231930D01*
X46047013Y-120029057D01*
X45689343Y-119778614D01*
X45689332Y-119778607D01*
X45689326Y-119778603D01*
X45576978Y-119713739D01*
X45311180Y-119560280D01*
X45311164Y-119560272D01*
X44915449Y-119375746D01*
X44915434Y-119375740D01*
X44915432Y-119375739D01*
X44761301Y-119319640D01*
X44505105Y-119226392D01*
X44083344Y-119113383D01*
X44083347Y-119113383D01*
X44083337Y-119113381D01*
X44083331Y-119113379D01*
X44083327Y-119113379D01*
X43653322Y-119037557D01*
X43218330Y-118999500D01*
X43218327Y-118999500D01*
X42781673Y-118999500D01*
X42781669Y-118999500D01*
X42346679Y-119037557D01*
X42346675Y-119037557D01*
X41916672Y-119113379D01*
X41916655Y-119113383D01*
X41494894Y-119226392D01*
X41084565Y-119375740D01*
X41084550Y-119375746D01*
X40688835Y-119560272D01*
X40688819Y-119560280D01*
X40310682Y-119778598D01*
X40310656Y-119778614D01*
X39952986Y-120029057D01*
X39618490Y-120309734D01*
X39309734Y-120618490D01*
X39029057Y-120952986D01*
X38778614Y-121310656D01*
X38778598Y-121310682D01*
X38560280Y-121688819D01*
X38560272Y-121688835D01*
X38375746Y-122084550D01*
X38375740Y-122084565D01*
X38226392Y-122494894D01*
X38113383Y-122916655D01*
X38113379Y-122916672D01*
X38037557Y-123346675D01*
X38037557Y-123346679D01*
X37999500Y-123781669D01*
X29195903Y-123781669D01*
X29201961Y-123773331D01*
X29307400Y-123566396D01*
X29379169Y-123345514D01*
X29399443Y-123217502D01*
X29415500Y-123116129D01*
X29415500Y-122883870D01*
X29392976Y-122741660D01*
X29379169Y-122654486D01*
X29307400Y-122433604D01*
X29307398Y-122433601D01*
X29307398Y-122433599D01*
X29238683Y-122298740D01*
X29201961Y-122226669D01*
X29065449Y-122038776D01*
X28901224Y-121874551D01*
X28713331Y-121738039D01*
X28506400Y-121632601D01*
X28285514Y-121560831D01*
X28056129Y-121524500D01*
X28056124Y-121524500D01*
X27823876Y-121524500D01*
X27823871Y-121524500D01*
X27594485Y-121560831D01*
X27373599Y-121632601D01*
X27166668Y-121738039D01*
X26978773Y-121874553D01*
X26814553Y-122038773D01*
X26814553Y-122038774D01*
X26814551Y-122038776D01*
X26770318Y-122099658D01*
X26714988Y-122142323D01*
X26645374Y-122148302D01*
X26583579Y-122115696D01*
X26569682Y-122099658D01*
X26525449Y-122038776D01*
X26361224Y-121874551D01*
X26173331Y-121738039D01*
X25966400Y-121632601D01*
X25745514Y-121560831D01*
X25516129Y-121524500D01*
X25516124Y-121524500D01*
X25283876Y-121524500D01*
X25283871Y-121524500D01*
X25054485Y-121560831D01*
X24833599Y-121632601D01*
X24626668Y-121738039D01*
X24438773Y-121874553D01*
X24274553Y-122038773D01*
X24138039Y-122226668D01*
X24032601Y-122433599D01*
X23960831Y-122654485D01*
X23924500Y-122883870D01*
X11877832Y-122883870D01*
X11816369Y-122654485D01*
X11773607Y-122494894D01*
X11751299Y-122433604D01*
X11624261Y-122084568D01*
X11602906Y-122038773D01*
X11501235Y-121820740D01*
X11439723Y-121688826D01*
X11221397Y-121310674D01*
X11221389Y-121310663D01*
X11221385Y-121310656D01*
X10970942Y-120952986D01*
X10806969Y-120757572D01*
X10690268Y-120618493D01*
X10381507Y-120309732D01*
X10288787Y-120231930D01*
X10047013Y-120029057D01*
X9689343Y-119778614D01*
X9689332Y-119778607D01*
X9689326Y-119778603D01*
X9576978Y-119713739D01*
X9311180Y-119560280D01*
X9311164Y-119560272D01*
X8915449Y-119375746D01*
X8915434Y-119375740D01*
X8915432Y-119375739D01*
X8761301Y-119319640D01*
X8505105Y-119226392D01*
X8083344Y-119113383D01*
X8083347Y-119113383D01*
X8083337Y-119113381D01*
X8083331Y-119113379D01*
X8083327Y-119113379D01*
X7653322Y-119037557D01*
X7218330Y-118999500D01*
X7218327Y-118999500D01*
X6781673Y-118999500D01*
X6781669Y-118999500D01*
X6346679Y-119037557D01*
X6346675Y-119037557D01*
X5916672Y-119113379D01*
X5916655Y-119113383D01*
X5494894Y-119226392D01*
X5084565Y-119375740D01*
X5084550Y-119375746D01*
X4688835Y-119560272D01*
X4688819Y-119560280D01*
X4310682Y-119778598D01*
X4310656Y-119778614D01*
X3952986Y-120029057D01*
X3618490Y-120309734D01*
X3309734Y-120618490D01*
X3029057Y-120952986D01*
X2778614Y-121310656D01*
X2778598Y-121310682D01*
X2560280Y-121688819D01*
X2560272Y-121688835D01*
X2375746Y-122084550D01*
X2375740Y-122084565D01*
X2226392Y-122494894D01*
X2113383Y-122916655D01*
X2113379Y-122916672D01*
X2037557Y-123346675D01*
X2037557Y-123346679D01*
X1999500Y-123781669D01*
X500500Y-123781669D01*
X500500Y-117574425D01*
X55404500Y-117574425D01*
X55404500Y-117825574D01*
X55443785Y-118073614D01*
X55521393Y-118312464D01*
X55635408Y-118536227D01*
X55783014Y-118739393D01*
X55857185Y-118813564D01*
X55890670Y-118874887D01*
X55885686Y-118944578D01*
X55837408Y-119074017D01*
X55831001Y-119133616D01*
X55831001Y-119133623D01*
X55831000Y-119133635D01*
X55831000Y-120566370D01*
X55831001Y-120566376D01*
X55837408Y-120625983D01*
X55887702Y-120760828D01*
X55887706Y-120760835D01*
X55973952Y-120876044D01*
X55973953Y-120876044D01*
X55973954Y-120876046D01*
X56033194Y-120920393D01*
X56063092Y-120942775D01*
X56104962Y-120998709D01*
X56109946Y-121068400D01*
X56089098Y-121114927D01*
X56000181Y-121237309D01*
X55916646Y-121401257D01*
X55859783Y-121576261D01*
X55831000Y-121757993D01*
X55831000Y-121942006D01*
X55859783Y-122123738D01*
X55859784Y-122123742D01*
X55916645Y-122298740D01*
X56000181Y-122462690D01*
X56108337Y-122611553D01*
X56238447Y-122741663D01*
X56238453Y-122741667D01*
X56249487Y-122749685D01*
X56292151Y-122805016D01*
X56298127Y-122874630D01*
X56265519Y-122936424D01*
X56249487Y-122950315D01*
X56238453Y-122958332D01*
X56238444Y-122958339D01*
X56108338Y-123088445D01*
X56000181Y-123237309D01*
X55916646Y-123401257D01*
X55859783Y-123576261D01*
X55831000Y-123757993D01*
X55831000Y-123942006D01*
X55859783Y-124123738D01*
X55859784Y-124123742D01*
X55916645Y-124298740D01*
X56000181Y-124462690D01*
X56108337Y-124611553D01*
X56238447Y-124741663D01*
X56238453Y-124741667D01*
X56249487Y-124749685D01*
X56292151Y-124805016D01*
X56298127Y-124874630D01*
X56265519Y-124936424D01*
X56249487Y-124950315D01*
X56238453Y-124958332D01*
X56238444Y-124958339D01*
X56108338Y-125088445D01*
X56000181Y-125237309D01*
X55916646Y-125401257D01*
X55859783Y-125576261D01*
X55831000Y-125757993D01*
X55831000Y-125942006D01*
X55859783Y-126123738D01*
X55859784Y-126123742D01*
X55916645Y-126298740D01*
X56000181Y-126462690D01*
X56108337Y-126611553D01*
X56238447Y-126741663D01*
X56238453Y-126741667D01*
X56249487Y-126749685D01*
X56292151Y-126805016D01*
X56298127Y-126874630D01*
X56265519Y-126936424D01*
X56249487Y-126950315D01*
X56238453Y-126958332D01*
X56238444Y-126958339D01*
X56108338Y-127088445D01*
X56000181Y-127237309D01*
X55916646Y-127401257D01*
X55859783Y-127576261D01*
X55831000Y-127757993D01*
X55831000Y-127942006D01*
X55858577Y-128116124D01*
X55859784Y-128123742D01*
X55916645Y-128298740D01*
X56000181Y-128462690D01*
X56108337Y-128611553D01*
X56238447Y-128741663D01*
X56238453Y-128741667D01*
X56249487Y-128749685D01*
X56292151Y-128805016D01*
X56298127Y-128874630D01*
X56265519Y-128936424D01*
X56249487Y-128950315D01*
X56238453Y-128958332D01*
X56238444Y-128958339D01*
X56108338Y-129088445D01*
X56000181Y-129237309D01*
X55916646Y-129401257D01*
X55859783Y-129576261D01*
X55831000Y-129757993D01*
X55831000Y-129942006D01*
X55859783Y-130123738D01*
X55916646Y-130298742D01*
X56000181Y-130462690D01*
X56065947Y-130553208D01*
X56089427Y-130619014D01*
X56073602Y-130687068D01*
X56038515Y-130726412D01*
X55960599Y-130783021D01*
X55783014Y-130960606D01*
X55635408Y-131163772D01*
X55521393Y-131387535D01*
X55443785Y-131626385D01*
X55404500Y-131874425D01*
X55404500Y-132125574D01*
X55443785Y-132373614D01*
X55521393Y-132612464D01*
X55635408Y-132836227D01*
X55783014Y-133039393D01*
X55960606Y-133216985D01*
X56150722Y-133355109D01*
X56163776Y-133364594D01*
X56306356Y-133437242D01*
X56387535Y-133478606D01*
X56387537Y-133478606D01*
X56387540Y-133478608D01*
X56515567Y-133520206D01*
X56626385Y-133556214D01*
X56874426Y-133595500D01*
X56874431Y-133595500D01*
X57125574Y-133595500D01*
X57373614Y-133556214D01*
X57612460Y-133478608D01*
X57836224Y-133364594D01*
X57950296Y-133281716D01*
X58039393Y-133216985D01*
X58039395Y-133216982D01*
X58039399Y-133216980D01*
X58216980Y-133039399D01*
X58216982Y-133039395D01*
X58216985Y-133039393D01*
X58281716Y-132950296D01*
X58364594Y-132836224D01*
X58478608Y-132612460D01*
X58556214Y-132373614D01*
X58595500Y-132125574D01*
X58595500Y-131874425D01*
X58556214Y-131626385D01*
X58478606Y-131387535D01*
X58437242Y-131306356D01*
X58364594Y-131163776D01*
X58355109Y-131150722D01*
X58216985Y-130960606D01*
X58039399Y-130783020D01*
X57961484Y-130726411D01*
X57918819Y-130671083D01*
X57912840Y-130601470D01*
X57934053Y-130553208D01*
X57999819Y-130462690D01*
X58083355Y-130298740D01*
X58140216Y-130123742D01*
X58154608Y-130032872D01*
X58169000Y-129942006D01*
X58169000Y-129757993D01*
X58140216Y-129576261D01*
X58140216Y-129576258D01*
X58083355Y-129401260D01*
X57999819Y-129237310D01*
X57891663Y-129088447D01*
X57761553Y-128958337D01*
X57750513Y-128950316D01*
X57707850Y-128894988D01*
X57701871Y-128825374D01*
X57734477Y-128763579D01*
X57750510Y-128749685D01*
X57761553Y-128741663D01*
X57891663Y-128611553D01*
X57999819Y-128462690D01*
X58083355Y-128298740D01*
X58140216Y-128123742D01*
X58154608Y-128032872D01*
X58169000Y-127942006D01*
X58169000Y-127757993D01*
X58140216Y-127576261D01*
X58140216Y-127576258D01*
X58083355Y-127401260D01*
X57999819Y-127237310D01*
X57891663Y-127088447D01*
X57761553Y-126958337D01*
X57750513Y-126950316D01*
X57707850Y-126894988D01*
X57701871Y-126825374D01*
X57734477Y-126763579D01*
X57750510Y-126749685D01*
X57761553Y-126741663D01*
X57891663Y-126611553D01*
X57999819Y-126462690D01*
X58083355Y-126298740D01*
X58140216Y-126123742D01*
X58154608Y-126032872D01*
X58169000Y-125942006D01*
X58169000Y-125757993D01*
X58140216Y-125576261D01*
X58140216Y-125576258D01*
X58083355Y-125401260D01*
X57999819Y-125237310D01*
X57891663Y-125088447D01*
X57761553Y-124958337D01*
X57750513Y-124950316D01*
X57707850Y-124894988D01*
X57701871Y-124825374D01*
X57734477Y-124763579D01*
X57750510Y-124749685D01*
X57761553Y-124741663D01*
X57891663Y-124611553D01*
X57999819Y-124462690D01*
X58083355Y-124298740D01*
X58140216Y-124123742D01*
X58154608Y-124032872D01*
X58169000Y-123942006D01*
X58169000Y-123757993D01*
X58140216Y-123576261D01*
X58140216Y-123576258D01*
X58083355Y-123401260D01*
X57999819Y-123237310D01*
X57891663Y-123088447D01*
X57761553Y-122958337D01*
X57750513Y-122950316D01*
X57707850Y-122894988D01*
X57701871Y-122825374D01*
X57734477Y-122763579D01*
X57750510Y-122749685D01*
X57761553Y-122741663D01*
X57891663Y-122611553D01*
X57999819Y-122462690D01*
X58083355Y-122298740D01*
X58140216Y-122123742D01*
X58154608Y-122032872D01*
X58169000Y-121942006D01*
X58169000Y-121757993D01*
X58140216Y-121576261D01*
X58140216Y-121576258D01*
X58083355Y-121401260D01*
X57999819Y-121237310D01*
X57910900Y-121114924D01*
X57887421Y-121049121D01*
X57903246Y-120981067D01*
X57936906Y-120942776D01*
X58026046Y-120876046D01*
X58112296Y-120760831D01*
X58162591Y-120625983D01*
X58169000Y-120566373D01*
X58168999Y-119133628D01*
X58162591Y-119074017D01*
X58114312Y-118944576D01*
X58109329Y-118874887D01*
X58142814Y-118813564D01*
X58216980Y-118739399D01*
X58364594Y-118536224D01*
X58478608Y-118312460D01*
X58556214Y-118073614D01*
X58595500Y-117825574D01*
X58595500Y-117574425D01*
X75404500Y-117574425D01*
X75404500Y-117825574D01*
X75443785Y-118073614D01*
X75521393Y-118312464D01*
X75635408Y-118536227D01*
X75783014Y-118739393D01*
X75857185Y-118813564D01*
X75890670Y-118874887D01*
X75885686Y-118944578D01*
X75837408Y-119074017D01*
X75831001Y-119133616D01*
X75831001Y-119133623D01*
X75831000Y-119133635D01*
X75831000Y-120566370D01*
X75831001Y-120566376D01*
X75837408Y-120625983D01*
X75887702Y-120760828D01*
X75887706Y-120760835D01*
X75973952Y-120876044D01*
X75973953Y-120876044D01*
X75973954Y-120876046D01*
X76033194Y-120920393D01*
X76063092Y-120942775D01*
X76104962Y-120998709D01*
X76109946Y-121068400D01*
X76089098Y-121114927D01*
X76000181Y-121237309D01*
X75916646Y-121401257D01*
X75859783Y-121576261D01*
X75831000Y-121757993D01*
X75831000Y-121942006D01*
X75859783Y-122123738D01*
X75859784Y-122123742D01*
X75916645Y-122298740D01*
X76000181Y-122462690D01*
X76108337Y-122611553D01*
X76238447Y-122741663D01*
X76238453Y-122741667D01*
X76249487Y-122749685D01*
X76292151Y-122805016D01*
X76298127Y-122874630D01*
X76265519Y-122936424D01*
X76249487Y-122950315D01*
X76238453Y-122958332D01*
X76238444Y-122958339D01*
X76108338Y-123088445D01*
X76000181Y-123237309D01*
X75916646Y-123401257D01*
X75859783Y-123576261D01*
X75831000Y-123757993D01*
X75831000Y-123942006D01*
X75859783Y-124123738D01*
X75859784Y-124123742D01*
X75916645Y-124298740D01*
X76000181Y-124462690D01*
X76108337Y-124611553D01*
X76238447Y-124741663D01*
X76238453Y-124741667D01*
X76249487Y-124749685D01*
X76292151Y-124805016D01*
X76298127Y-124874630D01*
X76265519Y-124936424D01*
X76249487Y-124950315D01*
X76238453Y-124958332D01*
X76238444Y-124958339D01*
X76108338Y-125088445D01*
X76000181Y-125237309D01*
X75916646Y-125401257D01*
X75859783Y-125576261D01*
X75831000Y-125757993D01*
X75831000Y-125942006D01*
X75859783Y-126123738D01*
X75859784Y-126123742D01*
X75916645Y-126298740D01*
X76000181Y-126462690D01*
X76108337Y-126611553D01*
X76238447Y-126741663D01*
X76238453Y-126741667D01*
X76249487Y-126749685D01*
X76292151Y-126805016D01*
X76298127Y-126874630D01*
X76265519Y-126936424D01*
X76249487Y-126950315D01*
X76238453Y-126958332D01*
X76238444Y-126958339D01*
X76108338Y-127088445D01*
X76000181Y-127237309D01*
X75916646Y-127401257D01*
X75859783Y-127576261D01*
X75831000Y-127757993D01*
X75831000Y-127942006D01*
X75858577Y-128116124D01*
X75859784Y-128123742D01*
X75916645Y-128298740D01*
X76000181Y-128462690D01*
X76108337Y-128611553D01*
X76238447Y-128741663D01*
X76238453Y-128741667D01*
X76249487Y-128749685D01*
X76292151Y-128805016D01*
X76298127Y-128874630D01*
X76265519Y-128936424D01*
X76249487Y-128950315D01*
X76238453Y-128958332D01*
X76238444Y-128958339D01*
X76108338Y-129088445D01*
X76000181Y-129237309D01*
X75916646Y-129401257D01*
X75859783Y-129576261D01*
X75831000Y-129757993D01*
X75831000Y-129942006D01*
X75859783Y-130123738D01*
X75916646Y-130298742D01*
X76000181Y-130462690D01*
X76065947Y-130553208D01*
X76089427Y-130619014D01*
X76073602Y-130687068D01*
X76038515Y-130726412D01*
X75960599Y-130783021D01*
X75783014Y-130960606D01*
X75635408Y-131163772D01*
X75521393Y-131387535D01*
X75443785Y-131626385D01*
X75404500Y-131874425D01*
X75404500Y-132125574D01*
X75443785Y-132373614D01*
X75521393Y-132612464D01*
X75635408Y-132836227D01*
X75783014Y-133039393D01*
X75960606Y-133216985D01*
X76150722Y-133355109D01*
X76163776Y-133364594D01*
X76306356Y-133437242D01*
X76387535Y-133478606D01*
X76387537Y-133478606D01*
X76387540Y-133478608D01*
X76515567Y-133520206D01*
X76626385Y-133556214D01*
X76874426Y-133595500D01*
X76874431Y-133595500D01*
X77125574Y-133595500D01*
X77373614Y-133556214D01*
X77612460Y-133478608D01*
X77836224Y-133364594D01*
X77950296Y-133281716D01*
X78039393Y-133216985D01*
X78039395Y-133216982D01*
X78039399Y-133216980D01*
X78216980Y-133039399D01*
X78216982Y-133039395D01*
X78216985Y-133039393D01*
X78281716Y-132950296D01*
X78364594Y-132836224D01*
X78478608Y-132612460D01*
X78556214Y-132373614D01*
X78595500Y-132125574D01*
X78595500Y-131874425D01*
X78556214Y-131626385D01*
X78478606Y-131387535D01*
X78437242Y-131306356D01*
X78364594Y-131163776D01*
X78355109Y-131150722D01*
X78216985Y-130960606D01*
X78039399Y-130783020D01*
X77961484Y-130726411D01*
X77918819Y-130671083D01*
X77912840Y-130601470D01*
X77934053Y-130553208D01*
X77999819Y-130462690D01*
X78083355Y-130298740D01*
X78140216Y-130123742D01*
X78154608Y-130032872D01*
X78169000Y-129942006D01*
X78169000Y-129757993D01*
X78140216Y-129576261D01*
X78140216Y-129576258D01*
X78083355Y-129401260D01*
X77999819Y-129237310D01*
X77891663Y-129088447D01*
X77761553Y-128958337D01*
X77750513Y-128950316D01*
X77707850Y-128894988D01*
X77701871Y-128825374D01*
X77734477Y-128763579D01*
X77750510Y-128749685D01*
X77761553Y-128741663D01*
X77891663Y-128611553D01*
X77999819Y-128462690D01*
X78083355Y-128298740D01*
X78140216Y-128123742D01*
X78154608Y-128032872D01*
X78169000Y-127942006D01*
X78169000Y-127757993D01*
X78140216Y-127576261D01*
X78140216Y-127576258D01*
X78083355Y-127401260D01*
X77999819Y-127237310D01*
X77891663Y-127088447D01*
X77761553Y-126958337D01*
X77750513Y-126950316D01*
X77707850Y-126894988D01*
X77701871Y-126825374D01*
X77734477Y-126763579D01*
X77750510Y-126749685D01*
X77761553Y-126741663D01*
X77891663Y-126611553D01*
X77999819Y-126462690D01*
X78083355Y-126298740D01*
X78140216Y-126123742D01*
X78154608Y-126032872D01*
X78169000Y-125942006D01*
X78169000Y-125757993D01*
X78140216Y-125576261D01*
X78140216Y-125576258D01*
X78083355Y-125401260D01*
X77999819Y-125237310D01*
X77891663Y-125088447D01*
X77761553Y-124958337D01*
X77750513Y-124950316D01*
X77707850Y-124894988D01*
X77701871Y-124825374D01*
X77734477Y-124763579D01*
X77750510Y-124749685D01*
X77761553Y-124741663D01*
X77891663Y-124611553D01*
X77999819Y-124462690D01*
X78083355Y-124298740D01*
X78140216Y-124123742D01*
X78154608Y-124032872D01*
X78169000Y-123942006D01*
X78169000Y-123757993D01*
X78140216Y-123576261D01*
X78140216Y-123576258D01*
X78083355Y-123401260D01*
X77999819Y-123237310D01*
X77891663Y-123088447D01*
X77761553Y-122958337D01*
X77750513Y-122950316D01*
X77707850Y-122894988D01*
X77701871Y-122825374D01*
X77734477Y-122763579D01*
X77750510Y-122749685D01*
X77761553Y-122741663D01*
X77891663Y-122611553D01*
X77999819Y-122462690D01*
X78083355Y-122298740D01*
X78140216Y-122123742D01*
X78154608Y-122032872D01*
X78169000Y-121942006D01*
X78169000Y-121757993D01*
X78140216Y-121576261D01*
X78140216Y-121576258D01*
X78083355Y-121401260D01*
X77999819Y-121237310D01*
X77910900Y-121114924D01*
X77887421Y-121049121D01*
X77903246Y-120981067D01*
X77936906Y-120942776D01*
X78026046Y-120876046D01*
X78112296Y-120760831D01*
X78162591Y-120625983D01*
X78169000Y-120566373D01*
X78168999Y-119133628D01*
X78162591Y-119074017D01*
X78114312Y-118944576D01*
X78109329Y-118874887D01*
X78142814Y-118813564D01*
X78216980Y-118739399D01*
X78364594Y-118536224D01*
X78478608Y-118312460D01*
X78556214Y-118073614D01*
X78595500Y-117825574D01*
X78595500Y-117574425D01*
X78556214Y-117326385D01*
X78478606Y-117087535D01*
X78437242Y-117006356D01*
X78364594Y-116863776D01*
X78355109Y-116850722D01*
X78216985Y-116660606D01*
X78039393Y-116483014D01*
X77836227Y-116335408D01*
X77836226Y-116335407D01*
X77836224Y-116335406D01*
X77766347Y-116299801D01*
X77612464Y-116221393D01*
X77373614Y-116143785D01*
X77125574Y-116104500D01*
X77125569Y-116104500D01*
X76874431Y-116104500D01*
X76874426Y-116104500D01*
X76626385Y-116143785D01*
X76387535Y-116221393D01*
X76163772Y-116335408D01*
X75960606Y-116483014D01*
X75783014Y-116660606D01*
X75635408Y-116863772D01*
X75521393Y-117087535D01*
X75443785Y-117326385D01*
X75404500Y-117574425D01*
X58595500Y-117574425D01*
X58556214Y-117326385D01*
X58478606Y-117087535D01*
X58437242Y-117006356D01*
X58364594Y-116863776D01*
X58355109Y-116850722D01*
X58216985Y-116660606D01*
X58039393Y-116483014D01*
X57836227Y-116335408D01*
X57836226Y-116335407D01*
X57836224Y-116335406D01*
X57766347Y-116299801D01*
X57612464Y-116221393D01*
X57373614Y-116143785D01*
X57125574Y-116104500D01*
X57125569Y-116104500D01*
X56874431Y-116104500D01*
X56874426Y-116104500D01*
X56626385Y-116143785D01*
X56387535Y-116221393D01*
X56163772Y-116335408D01*
X55960606Y-116483014D01*
X55783014Y-116660606D01*
X55635408Y-116863772D01*
X55521393Y-117087535D01*
X55443785Y-117326385D01*
X55404500Y-117574425D01*
X500500Y-117574425D01*
X500500Y-113401577D01*
X33749500Y-113401577D01*
X33749500Y-113598422D01*
X33780290Y-113792826D01*
X33841117Y-113980029D01*
X33930476Y-114155405D01*
X34046172Y-114314646D01*
X34185354Y-114453828D01*
X34344595Y-114569524D01*
X34427455Y-114611743D01*
X34519970Y-114658882D01*
X34519972Y-114658882D01*
X34519975Y-114658884D01*
X34620317Y-114691487D01*
X34707173Y-114719709D01*
X34901578Y-114750500D01*
X34901583Y-114750500D01*
X35098422Y-114750500D01*
X35292826Y-114719709D01*
X35480025Y-114658884D01*
X35655405Y-114569524D01*
X35814646Y-114453828D01*
X35953828Y-114314646D01*
X36069524Y-114155405D01*
X36158884Y-113980025D01*
X36219709Y-113792826D01*
X36250500Y-113598422D01*
X36250500Y-113401577D01*
X36219709Y-113207173D01*
X36158882Y-113019970D01*
X36069523Y-112844594D01*
X35953828Y-112685354D01*
X35814646Y-112546172D01*
X35655405Y-112430476D01*
X35480029Y-112341117D01*
X35292826Y-112280290D01*
X35098422Y-112249500D01*
X35098417Y-112249500D01*
X34901583Y-112249500D01*
X34901578Y-112249500D01*
X34707173Y-112280290D01*
X34519970Y-112341117D01*
X34344594Y-112430476D01*
X34253741Y-112496485D01*
X34185354Y-112546172D01*
X34185352Y-112546174D01*
X34185351Y-112546174D01*
X34046174Y-112685351D01*
X34046174Y-112685352D01*
X34046172Y-112685354D01*
X33996485Y-112753741D01*
X33930476Y-112844594D01*
X33841117Y-113019970D01*
X33780290Y-113207173D01*
X33749500Y-113401577D01*
X500500Y-113401577D01*
X500500Y-103199983D01*
X14249500Y-103199983D01*
X14249500Y-107200001D01*
X14249501Y-107200018D01*
X14260000Y-107302796D01*
X14260001Y-107302799D01*
X14284423Y-107376499D01*
X14315186Y-107469334D01*
X14407288Y-107618656D01*
X14531344Y-107742712D01*
X14680666Y-107834814D01*
X14847203Y-107889999D01*
X14949991Y-107900500D01*
X15375500Y-107900499D01*
X15384186Y-107903049D01*
X15393147Y-107901761D01*
X15417183Y-107912738D01*
X15442539Y-107920183D01*
X15448467Y-107927025D01*
X15456703Y-107930786D01*
X15470989Y-107953017D01*
X15488294Y-107972987D01*
X15490581Y-107983502D01*
X15494477Y-107989564D01*
X15499500Y-108024499D01*
X15499500Y-108209301D01*
X15479815Y-108276340D01*
X15475818Y-108282186D01*
X15430478Y-108344591D01*
X15341117Y-108519970D01*
X15280290Y-108707173D01*
X15249500Y-108901577D01*
X15249500Y-109098422D01*
X15280290Y-109292826D01*
X15341117Y-109480029D01*
X15430476Y-109655405D01*
X15546172Y-109814646D01*
X15685354Y-109953828D01*
X15844595Y-110069524D01*
X15927455Y-110111743D01*
X16019970Y-110158882D01*
X16019972Y-110158882D01*
X16019975Y-110158884D01*
X16120317Y-110191487D01*
X16207173Y-110219709D01*
X16401578Y-110250500D01*
X16401583Y-110250500D01*
X16598422Y-110250500D01*
X16792826Y-110219709D01*
X16980025Y-110158884D01*
X17155405Y-110069524D01*
X17314646Y-109953828D01*
X17453828Y-109814646D01*
X17569524Y-109655405D01*
X17658884Y-109480025D01*
X17719709Y-109292826D01*
X17750500Y-109098422D01*
X17750500Y-108901577D01*
X17719709Y-108707173D01*
X17658882Y-108519970D01*
X17585816Y-108376571D01*
X17569524Y-108344595D01*
X17565547Y-108339121D01*
X17524182Y-108282186D01*
X17500702Y-108216380D01*
X17500500Y-108209301D01*
X17500500Y-107762230D01*
X17520185Y-107695191D01*
X17536819Y-107674549D01*
X17592712Y-107618656D01*
X17684814Y-107469334D01*
X17739999Y-107302797D01*
X17750500Y-107200009D01*
X17750499Y-103199992D01*
X17750498Y-103199983D01*
X38349500Y-103199983D01*
X38349500Y-107200001D01*
X38349501Y-107200018D01*
X38360000Y-107302796D01*
X38360001Y-107302799D01*
X38384423Y-107376499D01*
X38415186Y-107469334D01*
X38507288Y-107618656D01*
X38631344Y-107742712D01*
X38780666Y-107834814D01*
X38914505Y-107879164D01*
X38934536Y-107893033D01*
X38956703Y-107903156D01*
X38962751Y-107912568D01*
X38971949Y-107918936D01*
X38981303Y-107941435D01*
X38994477Y-107961934D01*
X38996935Y-107979034D01*
X38998772Y-107983451D01*
X38999500Y-107996869D01*
X38999500Y-108209301D01*
X38979815Y-108276340D01*
X38975818Y-108282186D01*
X38930478Y-108344591D01*
X38841117Y-108519970D01*
X38780290Y-108707173D01*
X38749500Y-108901577D01*
X38749500Y-109098422D01*
X38780290Y-109292826D01*
X38841117Y-109480029D01*
X38930476Y-109655405D01*
X39046172Y-109814646D01*
X39185354Y-109953828D01*
X39344595Y-110069524D01*
X39427455Y-110111743D01*
X39519970Y-110158882D01*
X39519972Y-110158882D01*
X39519975Y-110158884D01*
X39620317Y-110191487D01*
X39707173Y-110219709D01*
X39901578Y-110250500D01*
X39901583Y-110250500D01*
X40098422Y-110250500D01*
X40292826Y-110219709D01*
X40480025Y-110158884D01*
X40655405Y-110069524D01*
X40814646Y-109953828D01*
X40953828Y-109814646D01*
X41069524Y-109655405D01*
X41158884Y-109480025D01*
X41219709Y-109292826D01*
X41250500Y-109098422D01*
X41250500Y-108901577D01*
X41219709Y-108707173D01*
X41158882Y-108519970D01*
X41085816Y-108376571D01*
X41069524Y-108344595D01*
X41065547Y-108339121D01*
X41024182Y-108282186D01*
X41017029Y-108262141D01*
X41005523Y-108244236D01*
X41002068Y-108220209D01*
X41000702Y-108216380D01*
X41000500Y-108209301D01*
X41000500Y-108024499D01*
X41020185Y-107957460D01*
X41072989Y-107911705D01*
X41124500Y-107900499D01*
X41150002Y-107900499D01*
X41150008Y-107900499D01*
X41200502Y-107895341D01*
X41227727Y-107892560D01*
X41238276Y-107891482D01*
X41252797Y-107889999D01*
X41419334Y-107834814D01*
X41568656Y-107742712D01*
X41692712Y-107618656D01*
X41784814Y-107469334D01*
X41839999Y-107302797D01*
X41850500Y-107200009D01*
X41850500Y-105699986D01*
X54750001Y-105699986D01*
X54760494Y-105802697D01*
X54815641Y-105969119D01*
X54815643Y-105969124D01*
X54907684Y-106118345D01*
X55031654Y-106242315D01*
X55180875Y-106334356D01*
X55180880Y-106334358D01*
X55347302Y-106389505D01*
X55347309Y-106389506D01*
X55450019Y-106399999D01*
X56249999Y-106399999D01*
X56750000Y-106399999D01*
X57549972Y-106399999D01*
X57549986Y-106399998D01*
X57652697Y-106389505D01*
X57710412Y-106370380D01*
X66147500Y-106370380D01*
X66147500Y-106629619D01*
X66181336Y-106886617D01*
X66248428Y-107137012D01*
X66347627Y-107376499D01*
X66347632Y-107376510D01*
X66477236Y-107600989D01*
X66477242Y-107600997D01*
X66561127Y-107710318D01*
X67273240Y-106998205D01*
X67359901Y-107127901D01*
X67497099Y-107265099D01*
X67626793Y-107351758D01*
X66914680Y-108063870D01*
X66914680Y-108063871D01*
X67024002Y-108147757D01*
X67024010Y-108147763D01*
X67248489Y-108277367D01*
X67248500Y-108277372D01*
X67487987Y-108376571D01*
X67738382Y-108443663D01*
X67995380Y-108477499D01*
X67995395Y-108477500D01*
X68254605Y-108477500D01*
X68254619Y-108477499D01*
X68511617Y-108443663D01*
X68762012Y-108376571D01*
X69001499Y-108277372D01*
X69001510Y-108277367D01*
X69226003Y-108147755D01*
X69335318Y-108063873D01*
X69335318Y-108063870D01*
X68623206Y-107351758D01*
X68752901Y-107265099D01*
X68890099Y-107127901D01*
X68976758Y-106998206D01*
X69688870Y-107710318D01*
X69688873Y-107710318D01*
X69772755Y-107601003D01*
X69902367Y-107376510D01*
X69902372Y-107376499D01*
X70001571Y-107137012D01*
X70068663Y-106886617D01*
X70102499Y-106629619D01*
X70102500Y-106629605D01*
X70102500Y-106370394D01*
X70102499Y-106370380D01*
X81647500Y-106370380D01*
X81647500Y-106629619D01*
X81681336Y-106886617D01*
X81748428Y-107137012D01*
X81847627Y-107376499D01*
X81847632Y-107376510D01*
X81977236Y-107600989D01*
X81977242Y-107600997D01*
X82061127Y-107710318D01*
X82773240Y-106998205D01*
X82859901Y-107127901D01*
X82997099Y-107265099D01*
X83126793Y-107351758D01*
X82414680Y-108063870D01*
X82414680Y-108063871D01*
X82524002Y-108147757D01*
X82524010Y-108147763D01*
X82748489Y-108277367D01*
X82748500Y-108277372D01*
X82987987Y-108376571D01*
X83238382Y-108443663D01*
X83495380Y-108477499D01*
X83495395Y-108477500D01*
X83754605Y-108477500D01*
X83754619Y-108477499D01*
X84011617Y-108443663D01*
X84262012Y-108376571D01*
X84501499Y-108277372D01*
X84501510Y-108277367D01*
X84726003Y-108147755D01*
X84835318Y-108063873D01*
X84835318Y-108063870D01*
X84123206Y-107351758D01*
X84252901Y-107265099D01*
X84390099Y-107127901D01*
X84476758Y-106998206D01*
X85188870Y-107710318D01*
X85188873Y-107710318D01*
X85272755Y-107601003D01*
X85402367Y-107376510D01*
X85402372Y-107376499D01*
X85501571Y-107137012D01*
X85568663Y-106886617D01*
X85602499Y-106629619D01*
X85602500Y-106629605D01*
X85602500Y-106370394D01*
X85602499Y-106370380D01*
X85568663Y-106113382D01*
X85501571Y-105862987D01*
X85402372Y-105623500D01*
X85402367Y-105623489D01*
X85272763Y-105399010D01*
X85272757Y-105399002D01*
X85188871Y-105289680D01*
X85188870Y-105289680D01*
X84476758Y-106001793D01*
X84390099Y-105872099D01*
X84252901Y-105734901D01*
X84123204Y-105648240D01*
X84835318Y-104936127D01*
X84725997Y-104852242D01*
X84725989Y-104852236D01*
X84501510Y-104722632D01*
X84501499Y-104722627D01*
X84262012Y-104623428D01*
X84011617Y-104556336D01*
X83754619Y-104522500D01*
X83495380Y-104522500D01*
X83238382Y-104556336D01*
X82987987Y-104623428D01*
X82748500Y-104722627D01*
X82748489Y-104722632D01*
X82524010Y-104852236D01*
X82523993Y-104852247D01*
X82414680Y-104936126D01*
X82414680Y-104936127D01*
X83126794Y-105648241D01*
X82997099Y-105734901D01*
X82859901Y-105872099D01*
X82773241Y-106001794D01*
X82061127Y-105289680D01*
X82061126Y-105289680D01*
X81977247Y-105398993D01*
X81977236Y-105399010D01*
X81847632Y-105623489D01*
X81847627Y-105623500D01*
X81748428Y-105862987D01*
X81681336Y-106113382D01*
X81647500Y-106370380D01*
X70102499Y-106370380D01*
X70068663Y-106113382D01*
X70001571Y-105862987D01*
X69902372Y-105623500D01*
X69902367Y-105623489D01*
X69772763Y-105399010D01*
X69772757Y-105399002D01*
X69688871Y-105289680D01*
X69688870Y-105289680D01*
X68976758Y-106001793D01*
X68890099Y-105872099D01*
X68752901Y-105734901D01*
X68623204Y-105648240D01*
X69335318Y-104936127D01*
X69225997Y-104852242D01*
X69225989Y-104852236D01*
X69001510Y-104722632D01*
X69001499Y-104722627D01*
X68762012Y-104623428D01*
X68511617Y-104556336D01*
X68254619Y-104522500D01*
X67995380Y-104522500D01*
X67738382Y-104556336D01*
X67487987Y-104623428D01*
X67248500Y-104722627D01*
X67248489Y-104722632D01*
X67024010Y-104852236D01*
X67023993Y-104852247D01*
X66914680Y-104936126D01*
X66914680Y-104936127D01*
X67626794Y-105648241D01*
X67497099Y-105734901D01*
X67359901Y-105872099D01*
X67273241Y-106001794D01*
X66561127Y-105289680D01*
X66561126Y-105289680D01*
X66477247Y-105398993D01*
X66477236Y-105399010D01*
X66347632Y-105623489D01*
X66347627Y-105623500D01*
X66248428Y-105862987D01*
X66181336Y-106113382D01*
X66147500Y-106370380D01*
X57710412Y-106370380D01*
X57819119Y-106334358D01*
X57819124Y-106334356D01*
X57938394Y-106260790D01*
X57938397Y-106260789D01*
X57968340Y-106242319D01*
X57968344Y-106242316D01*
X58092315Y-106118345D01*
X58184356Y-105969124D01*
X58184358Y-105969119D01*
X58239505Y-105802697D01*
X58239506Y-105802690D01*
X58249999Y-105699986D01*
X58250000Y-105699973D01*
X58250000Y-103950000D01*
X56750000Y-103950000D01*
X56750000Y-106399999D01*
X56249999Y-106399999D01*
X56250000Y-106399998D01*
X56250000Y-103950000D01*
X54750001Y-103950000D01*
X54750001Y-105699986D01*
X41850500Y-105699986D01*
X41850499Y-103199992D01*
X41839999Y-103097203D01*
X41784814Y-102930666D01*
X41692712Y-102781344D01*
X41568656Y-102657288D01*
X41419334Y-102565186D01*
X41252797Y-102510001D01*
X41252795Y-102510000D01*
X41150010Y-102499500D01*
X39049998Y-102499500D01*
X39049981Y-102499501D01*
X38947203Y-102510000D01*
X38947200Y-102510001D01*
X38780668Y-102565185D01*
X38780663Y-102565187D01*
X38631342Y-102657289D01*
X38507289Y-102781342D01*
X38415187Y-102930663D01*
X38415186Y-102930666D01*
X38360001Y-103097203D01*
X38360001Y-103097204D01*
X38360000Y-103097204D01*
X38349500Y-103199983D01*
X17750498Y-103199983D01*
X17739999Y-103097203D01*
X17684814Y-102930666D01*
X17592712Y-102781344D01*
X17468656Y-102657288D01*
X17319334Y-102565186D01*
X17152797Y-102510001D01*
X17152795Y-102510000D01*
X17050010Y-102499500D01*
X14949998Y-102499500D01*
X14949981Y-102499501D01*
X14847203Y-102510000D01*
X14847200Y-102510001D01*
X14680668Y-102565185D01*
X14680663Y-102565187D01*
X14531342Y-102657289D01*
X14407289Y-102781342D01*
X14315187Y-102930663D01*
X14315186Y-102930666D01*
X14260001Y-103097203D01*
X14260001Y-103097204D01*
X14260000Y-103097204D01*
X14249500Y-103199983D01*
X500500Y-103199983D01*
X500500Y-101700013D01*
X54750000Y-101700013D01*
X54750000Y-103450000D01*
X56250000Y-103450000D01*
X56750000Y-103450000D01*
X58249999Y-103450000D01*
X58249999Y-101700028D01*
X58249998Y-101700013D01*
X58239505Y-101597302D01*
X58184358Y-101430880D01*
X58184356Y-101430875D01*
X58092315Y-101281654D01*
X57968345Y-101157684D01*
X57819124Y-101065643D01*
X57819119Y-101065641D01*
X57652697Y-101010494D01*
X57652690Y-101010493D01*
X57549986Y-101000000D01*
X56750000Y-101000000D01*
X56750000Y-103450000D01*
X56250000Y-103450000D01*
X56250000Y-101000000D01*
X55450028Y-101000000D01*
X55450012Y-101000001D01*
X55347302Y-101010494D01*
X55180880Y-101065641D01*
X55180875Y-101065643D01*
X55031654Y-101157684D01*
X54907684Y-101281654D01*
X54815643Y-101430875D01*
X54815641Y-101430880D01*
X54760494Y-101597302D01*
X54760493Y-101597309D01*
X54750000Y-101700013D01*
X500500Y-101700013D01*
X500500Y-98799986D01*
X14250001Y-98799986D01*
X14260494Y-98902697D01*
X14315641Y-99069119D01*
X14315643Y-99069124D01*
X14407684Y-99218345D01*
X14531654Y-99342315D01*
X14680875Y-99434356D01*
X14680880Y-99434358D01*
X14847302Y-99489505D01*
X14847309Y-99489506D01*
X14950019Y-99499999D01*
X15749999Y-99499999D01*
X16250000Y-99499999D01*
X17049972Y-99499999D01*
X17049986Y-99499998D01*
X17152697Y-99489505D01*
X17319119Y-99434358D01*
X17319124Y-99434356D01*
X17468345Y-99342315D01*
X17592315Y-99218345D01*
X17684356Y-99069124D01*
X17684358Y-99069119D01*
X17739505Y-98902697D01*
X17739506Y-98902690D01*
X17749999Y-98799986D01*
X38350001Y-98799986D01*
X38360494Y-98902697D01*
X38415641Y-99069119D01*
X38415643Y-99069124D01*
X38507684Y-99218345D01*
X38631654Y-99342315D01*
X38780875Y-99434356D01*
X38780880Y-99434358D01*
X38947302Y-99489505D01*
X38947309Y-99489506D01*
X39050019Y-99499999D01*
X39849999Y-99499999D01*
X40350000Y-99499999D01*
X41149972Y-99499999D01*
X41149986Y-99499998D01*
X41252697Y-99489505D01*
X41419119Y-99434358D01*
X41419124Y-99434356D01*
X41568345Y-99342315D01*
X41692315Y-99218345D01*
X41784356Y-99069124D01*
X41784358Y-99069119D01*
X41839505Y-98902697D01*
X41839506Y-98902690D01*
X41849999Y-98799986D01*
X41850000Y-98799973D01*
X41850000Y-97050000D01*
X40350000Y-97050000D01*
X40350000Y-99499999D01*
X39849999Y-99499999D01*
X39850000Y-99499998D01*
X39850000Y-97050000D01*
X38350001Y-97050000D01*
X38350001Y-98799986D01*
X17749999Y-98799986D01*
X17750000Y-98799973D01*
X17750000Y-97050000D01*
X16250000Y-97050000D01*
X16250000Y-99499999D01*
X15749999Y-99499999D01*
X15750000Y-99499998D01*
X15750000Y-97050000D01*
X14250001Y-97050000D01*
X14250001Y-98799986D01*
X500500Y-98799986D01*
X500500Y-94800013D01*
X14250000Y-94800013D01*
X14250000Y-96550000D01*
X15750000Y-96550000D01*
X16250000Y-96550000D01*
X17749999Y-96550000D01*
X17749999Y-94800029D01*
X17749998Y-94800013D01*
X38350000Y-94800013D01*
X38350000Y-96550000D01*
X39850000Y-96550000D01*
X40350000Y-96550000D01*
X41849999Y-96550000D01*
X41849999Y-94800028D01*
X41849998Y-94800013D01*
X41839505Y-94697302D01*
X41784358Y-94530880D01*
X41784356Y-94530875D01*
X41692315Y-94381654D01*
X41568345Y-94257684D01*
X41419124Y-94165643D01*
X41419119Y-94165641D01*
X41252697Y-94110494D01*
X41252690Y-94110493D01*
X41149986Y-94100000D01*
X40350000Y-94100000D01*
X40350000Y-96550000D01*
X39850000Y-96550000D01*
X39850000Y-94100000D01*
X39050028Y-94100000D01*
X39050012Y-94100001D01*
X38947302Y-94110494D01*
X38780880Y-94165641D01*
X38780875Y-94165643D01*
X38631654Y-94257684D01*
X38507684Y-94381654D01*
X38415643Y-94530875D01*
X38415641Y-94530880D01*
X38360494Y-94697302D01*
X38360493Y-94697309D01*
X38350000Y-94800013D01*
X17749998Y-94800013D01*
X17749998Y-94800012D01*
X17739505Y-94697302D01*
X17684358Y-94530880D01*
X17684356Y-94530875D01*
X17592315Y-94381654D01*
X17468345Y-94257684D01*
X17319124Y-94165643D01*
X17319119Y-94165641D01*
X17152697Y-94110494D01*
X17152690Y-94110493D01*
X17049986Y-94100000D01*
X16250000Y-94100000D01*
X16250000Y-96550000D01*
X15750000Y-96550000D01*
X15750000Y-94100000D01*
X14950028Y-94100000D01*
X14950012Y-94100001D01*
X14847302Y-94110494D01*
X14680880Y-94165641D01*
X14680875Y-94165643D01*
X14531654Y-94257684D01*
X14407684Y-94381654D01*
X14315643Y-94530875D01*
X14315641Y-94530880D01*
X14260494Y-94697302D01*
X14260493Y-94697309D01*
X14250000Y-94800013D01*
X500500Y-94800013D01*
X500500Y-93299983D01*
X54749500Y-93299983D01*
X54749500Y-97300001D01*
X54749501Y-97300018D01*
X54760000Y-97402796D01*
X54760001Y-97402799D01*
X54815185Y-97569331D01*
X54815186Y-97569334D01*
X54907288Y-97718656D01*
X55031344Y-97842712D01*
X55180666Y-97934814D01*
X55347203Y-97989999D01*
X55449991Y-98000500D01*
X57550008Y-98000499D01*
X57652797Y-97989999D01*
X57819334Y-97934814D01*
X57968656Y-97842712D01*
X58092712Y-97718656D01*
X58184814Y-97569334D01*
X58239999Y-97402797D01*
X58250500Y-97300009D01*
X58250499Y-95015782D01*
X58270184Y-94948744D01*
X58286818Y-94928102D01*
X58678102Y-94536819D01*
X58739425Y-94503334D01*
X58765783Y-94500500D01*
X66722050Y-94500500D01*
X66789089Y-94520185D01*
X66829437Y-94562501D01*
X66851815Y-94601263D01*
X66851820Y-94601269D01*
X66851824Y-94601276D01*
X67004333Y-94800029D01*
X67009674Y-94806989D01*
X67193010Y-94990325D01*
X67193014Y-94990328D01*
X67193016Y-94990330D01*
X67398724Y-95148176D01*
X67623276Y-95277821D01*
X67782978Y-95343971D01*
X67862826Y-95377046D01*
X67862827Y-95377046D01*
X67862829Y-95377047D01*
X68113283Y-95444156D01*
X68370355Y-95478000D01*
X68370362Y-95478000D01*
X68629638Y-95478000D01*
X68629645Y-95478000D01*
X68886717Y-95444156D01*
X69137171Y-95377047D01*
X69376724Y-95277821D01*
X69601276Y-95148176D01*
X69806984Y-94990330D01*
X69990330Y-94806984D01*
X70148176Y-94601276D01*
X70277821Y-94376724D01*
X70377047Y-94137171D01*
X70444156Y-93886717D01*
X70478000Y-93629645D01*
X70478000Y-93370361D01*
X82022000Y-93370361D01*
X82022000Y-93629638D01*
X82022001Y-93629655D01*
X82055843Y-93886715D01*
X82122953Y-94137173D01*
X82134746Y-94165643D01*
X82222179Y-94376724D01*
X82351824Y-94601276D01*
X82504333Y-94800029D01*
X82509674Y-94806989D01*
X82693010Y-94990325D01*
X82693014Y-94990328D01*
X82693016Y-94990330D01*
X82898724Y-95148176D01*
X83123276Y-95277821D01*
X83282978Y-95343971D01*
X83362826Y-95377046D01*
X83362827Y-95377046D01*
X83362829Y-95377047D01*
X83613283Y-95444156D01*
X83870355Y-95478000D01*
X83870362Y-95478000D01*
X84129638Y-95478000D01*
X84129645Y-95478000D01*
X84386717Y-95444156D01*
X84637171Y-95377047D01*
X84876724Y-95277821D01*
X85101276Y-95148176D01*
X85306984Y-94990330D01*
X85490330Y-94806984D01*
X85648176Y-94601276D01*
X85777821Y-94376724D01*
X85877047Y-94137171D01*
X85944156Y-93886717D01*
X85978000Y-93629645D01*
X85978000Y-93370355D01*
X85944156Y-93113283D01*
X85877047Y-92862829D01*
X85777821Y-92623276D01*
X85648176Y-92398724D01*
X85490330Y-92193016D01*
X85490328Y-92193014D01*
X85490325Y-92193010D01*
X85306989Y-92009674D01*
X85306984Y-92009670D01*
X85101276Y-91851824D01*
X84876724Y-91722179D01*
X84876717Y-91722176D01*
X84637173Y-91622953D01*
X84386715Y-91555843D01*
X84129655Y-91522001D01*
X84129650Y-91522000D01*
X84129645Y-91522000D01*
X83870355Y-91522000D01*
X83870349Y-91522000D01*
X83870344Y-91522001D01*
X83613284Y-91555843D01*
X83362826Y-91622953D01*
X83123282Y-91722176D01*
X83123273Y-91722180D01*
X82898730Y-91851820D01*
X82898723Y-91851825D01*
X82693010Y-92009674D01*
X82509674Y-92193010D01*
X82351825Y-92398723D01*
X82351820Y-92398730D01*
X82222180Y-92623273D01*
X82222176Y-92623282D01*
X82122953Y-92862826D01*
X82055843Y-93113284D01*
X82022001Y-93370344D01*
X82022000Y-93370361D01*
X70478000Y-93370361D01*
X70478000Y-93370355D01*
X70444156Y-93113283D01*
X70377047Y-92862829D01*
X70277821Y-92623276D01*
X70148176Y-92398724D01*
X69990330Y-92193016D01*
X69990328Y-92193014D01*
X69990325Y-92193010D01*
X69806989Y-92009674D01*
X69806984Y-92009670D01*
X69601276Y-91851824D01*
X69376724Y-91722179D01*
X69376717Y-91722176D01*
X69137173Y-91622953D01*
X68886715Y-91555843D01*
X68629655Y-91522001D01*
X68629650Y-91522000D01*
X68629645Y-91522000D01*
X68370355Y-91522000D01*
X68370349Y-91522000D01*
X68370344Y-91522001D01*
X68113284Y-91555843D01*
X67862826Y-91622953D01*
X67623282Y-91722176D01*
X67623273Y-91722180D01*
X67398730Y-91851820D01*
X67398723Y-91851825D01*
X67193010Y-92009674D01*
X67009674Y-92193010D01*
X66851825Y-92398723D01*
X66851815Y-92398736D01*
X66829437Y-92437499D01*
X66778871Y-92485715D01*
X66722050Y-92499500D01*
X58201456Y-92499500D01*
X58008171Y-92537946D01*
X58008167Y-92537948D01*
X58008165Y-92537948D01*
X58008164Y-92537949D01*
X57932745Y-92569188D01*
X57932743Y-92569189D01*
X57826084Y-92613368D01*
X57826083Y-92613370D01*
X57826068Y-92613380D01*
X57822367Y-92615852D01*
X57755686Y-92636719D01*
X57714491Y-92630444D01*
X57652799Y-92610001D01*
X57652795Y-92610000D01*
X57550010Y-92599500D01*
X55449998Y-92599500D01*
X55449981Y-92599501D01*
X55347203Y-92610000D01*
X55347200Y-92610001D01*
X55180668Y-92665185D01*
X55180663Y-92665187D01*
X55031342Y-92757289D01*
X54907289Y-92881342D01*
X54815187Y-93030663D01*
X54815186Y-93030666D01*
X54760001Y-93197203D01*
X54760001Y-93197204D01*
X54760000Y-93197204D01*
X54749500Y-93299983D01*
X500500Y-93299983D01*
X500500Y-85401577D01*
X34249500Y-85401577D01*
X34249500Y-85598422D01*
X34280290Y-85792826D01*
X34341117Y-85980029D01*
X34430476Y-86155405D01*
X34546172Y-86314646D01*
X34685354Y-86453828D01*
X34844595Y-86569524D01*
X34927455Y-86611743D01*
X35019970Y-86658882D01*
X35019972Y-86658882D01*
X35019975Y-86658884D01*
X35120317Y-86691487D01*
X35207173Y-86719709D01*
X35401578Y-86750500D01*
X35401583Y-86750500D01*
X35598422Y-86750500D01*
X35792826Y-86719709D01*
X35980025Y-86658884D01*
X36155405Y-86569524D01*
X36183896Y-86548823D01*
X36217814Y-86524182D01*
X36283620Y-86500702D01*
X36290699Y-86500500D01*
X37898542Y-86500500D01*
X37929566Y-86494328D01*
X37995188Y-86481275D01*
X38091836Y-86462051D01*
X38145165Y-86439961D01*
X38273914Y-86386632D01*
X38437782Y-86277139D01*
X38437781Y-86277139D01*
X38442847Y-86273755D01*
X38443867Y-86275282D01*
X38500251Y-86251333D01*
X38514611Y-86250499D01*
X40800002Y-86250499D01*
X40800008Y-86250499D01*
X40902797Y-86239999D01*
X41069334Y-86184814D01*
X41218656Y-86092712D01*
X41342712Y-85968656D01*
X41434814Y-85819334D01*
X41489999Y-85652797D01*
X41500500Y-85550009D01*
X41500500Y-85549986D01*
X44500001Y-85549986D01*
X44510494Y-85652697D01*
X44565641Y-85819119D01*
X44565643Y-85819124D01*
X44657684Y-85968345D01*
X44781654Y-86092315D01*
X44930875Y-86184356D01*
X44930880Y-86184358D01*
X45097302Y-86239505D01*
X45097309Y-86239506D01*
X45200019Y-86249999D01*
X46949999Y-86249999D01*
X47450000Y-86249999D01*
X49199972Y-86249999D01*
X49199986Y-86249998D01*
X49302697Y-86239505D01*
X49469119Y-86184358D01*
X49469124Y-86184356D01*
X49618345Y-86092315D01*
X49742315Y-85968345D01*
X49834356Y-85819124D01*
X49834358Y-85819119D01*
X49889505Y-85652697D01*
X49889506Y-85652690D01*
X49899999Y-85549986D01*
X49900000Y-85549973D01*
X49900000Y-84750000D01*
X47450000Y-84750000D01*
X47450000Y-86249999D01*
X46949999Y-86249999D01*
X46950000Y-86249998D01*
X46950000Y-84750000D01*
X44500001Y-84750000D01*
X44500001Y-85549986D01*
X41500500Y-85549986D01*
X41500499Y-84430476D01*
X41500499Y-83450013D01*
X44500000Y-83450013D01*
X44500000Y-84250000D01*
X46950000Y-84250000D01*
X47450000Y-84250000D01*
X49899999Y-84250000D01*
X49899999Y-83450028D01*
X49899998Y-83450013D01*
X49893994Y-83391240D01*
X49893994Y-83391239D01*
X49889505Y-83347303D01*
X49834358Y-83180880D01*
X49834356Y-83180875D01*
X49742315Y-83031654D01*
X49618345Y-82907684D01*
X49469124Y-82815643D01*
X49469119Y-82815641D01*
X49302697Y-82760494D01*
X49302690Y-82760493D01*
X49199986Y-82750000D01*
X47450000Y-82750000D01*
X47450000Y-84250000D01*
X46950000Y-84250000D01*
X46950000Y-82750000D01*
X45200028Y-82750000D01*
X45200012Y-82750001D01*
X45097302Y-82760494D01*
X44930880Y-82815641D01*
X44930875Y-82815643D01*
X44781654Y-82907684D01*
X44657684Y-83031654D01*
X44565643Y-83180875D01*
X44565641Y-83180880D01*
X44510494Y-83347302D01*
X44510493Y-83347309D01*
X44500000Y-83450013D01*
X41500499Y-83450013D01*
X41500499Y-83449998D01*
X41500498Y-83449981D01*
X41489999Y-83347203D01*
X41489998Y-83347200D01*
X41455807Y-83244019D01*
X41434814Y-83180666D01*
X41342712Y-83031344D01*
X41218656Y-82907288D01*
X41069334Y-82815186D01*
X40902797Y-82760001D01*
X40902795Y-82760000D01*
X40800010Y-82749500D01*
X36799998Y-82749500D01*
X36799981Y-82749501D01*
X36697203Y-82760000D01*
X36697200Y-82760001D01*
X36530668Y-82815185D01*
X36530663Y-82815187D01*
X36381342Y-82907289D01*
X36257289Y-83031342D01*
X36165187Y-83180663D01*
X36165185Y-83180668D01*
X36165115Y-83180880D01*
X36110001Y-83347203D01*
X36110001Y-83347204D01*
X36110000Y-83347204D01*
X36099500Y-83449983D01*
X36099500Y-84209264D01*
X36079815Y-84276303D01*
X36027011Y-84322058D01*
X35957853Y-84332002D01*
X35937182Y-84327195D01*
X35792828Y-84280291D01*
X35598422Y-84249500D01*
X35598417Y-84249500D01*
X35401583Y-84249500D01*
X35401578Y-84249500D01*
X35207173Y-84280290D01*
X35019970Y-84341117D01*
X34844594Y-84430476D01*
X34753741Y-84496485D01*
X34685354Y-84546172D01*
X34685352Y-84546174D01*
X34685351Y-84546174D01*
X34546174Y-84685351D01*
X34546174Y-84685352D01*
X34546172Y-84685354D01*
X34536521Y-84698638D01*
X34430476Y-84844594D01*
X34341117Y-85019970D01*
X34280290Y-85207173D01*
X34249500Y-85401577D01*
X500500Y-85401577D01*
X500500Y-82157155D01*
X76375000Y-82157155D01*
X76375000Y-82930000D01*
X77249999Y-82930000D01*
X77224979Y-82990402D01*
X77200000Y-83115981D01*
X77200000Y-83244019D01*
X77224979Y-83369598D01*
X77249999Y-83430000D01*
X76375000Y-83430000D01*
X76375000Y-84202844D01*
X76381401Y-84262372D01*
X76381403Y-84262379D01*
X76431645Y-84397086D01*
X76431649Y-84397093D01*
X76517809Y-84512187D01*
X76517812Y-84512190D01*
X76632906Y-84598350D01*
X76632913Y-84598354D01*
X76767620Y-84648596D01*
X76767627Y-84648598D01*
X76827155Y-84654999D01*
X76827172Y-84655000D01*
X77600000Y-84655000D01*
X77600000Y-83780001D01*
X77660402Y-83805021D01*
X77785981Y-83830000D01*
X77914019Y-83830000D01*
X78039598Y-83805021D01*
X78100000Y-83780001D01*
X78100000Y-84655000D01*
X78872828Y-84655000D01*
X78872844Y-84654999D01*
X78932372Y-84648598D01*
X78932379Y-84648596D01*
X79067086Y-84598354D01*
X79067093Y-84598350D01*
X79182187Y-84512190D01*
X79182190Y-84512187D01*
X79268350Y-84397093D01*
X79268354Y-84397086D01*
X79318596Y-84262379D01*
X79318598Y-84262372D01*
X79324999Y-84202844D01*
X79325000Y-84202827D01*
X79325000Y-83430000D01*
X78450001Y-83430000D01*
X78475021Y-83369598D01*
X78500000Y-83244019D01*
X78500000Y-83115981D01*
X78475021Y-82990402D01*
X78450001Y-82930000D01*
X79325000Y-82930000D01*
X79325000Y-82157172D01*
X79324999Y-82157155D01*
X79318598Y-82097627D01*
X79318596Y-82097620D01*
X79268354Y-81962913D01*
X79268350Y-81962906D01*
X79182190Y-81847812D01*
X79182187Y-81847809D01*
X79067093Y-81761649D01*
X79067086Y-81761645D01*
X78932379Y-81711403D01*
X78932372Y-81711401D01*
X78872844Y-81705000D01*
X78100000Y-81705000D01*
X78100000Y-82579998D01*
X78039598Y-82554979D01*
X77914019Y-82530000D01*
X77785981Y-82530000D01*
X77660402Y-82554979D01*
X77600000Y-82579998D01*
X77600000Y-81705000D01*
X76827155Y-81705000D01*
X76767627Y-81711401D01*
X76767620Y-81711403D01*
X76632913Y-81761645D01*
X76632906Y-81761649D01*
X76517812Y-81847809D01*
X76517809Y-81847812D01*
X76431649Y-81962906D01*
X76431645Y-81962913D01*
X76381403Y-82097620D01*
X76381401Y-82097627D01*
X76375000Y-82157155D01*
X500500Y-82157155D01*
X500500Y-74828031D01*
X21499500Y-74828031D01*
X21499500Y-75171969D01*
X21509129Y-75269735D01*
X21533210Y-75514249D01*
X21600308Y-75851572D01*
X21700150Y-76180706D01*
X21831770Y-76498464D01*
X21831772Y-76498469D01*
X21993893Y-76801775D01*
X21993904Y-76801793D01*
X22184975Y-77087751D01*
X22184985Y-77087765D01*
X22403176Y-77353632D01*
X22646367Y-77596823D01*
X22646372Y-77596827D01*
X22646373Y-77596828D01*
X22912240Y-77815019D01*
X23198213Y-78006100D01*
X23198222Y-78006105D01*
X23198224Y-78006106D01*
X23501530Y-78168227D01*
X23501532Y-78168227D01*
X23501538Y-78168231D01*
X23819295Y-78299850D01*
X24148422Y-78399690D01*
X24485750Y-78466789D01*
X24828031Y-78500500D01*
X24828034Y-78500500D01*
X25171966Y-78500500D01*
X25171969Y-78500500D01*
X25514250Y-78466789D01*
X25851578Y-78399690D01*
X26180705Y-78299850D01*
X26498462Y-78168231D01*
X26801787Y-78006100D01*
X27087760Y-77815019D01*
X27353627Y-77596828D01*
X27596828Y-77353627D01*
X27815019Y-77087760D01*
X28006100Y-76801787D01*
X28168231Y-76498462D01*
X28299850Y-76180705D01*
X28399690Y-75851578D01*
X28466789Y-75514250D01*
X28500500Y-75171969D01*
X28500500Y-74828031D01*
X28466789Y-74485750D01*
X28453940Y-74421153D01*
X53199500Y-74421153D01*
X53199500Y-74578846D01*
X53230261Y-74733489D01*
X53230264Y-74733501D01*
X53290602Y-74879172D01*
X53290609Y-74879185D01*
X53378210Y-75010288D01*
X53378213Y-75010292D01*
X53489707Y-75121786D01*
X53489711Y-75121789D01*
X53620814Y-75209390D01*
X53620827Y-75209397D01*
X53766498Y-75269735D01*
X53766503Y-75269737D01*
X53899400Y-75296172D01*
X53921153Y-75300499D01*
X53921156Y-75300500D01*
X53921158Y-75300500D01*
X54078844Y-75300500D01*
X54078845Y-75300499D01*
X54233497Y-75269737D01*
X54379179Y-75209394D01*
X54473459Y-75146398D01*
X54540136Y-75125520D01*
X54542350Y-75125500D01*
X54841548Y-75125500D01*
X54908587Y-75145185D01*
X54929224Y-75161814D01*
X55121909Y-75354500D01*
X55177268Y-75409859D01*
X55279710Y-75478309D01*
X55279711Y-75478309D01*
X55279715Y-75478312D01*
X55333198Y-75500465D01*
X55393548Y-75525463D01*
X55413597Y-75529451D01*
X55422018Y-75531126D01*
X55514392Y-75549501D01*
X55514394Y-75549501D01*
X55557651Y-75549501D01*
X55575794Y-75554828D01*
X55594704Y-75555166D01*
X55622921Y-75568666D01*
X55624690Y-75569186D01*
X55626542Y-75570399D01*
X55719167Y-75632289D01*
X55763972Y-75685901D01*
X55772749Y-75754790D01*
X55768223Y-75783365D01*
X55738293Y-75846499D01*
X55733431Y-75851647D01*
X55528411Y-76056668D01*
X55362220Y-76222859D01*
X55362218Y-76222861D01*
X55321480Y-76263599D01*
X55222859Y-76362219D01*
X55113371Y-76526079D01*
X55113364Y-76526092D01*
X55037950Y-76708160D01*
X55037947Y-76708170D01*
X54999500Y-76901456D01*
X54999500Y-77709301D01*
X54979815Y-77776340D01*
X54975818Y-77782186D01*
X54930478Y-77844591D01*
X54841117Y-78019970D01*
X54780290Y-78207173D01*
X54749500Y-78401577D01*
X54749500Y-78598422D01*
X54780290Y-78792826D01*
X54841117Y-78980029D01*
X54908958Y-79113173D01*
X54930476Y-79155405D01*
X55046172Y-79314646D01*
X55185354Y-79453828D01*
X55344595Y-79569524D01*
X55399323Y-79597409D01*
X55519970Y-79658882D01*
X55519972Y-79658882D01*
X55519975Y-79658884D01*
X55570932Y-79675441D01*
X55707173Y-79719709D01*
X55901578Y-79750500D01*
X55901583Y-79750500D01*
X56098422Y-79750500D01*
X56292826Y-79719709D01*
X56480025Y-79658884D01*
X56655405Y-79569524D01*
X56814646Y-79453828D01*
X56953828Y-79314646D01*
X57069524Y-79155405D01*
X57158884Y-78980025D01*
X57219709Y-78792826D01*
X57240229Y-78663267D01*
X57250500Y-78598422D01*
X57250500Y-78401577D01*
X57219709Y-78207173D01*
X57205297Y-78162819D01*
X57203301Y-78092978D01*
X57239381Y-78033145D01*
X57302082Y-78002316D01*
X57323228Y-78000500D01*
X59275350Y-78000500D01*
X59342389Y-78020185D01*
X59388144Y-78072989D01*
X59398088Y-78142147D01*
X59375668Y-78197384D01*
X59368557Y-78207173D01*
X59340112Y-78246323D01*
X59237354Y-78447994D01*
X59167407Y-78663266D01*
X59132000Y-78886821D01*
X59132000Y-79113178D01*
X59167407Y-79336733D01*
X59237354Y-79552005D01*
X59338494Y-79750500D01*
X59340112Y-79753676D01*
X59473155Y-79936794D01*
X59633206Y-80096845D01*
X59816324Y-80229888D01*
X59911605Y-80278436D01*
X60017994Y-80332645D01*
X60017996Y-80332645D01*
X60017999Y-80332647D01*
X60133388Y-80370139D01*
X60233266Y-80402592D01*
X60456822Y-80438000D01*
X60456827Y-80438000D01*
X60683178Y-80438000D01*
X60906733Y-80402592D01*
X61122001Y-80332647D01*
X61323676Y-80229888D01*
X61506794Y-80096845D01*
X61666845Y-79936794D01*
X61799888Y-79753676D01*
X61853628Y-79648204D01*
X61864077Y-79637140D01*
X61870400Y-79623297D01*
X61887580Y-79612255D01*
X61901603Y-79597409D01*
X61917282Y-79593167D01*
X61929178Y-79585523D01*
X61964113Y-79580500D01*
X62035886Y-79580500D01*
X62102925Y-79600185D01*
X62146370Y-79648204D01*
X62200110Y-79753674D01*
X62266633Y-79845235D01*
X62333155Y-79936794D01*
X62493206Y-80096845D01*
X62676324Y-80229888D01*
X62771605Y-80278436D01*
X62877994Y-80332645D01*
X62877996Y-80332645D01*
X62877999Y-80332647D01*
X62993388Y-80370139D01*
X63093266Y-80402592D01*
X63316822Y-80438000D01*
X63316827Y-80438000D01*
X63543178Y-80438000D01*
X63766733Y-80402592D01*
X63982001Y-80332647D01*
X64183676Y-80229888D01*
X64366794Y-80096845D01*
X64526845Y-79936794D01*
X64659888Y-79753676D01*
X64762647Y-79552001D01*
X64832592Y-79336733D01*
X64843203Y-79269737D01*
X64868000Y-79113178D01*
X64868000Y-78886821D01*
X64832592Y-78663266D01*
X64800139Y-78563388D01*
X64762647Y-78447999D01*
X64762645Y-78447996D01*
X64762645Y-78447994D01*
X64687492Y-78300500D01*
X64659888Y-78246324D01*
X64624331Y-78197384D01*
X64600852Y-78131580D01*
X64616677Y-78063526D01*
X64666783Y-78014831D01*
X64724650Y-78000500D01*
X65598543Y-78000500D01*
X65644782Y-77991301D01*
X65699087Y-77980500D01*
X65791836Y-77962051D01*
X65854977Y-77935897D01*
X65973914Y-77886632D01*
X66137782Y-77777139D01*
X66277139Y-77637782D01*
X66277140Y-77637780D01*
X66284206Y-77630714D01*
X66284209Y-77630710D01*
X66398352Y-77516566D01*
X66459673Y-77483083D01*
X66466593Y-77481782D01*
X66542826Y-77469709D01*
X66587181Y-77455296D01*
X66657022Y-77453301D01*
X66716855Y-77489381D01*
X66747684Y-77552082D01*
X66749500Y-77573228D01*
X66749500Y-78753220D01*
X66729815Y-78820259D01*
X66721355Y-78831883D01*
X66720916Y-78832417D01*
X66633315Y-78963520D01*
X66633308Y-78963533D01*
X66572970Y-79109204D01*
X66572967Y-79109216D01*
X66542206Y-79263859D01*
X66542206Y-79421552D01*
X66572967Y-79576195D01*
X66572970Y-79576207D01*
X66633308Y-79721878D01*
X66633315Y-79721891D01*
X66720916Y-79852994D01*
X66720919Y-79852998D01*
X66832413Y-79964492D01*
X66832417Y-79964495D01*
X66963520Y-80052096D01*
X66963533Y-80052103D01*
X67109204Y-80112441D01*
X67109209Y-80112443D01*
X67263859Y-80143205D01*
X67263862Y-80143206D01*
X67263864Y-80143206D01*
X67421550Y-80143206D01*
X67421551Y-80143205D01*
X67576203Y-80112443D01*
X67721885Y-80052100D01*
X67852995Y-79964495D01*
X67964495Y-79852995D01*
X68052100Y-79721885D01*
X68062175Y-79697559D01*
X68080889Y-79666340D01*
X68082946Y-79663832D01*
X68082951Y-79663828D01*
X68165084Y-79540907D01*
X68221658Y-79404325D01*
X68224925Y-79387896D01*
X68257309Y-79325986D01*
X68318024Y-79291411D01*
X68370734Y-79290470D01*
X68403615Y-79297010D01*
X68421157Y-79300500D01*
X68421158Y-79300500D01*
X68578844Y-79300500D01*
X68578845Y-79300499D01*
X68733497Y-79269737D01*
X68879179Y-79209394D01*
X69010289Y-79121789D01*
X69121789Y-79010289D01*
X69209394Y-78879179D01*
X69269737Y-78733497D01*
X69300500Y-78578842D01*
X69300500Y-78424500D01*
X69320185Y-78357461D01*
X69372989Y-78311706D01*
X69424500Y-78300500D01*
X69578844Y-78300500D01*
X69578845Y-78300499D01*
X69733497Y-78269737D01*
X69879179Y-78209394D01*
X69931110Y-78174694D01*
X69997785Y-78153816D01*
X70065165Y-78172300D01*
X70068863Y-78174676D01*
X70120821Y-78209394D01*
X70120823Y-78209395D01*
X70120825Y-78209396D01*
X70265129Y-78269168D01*
X70266503Y-78269737D01*
X70417885Y-78299849D01*
X70421153Y-78300499D01*
X70421156Y-78300500D01*
X70421158Y-78300500D01*
X70578844Y-78300500D01*
X70578845Y-78300499D01*
X70733497Y-78269737D01*
X70879179Y-78209394D01*
X71010289Y-78121789D01*
X71121789Y-78010289D01*
X71209394Y-77879179D01*
X71269737Y-77733497D01*
X71300500Y-77578842D01*
X71300500Y-77421158D01*
X71300500Y-77421155D01*
X71300499Y-77421153D01*
X71269737Y-77266503D01*
X71209394Y-77120821D01*
X71146397Y-77026539D01*
X71140747Y-77008494D01*
X71130523Y-76992585D01*
X71126071Y-76961623D01*
X71125520Y-76959863D01*
X71125500Y-76957650D01*
X71125500Y-76713870D01*
X76374500Y-76713870D01*
X76374500Y-76946129D01*
X76410831Y-77175514D01*
X76482601Y-77396400D01*
X76561926Y-77552082D01*
X76588039Y-77603331D01*
X76724551Y-77791224D01*
X76888776Y-77955449D01*
X77076669Y-78091961D01*
X77174436Y-78141776D01*
X77283599Y-78197398D01*
X77283601Y-78197398D01*
X77283604Y-78197400D01*
X77504486Y-78269169D01*
X77622668Y-78287886D01*
X77733871Y-78305500D01*
X77733876Y-78305500D01*
X77966129Y-78305500D01*
X78067502Y-78289443D01*
X78195514Y-78269169D01*
X78416396Y-78197400D01*
X78416424Y-78197386D01*
X78473651Y-78168227D01*
X78623331Y-78091961D01*
X78811224Y-77955449D01*
X78975449Y-77791224D01*
X79111961Y-77603331D01*
X79217400Y-77396396D01*
X79289169Y-77175514D01*
X79309443Y-77047502D01*
X79325500Y-76946129D01*
X79325500Y-76713870D01*
X79306232Y-76592222D01*
X79289169Y-76484486D01*
X79217400Y-76263604D01*
X79217398Y-76263601D01*
X79217398Y-76263599D01*
X79111960Y-76056668D01*
X79056123Y-75979815D01*
X78975449Y-75868776D01*
X78811224Y-75704551D01*
X78623331Y-75568039D01*
X78416400Y-75462601D01*
X78195514Y-75390831D01*
X77966129Y-75354500D01*
X77966124Y-75354500D01*
X77733876Y-75354500D01*
X77733871Y-75354500D01*
X77504485Y-75390831D01*
X77283599Y-75462601D01*
X77076668Y-75568039D01*
X76888773Y-75704553D01*
X76724553Y-75868773D01*
X76588039Y-76056668D01*
X76482601Y-76263599D01*
X76410831Y-76484485D01*
X76374500Y-76713870D01*
X71125500Y-76713870D01*
X71125500Y-73542350D01*
X71145185Y-73475311D01*
X71146398Y-73473459D01*
X71146809Y-73472843D01*
X71209394Y-73379179D01*
X71213745Y-73368676D01*
X71246082Y-73290606D01*
X71269737Y-73233497D01*
X71300500Y-73078842D01*
X71300500Y-72921158D01*
X71300500Y-72921155D01*
X71300499Y-72921153D01*
X71290896Y-72872875D01*
X71269737Y-72766503D01*
X71219978Y-72646373D01*
X71209397Y-72620827D01*
X71209390Y-72620814D01*
X71121789Y-72489711D01*
X71121786Y-72489707D01*
X71010292Y-72378213D01*
X71010288Y-72378210D01*
X70879185Y-72290609D01*
X70879172Y-72290602D01*
X70733501Y-72230264D01*
X70733489Y-72230261D01*
X70578845Y-72199500D01*
X70578842Y-72199500D01*
X70421158Y-72199500D01*
X70421155Y-72199500D01*
X70266510Y-72230261D01*
X70266498Y-72230264D01*
X70120827Y-72290602D01*
X70120814Y-72290609D01*
X69989711Y-72378210D01*
X69989707Y-72378213D01*
X69878213Y-72489707D01*
X69878210Y-72489711D01*
X69790609Y-72620814D01*
X69790602Y-72620827D01*
X69730264Y-72766498D01*
X69730261Y-72766510D01*
X69699500Y-72921153D01*
X69699500Y-73075500D01*
X69679815Y-73142539D01*
X69627011Y-73188294D01*
X69575500Y-73199500D01*
X69421155Y-73199500D01*
X69266510Y-73230261D01*
X69266498Y-73230264D01*
X69120827Y-73290602D01*
X69120809Y-73290612D01*
X69003978Y-73368676D01*
X68937301Y-73389554D01*
X68869921Y-73371069D01*
X68866199Y-73368677D01*
X68827179Y-73342605D01*
X68827177Y-73342604D01*
X68681501Y-73282264D01*
X68681489Y-73282261D01*
X68526845Y-73251500D01*
X68526842Y-73251500D01*
X68369158Y-73251500D01*
X68369155Y-73251500D01*
X68214510Y-73282261D01*
X68214498Y-73282264D01*
X68068827Y-73342602D01*
X68068814Y-73342609D01*
X67937711Y-73430210D01*
X67937707Y-73430213D01*
X67826213Y-73541707D01*
X67826210Y-73541711D01*
X67738609Y-73672814D01*
X67738602Y-73672827D01*
X67678264Y-73818498D01*
X67678261Y-73818510D01*
X67647500Y-73973153D01*
X67647500Y-74075500D01*
X67627815Y-74142539D01*
X67575011Y-74188294D01*
X67523500Y-74199500D01*
X67421155Y-74199500D01*
X67266510Y-74230261D01*
X67266498Y-74230264D01*
X67120827Y-74290602D01*
X67120814Y-74290609D01*
X66989711Y-74378210D01*
X66989707Y-74378213D01*
X66878213Y-74489707D01*
X66878210Y-74489711D01*
X66790609Y-74620814D01*
X66790602Y-74620827D01*
X66730264Y-74766498D01*
X66730261Y-74766510D01*
X66699499Y-74921159D01*
X66699330Y-74922875D01*
X66698990Y-74923715D01*
X66698311Y-74927132D01*
X66697662Y-74927003D01*
X66673166Y-74987661D01*
X66616129Y-75028016D01*
X66546991Y-75031290D01*
X66542831Y-75030291D01*
X66348422Y-74999500D01*
X66348417Y-74999500D01*
X66151583Y-74999500D01*
X66151578Y-74999500D01*
X65957173Y-75030290D01*
X65769970Y-75091117D01*
X65594594Y-75180476D01*
X65503741Y-75246485D01*
X65435354Y-75296172D01*
X65435352Y-75296174D01*
X65435351Y-75296174D01*
X65296174Y-75435351D01*
X65296174Y-75435352D01*
X65296172Y-75435354D01*
X65276377Y-75462600D01*
X65180476Y-75594594D01*
X65091117Y-75769972D01*
X65091116Y-75769974D01*
X65091116Y-75769975D01*
X65044377Y-75913819D01*
X65004942Y-75971494D01*
X64940583Y-75998692D01*
X64926448Y-75999500D01*
X58371915Y-75999500D01*
X58304876Y-75979815D01*
X58259121Y-75927011D01*
X58249442Y-75894898D01*
X58219709Y-75707173D01*
X58170208Y-75554828D01*
X58158884Y-75519975D01*
X58158882Y-75519972D01*
X58158882Y-75519970D01*
X58093082Y-75390831D01*
X58069524Y-75344595D01*
X57953828Y-75185354D01*
X57814646Y-75046172D01*
X57814645Y-75046171D01*
X57814643Y-75046169D01*
X57801612Y-75036701D01*
X57758948Y-74981370D01*
X57750500Y-74936385D01*
X57750500Y-73323552D01*
X57770185Y-73256513D01*
X57822989Y-73210758D01*
X57836171Y-73205625D01*
X57980025Y-73158884D01*
X58155405Y-73069524D01*
X58314646Y-72953828D01*
X58453828Y-72814646D01*
X58569524Y-72655405D01*
X58658884Y-72480025D01*
X58719709Y-72292826D01*
X58721593Y-72280930D01*
X58750500Y-72098422D01*
X58750500Y-71901577D01*
X58719709Y-71707173D01*
X58670041Y-71554312D01*
X58658884Y-71519975D01*
X58658882Y-71519972D01*
X58658882Y-71519970D01*
X58611743Y-71427455D01*
X58569524Y-71344595D01*
X58453828Y-71185354D01*
X58314646Y-71046172D01*
X58155405Y-70930476D01*
X58090977Y-70897648D01*
X59269500Y-70897648D01*
X59269500Y-71102351D01*
X59301522Y-71304534D01*
X59364781Y-71499223D01*
X59416876Y-71601463D01*
X59430567Y-71628334D01*
X59457715Y-71681613D01*
X59578028Y-71847213D01*
X59722786Y-71991971D01*
X59869299Y-72098417D01*
X59888390Y-72112287D01*
X60004607Y-72171503D01*
X60070776Y-72205218D01*
X60070778Y-72205218D01*
X60070781Y-72205220D01*
X60175137Y-72239127D01*
X60265465Y-72268477D01*
X60344090Y-72280930D01*
X60467648Y-72300500D01*
X60467649Y-72300500D01*
X60672351Y-72300500D01*
X60672352Y-72300500D01*
X60874534Y-72268477D01*
X61069219Y-72205220D01*
X61251610Y-72112287D01*
X61414552Y-71993904D01*
X61417213Y-71991971D01*
X61417215Y-71991968D01*
X61417219Y-71991966D01*
X61561966Y-71847219D01*
X61601138Y-71793301D01*
X61656466Y-71750637D01*
X61726079Y-71744656D01*
X61748908Y-71751626D01*
X61769415Y-71760120D01*
X61769420Y-71760122D01*
X61922138Y-71790499D01*
X61922142Y-71790500D01*
X61922143Y-71790500D01*
X62077858Y-71790500D01*
X62077859Y-71790499D01*
X62230580Y-71760122D01*
X62251088Y-71751626D01*
X62320556Y-71744157D01*
X62383036Y-71775430D01*
X62398860Y-71793302D01*
X62438028Y-71847212D01*
X62438032Y-71847217D01*
X62582786Y-71991971D01*
X62729299Y-72098417D01*
X62748390Y-72112287D01*
X62864607Y-72171503D01*
X62930776Y-72205218D01*
X62930778Y-72205218D01*
X62930781Y-72205220D01*
X63035137Y-72239127D01*
X63125465Y-72268477D01*
X63204090Y-72280930D01*
X63327648Y-72300500D01*
X63327649Y-72300500D01*
X63532351Y-72300500D01*
X63532352Y-72300500D01*
X63734534Y-72268477D01*
X63929219Y-72205220D01*
X64111610Y-72112287D01*
X64274552Y-71993904D01*
X64277213Y-71991971D01*
X64277215Y-71991968D01*
X64277219Y-71991966D01*
X64421966Y-71847219D01*
X64421968Y-71847215D01*
X64421971Y-71847213D01*
X64485246Y-71760121D01*
X64542287Y-71681610D01*
X64635220Y-71499219D01*
X64698477Y-71304534D01*
X64730500Y-71102352D01*
X64730500Y-70897648D01*
X64698477Y-70695466D01*
X64635220Y-70500781D01*
X64635218Y-70500778D01*
X64635218Y-70500776D01*
X64589021Y-70410110D01*
X64542287Y-70318390D01*
X64518596Y-70285782D01*
X64421971Y-70152786D01*
X64277213Y-70008028D01*
X64111613Y-69887715D01*
X64111612Y-69887714D01*
X64111610Y-69887713D01*
X64054653Y-69858691D01*
X63929223Y-69794781D01*
X63734534Y-69731522D01*
X63559995Y-69703878D01*
X63532352Y-69699500D01*
X63327648Y-69699500D01*
X63303329Y-69703351D01*
X63125465Y-69731522D01*
X62930776Y-69794781D01*
X62748386Y-69887715D01*
X62582786Y-70008028D01*
X62438033Y-70152781D01*
X62398859Y-70206699D01*
X62343528Y-70249364D01*
X62273914Y-70255342D01*
X62251092Y-70248374D01*
X62230580Y-70239878D01*
X62230572Y-70239875D01*
X62077861Y-70209500D01*
X62077857Y-70209500D01*
X61922143Y-70209500D01*
X61922138Y-70209500D01*
X61769428Y-70239876D01*
X61769423Y-70239877D01*
X61769420Y-70239878D01*
X61750214Y-70247832D01*
X61748906Y-70248375D01*
X61679436Y-70255841D01*
X61616958Y-70224564D01*
X61601139Y-70206697D01*
X61561971Y-70152787D01*
X61561967Y-70152782D01*
X61417213Y-70008028D01*
X61251613Y-69887715D01*
X61251612Y-69887714D01*
X61251610Y-69887713D01*
X61194653Y-69858691D01*
X61069223Y-69794781D01*
X60874534Y-69731522D01*
X60699995Y-69703878D01*
X60672352Y-69699500D01*
X60467648Y-69699500D01*
X60443329Y-69703351D01*
X60265465Y-69731522D01*
X60070776Y-69794781D01*
X59888386Y-69887715D01*
X59722786Y-70008028D01*
X59578028Y-70152786D01*
X59457715Y-70318386D01*
X59364781Y-70500776D01*
X59301522Y-70695465D01*
X59269500Y-70897648D01*
X58090977Y-70897648D01*
X57980029Y-70841117D01*
X57792826Y-70780290D01*
X57598422Y-70749500D01*
X57598417Y-70749500D01*
X57401583Y-70749500D01*
X57401578Y-70749500D01*
X57207173Y-70780290D01*
X57019970Y-70841117D01*
X56844594Y-70930476D01*
X56758409Y-70993094D01*
X56685354Y-71046172D01*
X56685352Y-71046174D01*
X56685351Y-71046174D01*
X56546174Y-71185351D01*
X56546174Y-71185352D01*
X56546172Y-71185354D01*
X56528709Y-71209390D01*
X56430476Y-71344594D01*
X56341117Y-71519970D01*
X56280290Y-71707173D01*
X56249500Y-71901577D01*
X56249500Y-72098422D01*
X56274927Y-72258966D01*
X56274071Y-72302555D01*
X56249500Y-72426079D01*
X56249500Y-73999500D01*
X56229815Y-74066539D01*
X56177011Y-74112294D01*
X56125500Y-74123500D01*
X56021155Y-74123500D01*
X55866511Y-74154260D01*
X55866497Y-74154264D01*
X55818842Y-74174003D01*
X55798968Y-74176139D01*
X55780239Y-74183125D01*
X55764939Y-74179796D01*
X55749373Y-74181470D01*
X55731498Y-74172521D01*
X55711966Y-74168273D01*
X55689673Y-74151585D01*
X55686895Y-74150194D01*
X55683712Y-74147122D01*
X55644928Y-74108338D01*
X55644926Y-74108335D01*
X55644925Y-74108334D01*
X55644925Y-74108335D01*
X55637858Y-74101268D01*
X55637858Y-74101267D01*
X55550733Y-74014142D01*
X55489396Y-73973158D01*
X55448286Y-73945688D01*
X55367792Y-73912347D01*
X55363484Y-73910562D01*
X55363481Y-73910561D01*
X55334453Y-73898537D01*
X55324427Y-73896543D01*
X55274029Y-73886518D01*
X55213610Y-73874500D01*
X55213607Y-73874500D01*
X55213606Y-73874500D01*
X54542350Y-73874500D01*
X54475311Y-73854815D01*
X54473459Y-73853602D01*
X54379184Y-73790609D01*
X54379172Y-73790602D01*
X54233501Y-73730264D01*
X54233489Y-73730261D01*
X54078845Y-73699500D01*
X54078842Y-73699500D01*
X53921158Y-73699500D01*
X53921155Y-73699500D01*
X53766510Y-73730261D01*
X53766498Y-73730264D01*
X53620827Y-73790602D01*
X53620814Y-73790609D01*
X53489711Y-73878210D01*
X53489707Y-73878213D01*
X53378213Y-73989707D01*
X53378210Y-73989711D01*
X53290609Y-74120814D01*
X53290602Y-74120827D01*
X53230264Y-74266498D01*
X53230261Y-74266510D01*
X53199500Y-74421153D01*
X28453940Y-74421153D01*
X28445398Y-74378213D01*
X28399691Y-74148427D01*
X28399690Y-74148426D01*
X28399690Y-74148422D01*
X28299850Y-73819295D01*
X28168231Y-73501538D01*
X28154212Y-73475311D01*
X28006106Y-73198224D01*
X28006105Y-73198222D01*
X28006100Y-73198213D01*
X27815019Y-72912240D01*
X27781416Y-72871295D01*
X27728020Y-72806231D01*
X27668457Y-72733653D01*
X51449500Y-72733653D01*
X51449500Y-72891346D01*
X51480261Y-73045989D01*
X51480264Y-73046001D01*
X51540602Y-73191672D01*
X51540609Y-73191685D01*
X51628210Y-73322788D01*
X51628213Y-73322792D01*
X51739707Y-73434286D01*
X51739711Y-73434289D01*
X51870814Y-73521890D01*
X51870827Y-73521897D01*
X52016498Y-73582235D01*
X52016503Y-73582237D01*
X52171153Y-73612999D01*
X52171156Y-73613000D01*
X52171158Y-73613000D01*
X52328844Y-73613000D01*
X52328845Y-73612999D01*
X52483497Y-73582237D01*
X52629179Y-73521894D01*
X52760289Y-73434289D01*
X52871789Y-73322789D01*
X52959394Y-73191679D01*
X53019737Y-73045997D01*
X53041858Y-72934782D01*
X53074240Y-72872875D01*
X53075734Y-72871354D01*
X54285271Y-71661819D01*
X54346594Y-71628334D01*
X54372952Y-71625500D01*
X55061607Y-71625500D01*
X55122029Y-71613481D01*
X55182452Y-71601463D01*
X55215792Y-71587652D01*
X55296286Y-71554312D01*
X55371710Y-71503914D01*
X55398733Y-71485858D01*
X55485858Y-71398733D01*
X55485860Y-71398729D01*
X55558797Y-71325791D01*
X55620118Y-71292308D01*
X55622128Y-71291889D01*
X55733497Y-71269737D01*
X55879179Y-71209394D01*
X56010289Y-71121789D01*
X56121789Y-71010289D01*
X56209394Y-70879179D01*
X56269737Y-70733497D01*
X56300500Y-70578842D01*
X56300500Y-70421158D01*
X56300500Y-70421155D01*
X56300499Y-70421153D01*
X56273572Y-70285782D01*
X56269737Y-70266503D01*
X56258708Y-70239876D01*
X56209397Y-70120827D01*
X56209390Y-70120814D01*
X56121789Y-69989711D01*
X56121786Y-69989707D01*
X56010292Y-69878213D01*
X56010288Y-69878210D01*
X55879185Y-69790609D01*
X55879172Y-69790602D01*
X55733501Y-69730264D01*
X55733489Y-69730261D01*
X55578845Y-69699500D01*
X55578842Y-69699500D01*
X55421158Y-69699500D01*
X55421155Y-69699500D01*
X55266510Y-69730261D01*
X55266498Y-69730264D01*
X55120827Y-69790602D01*
X55120814Y-69790609D01*
X54989711Y-69878210D01*
X54989707Y-69878213D01*
X54878213Y-69989707D01*
X54878210Y-69989711D01*
X54790609Y-70120814D01*
X54790602Y-70120827D01*
X54730263Y-70266501D01*
X54730263Y-70266502D01*
X54729799Y-70268831D01*
X54728634Y-70274691D01*
X54696250Y-70336601D01*
X54635535Y-70371176D01*
X54607017Y-70374500D01*
X54000892Y-70374500D01*
X53972040Y-70380239D01*
X53943188Y-70385978D01*
X53900997Y-70394370D01*
X53880046Y-70398537D01*
X53880043Y-70398538D01*
X53852107Y-70410110D01*
X53766213Y-70445688D01*
X53766208Y-70445690D01*
X53663772Y-70514138D01*
X53663764Y-70514144D01*
X53576639Y-70601270D01*
X52191203Y-71986705D01*
X52129880Y-72020190D01*
X52127714Y-72020641D01*
X52016508Y-72042761D01*
X52016498Y-72042764D01*
X51870827Y-72103102D01*
X51870814Y-72103109D01*
X51739711Y-72190710D01*
X51739707Y-72190713D01*
X51628213Y-72302207D01*
X51628210Y-72302211D01*
X51540609Y-72433314D01*
X51540602Y-72433327D01*
X51480264Y-72578998D01*
X51480261Y-72579010D01*
X51449500Y-72733653D01*
X27668457Y-72733653D01*
X27596823Y-72646367D01*
X27353632Y-72403176D01*
X27087765Y-72184985D01*
X27087764Y-72184984D01*
X27087760Y-72184981D01*
X26801787Y-71993900D01*
X26801782Y-71993897D01*
X26801775Y-71993893D01*
X26498469Y-71831772D01*
X26498464Y-71831770D01*
X26180706Y-71700150D01*
X25851572Y-71600308D01*
X25514248Y-71533210D01*
X25514249Y-71533210D01*
X25256456Y-71507821D01*
X25171969Y-71499500D01*
X24828031Y-71499500D01*
X24749966Y-71507188D01*
X24485750Y-71533210D01*
X24148427Y-71600308D01*
X23819293Y-71700150D01*
X23501535Y-71831770D01*
X23501530Y-71831772D01*
X23198224Y-71993893D01*
X23198206Y-71993904D01*
X22912248Y-72184975D01*
X22912234Y-72184985D01*
X22646367Y-72403176D01*
X22403176Y-72646367D01*
X22184985Y-72912234D01*
X22184975Y-72912248D01*
X21993904Y-73198206D01*
X21993893Y-73198224D01*
X21831772Y-73501530D01*
X21831770Y-73501535D01*
X21700150Y-73819293D01*
X21600308Y-74148427D01*
X21533210Y-74485750D01*
X21519907Y-74620827D01*
X21499500Y-74828031D01*
X500500Y-74828031D01*
X500500Y-61042648D01*
X4202500Y-61042648D01*
X4202500Y-61247351D01*
X4234522Y-61449534D01*
X4297781Y-61644223D01*
X4390715Y-61826613D01*
X4511028Y-61992213D01*
X4655786Y-62136971D01*
X4810749Y-62249556D01*
X4821390Y-62257287D01*
X4937607Y-62316503D01*
X5003776Y-62350218D01*
X5003778Y-62350218D01*
X5003781Y-62350220D01*
X5108137Y-62384127D01*
X5198465Y-62413477D01*
X5299557Y-62429488D01*
X5400648Y-62445500D01*
X5400649Y-62445500D01*
X5605351Y-62445500D01*
X5605352Y-62445500D01*
X5807534Y-62413477D01*
X6002219Y-62350220D01*
X6184610Y-62257287D01*
X6277590Y-62189732D01*
X6350213Y-62136971D01*
X6350215Y-62136968D01*
X6350219Y-62136966D01*
X6494966Y-61992219D01*
X6494968Y-61992215D01*
X6494971Y-61992213D01*
X6547732Y-61919590D01*
X6615287Y-61826610D01*
X6708220Y-61644219D01*
X6771477Y-61449534D01*
X6803500Y-61247352D01*
X6803500Y-61042648D01*
X43699500Y-61042648D01*
X43699500Y-61247351D01*
X43731522Y-61449534D01*
X43794781Y-61644223D01*
X43887715Y-61826613D01*
X44008028Y-61992213D01*
X44152786Y-62136971D01*
X44307749Y-62249556D01*
X44318390Y-62257287D01*
X44434607Y-62316503D01*
X44500776Y-62350218D01*
X44500778Y-62350218D01*
X44500781Y-62350220D01*
X44605137Y-62384127D01*
X44695465Y-62413477D01*
X44796557Y-62429488D01*
X44897648Y-62445500D01*
X44897649Y-62445500D01*
X45102351Y-62445500D01*
X45102352Y-62445500D01*
X45304534Y-62413477D01*
X45499219Y-62350220D01*
X45681610Y-62257287D01*
X45774590Y-62189732D01*
X45847213Y-62136971D01*
X45847215Y-62136968D01*
X45847219Y-62136966D01*
X45991966Y-61992219D01*
X45991968Y-61992215D01*
X45991971Y-61992213D01*
X46044732Y-61919590D01*
X46112287Y-61826610D01*
X46205220Y-61644219D01*
X46268477Y-61449534D01*
X46300500Y-61247352D01*
X46300500Y-61042648D01*
X46268477Y-60840466D01*
X46205220Y-60645781D01*
X46205218Y-60645778D01*
X46205218Y-60645776D01*
X46112287Y-60463390D01*
X46112281Y-60463381D01*
X46067378Y-60401577D01*
X49749500Y-60401577D01*
X49749500Y-60598422D01*
X49780290Y-60792826D01*
X49841117Y-60980029D01*
X49930476Y-61155405D01*
X50046172Y-61314646D01*
X50185354Y-61453828D01*
X50344595Y-61569524D01*
X50427455Y-61611743D01*
X50519970Y-61658882D01*
X50519972Y-61658882D01*
X50519975Y-61658884D01*
X50620317Y-61691487D01*
X50707173Y-61719709D01*
X50901578Y-61750500D01*
X50901583Y-61750500D01*
X51098422Y-61750500D01*
X51292826Y-61719709D01*
X51480025Y-61658884D01*
X51655405Y-61569524D01*
X51683896Y-61548823D01*
X51717814Y-61524182D01*
X51783620Y-61500702D01*
X51790699Y-61500500D01*
X55209301Y-61500500D01*
X55276340Y-61520185D01*
X55282186Y-61524182D01*
X55339121Y-61565547D01*
X55344595Y-61569524D01*
X55456347Y-61626464D01*
X55519970Y-61658882D01*
X55519972Y-61658882D01*
X55519975Y-61658884D01*
X55620317Y-61691487D01*
X55707173Y-61719709D01*
X55901578Y-61750500D01*
X55901583Y-61750500D01*
X56098422Y-61750500D01*
X56292826Y-61719709D01*
X56480025Y-61658884D01*
X56655405Y-61569524D01*
X56814646Y-61453828D01*
X56953828Y-61314646D01*
X57069524Y-61155405D01*
X57158884Y-60980025D01*
X57219709Y-60792826D01*
X57250500Y-60598422D01*
X57250500Y-60401577D01*
X57219709Y-60207173D01*
X57191487Y-60120317D01*
X57158884Y-60019975D01*
X57158882Y-60019972D01*
X57158882Y-60019970D01*
X57085792Y-59876523D01*
X57069524Y-59844595D01*
X56953828Y-59685354D01*
X56814646Y-59546172D01*
X56655405Y-59430476D01*
X56480029Y-59341117D01*
X56292826Y-59280290D01*
X56098422Y-59249500D01*
X56098417Y-59249500D01*
X55901583Y-59249500D01*
X55901578Y-59249500D01*
X55707173Y-59280290D01*
X55519970Y-59341117D01*
X55344591Y-59430478D01*
X55282186Y-59475818D01*
X55216380Y-59499298D01*
X55209301Y-59499500D01*
X51790699Y-59499500D01*
X51723660Y-59479815D01*
X51717814Y-59475818D01*
X51655408Y-59430478D01*
X51655407Y-59430477D01*
X51655405Y-59430476D01*
X51600636Y-59402569D01*
X51480029Y-59341117D01*
X51292826Y-59280290D01*
X51098422Y-59249500D01*
X51098417Y-59249500D01*
X50901583Y-59249500D01*
X50901578Y-59249500D01*
X50707173Y-59280290D01*
X50519970Y-59341117D01*
X50344594Y-59430476D01*
X50282187Y-59475818D01*
X50185354Y-59546172D01*
X50185352Y-59546174D01*
X50185351Y-59546174D01*
X50046174Y-59685351D01*
X50046174Y-59685352D01*
X50046172Y-59685354D01*
X50028709Y-59709390D01*
X49930476Y-59844594D01*
X49841117Y-60019970D01*
X49780290Y-60207173D01*
X49749500Y-60401577D01*
X46067378Y-60401577D01*
X45991971Y-60297786D01*
X45847213Y-60153028D01*
X45681613Y-60032715D01*
X45681612Y-60032714D01*
X45681610Y-60032713D01*
X45624653Y-60003691D01*
X45499223Y-59939781D01*
X45304534Y-59876522D01*
X45129995Y-59848878D01*
X45102352Y-59844500D01*
X44897648Y-59844500D01*
X44873329Y-59848351D01*
X44695465Y-59876522D01*
X44500776Y-59939781D01*
X44318386Y-60032715D01*
X44152786Y-60153028D01*
X44008028Y-60297786D01*
X43887715Y-60463386D01*
X43794781Y-60645776D01*
X43731522Y-60840465D01*
X43699500Y-61042648D01*
X6803500Y-61042648D01*
X6771477Y-60840466D01*
X6708220Y-60645781D01*
X6708218Y-60645778D01*
X6708218Y-60645776D01*
X6674503Y-60579607D01*
X6615287Y-60463390D01*
X6570378Y-60401577D01*
X6494971Y-60297786D01*
X6350213Y-60153028D01*
X6184613Y-60032715D01*
X6184612Y-60032714D01*
X6184610Y-60032713D01*
X6127653Y-60003691D01*
X6002223Y-59939781D01*
X5807534Y-59876522D01*
X5632995Y-59848878D01*
X5605352Y-59844500D01*
X5400648Y-59844500D01*
X5376329Y-59848351D01*
X5198465Y-59876522D01*
X5003776Y-59939781D01*
X4821386Y-60032715D01*
X4655786Y-60153028D01*
X4511028Y-60297786D01*
X4390715Y-60463386D01*
X4297781Y-60645776D01*
X4234522Y-60840465D01*
X4202500Y-61042648D01*
X500500Y-61042648D01*
X500500Y-53421153D01*
X73199500Y-53421153D01*
X73199500Y-53578846D01*
X73230261Y-53733489D01*
X73230264Y-53733501D01*
X73290602Y-53879172D01*
X73290609Y-53879185D01*
X73378210Y-54010288D01*
X73378213Y-54010292D01*
X73489710Y-54121789D01*
X73620815Y-54209390D01*
X73620821Y-54209394D01*
X73644475Y-54219191D01*
X73684703Y-54246071D01*
X74213181Y-54774548D01*
X74246666Y-54835871D01*
X74249500Y-54862229D01*
X74249500Y-58137768D01*
X74240854Y-58167210D01*
X74234331Y-58197197D01*
X74230577Y-58202211D01*
X74229815Y-58204807D01*
X74213180Y-58225451D01*
X74184700Y-58253930D01*
X74144477Y-58280806D01*
X74120823Y-58290604D01*
X74120818Y-58290607D01*
X73989715Y-58378207D01*
X73989707Y-58378213D01*
X73878213Y-58489707D01*
X73878210Y-58489711D01*
X73790609Y-58620814D01*
X73790602Y-58620827D01*
X73730264Y-58766498D01*
X73730261Y-58766510D01*
X73699500Y-58921153D01*
X73699500Y-59078846D01*
X73730261Y-59233489D01*
X73730264Y-59233501D01*
X73790602Y-59379172D01*
X73790609Y-59379185D01*
X73878210Y-59510288D01*
X73878213Y-59510292D01*
X73989707Y-59621786D01*
X73989711Y-59621789D01*
X74120814Y-59709390D01*
X74120827Y-59709397D01*
X74266498Y-59769735D01*
X74266503Y-59769737D01*
X74421153Y-59800499D01*
X74421156Y-59800500D01*
X74421158Y-59800500D01*
X74578844Y-59800500D01*
X74578845Y-59800499D01*
X74733497Y-59769737D01*
X74879179Y-59709394D01*
X75010289Y-59621789D01*
X75121789Y-59510289D01*
X75209394Y-59379179D01*
X75219191Y-59355524D01*
X75246069Y-59315297D01*
X75582952Y-58978416D01*
X75632186Y-58904729D01*
X75665084Y-58855495D01*
X75721658Y-58718913D01*
X75750500Y-58573918D01*
X75750500Y-57926082D01*
X75750500Y-54426082D01*
X75750500Y-54426079D01*
X75742041Y-54383560D01*
X75725520Y-54300500D01*
X75721659Y-54281088D01*
X75666606Y-54148182D01*
X75665882Y-54146251D01*
X75665844Y-54145747D01*
X75665764Y-54145522D01*
X75582954Y-54021588D01*
X75582953Y-54021587D01*
X75582951Y-54021584D01*
X75478416Y-53917049D01*
X74746071Y-53184703D01*
X74719191Y-53144475D01*
X74709394Y-53120821D01*
X74709389Y-53120814D01*
X74621789Y-52989710D01*
X74510292Y-52878213D01*
X74510288Y-52878210D01*
X74379185Y-52790609D01*
X74379172Y-52790602D01*
X74233501Y-52730264D01*
X74233489Y-52730261D01*
X74078845Y-52699500D01*
X74078842Y-52699500D01*
X73921158Y-52699500D01*
X73921155Y-52699500D01*
X73766510Y-52730261D01*
X73766498Y-52730264D01*
X73620827Y-52790602D01*
X73620814Y-52790609D01*
X73489711Y-52878210D01*
X73489707Y-52878213D01*
X73378213Y-52989707D01*
X73378210Y-52989711D01*
X73290609Y-53120814D01*
X73290602Y-53120827D01*
X73230264Y-53266498D01*
X73230261Y-53266510D01*
X73199500Y-53421153D01*
X500500Y-53421153D01*
X500500Y-47421153D01*
X59699500Y-47421153D01*
X59699500Y-47578846D01*
X59730261Y-47733489D01*
X59730264Y-47733501D01*
X59790602Y-47879172D01*
X59790609Y-47879185D01*
X59878210Y-48010288D01*
X59878213Y-48010292D01*
X59989707Y-48121786D01*
X59989711Y-48121789D01*
X60120814Y-48209390D01*
X60120827Y-48209397D01*
X60266498Y-48269735D01*
X60266503Y-48269737D01*
X60421153Y-48300499D01*
X60421156Y-48300500D01*
X60421158Y-48300500D01*
X60578844Y-48300500D01*
X60578845Y-48300499D01*
X60733497Y-48269737D01*
X60879179Y-48209394D01*
X60973459Y-48146398D01*
X61040136Y-48125520D01*
X61042350Y-48125500D01*
X65061607Y-48125500D01*
X65122029Y-48113481D01*
X65182452Y-48101463D01*
X65215792Y-48087652D01*
X65296286Y-48054312D01*
X65362169Y-48010289D01*
X65398733Y-47985858D01*
X65485858Y-47898733D01*
X65485858Y-47898731D01*
X65496066Y-47888524D01*
X65496067Y-47888521D01*
X68058798Y-45325791D01*
X68120119Y-45292308D01*
X68122114Y-45291892D01*
X68233497Y-45269737D01*
X68379179Y-45209394D01*
X68510289Y-45121789D01*
X68621789Y-45010289D01*
X68709394Y-44879179D01*
X68769737Y-44733497D01*
X68800500Y-44578842D01*
X68800500Y-44421158D01*
X68800500Y-44421155D01*
X68800499Y-44421153D01*
X68769737Y-44266503D01*
X68769735Y-44266498D01*
X68709397Y-44120827D01*
X68709390Y-44120814D01*
X68621789Y-43989711D01*
X68621786Y-43989707D01*
X68510292Y-43878213D01*
X68510288Y-43878210D01*
X68379185Y-43790609D01*
X68379172Y-43790602D01*
X68233501Y-43730264D01*
X68233489Y-43730261D01*
X68078845Y-43699500D01*
X68078842Y-43699500D01*
X67921158Y-43699500D01*
X67921155Y-43699500D01*
X67766510Y-43730261D01*
X67766498Y-43730264D01*
X67620827Y-43790602D01*
X67620814Y-43790609D01*
X67489711Y-43878210D01*
X67489707Y-43878213D01*
X67378213Y-43989707D01*
X67378210Y-43989711D01*
X67290609Y-44120814D01*
X67290602Y-44120827D01*
X67230264Y-44266498D01*
X67230261Y-44266508D01*
X67208141Y-44377713D01*
X67199375Y-44394469D01*
X67195356Y-44412948D01*
X67176611Y-44437988D01*
X67175756Y-44439624D01*
X67174206Y-44441202D01*
X67012179Y-44603228D01*
X66950858Y-44636712D01*
X66881167Y-44631728D01*
X66825233Y-44589857D01*
X66800816Y-44524392D01*
X66800500Y-44515546D01*
X66800500Y-44421155D01*
X66800499Y-44421153D01*
X66769737Y-44266503D01*
X66709394Y-44120821D01*
X66646397Y-44026539D01*
X66625520Y-43959863D01*
X66625500Y-43957650D01*
X66625500Y-32438393D01*
X66625499Y-32438389D01*
X66601464Y-32317555D01*
X66601463Y-32317548D01*
X66579182Y-32263757D01*
X66554312Y-32203714D01*
X66520084Y-32152490D01*
X66485858Y-32101267D01*
X66485856Y-32101264D01*
X66395637Y-32011045D01*
X66395606Y-32011016D01*
X62325793Y-27941203D01*
X62292308Y-27879880D01*
X62291887Y-27877864D01*
X62269737Y-27766503D01*
X62245599Y-27708230D01*
X62209397Y-27620827D01*
X62209390Y-27620814D01*
X62121789Y-27489711D01*
X62121786Y-27489707D01*
X62010292Y-27378213D01*
X62010288Y-27378210D01*
X61879185Y-27290609D01*
X61879172Y-27290602D01*
X61733501Y-27230264D01*
X61733489Y-27230261D01*
X61578845Y-27199500D01*
X61578842Y-27199500D01*
X61421158Y-27199500D01*
X61421155Y-27199500D01*
X61266510Y-27230261D01*
X61266498Y-27230264D01*
X61120827Y-27290602D01*
X61120814Y-27290609D01*
X60989711Y-27378210D01*
X60989707Y-27378213D01*
X60878213Y-27489707D01*
X60878210Y-27489711D01*
X60790609Y-27620814D01*
X60790602Y-27620827D01*
X60730264Y-27766498D01*
X60730261Y-27766510D01*
X60699500Y-27921153D01*
X60699500Y-28078846D01*
X60730261Y-28233489D01*
X60730264Y-28233501D01*
X60790602Y-28379172D01*
X60790609Y-28379185D01*
X60878210Y-28510288D01*
X60878213Y-28510292D01*
X60989707Y-28621786D01*
X60989711Y-28621789D01*
X61120814Y-28709390D01*
X61120827Y-28709397D01*
X61208230Y-28745599D01*
X61266503Y-28769737D01*
X61377716Y-28791858D01*
X61439623Y-28824241D01*
X61441203Y-28825793D01*
X61903984Y-29288574D01*
X61937469Y-29349897D01*
X61932485Y-29419589D01*
X61903986Y-29463935D01*
X61878210Y-29489711D01*
X61790609Y-29620814D01*
X61790602Y-29620827D01*
X61730264Y-29766498D01*
X61730261Y-29766510D01*
X61699500Y-29921153D01*
X61699500Y-30078846D01*
X61730261Y-30233489D01*
X61730264Y-30233501D01*
X61790602Y-30379172D01*
X61790609Y-30379185D01*
X61878210Y-30510288D01*
X61878213Y-30510292D01*
X61989707Y-30621786D01*
X61989711Y-30621789D01*
X62120814Y-30709390D01*
X62120827Y-30709397D01*
X62213590Y-30747820D01*
X62266503Y-30769737D01*
X62274691Y-30771365D01*
X62336601Y-30803750D01*
X62371176Y-30864465D01*
X62374500Y-30892983D01*
X62374500Y-39457650D01*
X62354815Y-39524689D01*
X62353602Y-39526541D01*
X62290609Y-39620815D01*
X62290602Y-39620828D01*
X62230264Y-39766498D01*
X62230261Y-39766510D01*
X62199500Y-39921153D01*
X62199500Y-40078846D01*
X62230261Y-40233489D01*
X62230264Y-40233501D01*
X62290602Y-40379172D01*
X62290609Y-40379185D01*
X62378210Y-40510288D01*
X62378213Y-40510292D01*
X62489707Y-40621786D01*
X62489711Y-40621789D01*
X62620814Y-40709390D01*
X62620827Y-40709397D01*
X62766498Y-40769735D01*
X62766503Y-40769737D01*
X62921153Y-40800499D01*
X62921156Y-40800500D01*
X62921158Y-40800500D01*
X63078844Y-40800500D01*
X63078845Y-40800499D01*
X63233497Y-40769737D01*
X63379179Y-40709394D01*
X63510289Y-40621789D01*
X63621789Y-40510289D01*
X63709394Y-40379179D01*
X63769737Y-40233497D01*
X63800500Y-40078842D01*
X63800500Y-39921158D01*
X63800500Y-39921155D01*
X63800499Y-39921153D01*
X63769738Y-39766510D01*
X63769737Y-39766503D01*
X63709394Y-39620821D01*
X63646397Y-39526539D01*
X63625520Y-39459863D01*
X63625500Y-39457650D01*
X63625500Y-31309452D01*
X63645185Y-31242413D01*
X63697989Y-31196658D01*
X63767147Y-31186714D01*
X63830703Y-31215739D01*
X63837181Y-31221771D01*
X65338181Y-32722771D01*
X65371666Y-32784094D01*
X65374500Y-32810452D01*
X65374500Y-43957650D01*
X65354815Y-44024689D01*
X65353602Y-44026541D01*
X65290609Y-44120815D01*
X65290602Y-44120828D01*
X65230264Y-44266498D01*
X65230261Y-44266510D01*
X65199500Y-44421153D01*
X65199500Y-44578846D01*
X65230261Y-44733489D01*
X65230264Y-44733501D01*
X65290602Y-44879172D01*
X65290609Y-44879185D01*
X65378210Y-45010288D01*
X65378213Y-45010292D01*
X65489707Y-45121786D01*
X65489711Y-45121789D01*
X65620814Y-45209390D01*
X65620827Y-45209397D01*
X65762285Y-45267990D01*
X65766503Y-45269737D01*
X65918644Y-45300000D01*
X65921153Y-45300499D01*
X65921156Y-45300500D01*
X66015547Y-45300500D01*
X66082586Y-45320185D01*
X66128341Y-45372989D01*
X66138285Y-45442147D01*
X66109260Y-45505703D01*
X66103228Y-45512181D01*
X64777229Y-46838181D01*
X64715906Y-46871666D01*
X64689548Y-46874500D01*
X61042350Y-46874500D01*
X60975311Y-46854815D01*
X60973459Y-46853602D01*
X60879184Y-46790609D01*
X60879172Y-46790602D01*
X60733501Y-46730264D01*
X60733489Y-46730261D01*
X60578845Y-46699500D01*
X60578842Y-46699500D01*
X60421158Y-46699500D01*
X60421155Y-46699500D01*
X60266510Y-46730261D01*
X60266498Y-46730264D01*
X60120827Y-46790602D01*
X60120814Y-46790609D01*
X59989711Y-46878210D01*
X59989707Y-46878213D01*
X59878213Y-46989707D01*
X59878210Y-46989711D01*
X59790609Y-47120814D01*
X59790602Y-47120827D01*
X59730264Y-47266498D01*
X59730261Y-47266510D01*
X59699500Y-47421153D01*
X500500Y-47421153D01*
X500500Y-43897682D01*
X4203000Y-43897682D01*
X4203000Y-44102317D01*
X4235009Y-44304417D01*
X4298244Y-44499031D01*
X4391141Y-44681350D01*
X4391147Y-44681359D01*
X4423523Y-44725921D01*
X4423524Y-44725922D01*
X5020037Y-44129409D01*
X5037075Y-44192993D01*
X5102901Y-44307007D01*
X5195993Y-44400099D01*
X5310007Y-44465925D01*
X5373590Y-44482962D01*
X4777076Y-45079474D01*
X4821650Y-45111859D01*
X5003968Y-45204755D01*
X5198582Y-45267990D01*
X5400683Y-45300000D01*
X5605317Y-45300000D01*
X5807417Y-45267990D01*
X6002031Y-45204755D01*
X6184349Y-45111859D01*
X6228921Y-45079474D01*
X5632409Y-44482962D01*
X5695993Y-44465925D01*
X5810007Y-44400099D01*
X5903099Y-44307007D01*
X5968925Y-44192993D01*
X5985962Y-44129409D01*
X6582474Y-44725921D01*
X6614859Y-44681349D01*
X6707755Y-44499031D01*
X6770990Y-44304417D01*
X6803000Y-44102317D01*
X6803000Y-43897682D01*
X43700000Y-43897682D01*
X43700000Y-44102317D01*
X43732009Y-44304417D01*
X43795244Y-44499031D01*
X43888141Y-44681350D01*
X43888147Y-44681359D01*
X43920523Y-44725921D01*
X43920524Y-44725922D01*
X44517037Y-44129409D01*
X44534075Y-44192993D01*
X44599901Y-44307007D01*
X44692993Y-44400099D01*
X44807007Y-44465925D01*
X44870590Y-44482962D01*
X44274076Y-45079474D01*
X44318650Y-45111859D01*
X44500968Y-45204755D01*
X44695582Y-45267990D01*
X44897683Y-45300000D01*
X45102317Y-45300000D01*
X45304417Y-45267990D01*
X45499031Y-45204755D01*
X45681349Y-45111859D01*
X45725921Y-45079474D01*
X45129409Y-44482962D01*
X45192993Y-44465925D01*
X45307007Y-44400099D01*
X45400099Y-44307007D01*
X45465925Y-44192993D01*
X45482962Y-44129409D01*
X46079474Y-44725921D01*
X46111859Y-44681349D01*
X46204755Y-44499031D01*
X46267990Y-44304417D01*
X46300000Y-44102317D01*
X46300000Y-43897682D01*
X46267990Y-43695582D01*
X46204755Y-43500968D01*
X46111859Y-43318650D01*
X46079474Y-43274077D01*
X46079474Y-43274076D01*
X45482962Y-43870589D01*
X45465925Y-43807007D01*
X45400099Y-43692993D01*
X45307007Y-43599901D01*
X45192993Y-43534075D01*
X45129408Y-43517037D01*
X45725922Y-42920524D01*
X45725921Y-42920523D01*
X45681359Y-42888147D01*
X45681350Y-42888141D01*
X45499031Y-42795244D01*
X45304417Y-42732009D01*
X45102317Y-42700000D01*
X44897683Y-42700000D01*
X44695582Y-42732009D01*
X44500968Y-42795244D01*
X44318644Y-42888143D01*
X44274077Y-42920523D01*
X44274077Y-42920524D01*
X44870591Y-43517037D01*
X44807007Y-43534075D01*
X44692993Y-43599901D01*
X44599901Y-43692993D01*
X44534075Y-43807007D01*
X44517037Y-43870590D01*
X43920524Y-43274077D01*
X43920523Y-43274077D01*
X43888143Y-43318644D01*
X43795244Y-43500968D01*
X43732009Y-43695582D01*
X43700000Y-43897682D01*
X6803000Y-43897682D01*
X6770990Y-43695582D01*
X6707755Y-43500968D01*
X6614859Y-43318650D01*
X6582474Y-43274077D01*
X6582474Y-43274076D01*
X5985962Y-43870589D01*
X5968925Y-43807007D01*
X5903099Y-43692993D01*
X5810007Y-43599901D01*
X5695993Y-43534075D01*
X5632408Y-43517037D01*
X6228922Y-42920524D01*
X6228921Y-42920523D01*
X6184359Y-42888147D01*
X6184350Y-42888141D01*
X6002031Y-42795244D01*
X5807417Y-42732009D01*
X5605317Y-42700000D01*
X5400683Y-42700000D01*
X5198582Y-42732009D01*
X5003968Y-42795244D01*
X4821644Y-42888143D01*
X4777077Y-42920523D01*
X4777077Y-42920524D01*
X5373591Y-43517037D01*
X5310007Y-43534075D01*
X5195993Y-43599901D01*
X5102901Y-43692993D01*
X5037075Y-43807007D01*
X5020037Y-43870590D01*
X4423524Y-43274077D01*
X4423523Y-43274077D01*
X4391143Y-43318644D01*
X4298244Y-43500968D01*
X4235009Y-43695582D01*
X4203000Y-43897682D01*
X500500Y-43897682D01*
X500500Y-25781669D01*
X1999500Y-25781669D01*
X1999500Y-26218330D01*
X2037557Y-26653320D01*
X2037557Y-26653324D01*
X2113379Y-27083327D01*
X2113383Y-27083344D01*
X2226392Y-27505105D01*
X2319640Y-27761301D01*
X2375438Y-27914606D01*
X2375740Y-27915434D01*
X2375746Y-27915449D01*
X2560272Y-28311164D01*
X2560280Y-28311180D01*
X2675235Y-28510288D01*
X2778603Y-28689326D01*
X2778607Y-28689332D01*
X2778614Y-28689343D01*
X3029057Y-29047013D01*
X3124044Y-29160213D01*
X3309732Y-29381507D01*
X3618493Y-29690268D01*
X3709340Y-29766498D01*
X3952986Y-29970942D01*
X4310656Y-30221385D01*
X4310663Y-30221389D01*
X4310674Y-30221397D01*
X4688826Y-30439723D01*
X4688835Y-30439727D01*
X5084550Y-30624253D01*
X5084555Y-30624255D01*
X5084568Y-30624261D01*
X5494888Y-30773605D01*
X5494889Y-30773605D01*
X5494894Y-30773607D01*
X5607391Y-30803750D01*
X5916663Y-30886619D01*
X6346682Y-30962443D01*
X6781671Y-31000499D01*
X6781672Y-31000500D01*
X6781673Y-31000500D01*
X7218328Y-31000500D01*
X7218328Y-31000499D01*
X7653318Y-30962443D01*
X8083337Y-30886619D01*
X8505112Y-30773605D01*
X8915432Y-30624261D01*
X9311174Y-30439723D01*
X9689326Y-30221397D01*
X10047012Y-29970943D01*
X10381507Y-29690268D01*
X10690268Y-29381507D01*
X10970943Y-29047012D01*
X11221397Y-28689326D01*
X11439723Y-28311174D01*
X11624261Y-27915432D01*
X11773605Y-27505112D01*
X11886619Y-27083337D01*
X11962443Y-26653318D01*
X12000500Y-26218327D01*
X12000500Y-25781673D01*
X12000500Y-25781669D01*
X37999500Y-25781669D01*
X37999500Y-26218330D01*
X38037557Y-26653320D01*
X38037557Y-26653324D01*
X38113379Y-27083327D01*
X38113383Y-27083344D01*
X38226392Y-27505105D01*
X38319640Y-27761301D01*
X38375438Y-27914606D01*
X38375740Y-27915434D01*
X38375746Y-27915449D01*
X38560272Y-28311164D01*
X38560280Y-28311180D01*
X38675235Y-28510288D01*
X38778603Y-28689326D01*
X38778607Y-28689332D01*
X38778614Y-28689343D01*
X39029057Y-29047013D01*
X39124044Y-29160213D01*
X39309732Y-29381507D01*
X39618493Y-29690268D01*
X39709340Y-29766498D01*
X39952986Y-29970942D01*
X40310656Y-30221385D01*
X40310663Y-30221389D01*
X40310674Y-30221397D01*
X40688826Y-30439723D01*
X40688835Y-30439727D01*
X41084550Y-30624253D01*
X41084555Y-30624255D01*
X41084568Y-30624261D01*
X41494888Y-30773605D01*
X41494889Y-30773605D01*
X41494894Y-30773607D01*
X41607391Y-30803750D01*
X41916663Y-30886619D01*
X42346682Y-30962443D01*
X42781671Y-31000499D01*
X42781672Y-31000500D01*
X42781673Y-31000500D01*
X43218328Y-31000500D01*
X43218328Y-31000499D01*
X43653318Y-30962443D01*
X44083337Y-30886619D01*
X44505112Y-30773605D01*
X44915432Y-30624261D01*
X45311174Y-30439723D01*
X45689326Y-30221397D01*
X46047012Y-29970943D01*
X46381507Y-29690268D01*
X46690268Y-29381507D01*
X46970943Y-29047012D01*
X47221397Y-28689326D01*
X47439723Y-28311174D01*
X47624261Y-27915432D01*
X47773605Y-27505112D01*
X47886619Y-27083337D01*
X47962443Y-26653318D01*
X48000500Y-26218327D01*
X48000500Y-25781673D01*
X47962443Y-25346682D01*
X47886619Y-24916663D01*
X47773605Y-24494888D01*
X47624261Y-24084568D01*
X47622230Y-24080213D01*
X47469420Y-23752512D01*
X47439723Y-23688826D01*
X47221397Y-23310674D01*
X47221389Y-23310663D01*
X47221385Y-23310656D01*
X46970942Y-22952986D01*
X46690265Y-22618490D01*
X46385488Y-22313713D01*
X85149500Y-22313713D01*
X85149500Y-22526286D01*
X85182753Y-22736239D01*
X85248444Y-22938414D01*
X85344951Y-23127820D01*
X85469890Y-23299786D01*
X85620213Y-23450109D01*
X85792182Y-23575050D01*
X85800946Y-23579516D01*
X85851742Y-23627491D01*
X85868536Y-23695312D01*
X85845998Y-23761447D01*
X85800946Y-23800484D01*
X85792182Y-23804949D01*
X85620213Y-23929890D01*
X85469890Y-24080213D01*
X85344951Y-24252179D01*
X85248444Y-24441585D01*
X85182753Y-24643760D01*
X85149500Y-24853713D01*
X85149500Y-25066286D01*
X85182753Y-25276239D01*
X85248444Y-25478414D01*
X85344951Y-25667820D01*
X85469890Y-25839786D01*
X85620213Y-25990109D01*
X85792182Y-26115050D01*
X85800946Y-26119516D01*
X85851742Y-26167491D01*
X85868536Y-26235312D01*
X85845998Y-26301447D01*
X85800946Y-26340484D01*
X85792182Y-26344949D01*
X85620213Y-26469890D01*
X85469890Y-26620213D01*
X85344951Y-26792179D01*
X85248444Y-26981585D01*
X85182753Y-27183760D01*
X85165830Y-27290609D01*
X85149500Y-27393713D01*
X85149500Y-27606287D01*
X85182754Y-27816243D01*
X85216841Y-27921153D01*
X85248444Y-28018414D01*
X85344951Y-28207820D01*
X85469890Y-28379786D01*
X85620213Y-28530109D01*
X85792182Y-28655050D01*
X85800946Y-28659516D01*
X85851742Y-28707491D01*
X85868536Y-28775312D01*
X85845998Y-28841447D01*
X85800946Y-28880484D01*
X85792182Y-28884949D01*
X85620213Y-29009890D01*
X85469890Y-29160213D01*
X85344951Y-29332179D01*
X85248444Y-29521585D01*
X85182753Y-29723760D01*
X85149500Y-29933713D01*
X85149500Y-30146286D01*
X85163311Y-30233489D01*
X85182754Y-30356243D01*
X85232806Y-30510288D01*
X85248444Y-30558414D01*
X85344951Y-30747820D01*
X85469890Y-30919786D01*
X85620213Y-31070109D01*
X85792182Y-31195050D01*
X85800946Y-31199516D01*
X85851742Y-31247491D01*
X85868536Y-31315312D01*
X85845998Y-31381447D01*
X85800946Y-31420484D01*
X85792182Y-31424949D01*
X85620213Y-31549890D01*
X85469890Y-31700213D01*
X85344951Y-31872179D01*
X85248444Y-32061585D01*
X85182753Y-32263760D01*
X85149500Y-32473713D01*
X85149500Y-32686286D01*
X85182753Y-32896239D01*
X85248444Y-33098414D01*
X85344951Y-33287820D01*
X85469890Y-33459786D01*
X85583430Y-33573326D01*
X85616915Y-33634649D01*
X85611931Y-33704341D01*
X85570059Y-33760274D01*
X85539083Y-33777189D01*
X85407669Y-33826203D01*
X85407664Y-33826206D01*
X85292455Y-33912452D01*
X85292452Y-33912455D01*
X85206206Y-34027664D01*
X85206202Y-34027671D01*
X85155908Y-34162517D01*
X85149501Y-34222116D01*
X85149501Y-34222123D01*
X85149500Y-34222135D01*
X85149500Y-36017870D01*
X85149501Y-36017876D01*
X85155908Y-36077483D01*
X85206202Y-36212328D01*
X85206206Y-36212335D01*
X85292452Y-36327544D01*
X85292455Y-36327547D01*
X85407664Y-36413793D01*
X85407671Y-36413797D01*
X85542517Y-36464091D01*
X85542516Y-36464091D01*
X85549444Y-36464835D01*
X85602127Y-36470500D01*
X87397872Y-36470499D01*
X87457483Y-36464091D01*
X87592331Y-36413796D01*
X87707546Y-36327546D01*
X87793796Y-36212331D01*
X87844091Y-36077483D01*
X87850500Y-36017873D01*
X87850499Y-34222128D01*
X87844091Y-34162517D01*
X87793796Y-34027669D01*
X87793795Y-34027668D01*
X87793793Y-34027664D01*
X87707547Y-33912455D01*
X87707544Y-33912452D01*
X87592335Y-33826206D01*
X87592328Y-33826202D01*
X87460917Y-33777189D01*
X87404983Y-33735318D01*
X87380566Y-33669853D01*
X87395418Y-33601580D01*
X87416563Y-33573332D01*
X87530104Y-33459792D01*
X87655051Y-33287816D01*
X87751557Y-33098412D01*
X87817246Y-32896243D01*
X87850500Y-32686287D01*
X87850500Y-32473713D01*
X87817246Y-32263757D01*
X87751557Y-32061588D01*
X87655051Y-31872184D01*
X87655049Y-31872181D01*
X87655048Y-31872179D01*
X87530109Y-31700213D01*
X87379786Y-31549890D01*
X87207820Y-31424951D01*
X87207115Y-31424591D01*
X87199054Y-31420485D01*
X87148259Y-31372512D01*
X87131463Y-31304692D01*
X87153999Y-31238556D01*
X87199054Y-31199515D01*
X87207816Y-31195051D01*
X87229789Y-31179086D01*
X87379786Y-31070109D01*
X87379788Y-31070106D01*
X87379792Y-31070104D01*
X87530104Y-30919792D01*
X87530106Y-30919788D01*
X87530109Y-30919786D01*
X87655048Y-30747820D01*
X87655047Y-30747820D01*
X87655051Y-30747816D01*
X87751557Y-30558412D01*
X87817246Y-30356243D01*
X87850500Y-30146287D01*
X87850500Y-29933713D01*
X87817246Y-29723757D01*
X87751557Y-29521588D01*
X87655051Y-29332184D01*
X87655049Y-29332181D01*
X87655048Y-29332179D01*
X87530109Y-29160213D01*
X87379786Y-29009890D01*
X87207820Y-28884951D01*
X87207115Y-28884591D01*
X87199054Y-28880485D01*
X87148259Y-28832512D01*
X87131463Y-28764692D01*
X87153999Y-28698556D01*
X87199054Y-28659515D01*
X87207816Y-28655051D01*
X87253602Y-28621786D01*
X87379786Y-28530109D01*
X87379788Y-28530106D01*
X87379792Y-28530104D01*
X87530104Y-28379792D01*
X87530106Y-28379788D01*
X87530109Y-28379786D01*
X87655048Y-28207820D01*
X87655047Y-28207820D01*
X87655051Y-28207816D01*
X87751557Y-28018412D01*
X87817246Y-27816243D01*
X87850500Y-27606287D01*
X87850500Y-27393713D01*
X87817246Y-27183757D01*
X87751557Y-26981588D01*
X87655051Y-26792184D01*
X87655049Y-26792181D01*
X87655048Y-26792179D01*
X87530109Y-26620213D01*
X87379786Y-26469890D01*
X87207820Y-26344951D01*
X87207115Y-26344591D01*
X87199054Y-26340485D01*
X87148259Y-26292512D01*
X87131463Y-26224692D01*
X87153999Y-26158556D01*
X87199054Y-26119515D01*
X87207816Y-26115051D01*
X87229789Y-26099086D01*
X87379786Y-25990109D01*
X87379788Y-25990106D01*
X87379792Y-25990104D01*
X87530104Y-25839792D01*
X87530106Y-25839788D01*
X87530109Y-25839786D01*
X87655048Y-25667820D01*
X87655047Y-25667820D01*
X87655051Y-25667816D01*
X87751557Y-25478412D01*
X87817246Y-25276243D01*
X87850500Y-25066287D01*
X87850500Y-24853713D01*
X87817246Y-24643757D01*
X87751557Y-24441588D01*
X87655051Y-24252184D01*
X87655049Y-24252181D01*
X87655048Y-24252179D01*
X87530109Y-24080213D01*
X87379786Y-23929890D01*
X87207820Y-23804951D01*
X87207115Y-23804591D01*
X87199054Y-23800485D01*
X87148259Y-23752512D01*
X87131463Y-23684692D01*
X87153999Y-23618556D01*
X87199054Y-23579515D01*
X87207816Y-23575051D01*
X87229789Y-23559086D01*
X87379786Y-23450109D01*
X87379788Y-23450106D01*
X87379792Y-23450104D01*
X87530104Y-23299792D01*
X87530106Y-23299788D01*
X87530109Y-23299786D01*
X87655048Y-23127820D01*
X87655047Y-23127820D01*
X87655051Y-23127816D01*
X87751557Y-22938412D01*
X87817246Y-22736243D01*
X87850500Y-22526287D01*
X87850500Y-22313713D01*
X87817246Y-22103757D01*
X87751557Y-21901588D01*
X87655051Y-21712184D01*
X87655049Y-21712181D01*
X87655048Y-21712179D01*
X87530109Y-21540213D01*
X87379786Y-21389890D01*
X87207817Y-21264949D01*
X87198504Y-21260204D01*
X87147707Y-21212230D01*
X87130912Y-21144409D01*
X87153449Y-21078274D01*
X87198507Y-21039232D01*
X87207555Y-21034622D01*
X87261716Y-20995270D01*
X87261717Y-20995270D01*
X86629408Y-20362962D01*
X86692993Y-20345925D01*
X86807007Y-20280099D01*
X86900099Y-20187007D01*
X86965925Y-20072993D01*
X86982962Y-20009408D01*
X87615270Y-20641717D01*
X87615270Y-20641716D01*
X87654622Y-20587554D01*
X87751095Y-20398217D01*
X87816757Y-20196130D01*
X87816757Y-20196127D01*
X87850000Y-19986246D01*
X87850000Y-19773753D01*
X87816757Y-19563872D01*
X87816757Y-19563869D01*
X87751095Y-19361782D01*
X87654624Y-19172449D01*
X87615270Y-19118282D01*
X87615269Y-19118282D01*
X86982962Y-19750590D01*
X86965925Y-19687007D01*
X86900099Y-19572993D01*
X86807007Y-19479901D01*
X86692993Y-19414075D01*
X86629409Y-19397037D01*
X87261716Y-18764728D01*
X87207550Y-18725375D01*
X87018217Y-18628904D01*
X86816129Y-18563242D01*
X86606246Y-18530000D01*
X86393754Y-18530000D01*
X86183872Y-18563242D01*
X86183869Y-18563242D01*
X85981782Y-18628904D01*
X85792439Y-18725380D01*
X85738282Y-18764727D01*
X85738282Y-18764728D01*
X86370591Y-19397037D01*
X86307007Y-19414075D01*
X86192993Y-19479901D01*
X86099901Y-19572993D01*
X86034075Y-19687007D01*
X86017037Y-19750591D01*
X85384728Y-19118282D01*
X85384727Y-19118282D01*
X85345380Y-19172439D01*
X85248904Y-19361782D01*
X85183242Y-19563869D01*
X85183242Y-19563872D01*
X85150000Y-19773753D01*
X85150000Y-19986246D01*
X85183242Y-20196127D01*
X85183242Y-20196130D01*
X85248904Y-20398217D01*
X85345375Y-20587550D01*
X85384728Y-20641716D01*
X86017037Y-20009408D01*
X86034075Y-20072993D01*
X86099901Y-20187007D01*
X86192993Y-20280099D01*
X86307007Y-20345925D01*
X86370590Y-20362962D01*
X85738282Y-20995269D01*
X85738282Y-20995270D01*
X85792452Y-21034626D01*
X85792451Y-21034626D01*
X85801495Y-21039234D01*
X85852292Y-21087208D01*
X85869087Y-21155029D01*
X85846550Y-21221164D01*
X85801499Y-21260202D01*
X85792182Y-21264949D01*
X85620213Y-21389890D01*
X85469890Y-21540213D01*
X85344951Y-21712179D01*
X85248444Y-21901585D01*
X85182753Y-22103760D01*
X85149500Y-22313713D01*
X46385488Y-22313713D01*
X46381509Y-22309734D01*
X46047013Y-22029057D01*
X45689343Y-21778614D01*
X45689332Y-21778607D01*
X45689326Y-21778603D01*
X45574276Y-21712179D01*
X45311180Y-21560280D01*
X45311164Y-21560272D01*
X44915449Y-21375746D01*
X44915434Y-21375740D01*
X44915432Y-21375739D01*
X44761301Y-21319640D01*
X44505105Y-21226392D01*
X44083344Y-21113383D01*
X44083347Y-21113383D01*
X44083337Y-21113381D01*
X44083331Y-21113379D01*
X44083327Y-21113379D01*
X43653322Y-21037557D01*
X43218330Y-20999500D01*
X43218327Y-20999500D01*
X42781673Y-20999500D01*
X42781669Y-20999500D01*
X42346679Y-21037557D01*
X42346675Y-21037557D01*
X41916672Y-21113379D01*
X41916655Y-21113383D01*
X41494894Y-21226392D01*
X41084565Y-21375740D01*
X41084550Y-21375746D01*
X40688835Y-21560272D01*
X40688819Y-21560280D01*
X40310682Y-21778598D01*
X40310656Y-21778614D01*
X39952986Y-22029057D01*
X39618490Y-22309734D01*
X39309734Y-22618490D01*
X39029057Y-22952986D01*
X38778614Y-23310656D01*
X38778598Y-23310682D01*
X38560280Y-23688819D01*
X38560272Y-23688835D01*
X38375746Y-24084550D01*
X38375740Y-24084565D01*
X38226392Y-24494894D01*
X38113383Y-24916655D01*
X38113379Y-24916672D01*
X38037557Y-25346675D01*
X38037557Y-25346679D01*
X37999500Y-25781669D01*
X12000500Y-25781669D01*
X11962443Y-25346682D01*
X11886619Y-24916663D01*
X11773605Y-24494888D01*
X11624261Y-24084568D01*
X11622230Y-24080213D01*
X11469420Y-23752512D01*
X11439723Y-23688826D01*
X11221397Y-23310674D01*
X11221389Y-23310663D01*
X11221385Y-23310656D01*
X10970942Y-22952986D01*
X10690265Y-22618490D01*
X10381509Y-22309734D01*
X10047013Y-22029057D01*
X9689343Y-21778614D01*
X9689332Y-21778607D01*
X9689326Y-21778603D01*
X9574276Y-21712179D01*
X9311180Y-21560280D01*
X9311164Y-21560272D01*
X8915449Y-21375746D01*
X8915434Y-21375740D01*
X8915432Y-21375739D01*
X8761301Y-21319640D01*
X8505105Y-21226392D01*
X8083344Y-21113383D01*
X8083347Y-21113383D01*
X8083337Y-21113381D01*
X8083331Y-21113379D01*
X8083327Y-21113379D01*
X7653322Y-21037557D01*
X7218330Y-20999500D01*
X7218327Y-20999500D01*
X6781673Y-20999500D01*
X6781669Y-20999500D01*
X6346679Y-21037557D01*
X6346675Y-21037557D01*
X5916672Y-21113379D01*
X5916655Y-21113383D01*
X5494894Y-21226392D01*
X5084565Y-21375740D01*
X5084550Y-21375746D01*
X4688835Y-21560272D01*
X4688819Y-21560280D01*
X4310682Y-21778598D01*
X4310656Y-21778614D01*
X3952986Y-22029057D01*
X3618490Y-22309734D01*
X3309734Y-22618490D01*
X3029057Y-22952986D01*
X2778614Y-23310656D01*
X2778598Y-23310682D01*
X2560280Y-23688819D01*
X2560272Y-23688835D01*
X2375746Y-24084550D01*
X2375740Y-24084565D01*
X2226392Y-24494894D01*
X2113383Y-24916655D01*
X2113379Y-24916672D01*
X2037557Y-25346675D01*
X2037557Y-25346679D01*
X1999500Y-25781669D01*
X500500Y-25781669D01*
X500500Y-624500D01*
X520185Y-557461D01*
X572989Y-511706D01*
X624500Y-500500D01*
X89375500Y-500500D01*
X89442539Y-520185D01*
G37*
%TD.AperFunction*%
%TD*%
M02*
