%TF.GenerationSoftware,KiCad,Pcbnew,9.0.4*%
%TF.CreationDate,2025-10-31T13:00:25+01:00*%
%TF.ProjectId,Amperry_robot,416d7065-7272-4795-9f72-6f626f742e6b,rev?*%
%TF.SameCoordinates,Original*%
%TF.FileFunction,Paste,Top*%
%TF.FilePolarity,Positive*%
%FSLAX46Y46*%
G04 Gerber Fmt 4.6, Leading zero omitted, Abs format (unit mm)*
G04 Created by KiCad (PCBNEW 9.0.4) date 2025-10-31 13:00:25*
%MOMM*%
%LPD*%
G01*
G04 APERTURE LIST*
G04 Aperture macros list*
%AMRoundRect*
0 Rectangle with rounded corners*
0 $1 Rounding radius*
0 $2 $3 $4 $5 $6 $7 $8 $9 X,Y pos of 4 corners*
0 Add a 4 corners polygon primitive as box body*
4,1,4,$2,$3,$4,$5,$6,$7,$8,$9,$2,$3,0*
0 Add four circle primitives for the rounded corners*
1,1,$1+$1,$2,$3*
1,1,$1+$1,$4,$5*
1,1,$1+$1,$6,$7*
1,1,$1+$1,$8,$9*
0 Add four rect primitives between the rounded corners*
20,1,$1+$1,$2,$3,$4,$5,0*
20,1,$1+$1,$4,$5,$6,$7,0*
20,1,$1+$1,$6,$7,$8,$9,0*
20,1,$1+$1,$8,$9,$2,$3,0*%
G04 Aperture macros list end*
%ADD10RoundRect,0.250000X-0.625000X0.400000X-0.625000X-0.400000X0.625000X-0.400000X0.625000X0.400000X0*%
%ADD11RoundRect,0.250000X0.625000X-0.400000X0.625000X0.400000X-0.625000X0.400000X-0.625000X-0.400000X0*%
%ADD12RoundRect,0.250000X-1.275000X-1.125000X1.275000X-1.125000X1.275000X1.125000X-1.275000X1.125000X0*%
%ADD13RoundRect,0.250000X-0.850000X-0.350000X0.850000X-0.350000X0.850000X0.350000X-0.850000X0.350000X0*%
%ADD14RoundRect,0.250000X0.325000X0.450000X-0.325000X0.450000X-0.325000X-0.450000X0.325000X-0.450000X0*%
%ADD15RoundRect,0.250000X-0.300000X0.300000X-0.300000X-0.300000X0.300000X-0.300000X0.300000X0.300000X0*%
%ADD16RoundRect,0.250000X0.400000X0.625000X-0.400000X0.625000X-0.400000X-0.625000X0.400000X-0.625000X0*%
%ADD17RoundRect,0.250000X-0.412500X-0.650000X0.412500X-0.650000X0.412500X0.650000X-0.412500X0.650000X0*%
%ADD18RoundRect,0.250000X-0.400000X-0.625000X0.400000X-0.625000X0.400000X0.625000X-0.400000X0.625000X0*%
%ADD19RoundRect,0.250000X0.412500X0.650000X-0.412500X0.650000X-0.412500X-0.650000X0.412500X-0.650000X0*%
%ADD20RoundRect,0.250000X-0.650000X0.412500X-0.650000X-0.412500X0.650000X-0.412500X0.650000X0.412500X0*%
%ADD21R,0.750000X0.300000*%
%ADD22R,0.300000X0.750000*%
%ADD23R,2.850000X2.850000*%
%ADD24R,1.150000X0.300000*%
%ADD25R,1.450000X1.000000*%
%ADD26RoundRect,0.250000X-0.300000X-0.300000X0.300000X-0.300000X0.300000X0.300000X-0.300000X0.300000X0*%
%ADD27R,2.350000X1.550000*%
%ADD28RoundRect,0.250000X0.650000X-0.412500X0.650000X0.412500X-0.650000X0.412500X-0.650000X-0.412500X0*%
%ADD29RoundRect,0.150000X0.512500X0.150000X-0.512500X0.150000X-0.512500X-0.150000X0.512500X-0.150000X0*%
%ADD30RoundRect,0.250000X0.300000X-0.300000X0.300000X0.300000X-0.300000X0.300000X-0.300000X-0.300000X0*%
G04 APERTURE END LIST*
D10*
%TO.C,R16*%
X69500000Y-141450000D03*
X69500000Y-144550000D03*
%TD*%
D11*
%TO.C,R26*%
X49000000Y-95550000D03*
X49000000Y-92450000D03*
%TD*%
%TO.C,R13*%
X47500000Y-108550000D03*
X47500000Y-105450000D03*
%TD*%
D12*
%TO.C,Q2*%
X81475000Y-43877500D03*
X81475000Y-46927500D03*
X84825000Y-43877500D03*
X84825000Y-46927500D03*
D13*
X76850000Y-43122500D03*
X76850000Y-47682500D03*
%TD*%
D14*
%TO.C,LED2*%
X64215000Y-9960000D03*
X62165000Y-9960000D03*
%TD*%
D11*
%TO.C,R5*%
X73350000Y-46880000D03*
X73350000Y-43780000D03*
%TD*%
D15*
%TO.C,D4*%
X66850000Y-83180000D03*
X66850000Y-85980000D03*
%TD*%
D16*
%TO.C,R4*%
X78900000Y-56830000D03*
X75800000Y-56830000D03*
%TD*%
D17*
%TO.C,C4*%
X55437500Y-63650000D03*
X58562500Y-63650000D03*
%TD*%
D11*
%TO.C,R29*%
X34480000Y-144050000D03*
X34480000Y-140950000D03*
%TD*%
D16*
%TO.C,R3*%
X70400000Y-56830000D03*
X67300000Y-56830000D03*
%TD*%
%TO.C,R63*%
X41050000Y-135500000D03*
X37950000Y-135500000D03*
%TD*%
D18*
%TO.C,R28*%
X67450000Y-10000000D03*
X70550000Y-10000000D03*
%TD*%
%TO.C,R22*%
X52450000Y-102000000D03*
X55550000Y-102000000D03*
%TD*%
D19*
%TO.C,C9*%
X51062500Y-74000000D03*
X47937500Y-74000000D03*
%TD*%
D20*
%TO.C,C3*%
X70350000Y-83267500D03*
X70350000Y-86392500D03*
%TD*%
D10*
%TO.C,R14*%
X58500000Y-105450000D03*
X58500000Y-108550000D03*
%TD*%
D11*
%TO.C,R20*%
X52500000Y-108550000D03*
X52500000Y-105450000D03*
%TD*%
D18*
%TO.C,R23*%
X52000000Y-92500000D03*
X55100000Y-92500000D03*
%TD*%
D10*
%TO.C,R2*%
X42000000Y-140950000D03*
X42000000Y-144050000D03*
%TD*%
%TO.C,R17*%
X72000000Y-141450000D03*
X72000000Y-144550000D03*
%TD*%
D21*
%TO.C,IC2*%
X62000000Y-58750000D03*
X62000000Y-58250000D03*
X62000000Y-57750000D03*
X62000000Y-57250000D03*
X62000000Y-56750000D03*
X62000000Y-56250000D03*
D22*
X61250000Y-55500000D03*
X60750000Y-55500000D03*
X60250000Y-55500000D03*
X59750000Y-55500000D03*
X59250000Y-55500000D03*
X58750000Y-55500000D03*
D21*
X58000000Y-56250000D03*
X58000000Y-56750000D03*
X58000000Y-57250000D03*
X58000000Y-57750000D03*
X58000000Y-58250000D03*
X58000000Y-58750000D03*
D22*
X58750000Y-59500000D03*
X59250000Y-59500000D03*
X59750000Y-59500000D03*
X60250000Y-59500000D03*
X60750000Y-59500000D03*
X61250000Y-59500000D03*
D23*
X60000000Y-57500000D03*
%TD*%
D12*
%TO.C,Q1*%
X81275000Y-61525000D03*
X81275000Y-64575000D03*
X84625000Y-61525000D03*
X84625000Y-64575000D03*
D13*
X76650000Y-60770000D03*
X76650000Y-65330000D03*
%TD*%
D18*
%TO.C,R6*%
X67450000Y-13500000D03*
X70550000Y-13500000D03*
%TD*%
D14*
%TO.C,LED1*%
X64215000Y-13500000D03*
X62165000Y-13500000D03*
%TD*%
D17*
%TO.C,C6*%
X55437500Y-67000000D03*
X58562500Y-67000000D03*
%TD*%
D24*
%TO.C,J1*%
X60515000Y-77750000D03*
X60515000Y-76250000D03*
X60515000Y-75750000D03*
X60515000Y-75250000D03*
X60515000Y-74750000D03*
X60515000Y-74250000D03*
X60515000Y-73750000D03*
X60515000Y-72250000D03*
X63485000Y-72250000D03*
X63485000Y-73750000D03*
X63485000Y-74250000D03*
X63485000Y-74750000D03*
X63485000Y-75250000D03*
X63485000Y-75750000D03*
X63485000Y-76250000D03*
X63485000Y-77750000D03*
%TD*%
D20*
%TO.C,C7*%
X64500000Y-61437500D03*
X64500000Y-64562500D03*
%TD*%
D18*
%TO.C,R25*%
X51950000Y-95500000D03*
X55050000Y-95500000D03*
%TD*%
D25*
%TO.C,BTN1*%
X23925000Y-144850000D03*
X23925000Y-143150000D03*
X29075000Y-144850000D03*
X29075000Y-143150000D03*
%TD*%
D10*
%TO.C,R12*%
X58000000Y-92450000D03*
X58000000Y-95550000D03*
%TD*%
D11*
%TO.C,R27*%
X54540079Y-24354031D03*
X54540079Y-21254031D03*
%TD*%
D26*
%TO.C,D3*%
X82450000Y-53830000D03*
X85250000Y-53830000D03*
%TD*%
D27*
%TO.C,DS7*%
X24350000Y-136500000D03*
X28650000Y-136500000D03*
%TD*%
D19*
%TO.C,C2*%
X78912500Y-53830000D03*
X75787500Y-53830000D03*
%TD*%
D28*
%TO.C,C13*%
X51500000Y-57562500D03*
X51500000Y-54437500D03*
%TD*%
D18*
%TO.C,R8*%
X73950000Y-36500000D03*
X77050000Y-36500000D03*
%TD*%
D29*
%TO.C,Q7*%
X34637500Y-134950000D03*
X34637500Y-133050000D03*
X32362500Y-134000000D03*
%TD*%
D17*
%TO.C,C1*%
X82287500Y-56830000D03*
X85412500Y-56830000D03*
%TD*%
D11*
%TO.C,R19*%
X50000000Y-108550000D03*
X50000000Y-105450000D03*
%TD*%
%TO.C,R21*%
X55000000Y-108550000D03*
X55000000Y-105450000D03*
%TD*%
D28*
%TO.C,C37*%
X38480000Y-144062500D03*
X38480000Y-140937500D03*
%TD*%
D10*
%TO.C,R11*%
X78500000Y-15950000D03*
X78500000Y-19050000D03*
%TD*%
D19*
%TO.C,C8*%
X51062500Y-71000000D03*
X47937500Y-71000000D03*
%TD*%
D30*
%TO.C,D2*%
X70350000Y-46730000D03*
X70350000Y-43930000D03*
%TD*%
D11*
%TO.C,R7*%
X72850000Y-60380000D03*
X72850000Y-57280000D03*
%TD*%
D10*
%TO.C,R10*%
X78500000Y-21950000D03*
X78500000Y-25050000D03*
%TD*%
%TO.C,R24*%
X58000000Y-21450000D03*
X58000000Y-24550000D03*
%TD*%
%TO.C,R15*%
X67000000Y-141500000D03*
X67000000Y-144600000D03*
%TD*%
%TO.C,R9*%
X75000000Y-24950000D03*
X75000000Y-28050000D03*
%TD*%
D18*
%TO.C,R75*%
X37950000Y-132000000D03*
X41050000Y-132000000D03*
%TD*%
D10*
%TO.C,R18*%
X74500000Y-141450000D03*
X74500000Y-144550000D03*
%TD*%
M02*
