%TF.GenerationSoftware,KiCad,Pcbnew,9.0.4*%
%TF.CreationDate,2025-10-31T13:00:26+01:00*%
%TF.ProjectId,Amperry_robot,416d7065-7272-4795-9f72-6f626f742e6b,rev?*%
%TF.SameCoordinates,Original*%
%TF.FileFunction,Legend,Bot*%
%TF.FilePolarity,Positive*%
%FSLAX46Y46*%
G04 Gerber Fmt 4.6, Leading zero omitted, Abs format (unit mm)*
G04 Created by KiCad (PCBNEW 9.0.4) date 2025-10-31 13:00:26*
%MOMM*%
%LPD*%
G01*
G04 APERTURE LIST*
%ADD10C,0.000000*%
%ADD11C,0.100000*%
%ADD12C,0.150000*%
%ADD13C,0.120000*%
G04 APERTURE END LIST*
D10*
G36*
X63633052Y-40992344D02*
G01*
X63664924Y-40994712D01*
X63696331Y-40998612D01*
X63727236Y-41004006D01*
X63757599Y-41010854D01*
X63787379Y-41019119D01*
X63816539Y-41028761D01*
X63845038Y-41039743D01*
X63872837Y-41052025D01*
X63899896Y-41065569D01*
X63926177Y-41080337D01*
X63951639Y-41096291D01*
X63976243Y-41113390D01*
X63999951Y-41131598D01*
X64022722Y-41150876D01*
X64044516Y-41171184D01*
X64065296Y-41192485D01*
X64085020Y-41214740D01*
X64103650Y-41237910D01*
X64121146Y-41261958D01*
X64137470Y-41286843D01*
X64152580Y-41312529D01*
X64166439Y-41338976D01*
X64179006Y-41366146D01*
X64190243Y-41394000D01*
X64200109Y-41422500D01*
X64208565Y-41451607D01*
X64215573Y-41481283D01*
X64221091Y-41511489D01*
X64225082Y-41542187D01*
X64227506Y-41573338D01*
X64228322Y-41604903D01*
X64227506Y-41636452D01*
X64225082Y-41667587D01*
X64221091Y-41698270D01*
X64215573Y-41728463D01*
X64208565Y-41758126D01*
X64200109Y-41787222D01*
X64190243Y-41815712D01*
X64179006Y-41843557D01*
X64166439Y-41870718D01*
X64152580Y-41897157D01*
X64137470Y-41922836D01*
X64121146Y-41947716D01*
X64103650Y-41971758D01*
X64085020Y-41994924D01*
X64065296Y-42017175D01*
X64044516Y-42038473D01*
X64022722Y-42058778D01*
X63999951Y-42078053D01*
X63976243Y-42096259D01*
X63951639Y-42113358D01*
X63926177Y-42129310D01*
X63899896Y-42144077D01*
X63872837Y-42157621D01*
X63845038Y-42169903D01*
X63816539Y-42180885D01*
X63787379Y-42190527D01*
X63757599Y-42198792D01*
X63727236Y-42205641D01*
X63696331Y-42211035D01*
X63664924Y-42214935D01*
X63633052Y-42217304D01*
X63600757Y-42218102D01*
X63568445Y-42217304D01*
X63536556Y-42214935D01*
X63505131Y-42211035D01*
X63474209Y-42205641D01*
X63443830Y-42198792D01*
X63414032Y-42190527D01*
X63384856Y-42180885D01*
X63356340Y-42169903D01*
X63328525Y-42157621D01*
X63301450Y-42144077D01*
X63275154Y-42129310D01*
X63249677Y-42113358D01*
X63225058Y-42096259D01*
X63201336Y-42078053D01*
X63178552Y-42058778D01*
X63156744Y-42038473D01*
X63135952Y-42017175D01*
X63116215Y-41994924D01*
X63097573Y-41971758D01*
X63080066Y-41947716D01*
X63063733Y-41922836D01*
X63048612Y-41897157D01*
X63034745Y-41870718D01*
X63022170Y-41843557D01*
X63010926Y-41815712D01*
X63001054Y-41787222D01*
X62992592Y-41758126D01*
X62985580Y-41728463D01*
X62980058Y-41698270D01*
X62976064Y-41667587D01*
X62973639Y-41636452D01*
X62972822Y-41604903D01*
X62973639Y-41573338D01*
X62976064Y-41542187D01*
X62980058Y-41511489D01*
X62985580Y-41481283D01*
X62992592Y-41451607D01*
X63001054Y-41422500D01*
X63010926Y-41394000D01*
X63022170Y-41366146D01*
X63034745Y-41338976D01*
X63048612Y-41312529D01*
X63063733Y-41286843D01*
X63080066Y-41261958D01*
X63097573Y-41237910D01*
X63116215Y-41214740D01*
X63135952Y-41192485D01*
X63156744Y-41171184D01*
X63178552Y-41150876D01*
X63201336Y-41131598D01*
X63225058Y-41113390D01*
X63249677Y-41096291D01*
X63275154Y-41080337D01*
X63301450Y-41065569D01*
X63328525Y-41052025D01*
X63356340Y-41039743D01*
X63384856Y-41028761D01*
X63414032Y-41019119D01*
X63443830Y-41010854D01*
X63474209Y-41004006D01*
X63505131Y-40998612D01*
X63536556Y-40994712D01*
X63568445Y-40992344D01*
X63600757Y-40991546D01*
X63633052Y-40992344D01*
G37*
G36*
X63493741Y-27129562D02*
G01*
X63691447Y-27549575D01*
X63887451Y-27977972D01*
X64081453Y-28414112D01*
X64519712Y-28093654D01*
X64959446Y-27776428D01*
X65400747Y-27462146D01*
X65843710Y-27150520D01*
X65885587Y-27601667D01*
X65925585Y-28060732D01*
X66000000Y-29000000D01*
X67045470Y-28544542D01*
X68096319Y-28093948D01*
X67850227Y-29030868D01*
X67603877Y-29985065D01*
X68718718Y-29753941D01*
X69826615Y-29527680D01*
X69556749Y-29969501D01*
X69289418Y-30413667D01*
X69024349Y-30860357D01*
X68761270Y-31309754D01*
X69837704Y-31322795D01*
X70886377Y-31339784D01*
X70513035Y-31720151D01*
X70142150Y-32103044D01*
X69773358Y-32488563D01*
X69406297Y-32876802D01*
X70359724Y-33126300D01*
X71271240Y-33373240D01*
X70409806Y-33970159D01*
X69543908Y-34577438D01*
X69941047Y-34810666D01*
X70328169Y-35041814D01*
X70705403Y-35270791D01*
X71072882Y-35497500D01*
X70154899Y-35901197D01*
X69219633Y-36309002D01*
X69519527Y-36637127D01*
X69811950Y-36963016D01*
X70097556Y-37286926D01*
X70377002Y-37609112D01*
X69442055Y-37788907D01*
X68487982Y-37966141D01*
X68681065Y-38370121D01*
X68868916Y-38772181D01*
X69052182Y-39172832D01*
X69231514Y-39572585D01*
X67426289Y-39432647D01*
X67416339Y-39446300D01*
X67495346Y-39891488D01*
X67570394Y-40333246D01*
X67641710Y-40771804D01*
X67709524Y-41207393D01*
X67617891Y-41168554D01*
X67517069Y-41120536D01*
X67408770Y-41064710D01*
X67294703Y-41002445D01*
X67056111Y-40864075D01*
X66814974Y-40716382D01*
X66584978Y-40570323D01*
X66379804Y-40436854D01*
X66098661Y-40251505D01*
X65797284Y-40053922D01*
X65564062Y-39912135D01*
X65431975Y-39837290D01*
X65291534Y-39762401D01*
X65144213Y-39689410D01*
X64991486Y-39620258D01*
X64834825Y-39556889D01*
X64675705Y-39501245D01*
X64515598Y-39455268D01*
X64355978Y-39420899D01*
X64198319Y-39400082D01*
X64120685Y-39395363D01*
X64044093Y-39394759D01*
X63893786Y-39401752D01*
X63745789Y-39416567D01*
X63600310Y-39438991D01*
X63457555Y-39468810D01*
X63317732Y-39505811D01*
X63181048Y-39549782D01*
X63047711Y-39600508D01*
X62917927Y-39657778D01*
X62791904Y-39721377D01*
X62669850Y-39791094D01*
X62551971Y-39866714D01*
X62438475Y-39948024D01*
X62329570Y-40034812D01*
X62225461Y-40126864D01*
X62126357Y-40223967D01*
X62032466Y-40325908D01*
X62012226Y-40348952D01*
X62012226Y-40349296D01*
X62011008Y-40350831D01*
X62010823Y-40350646D01*
X62010638Y-40350831D01*
X62009262Y-40349296D01*
X62009262Y-40348952D01*
X61989180Y-40325908D01*
X61895258Y-40223967D01*
X61796131Y-40126864D01*
X61692006Y-40034812D01*
X61583090Y-39948024D01*
X61469587Y-39866714D01*
X61351705Y-39791094D01*
X61229649Y-39721377D01*
X61103627Y-39657778D01*
X60973843Y-39600508D01*
X60840504Y-39549782D01*
X60703817Y-39505811D01*
X60563987Y-39468810D01*
X60421221Y-39438991D01*
X60275725Y-39416567D01*
X60127705Y-39401752D01*
X59977368Y-39394759D01*
X59900793Y-39395363D01*
X59823174Y-39400082D01*
X59744697Y-39408676D01*
X59665543Y-39420899D01*
X59585899Y-39436511D01*
X59505948Y-39455268D01*
X59425875Y-39476927D01*
X59345863Y-39501245D01*
X59186761Y-39556889D01*
X59030115Y-39620258D01*
X58877400Y-39689410D01*
X58730089Y-39762401D01*
X58589656Y-39837290D01*
X58457574Y-39912135D01*
X58335317Y-39984993D01*
X58224359Y-40053922D01*
X57922984Y-40251505D01*
X57641772Y-40436854D01*
X57436589Y-40570323D01*
X57206589Y-40716382D01*
X56965448Y-40864075D01*
X56726842Y-41002445D01*
X56612763Y-41064710D01*
X56504446Y-41120536D01*
X56403601Y-41168554D01*
X56311937Y-41207393D01*
X56379858Y-40771804D01*
X56451230Y-40333246D01*
X56526298Y-39891488D01*
X56605307Y-39446300D01*
X56595358Y-39432647D01*
X54790135Y-39572585D01*
X54969467Y-39172832D01*
X55152710Y-38772181D01*
X55340501Y-38370121D01*
X55533479Y-37966141D01*
X54579499Y-37788907D01*
X53644632Y-37609112D01*
X53924088Y-37286926D01*
X54209700Y-36963016D01*
X54502123Y-36637127D01*
X54802010Y-36309002D01*
X53866683Y-35901197D01*
X52948774Y-35497500D01*
X53316249Y-35270791D01*
X53693482Y-35041814D01*
X54080603Y-34810666D01*
X54477742Y-34577438D01*
X53611783Y-33970159D01*
X52750407Y-33373240D01*
X53661920Y-33126300D01*
X54615341Y-32876802D01*
X54248209Y-32488563D01*
X53879408Y-32103044D01*
X53508511Y-31720151D01*
X53135093Y-31339784D01*
X54183835Y-31322795D01*
X55260210Y-31309754D01*
X54997150Y-30860357D01*
X54732140Y-30413667D01*
X54464871Y-29969501D01*
X54195032Y-29527680D01*
X55302925Y-29753941D01*
X56417770Y-29985065D01*
X56171420Y-29030868D01*
X55925327Y-28093948D01*
X56976176Y-28544542D01*
X58021648Y-29000000D01*
X58057845Y-28527062D01*
X58095959Y-28060732D01*
X58135944Y-27601667D01*
X58177752Y-27150520D01*
X58620755Y-27462146D01*
X59062118Y-27776428D01*
X59501909Y-28093654D01*
X59940194Y-28414112D01*
X60134193Y-27977972D01*
X60330180Y-27549575D01*
X60527838Y-27129562D01*
X60726853Y-26718572D01*
X61049343Y-27090216D01*
X61370737Y-27468275D01*
X61690791Y-27852574D01*
X62009262Y-28242937D01*
X62009262Y-28242255D01*
X62009452Y-28242510D01*
X62009644Y-28242764D01*
X62009837Y-28243013D01*
X62010033Y-28243257D01*
X62010229Y-28243493D01*
X62010427Y-28243719D01*
X62010625Y-28243933D01*
X62010724Y-28244035D01*
X62010823Y-28244133D01*
X62010923Y-28244035D01*
X62011021Y-28243933D01*
X62011120Y-28243827D01*
X62011217Y-28243719D01*
X62011314Y-28243607D01*
X62011409Y-28243493D01*
X62011502Y-28243376D01*
X62011594Y-28243257D01*
X62011683Y-28243136D01*
X62011770Y-28243013D01*
X62011854Y-28242889D01*
X62011936Y-28242764D01*
X62012014Y-28242637D01*
X62012088Y-28242510D01*
X62012159Y-28242382D01*
X62012226Y-28242255D01*
X62012226Y-28242937D01*
X62330708Y-27852574D01*
X62650801Y-27468275D01*
X62972208Y-27090216D01*
X63294635Y-26718572D01*
X63493741Y-27129562D01*
G37*
G36*
X60452949Y-40992344D02*
G01*
X60484822Y-40994712D01*
X60516232Y-40998612D01*
X60547139Y-41004006D01*
X60577503Y-41010854D01*
X60607285Y-41019119D01*
X60636447Y-41028761D01*
X60664947Y-41039743D01*
X60692747Y-41052025D01*
X60719808Y-41065569D01*
X60746090Y-41080337D01*
X60771553Y-41096291D01*
X60796158Y-41113390D01*
X60819866Y-41131598D01*
X60842638Y-41150876D01*
X60864433Y-41171184D01*
X60885213Y-41192485D01*
X60904938Y-41214740D01*
X60923569Y-41237910D01*
X60941065Y-41261958D01*
X60957389Y-41286843D01*
X60972500Y-41312529D01*
X60986359Y-41338976D01*
X60998926Y-41366146D01*
X61010163Y-41394000D01*
X61020029Y-41422500D01*
X61028486Y-41451607D01*
X61035493Y-41481283D01*
X61041012Y-41511489D01*
X61045003Y-41542187D01*
X61047426Y-41573338D01*
X61048243Y-41604903D01*
X61047426Y-41636452D01*
X61045003Y-41667587D01*
X61041012Y-41698270D01*
X61035493Y-41728463D01*
X61028486Y-41758126D01*
X61020029Y-41787222D01*
X61010163Y-41815712D01*
X60998926Y-41843557D01*
X60986359Y-41870718D01*
X60972500Y-41897157D01*
X60957389Y-41922836D01*
X60941065Y-41947716D01*
X60923569Y-41971758D01*
X60904938Y-41994924D01*
X60885213Y-42017175D01*
X60864433Y-42038473D01*
X60842638Y-42058778D01*
X60819866Y-42078053D01*
X60796158Y-42096259D01*
X60771553Y-42113358D01*
X60746090Y-42129310D01*
X60719808Y-42144077D01*
X60692747Y-42157621D01*
X60664947Y-42169903D01*
X60636447Y-42180885D01*
X60607285Y-42190527D01*
X60577503Y-42198792D01*
X60547139Y-42205641D01*
X60516232Y-42211035D01*
X60484822Y-42214935D01*
X60452949Y-42217304D01*
X60420651Y-42218102D01*
X60388322Y-42217304D01*
X60356419Y-42214935D01*
X60324982Y-42211035D01*
X60294050Y-42205641D01*
X60263662Y-42198792D01*
X60233857Y-42190527D01*
X60204675Y-42180885D01*
X60176156Y-42169903D01*
X60148339Y-42157621D01*
X60121262Y-42144077D01*
X60094966Y-42129310D01*
X60069489Y-42113358D01*
X60044872Y-42096259D01*
X60021153Y-42078053D01*
X59998372Y-42058778D01*
X59976568Y-42038473D01*
X59955780Y-42017175D01*
X59936049Y-41994924D01*
X59917412Y-41971758D01*
X59899911Y-41947716D01*
X59883583Y-41922836D01*
X59868468Y-41897157D01*
X59854607Y-41870718D01*
X59842037Y-41843557D01*
X59830798Y-41815712D01*
X59820931Y-41787222D01*
X59812473Y-41758126D01*
X59805465Y-41728463D01*
X59799946Y-41698270D01*
X59795955Y-41667587D01*
X59793532Y-41636452D01*
X59792715Y-41604903D01*
X59793532Y-41573338D01*
X59795955Y-41542187D01*
X59799946Y-41511489D01*
X59805465Y-41481283D01*
X59812473Y-41451607D01*
X59820931Y-41422500D01*
X59830798Y-41394000D01*
X59842037Y-41366146D01*
X59854607Y-41338976D01*
X59868468Y-41312529D01*
X59883583Y-41286843D01*
X59899911Y-41261958D01*
X59917412Y-41237910D01*
X59936049Y-41214740D01*
X59955780Y-41192485D01*
X59976568Y-41171184D01*
X59998372Y-41150876D01*
X60021153Y-41131598D01*
X60044872Y-41113390D01*
X60069489Y-41096291D01*
X60094966Y-41080337D01*
X60121262Y-41065569D01*
X60148339Y-41052025D01*
X60176156Y-41039743D01*
X60204675Y-41028761D01*
X60233857Y-41019119D01*
X60263662Y-41010854D01*
X60294050Y-41004006D01*
X60324982Y-40998612D01*
X60356419Y-40994712D01*
X60388322Y-40992344D01*
X60420651Y-40991546D01*
X60452949Y-40992344D01*
G37*
G36*
X62042988Y-42955315D02*
G01*
X62074862Y-42957684D01*
X62106272Y-42961584D01*
X62137178Y-42966977D01*
X62167543Y-42973826D01*
X62197325Y-42982090D01*
X62226486Y-42991733D01*
X62254987Y-43002714D01*
X62282787Y-43014996D01*
X62309848Y-43028541D01*
X62336129Y-43043309D01*
X62361593Y-43059262D01*
X62386198Y-43076362D01*
X62409906Y-43094569D01*
X62432678Y-43113847D01*
X62454473Y-43134155D01*
X62475253Y-43155456D01*
X62494978Y-43177711D01*
X62513608Y-43200881D01*
X62531105Y-43224928D01*
X62547429Y-43249814D01*
X62562540Y-43275499D01*
X62576399Y-43301946D01*
X62588966Y-43329116D01*
X62600203Y-43356970D01*
X62610069Y-43385470D01*
X62618525Y-43414577D01*
X62625533Y-43444252D01*
X62631052Y-43474458D01*
X62635042Y-43505156D01*
X62637466Y-43536306D01*
X62638282Y-43567872D01*
X62637466Y-43599423D01*
X62635042Y-43630560D01*
X62631052Y-43661245D01*
X62625533Y-43691440D01*
X62618525Y-43721105D01*
X62610069Y-43750202D01*
X62600203Y-43778692D01*
X62588966Y-43806537D01*
X62576399Y-43833699D01*
X62562540Y-43860139D01*
X62547429Y-43885818D01*
X62531105Y-43910697D01*
X62513608Y-43934739D01*
X62494978Y-43957904D01*
X62475253Y-43980155D01*
X62454473Y-44001452D01*
X62432678Y-44021757D01*
X62409906Y-44041031D01*
X62386198Y-44059236D01*
X62361593Y-44076334D01*
X62336129Y-44092285D01*
X62309848Y-44107052D01*
X62282787Y-44120595D01*
X62254987Y-44132876D01*
X62226486Y-44143857D01*
X62197325Y-44153498D01*
X62167543Y-44161763D01*
X62137178Y-44168611D01*
X62106272Y-44174004D01*
X62074862Y-44177904D01*
X62042988Y-44180272D01*
X62010691Y-44181070D01*
X61978378Y-44180272D01*
X61946490Y-44177904D01*
X61915065Y-44174004D01*
X61884143Y-44168611D01*
X61853763Y-44161763D01*
X61823966Y-44153498D01*
X61794790Y-44143857D01*
X61766274Y-44132876D01*
X61738459Y-44120595D01*
X61711384Y-44107052D01*
X61685088Y-44092285D01*
X61659610Y-44076334D01*
X61634991Y-44059236D01*
X61611270Y-44041031D01*
X61588485Y-44021757D01*
X61566677Y-44001452D01*
X61545885Y-43980155D01*
X61526148Y-43957904D01*
X61507507Y-43934739D01*
X61489999Y-43910697D01*
X61473666Y-43885818D01*
X61458545Y-43860139D01*
X61444678Y-43833699D01*
X61432103Y-43806537D01*
X61420859Y-43778692D01*
X61410987Y-43750202D01*
X61402525Y-43721105D01*
X61395513Y-43691440D01*
X61389990Y-43661245D01*
X61385997Y-43630560D01*
X61383572Y-43599423D01*
X61382755Y-43567872D01*
X61383572Y-43536306D01*
X61385997Y-43505156D01*
X61389990Y-43474458D01*
X61395513Y-43444252D01*
X61402525Y-43414577D01*
X61410987Y-43385470D01*
X61420859Y-43356970D01*
X61432103Y-43329116D01*
X61444678Y-43301946D01*
X61458545Y-43275499D01*
X61473666Y-43249814D01*
X61489999Y-43224928D01*
X61507507Y-43200881D01*
X61526148Y-43177711D01*
X61545885Y-43155456D01*
X61566677Y-43134155D01*
X61588485Y-43113847D01*
X61611270Y-43094569D01*
X61634991Y-43076362D01*
X61659610Y-43059262D01*
X61685088Y-43043309D01*
X61711384Y-43028541D01*
X61738459Y-43014996D01*
X61766274Y-43002714D01*
X61794790Y-42991733D01*
X61823966Y-42982090D01*
X61853763Y-42973826D01*
X61884143Y-42966977D01*
X61915065Y-42961584D01*
X61946490Y-42957684D01*
X61978378Y-42955315D01*
X62010691Y-42954517D01*
X62042988Y-42955315D01*
G37*
D11*
X9196115Y-44872419D02*
X9196115Y-44205752D01*
X9196115Y-43872419D02*
X9243734Y-43920038D01*
X9243734Y-43920038D02*
X9196115Y-43967657D01*
X9196115Y-43967657D02*
X9148496Y-43920038D01*
X9148496Y-43920038D02*
X9196115Y-43872419D01*
X9196115Y-43872419D02*
X9196115Y-43967657D01*
X8719925Y-44205752D02*
X8719925Y-44872419D01*
X8719925Y-44300990D02*
X8672306Y-44253371D01*
X8672306Y-44253371D02*
X8577068Y-44205752D01*
X8577068Y-44205752D02*
X8434211Y-44205752D01*
X8434211Y-44205752D02*
X8338973Y-44253371D01*
X8338973Y-44253371D02*
X8291354Y-44348609D01*
X8291354Y-44348609D02*
X8291354Y-44872419D01*
X7815163Y-44491466D02*
X7053259Y-44491466D01*
X43053258Y-44872419D02*
X43148496Y-44824800D01*
X43148496Y-44824800D02*
X43196115Y-44777180D01*
X43196115Y-44777180D02*
X43243734Y-44681942D01*
X43243734Y-44681942D02*
X43243734Y-44396228D01*
X43243734Y-44396228D02*
X43196115Y-44300990D01*
X43196115Y-44300990D02*
X43148496Y-44253371D01*
X43148496Y-44253371D02*
X43053258Y-44205752D01*
X43053258Y-44205752D02*
X42910401Y-44205752D01*
X42910401Y-44205752D02*
X42815163Y-44253371D01*
X42815163Y-44253371D02*
X42767544Y-44300990D01*
X42767544Y-44300990D02*
X42719925Y-44396228D01*
X42719925Y-44396228D02*
X42719925Y-44681942D01*
X42719925Y-44681942D02*
X42767544Y-44777180D01*
X42767544Y-44777180D02*
X42815163Y-44824800D01*
X42815163Y-44824800D02*
X42910401Y-44872419D01*
X42910401Y-44872419D02*
X43053258Y-44872419D01*
X41862782Y-44205752D02*
X41862782Y-44872419D01*
X42291353Y-44205752D02*
X42291353Y-44729561D01*
X42291353Y-44729561D02*
X42243734Y-44824800D01*
X42243734Y-44824800D02*
X42148496Y-44872419D01*
X42148496Y-44872419D02*
X42005639Y-44872419D01*
X42005639Y-44872419D02*
X41910401Y-44824800D01*
X41910401Y-44824800D02*
X41862782Y-44777180D01*
X41529448Y-44205752D02*
X41148496Y-44205752D01*
X41386591Y-43872419D02*
X41386591Y-44729561D01*
X41386591Y-44729561D02*
X41338972Y-44824800D01*
X41338972Y-44824800D02*
X41243734Y-44872419D01*
X41243734Y-44872419D02*
X41148496Y-44872419D01*
X40815162Y-44491466D02*
X40053258Y-44491466D01*
X8696115Y-59872419D02*
X8696115Y-59205752D01*
X8696115Y-58872419D02*
X8743734Y-58920038D01*
X8743734Y-58920038D02*
X8696115Y-58967657D01*
X8696115Y-58967657D02*
X8648496Y-58920038D01*
X8648496Y-58920038D02*
X8696115Y-58872419D01*
X8696115Y-58872419D02*
X8696115Y-58967657D01*
X8219925Y-59205752D02*
X8219925Y-59872419D01*
X8219925Y-59300990D02*
X8172306Y-59253371D01*
X8172306Y-59253371D02*
X8077068Y-59205752D01*
X8077068Y-59205752D02*
X7934211Y-59205752D01*
X7934211Y-59205752D02*
X7838973Y-59253371D01*
X7838973Y-59253371D02*
X7791354Y-59348609D01*
X7791354Y-59348609D02*
X7791354Y-59872419D01*
X7315163Y-59491466D02*
X6553259Y-59491466D01*
X6934211Y-59872419D02*
X6934211Y-59110514D01*
X43053258Y-60372419D02*
X43148496Y-60324800D01*
X43148496Y-60324800D02*
X43196115Y-60277180D01*
X43196115Y-60277180D02*
X43243734Y-60181942D01*
X43243734Y-60181942D02*
X43243734Y-59896228D01*
X43243734Y-59896228D02*
X43196115Y-59800990D01*
X43196115Y-59800990D02*
X43148496Y-59753371D01*
X43148496Y-59753371D02*
X43053258Y-59705752D01*
X43053258Y-59705752D02*
X42910401Y-59705752D01*
X42910401Y-59705752D02*
X42815163Y-59753371D01*
X42815163Y-59753371D02*
X42767544Y-59800990D01*
X42767544Y-59800990D02*
X42719925Y-59896228D01*
X42719925Y-59896228D02*
X42719925Y-60181942D01*
X42719925Y-60181942D02*
X42767544Y-60277180D01*
X42767544Y-60277180D02*
X42815163Y-60324800D01*
X42815163Y-60324800D02*
X42910401Y-60372419D01*
X42910401Y-60372419D02*
X43053258Y-60372419D01*
X41862782Y-59705752D02*
X41862782Y-60372419D01*
X42291353Y-59705752D02*
X42291353Y-60229561D01*
X42291353Y-60229561D02*
X42243734Y-60324800D01*
X42243734Y-60324800D02*
X42148496Y-60372419D01*
X42148496Y-60372419D02*
X42005639Y-60372419D01*
X42005639Y-60372419D02*
X41910401Y-60324800D01*
X41910401Y-60324800D02*
X41862782Y-60277180D01*
X41529448Y-59705752D02*
X41148496Y-59705752D01*
X41386591Y-59372419D02*
X41386591Y-60229561D01*
X41386591Y-60229561D02*
X41338972Y-60324800D01*
X41338972Y-60324800D02*
X41243734Y-60372419D01*
X41243734Y-60372419D02*
X41148496Y-60372419D01*
X40815162Y-59991466D02*
X40053258Y-59991466D01*
X40434210Y-60372419D02*
X40434210Y-59610514D01*
X9976189Y-41457419D02*
X9976189Y-40457419D01*
X8928571Y-41362180D02*
X8976190Y-41409800D01*
X8976190Y-41409800D02*
X9119047Y-41457419D01*
X9119047Y-41457419D02*
X9214285Y-41457419D01*
X9214285Y-41457419D02*
X9357142Y-41409800D01*
X9357142Y-41409800D02*
X9452380Y-41314561D01*
X9452380Y-41314561D02*
X9499999Y-41219323D01*
X9499999Y-41219323D02*
X9547618Y-41028847D01*
X9547618Y-41028847D02*
X9547618Y-40885990D01*
X9547618Y-40885990D02*
X9499999Y-40695514D01*
X9499999Y-40695514D02*
X9452380Y-40600276D01*
X9452380Y-40600276D02*
X9357142Y-40505038D01*
X9357142Y-40505038D02*
X9214285Y-40457419D01*
X9214285Y-40457419D02*
X9119047Y-40457419D01*
X9119047Y-40457419D02*
X8976190Y-40505038D01*
X8976190Y-40505038D02*
X8928571Y-40552657D01*
X7976190Y-41457419D02*
X8547618Y-41457419D01*
X8261904Y-41457419D02*
X8261904Y-40457419D01*
X8261904Y-40457419D02*
X8357142Y-40600276D01*
X8357142Y-40600276D02*
X8452380Y-40695514D01*
X8452380Y-40695514D02*
X8547618Y-40743133D01*
D12*
X40142857Y-78359580D02*
X40190476Y-78407200D01*
X40190476Y-78407200D02*
X40333333Y-78454819D01*
X40333333Y-78454819D02*
X40428571Y-78454819D01*
X40428571Y-78454819D02*
X40571428Y-78407200D01*
X40571428Y-78407200D02*
X40666666Y-78311961D01*
X40666666Y-78311961D02*
X40714285Y-78216723D01*
X40714285Y-78216723D02*
X40761904Y-78026247D01*
X40761904Y-78026247D02*
X40761904Y-77883390D01*
X40761904Y-77883390D02*
X40714285Y-77692914D01*
X40714285Y-77692914D02*
X40666666Y-77597676D01*
X40666666Y-77597676D02*
X40571428Y-77502438D01*
X40571428Y-77502438D02*
X40428571Y-77454819D01*
X40428571Y-77454819D02*
X40333333Y-77454819D01*
X40333333Y-77454819D02*
X40190476Y-77502438D01*
X40190476Y-77502438D02*
X40142857Y-77550057D01*
X39190476Y-78454819D02*
X39761904Y-78454819D01*
X39476190Y-78454819D02*
X39476190Y-77454819D01*
X39476190Y-77454819D02*
X39571428Y-77597676D01*
X39571428Y-77597676D02*
X39666666Y-77692914D01*
X39666666Y-77692914D02*
X39761904Y-77740533D01*
X38571428Y-77454819D02*
X38476190Y-77454819D01*
X38476190Y-77454819D02*
X38380952Y-77502438D01*
X38380952Y-77502438D02*
X38333333Y-77550057D01*
X38333333Y-77550057D02*
X38285714Y-77645295D01*
X38285714Y-77645295D02*
X38238095Y-77835771D01*
X38238095Y-77835771D02*
X38238095Y-78073866D01*
X38238095Y-78073866D02*
X38285714Y-78264342D01*
X38285714Y-78264342D02*
X38333333Y-78359580D01*
X38333333Y-78359580D02*
X38380952Y-78407200D01*
X38380952Y-78407200D02*
X38476190Y-78454819D01*
X38476190Y-78454819D02*
X38571428Y-78454819D01*
X38571428Y-78454819D02*
X38666666Y-78407200D01*
X38666666Y-78407200D02*
X38714285Y-78359580D01*
X38714285Y-78359580D02*
X38761904Y-78264342D01*
X38761904Y-78264342D02*
X38809523Y-78073866D01*
X38809523Y-78073866D02*
X38809523Y-77835771D01*
X38809523Y-77835771D02*
X38761904Y-77645295D01*
X38761904Y-77645295D02*
X38714285Y-77550057D01*
X38714285Y-77550057D02*
X38666666Y-77502438D01*
X38666666Y-77502438D02*
X38571428Y-77454819D01*
X36666666Y-94859580D02*
X36714285Y-94907200D01*
X36714285Y-94907200D02*
X36857142Y-94954819D01*
X36857142Y-94954819D02*
X36952380Y-94954819D01*
X36952380Y-94954819D02*
X37095237Y-94907200D01*
X37095237Y-94907200D02*
X37190475Y-94811961D01*
X37190475Y-94811961D02*
X37238094Y-94716723D01*
X37238094Y-94716723D02*
X37285713Y-94526247D01*
X37285713Y-94526247D02*
X37285713Y-94383390D01*
X37285713Y-94383390D02*
X37238094Y-94192914D01*
X37238094Y-94192914D02*
X37190475Y-94097676D01*
X37190475Y-94097676D02*
X37095237Y-94002438D01*
X37095237Y-94002438D02*
X36952380Y-93954819D01*
X36952380Y-93954819D02*
X36857142Y-93954819D01*
X36857142Y-93954819D02*
X36714285Y-94002438D01*
X36714285Y-94002438D02*
X36666666Y-94050057D01*
X35761904Y-93954819D02*
X36238094Y-93954819D01*
X36238094Y-93954819D02*
X36285713Y-94431009D01*
X36285713Y-94431009D02*
X36238094Y-94383390D01*
X36238094Y-94383390D02*
X36142856Y-94335771D01*
X36142856Y-94335771D02*
X35904761Y-94335771D01*
X35904761Y-94335771D02*
X35809523Y-94383390D01*
X35809523Y-94383390D02*
X35761904Y-94431009D01*
X35761904Y-94431009D02*
X35714285Y-94526247D01*
X35714285Y-94526247D02*
X35714285Y-94764342D01*
X35714285Y-94764342D02*
X35761904Y-94859580D01*
X35761904Y-94859580D02*
X35809523Y-94907200D01*
X35809523Y-94907200D02*
X35904761Y-94954819D01*
X35904761Y-94954819D02*
X36142856Y-94954819D01*
X36142856Y-94954819D02*
X36238094Y-94907200D01*
X36238094Y-94907200D02*
X36285713Y-94859580D01*
X61642857Y-93359580D02*
X61690476Y-93407200D01*
X61690476Y-93407200D02*
X61833333Y-93454819D01*
X61833333Y-93454819D02*
X61928571Y-93454819D01*
X61928571Y-93454819D02*
X62071428Y-93407200D01*
X62071428Y-93407200D02*
X62166666Y-93311961D01*
X62166666Y-93311961D02*
X62214285Y-93216723D01*
X62214285Y-93216723D02*
X62261904Y-93026247D01*
X62261904Y-93026247D02*
X62261904Y-92883390D01*
X62261904Y-92883390D02*
X62214285Y-92692914D01*
X62214285Y-92692914D02*
X62166666Y-92597676D01*
X62166666Y-92597676D02*
X62071428Y-92502438D01*
X62071428Y-92502438D02*
X61928571Y-92454819D01*
X61928571Y-92454819D02*
X61833333Y-92454819D01*
X61833333Y-92454819D02*
X61690476Y-92502438D01*
X61690476Y-92502438D02*
X61642857Y-92550057D01*
X60690476Y-93454819D02*
X61261904Y-93454819D01*
X60976190Y-93454819D02*
X60976190Y-92454819D01*
X60976190Y-92454819D02*
X61071428Y-92597676D01*
X61071428Y-92597676D02*
X61166666Y-92692914D01*
X61166666Y-92692914D02*
X61261904Y-92740533D01*
X60309523Y-92550057D02*
X60261904Y-92502438D01*
X60261904Y-92502438D02*
X60166666Y-92454819D01*
X60166666Y-92454819D02*
X59928571Y-92454819D01*
X59928571Y-92454819D02*
X59833333Y-92502438D01*
X59833333Y-92502438D02*
X59785714Y-92550057D01*
X59785714Y-92550057D02*
X59738095Y-92645295D01*
X59738095Y-92645295D02*
X59738095Y-92740533D01*
X59738095Y-92740533D02*
X59785714Y-92883390D01*
X59785714Y-92883390D02*
X60357142Y-93454819D01*
X60357142Y-93454819D02*
X59738095Y-93454819D01*
X20142857Y-94859580D02*
X20190476Y-94907200D01*
X20190476Y-94907200D02*
X20333333Y-94954819D01*
X20333333Y-94954819D02*
X20428571Y-94954819D01*
X20428571Y-94954819D02*
X20571428Y-94907200D01*
X20571428Y-94907200D02*
X20666666Y-94811961D01*
X20666666Y-94811961D02*
X20714285Y-94716723D01*
X20714285Y-94716723D02*
X20761904Y-94526247D01*
X20761904Y-94526247D02*
X20761904Y-94383390D01*
X20761904Y-94383390D02*
X20714285Y-94192914D01*
X20714285Y-94192914D02*
X20666666Y-94097676D01*
X20666666Y-94097676D02*
X20571428Y-94002438D01*
X20571428Y-94002438D02*
X20428571Y-93954819D01*
X20428571Y-93954819D02*
X20333333Y-93954819D01*
X20333333Y-93954819D02*
X20190476Y-94002438D01*
X20190476Y-94002438D02*
X20142857Y-94050057D01*
X19190476Y-94954819D02*
X19761904Y-94954819D01*
X19476190Y-94954819D02*
X19476190Y-93954819D01*
X19476190Y-93954819D02*
X19571428Y-94097676D01*
X19571428Y-94097676D02*
X19666666Y-94192914D01*
X19666666Y-94192914D02*
X19761904Y-94240533D01*
X18238095Y-94954819D02*
X18809523Y-94954819D01*
X18523809Y-94954819D02*
X18523809Y-93954819D01*
X18523809Y-93954819D02*
X18619047Y-94097676D01*
X18619047Y-94097676D02*
X18714285Y-94192914D01*
X18714285Y-94192914D02*
X18809523Y-94240533D01*
%TO.C,IC1*%
D11*
X3503000Y-42000000D02*
X47003000Y-42000000D01*
X47003000Y-63000000D01*
X3503000Y-63000000D01*
X3503000Y-42000000D01*
D13*
%TO.C,C10*%
X36150000Y-87260000D02*
X37400000Y-87260000D01*
X36775000Y-87885000D02*
X36775000Y-86635000D01*
X37640000Y-80204437D02*
X37640000Y-82990000D01*
X37640000Y-80204437D02*
X38704437Y-79140000D01*
X37640000Y-88795563D02*
X37640000Y-86010000D01*
X37640000Y-88795563D02*
X38704437Y-89860000D01*
X38704437Y-79140000D02*
X48360000Y-79140000D01*
X38704437Y-89860000D02*
X48360000Y-89860000D01*
X48360000Y-79140000D02*
X48360000Y-82990000D01*
X48360000Y-89860000D02*
X48360000Y-86010000D01*
%TO.C,C5*%
X34740000Y-95640000D02*
X38590000Y-95640000D01*
X34740000Y-105295563D02*
X34740000Y-95640000D01*
X35804437Y-106360000D02*
X34740000Y-105295563D01*
X35804437Y-106360000D02*
X38590000Y-106360000D01*
X42860000Y-107850000D02*
X42860000Y-106600000D01*
X43485000Y-107225000D02*
X42235000Y-107225000D01*
X44395563Y-106360000D02*
X41610000Y-106360000D01*
X44395563Y-106360000D02*
X45460000Y-105295563D01*
X45460000Y-95640000D02*
X41610000Y-95640000D01*
X45460000Y-105295563D02*
X45460000Y-95640000D01*
%TO.C,C12*%
X51140000Y-95204437D02*
X51140000Y-104860000D01*
X51140000Y-104860000D02*
X54990000Y-104860000D01*
X52204437Y-94140000D02*
X51140000Y-95204437D01*
X52204437Y-94140000D02*
X54990000Y-94140000D01*
X53115000Y-93275000D02*
X54365000Y-93275000D01*
X53740000Y-92650000D02*
X53740000Y-93900000D01*
X60795563Y-94140000D02*
X58010000Y-94140000D01*
X60795563Y-94140000D02*
X61860000Y-95204437D01*
X61860000Y-95204437D02*
X61860000Y-104860000D01*
X61860000Y-104860000D02*
X58010000Y-104860000D01*
%TO.C,C11*%
X10640000Y-95640000D02*
X14490000Y-95640000D01*
X10640000Y-105295563D02*
X10640000Y-95640000D01*
X11704437Y-106360000D02*
X10640000Y-105295563D01*
X11704437Y-106360000D02*
X14490000Y-106360000D01*
X18760000Y-107850000D02*
X18760000Y-106600000D01*
X19385000Y-107225000D02*
X18135000Y-107225000D01*
X20295563Y-106360000D02*
X17510000Y-106360000D01*
X20295563Y-106360000D02*
X21360000Y-105295563D01*
X21360000Y-95640000D02*
X17510000Y-95640000D01*
X21360000Y-105295563D02*
X21360000Y-95640000D01*
%TD*%
M02*
