%TF.GenerationSoftware,KiCad,Pcbnew,9.0.4*%
%TF.CreationDate,2025-10-31T13:00:26+01:00*%
%TF.ProjectId,Amperry_robot,416d7065-7272-4795-9f72-6f626f742e6b,rev?*%
%TF.SameCoordinates,Original*%
%TF.FileFunction,Soldermask,Bot*%
%TF.FilePolarity,Negative*%
%FSLAX46Y46*%
G04 Gerber Fmt 4.6, Leading zero omitted, Abs format (unit mm)*
G04 Created by KiCad (PCBNEW 9.0.4) date 2025-10-31 13:00:26*
%MOMM*%
%LPD*%
G01*
G04 APERTURE LIST*
G04 Aperture macros list*
%AMRoundRect*
0 Rectangle with rounded corners*
0 $1 Rounding radius*
0 $2 $3 $4 $5 $6 $7 $8 $9 X,Y pos of 4 corners*
0 Add a 4 corners polygon primitive as box body*
4,1,4,$2,$3,$4,$5,$6,$7,$8,$9,$2,$3,0*
0 Add four circle primitives for the rounded corners*
1,1,$1+$1,$2,$3*
1,1,$1+$1,$4,$5*
1,1,$1+$1,$6,$7*
1,1,$1+$1,$8,$9*
0 Add four rect primitives between the rounded corners*
20,1,$1+$1,$2,$3,$4,$5,0*
20,1,$1+$1,$4,$5,$6,$7,0*
20,1,$1+$1,$6,$7,$8,$9,0*
20,1,$1+$1,$8,$9,$2,$3,0*%
G04 Aperture macros list end*
%ADD10R,1.337000X1.337000*%
%ADD11C,1.337000*%
%ADD12C,2.190000*%
%ADD13R,1.950000X1.950000*%
%ADD14C,1.950000*%
%ADD15C,9.000000*%
%ADD16C,6.000000*%
%ADD17R,1.700000X1.700000*%
%ADD18C,1.700000*%
%ADD19C,1.600000*%
%ADD20C,0.660000*%
%ADD21C,1.080000*%
%ADD22C,1.875000*%
%ADD23C,2.955000*%
%ADD24RoundRect,0.250000X-1.950000X-1.000000X1.950000X-1.000000X1.950000X1.000000X-1.950000X1.000000X0*%
%ADD25RoundRect,0.250000X1.000000X-1.950000X1.000000X1.950000X-1.000000X1.950000X-1.000000X-1.950000X0*%
%ADD26RoundRect,0.250000X-1.000000X1.950000X-1.000000X-1.950000X1.000000X-1.950000X1.000000X1.950000X0*%
G04 APERTURE END LIST*
D10*
%TO.C,S2*%
X57000000Y-119850000D03*
D11*
X57000000Y-121850000D03*
X57000000Y-123850000D03*
X57000000Y-125850000D03*
X57000000Y-127850000D03*
X57000000Y-129850000D03*
D12*
X57000000Y-117700000D03*
X57000000Y-132000000D03*
%TD*%
D10*
%TO.C,S1*%
X77000000Y-119850000D03*
D11*
X77000000Y-121850000D03*
X77000000Y-123850000D03*
X77000000Y-125850000D03*
X77000000Y-127850000D03*
X77000000Y-129850000D03*
D12*
X77000000Y-117700000D03*
X77000000Y-132000000D03*
%TD*%
D13*
%TO.C,J5*%
X77850000Y-83180000D03*
D14*
X77850000Y-76830000D03*
%TD*%
D15*
%TO.C,REF\u002A\u002A*%
X7000000Y-26000000D03*
X43000000Y-26000000D03*
X7000000Y-124000000D03*
X43000000Y-124000000D03*
D16*
X25000000Y-75000000D03*
%TD*%
D17*
%TO.C,J2*%
X86500000Y-35120000D03*
D18*
X86500000Y-32580000D03*
X86500000Y-30040000D03*
X86500000Y-27500000D03*
X86500000Y-24960000D03*
X86500000Y-22420000D03*
X86500000Y-19880000D03*
%TD*%
D19*
%TO.C,IC1*%
X5503000Y-44000000D03*
X5503000Y-61145000D03*
X45000000Y-61145000D03*
X45000000Y-44000000D03*
%TD*%
D13*
%TO.C,P13*%
X25400000Y-128000000D03*
D14*
X27940000Y-128000000D03*
X25400000Y-123000000D03*
X27940000Y-123000000D03*
%TD*%
D20*
%TO.C,J1*%
X62000000Y-79000000D03*
D21*
X62000000Y-71000000D03*
D22*
X60570000Y-79000000D03*
D19*
X60570000Y-71000000D03*
X63430000Y-71000000D03*
D22*
X63430000Y-79000000D03*
%TD*%
D23*
%TO.C,J3*%
X68500000Y-93500000D03*
X84000000Y-93500000D03*
%TD*%
%TO.C,J4*%
X68125000Y-106500000D03*
X83625000Y-106500000D03*
%TD*%
D24*
%TO.C,C10*%
X38800000Y-84500000D03*
X47200000Y-84500000D03*
%TD*%
D25*
%TO.C,C5*%
X40100000Y-105200000D03*
X40100000Y-96800000D03*
%TD*%
D26*
%TO.C,C12*%
X56500000Y-95300000D03*
X56500000Y-103700000D03*
%TD*%
D25*
%TO.C,C11*%
X16000000Y-105200000D03*
X16000000Y-96800000D03*
%TD*%
M02*
