G04*
G04 #@! TF.GenerationSoftware,Altium Limited,Altium Designer,25.8.1 (18)*
G04*
G04 Layer_Color=16711935*
%FSLAX44Y44*%
%MOMM*%
G71*
G04*
G04 #@! TF.SameCoordinates,F16540CA-DAB0-446D-89C1-54077F02B76C*
G04*
G04*
G04 #@! TF.FilePolarity,Negative*
G04*
G01*
G75*
%ADD80C,0.2032*%
%ADD81C,1.6760*%
%ADD82C,1.7260*%
%ADD83C,1.6000*%
%ADD84C,3.0310*%
%ADD85R,2.0260X2.0260*%
G04:AMPARAMS|DCode=86|XSize=5.076mm|YSize=3.076mm|CornerRadius=0.788mm|HoleSize=0mm|Usage=FLASHONLY|Rotation=90.000|XOffset=0mm|YOffset=0mm|HoleType=Round|Shape=RoundedRectangle|*
%AMROUNDEDRECTD86*
21,1,5.0760,1.5000,0,0,90.0*
21,1,3.5000,3.0760,0,0,90.0*
1,1,1.5760,0.7500,1.7500*
1,1,1.5760,0.7500,-1.7500*
1,1,1.5760,-0.7500,-1.7500*
1,1,1.5760,-0.7500,1.7500*
%
%ADD86ROUNDEDRECTD86*%
%ADD87R,1.7260X1.7260*%
%ADD88C,2.0260*%
%ADD89C,2.2660*%
%ADD90C,1.4130*%
%ADD91R,1.4130X1.4130*%
%ADD92C,0.4060*%
%ADD93C,0.6160*%
%ADD94C,1.9510*%
%ADD95C,3.1240*%
%ADD96C,1.3460*%
%ADD97C,9.0760*%
%ADD98C,6.0760*%
%ADD99R,2.0760X4.1760*%
%ADD100R,4.1760X2.0760*%
%ADD101R,2.3260X1.4260*%
%ADD102R,2.1460X1.4260*%
%ADD103R,3.0760X1.4760*%
G36*
X301069Y205375D02*
X301141Y205353D01*
X302978Y204592D01*
X303044Y204556D01*
X303102Y204509D01*
X304509Y203102D01*
X304556Y203044D01*
X304592Y202978D01*
X305353Y201141D01*
X305375Y201069D01*
X305382Y200994D01*
Y200000D01*
Y199005D01*
X305375Y198931D01*
X305353Y198859D01*
X304592Y197022D01*
X304556Y196956D01*
X304509Y196898D01*
X303102Y195491D01*
X303044Y195444D01*
X302978Y195408D01*
X301141Y194647D01*
X301069Y194625D01*
X300994Y194618D01*
X299005D01*
X298931Y194625D01*
X298859Y194647D01*
X297022Y195408D01*
X296956Y195444D01*
X296898Y195491D01*
X295491Y196898D01*
X295444Y196956D01*
X295408Y197022D01*
X294647Y198859D01*
X294625Y198931D01*
X294618Y199005D01*
Y200000D01*
Y200994D01*
X294625Y201069D01*
X294647Y201141D01*
X295408Y202978D01*
X295444Y203044D01*
X295491Y203102D01*
X296898Y204509D01*
X296956Y204556D01*
X297022Y204592D01*
X298859Y205353D01*
X298931Y205375D01*
X299005Y205382D01*
X300994D01*
X301069Y205375D01*
D02*
G37*
G36*
Y1605374D02*
X301141Y1605353D01*
X302978Y1604592D01*
X303044Y1604556D01*
X303102Y1604509D01*
X304509Y1603102D01*
X304556Y1603044D01*
X304592Y1602978D01*
X305353Y1601141D01*
X305375Y1601069D01*
X305382Y1600995D01*
Y1600000D01*
Y1599005D01*
X305375Y1598931D01*
X305353Y1598859D01*
X304592Y1597022D01*
X304556Y1596956D01*
X304509Y1596898D01*
X303102Y1595491D01*
X303044Y1595444D01*
X302978Y1595408D01*
X301141Y1594647D01*
X301069Y1594626D01*
X300994Y1594618D01*
X299005D01*
X298931Y1594626D01*
X298859Y1594647D01*
X297022Y1595408D01*
X296956Y1595444D01*
X296898Y1595491D01*
X295491Y1596898D01*
X295444Y1596956D01*
X295408Y1597022D01*
X294647Y1598859D01*
X294625Y1598931D01*
X294618Y1599005D01*
Y1600000D01*
Y1600995D01*
X294625Y1601069D01*
X294647Y1601141D01*
X295408Y1602978D01*
X295444Y1603044D01*
X295491Y1603102D01*
X296898Y1604509D01*
X296956Y1604556D01*
X297022Y1604592D01*
X298859Y1605353D01*
X298931Y1605374D01*
X299005Y1605382D01*
X300994D01*
X301069Y1605374D01*
D02*
G37*
G36*
X901069D02*
X901141Y1605353D01*
X902978Y1604592D01*
X903044Y1604556D01*
X903102Y1604509D01*
X904509Y1603102D01*
X904556Y1603044D01*
X904592Y1602978D01*
X905353Y1601141D01*
X905375Y1601069D01*
X905382Y1600995D01*
Y1600000D01*
Y1599005D01*
X905375Y1598931D01*
X905353Y1598859D01*
X904592Y1597022D01*
X904556Y1596956D01*
X904509Y1596898D01*
X903102Y1595491D01*
X903044Y1595444D01*
X902978Y1595408D01*
X901141Y1594647D01*
X901069Y1594626D01*
X900994Y1594618D01*
X899005D01*
X898931Y1594626D01*
X898859Y1594647D01*
X897022Y1595408D01*
X896956Y1595444D01*
X896898Y1595491D01*
X895491Y1596898D01*
X895444Y1596956D01*
X895408Y1597022D01*
X894647Y1598859D01*
X894625Y1598931D01*
X894618Y1599005D01*
Y1600000D01*
Y1600995D01*
X894625Y1601069D01*
X894647Y1601141D01*
X895408Y1602978D01*
X895444Y1603044D01*
X895491Y1603102D01*
X896898Y1604509D01*
X896956Y1604556D01*
X897022Y1604592D01*
X898859Y1605353D01*
X898931Y1605374D01*
X899005Y1605382D01*
X900994D01*
X901069Y1605374D01*
D02*
G37*
D80*
X1125000Y75000D02*
D03*
X75000D02*
D03*
Y1725000D02*
D03*
X1125000D02*
D03*
D81*
X579260Y995820D02*
D03*
X184320D02*
D03*
X184285Y1167270D02*
D03*
X579255D02*
D03*
X755700Y940000D02*
D03*
X784300D02*
D03*
X391300Y396380D02*
D03*
Y346380D02*
D03*
X416700D02*
D03*
Y396380D02*
D03*
D82*
X1018680Y1381900D02*
D03*
Y1356500D02*
D03*
Y1331100D02*
D03*
Y1305700D02*
D03*
Y1280300D02*
D03*
Y1254900D02*
D03*
D83*
X800900Y924700D02*
D03*
X751980Y1042300D02*
D03*
X774065Y975500D02*
D03*
X704900Y984220D02*
D03*
D84*
X995880Y571640D02*
D03*
X840880D02*
D03*
Y696100D02*
D03*
X995880D02*
D03*
D85*
X929780Y807860D02*
D03*
D86*
X642760Y1188860D02*
D03*
D87*
X1018680Y1229500D02*
D03*
D88*
X929780Y871360D02*
D03*
D89*
X866100Y294540D02*
D03*
Y437540D02*
D03*
X707400Y294540D02*
D03*
Y437540D02*
D03*
D90*
X866100Y316040D02*
D03*
Y336040D02*
D03*
Y356040D02*
D03*
Y376040D02*
D03*
Y396040D02*
D03*
X707400Y316040D02*
D03*
Y336040D02*
D03*
Y356040D02*
D03*
Y376040D02*
D03*
Y396040D02*
D03*
D91*
X866100Y416040D02*
D03*
X707400D02*
D03*
D92*
X770000Y860000D02*
D03*
D93*
Y940000D02*
D03*
D94*
X755700Y860000D02*
D03*
X784300D02*
D03*
D95*
X344940Y346380D02*
D03*
X454607Y346380D02*
D03*
D96*
X717949Y1022070D02*
D03*
X711834Y942734D02*
D03*
X734112Y942698D02*
D03*
X696100Y1059320D02*
D03*
X681180Y1039570D02*
D03*
X636459Y706260D02*
D03*
X1025000Y1550000D02*
D03*
X1000000Y1500000D02*
D03*
X900000D02*
D03*
X950000D02*
D03*
X1025000Y1450000D02*
D03*
X1000000Y1400000D02*
D03*
X925000Y1450000D02*
D03*
X975000D02*
D03*
X850000Y1600000D02*
D03*
X825000Y1450000D02*
D03*
X800000Y1600000D02*
D03*
X750000D02*
D03*
X775000Y1450000D02*
D03*
X850000Y1400000D02*
D03*
X825000Y1350000D02*
D03*
X750000Y1400000D02*
D03*
X800000D02*
D03*
X1025000Y1150000D02*
D03*
X1000000Y1200000D02*
D03*
X950000D02*
D03*
X800000Y1100000D02*
D03*
X975000Y1050000D02*
D03*
X775000Y1250000D02*
D03*
X700000Y1600000D02*
D03*
X675000Y1550000D02*
D03*
Y1450000D02*
D03*
X650000Y1500000D02*
D03*
Y1600000D02*
D03*
Y1400000D02*
D03*
X725000Y1250000D02*
D03*
X675000D02*
D03*
X700000Y1200000D02*
D03*
X650000Y1300000D02*
D03*
X625000Y1250000D02*
D03*
Y1550000D02*
D03*
X600000Y1600000D02*
D03*
Y1500000D02*
D03*
X575000Y1550000D02*
D03*
Y1450000D02*
D03*
X625000Y1350000D02*
D03*
Y1450000D02*
D03*
X600000Y1200000D02*
D03*
Y1300000D02*
D03*
X575000Y1250000D02*
D03*
X700000Y1100000D02*
D03*
X675000Y1150000D02*
D03*
X625000D02*
D03*
X600000Y1100000D02*
D03*
X650000Y1000000D02*
D03*
X625000Y1050000D02*
D03*
X575000Y950000D02*
D03*
X1025000Y850000D02*
D03*
X1000000Y800000D02*
D03*
X1025000Y750000D02*
D03*
X975000Y850000D02*
D03*
X950000Y800000D02*
D03*
X975000Y750000D02*
D03*
X1025000Y650000D02*
D03*
X1000000Y600000D02*
D03*
X975000Y650000D02*
D03*
X950000Y600000D02*
D03*
Y900000D02*
D03*
X925000Y750000D02*
D03*
X900000Y800000D02*
D03*
X925000Y650000D02*
D03*
X875000D02*
D03*
X900000Y600000D02*
D03*
X850000D02*
D03*
X1025000Y450000D02*
D03*
Y550000D02*
D03*
X1000000Y400000D02*
D03*
X975000Y550000D02*
D03*
X950000Y500000D02*
D03*
X1000000D02*
D03*
X1025000Y350000D02*
D03*
Y250000D02*
D03*
X1000000Y300000D02*
D03*
X925000Y250000D02*
D03*
Y550000D02*
D03*
X900000Y500000D02*
D03*
Y400000D02*
D03*
X875000Y550000D02*
D03*
X850000Y500000D02*
D03*
X900000Y300000D02*
D03*
X875000Y250000D02*
D03*
X900000Y200000D02*
D03*
X800000Y700000D02*
D03*
X725000Y850000D02*
D03*
X750000Y700000D02*
D03*
X825000Y650000D02*
D03*
X750000Y600000D02*
D03*
X800000D02*
D03*
X650000Y800000D02*
D03*
X600000D02*
D03*
X650000Y600000D02*
D03*
X575000Y650000D02*
D03*
X600000Y600000D02*
D03*
X825000Y550000D02*
D03*
X775000D02*
D03*
X800000Y500000D02*
D03*
X750000D02*
D03*
X675000Y450000D02*
D03*
X825000Y350000D02*
D03*
Y450000D02*
D03*
X675000Y350000D02*
D03*
X625000Y450000D02*
D03*
X650000Y400000D02*
D03*
X575000Y550000D02*
D03*
X600000Y500000D02*
D03*
X650000Y300000D02*
D03*
X625000Y350000D02*
D03*
X600000Y200000D02*
D03*
X575000Y350000D02*
D03*
Y250000D02*
D03*
X550000Y1600000D02*
D03*
X525000Y1550000D02*
D03*
X550000Y1500000D02*
D03*
X500000Y1600000D02*
D03*
X475000Y1550000D02*
D03*
X500000Y1500000D02*
D03*
X525000Y1450000D02*
D03*
X500000Y1400000D02*
D03*
X525000Y1350000D02*
D03*
X475000Y1450000D02*
D03*
Y1350000D02*
D03*
X450000Y1600000D02*
D03*
X425000Y1550000D02*
D03*
X450000Y1500000D02*
D03*
X400000Y1600000D02*
D03*
Y1500000D02*
D03*
X450000Y1400000D02*
D03*
X425000Y1450000D02*
D03*
Y1350000D02*
D03*
X375000Y1450000D02*
D03*
X400000Y1400000D02*
D03*
X550000Y1200000D02*
D03*
Y1300000D02*
D03*
X525000Y1150000D02*
D03*
Y1250000D02*
D03*
X500000Y1300000D02*
D03*
Y1200000D02*
D03*
X550000Y1100000D02*
D03*
X500000Y1000000D02*
D03*
X550000D02*
D03*
X500000Y1100000D02*
D03*
X475000Y950000D02*
D03*
Y1250000D02*
D03*
X450000Y1300000D02*
D03*
Y1200000D02*
D03*
X400000Y1300000D02*
D03*
X425000Y1250000D02*
D03*
X475000Y1150000D02*
D03*
X450000Y1100000D02*
D03*
Y1000000D02*
D03*
X400000Y1100000D02*
D03*
Y1000000D02*
D03*
X375000Y1550000D02*
D03*
X350000Y1600000D02*
D03*
Y1500000D02*
D03*
X325000Y1450000D02*
D03*
Y1550000D02*
D03*
X300000Y1400000D02*
D03*
X375000Y1350000D02*
D03*
X350000Y1400000D02*
D03*
Y1300000D02*
D03*
X325000Y1350000D02*
D03*
X300000Y1300000D02*
D03*
X275000Y1550000D02*
D03*
X300000Y1500000D02*
D03*
X200000D02*
D03*
X250000D02*
D03*
X275000Y1350000D02*
D03*
Y1450000D02*
D03*
X250000Y1300000D02*
D03*
X225000Y1450000D02*
D03*
X200000Y1300000D02*
D03*
X375000Y1250000D02*
D03*
X350000Y1200000D02*
D03*
X325000Y1150000D02*
D03*
Y1250000D02*
D03*
X300000Y1200000D02*
D03*
X275000Y1150000D02*
D03*
X350000Y1100000D02*
D03*
X300000Y1000000D02*
D03*
X350000D02*
D03*
X300000Y1100000D02*
D03*
X275000Y950000D02*
D03*
Y1250000D02*
D03*
X225000D02*
D03*
X250000Y1200000D02*
D03*
X200000D02*
D03*
X250000Y1000000D02*
D03*
Y1100000D02*
D03*
X225000Y950000D02*
D03*
Y1150000D02*
D03*
X200000Y1100000D02*
D03*
X550000Y800000D02*
D03*
Y900000D02*
D03*
X500000Y800000D02*
D03*
Y900000D02*
D03*
Y700000D02*
D03*
X550000D02*
D03*
Y600000D02*
D03*
X475000Y650000D02*
D03*
X500000Y600000D02*
D03*
X450000Y900000D02*
D03*
X425000Y850000D02*
D03*
X475000D02*
D03*
X425000Y950000D02*
D03*
X375000Y850000D02*
D03*
X450000Y700000D02*
D03*
Y800000D02*
D03*
Y600000D02*
D03*
X375000Y750000D02*
D03*
X425000Y650000D02*
D03*
X550000Y500000D02*
D03*
X525000Y350000D02*
D03*
Y450000D02*
D03*
X500000Y500000D02*
D03*
Y400000D02*
D03*
Y200000D02*
D03*
X475000Y250000D02*
D03*
Y550000D02*
D03*
X425000D02*
D03*
X450000Y500000D02*
D03*
X375000Y550000D02*
D03*
Y450000D02*
D03*
X475000D02*
D03*
X450000Y400000D02*
D03*
Y200000D02*
D03*
X425000Y450000D02*
D03*
X400000Y300000D02*
D03*
X375000Y950000D02*
D03*
X350000Y900000D02*
D03*
Y800000D02*
D03*
X325000Y850000D02*
D03*
Y950000D02*
D03*
X350000Y700000D02*
D03*
X325000Y650000D02*
D03*
X350000Y600000D02*
D03*
X325000Y750000D02*
D03*
X300000Y700000D02*
D03*
Y900000D02*
D03*
X250000D02*
D03*
X200000D02*
D03*
X225000Y850000D02*
D03*
Y750000D02*
D03*
X200000Y600000D02*
D03*
Y800000D02*
D03*
Y700000D02*
D03*
X350000Y500000D02*
D03*
X325000Y550000D02*
D03*
Y450000D02*
D03*
X300000Y500000D02*
D03*
Y600000D02*
D03*
Y400000D02*
D03*
X350000Y300000D02*
D03*
Y400000D02*
D03*
X325000Y250000D02*
D03*
X300000Y300000D02*
D03*
X275000Y250000D02*
D03*
Y550000D02*
D03*
X250000Y500000D02*
D03*
X275000Y450000D02*
D03*
X225000Y550000D02*
D03*
X200000Y500000D02*
D03*
X275000Y350000D02*
D03*
X250000Y300000D02*
D03*
X225000Y350000D02*
D03*
X200000Y300000D02*
D03*
X658000Y1028840D02*
D03*
X873780Y862955D02*
D03*
X878188Y912660D02*
D03*
X873900Y1008230D02*
D03*
Y1046240D02*
D03*
X840880Y912660D02*
D03*
X858660Y913160D02*
D03*
X798970Y1132980D02*
D03*
X710070Y912500D02*
D03*
X823100Y851040D02*
D03*
X855020Y866489D02*
D03*
X835420Y862955D02*
D03*
X803670Y887500D02*
D03*
X823100Y906920D02*
D03*
X806119Y384479D02*
D03*
X816017Y372891D02*
D03*
X833260Y391300D02*
D03*
X820560Y404000D02*
D03*
X744360Y1211720D02*
D03*
X759480Y1153300D02*
D03*
X736740Y1127900D02*
D03*
X835800Y1313320D02*
D03*
X861200Y1234580D02*
D03*
X701180Y876440D02*
D03*
X692380Y899172D02*
D03*
X736330Y927620D02*
D03*
X256680Y531000D02*
D03*
X391300D02*
D03*
X525920D02*
D03*
X734200Y883464D02*
D03*
X729120Y899300D02*
D03*
D97*
X980000Y1580000D02*
D03*
Y220000D02*
D03*
X220000Y1580000D02*
D03*
Y220000D02*
D03*
Y410000D02*
D03*
X580000D02*
D03*
Y1390000D02*
D03*
X220000D02*
D03*
D98*
X400000Y900000D02*
D03*
D99*
X722603Y581480D02*
D03*
X525920Y673560D02*
D03*
X256680D02*
D03*
Y586560D02*
D03*
X525920D02*
D03*
X722603Y668480D02*
D03*
D100*
X575218Y773082D02*
D03*
X488218D02*
D03*
D101*
X309980Y808560D02*
D03*
Y783560D02*
D03*
D102*
X255680Y808560D02*
D03*
Y783560D02*
D03*
D103*
X282080Y835060D02*
D03*
Y757060D02*
D03*
M02*
