G04*
G04 #@! TF.GenerationSoftware,Altium Limited,Altium Designer,25.8.1 (18)*
G04*
G04 Layer_Color=128*
%FSLAX44Y44*%
%MOMM*%
G71*
G04*
G04 #@! TF.SameCoordinates,F16540CA-DAB0-446D-89C1-54077F02B76C*
G04*
G04*
G04 #@! TF.FilePolarity,Positive*
G04*
G01*
G75*
%ADD59C,0.1270*%
D59*
X1109000Y75000D02*
X1141000D01*
X1125000Y59000D02*
Y91000D01*
X59000Y75000D02*
X91000D01*
X75000Y59000D02*
Y91000D01*
X59000Y1725000D02*
X91000D01*
X75000Y1709000D02*
Y1741000D01*
X1109000Y1725000D02*
X1141000D01*
X1125000Y1709000D02*
Y1741000D01*
X574260Y995820D02*
X584260D01*
X579260Y990820D02*
Y1000820D01*
X179320Y995820D02*
X189320D01*
X184320Y990820D02*
Y1000820D01*
X179285Y1167270D02*
X189285D01*
X184285Y1162270D02*
Y1172270D01*
X574255Y1167270D02*
X584255D01*
X579255Y1162270D02*
Y1172270D01*
X1013180Y1381900D02*
X1024180D01*
X1018680Y1376400D02*
Y1387400D01*
X797090Y924700D02*
X804710D01*
X800900Y920890D02*
Y928510D01*
X748170Y1042300D02*
X755790D01*
X751980Y1038490D02*
Y1046110D01*
X770255Y975500D02*
X777875D01*
X774065Y971690D02*
Y979310D01*
X701090Y984220D02*
X708710D01*
X704900Y980410D02*
Y988030D01*
X986030Y571640D02*
X1005730D01*
X995880Y561790D02*
Y581490D01*
X923280Y807860D02*
X936280D01*
X929780Y801360D02*
Y814360D01*
X831030Y571640D02*
X850730D01*
X840880Y561790D02*
Y581490D01*
X632760Y1188860D02*
X652760D01*
X642760Y1178860D02*
Y1198860D01*
X1013180Y1356500D02*
X1024180D01*
X1018680Y1351000D02*
Y1362000D01*
X1013180Y1331100D02*
X1024180D01*
X1018680Y1325600D02*
Y1336600D01*
X1013180Y1305700D02*
X1024180D01*
X1018680Y1300200D02*
Y1311200D01*
X1013180Y1280300D02*
X1024180D01*
X1018680Y1274800D02*
Y1285800D01*
X1013180Y1254900D02*
X1024180D01*
X1018680Y1249400D02*
Y1260400D01*
X1013180Y1229500D02*
X1024180D01*
X1018680Y1224000D02*
Y1235000D01*
X923280Y871360D02*
X936280D01*
X929780Y864860D02*
Y877860D01*
X858800Y294540D02*
X873400D01*
X866100Y287240D02*
Y301840D01*
X858800Y437540D02*
X873400D01*
X866100Y430240D02*
Y444840D01*
X862200Y316040D02*
X870000D01*
X866100Y312140D02*
Y319940D01*
X862200Y336040D02*
X870000D01*
X866100Y332140D02*
Y339940D01*
X862200Y356040D02*
X870000D01*
X866100Y352140D02*
Y359940D01*
X862200Y376040D02*
X870000D01*
X866100Y372140D02*
Y379940D01*
X862200Y396040D02*
X870000D01*
X866100Y392140D02*
Y399940D01*
X862200Y416040D02*
X870000D01*
X866100Y412140D02*
Y419940D01*
X700100Y294540D02*
X714700D01*
X707400Y287240D02*
Y301840D01*
X700100Y437540D02*
X714700D01*
X707400Y430240D02*
Y444840D01*
X703500Y316040D02*
X711300D01*
X707400Y312140D02*
Y319940D01*
X703500Y336040D02*
X711300D01*
X707400Y332140D02*
Y339940D01*
X703500Y356040D02*
X711300D01*
X707400Y352140D02*
Y359940D01*
X703500Y376040D02*
X711300D01*
X707400Y372140D02*
Y379940D01*
X703500Y396040D02*
X711300D01*
X707400Y392140D02*
Y399940D01*
X703500Y416040D02*
X711300D01*
X707400Y412140D02*
Y419940D01*
X749450Y940000D02*
X761950D01*
X755700Y933750D02*
Y946250D01*
X778050Y940000D02*
X790550D01*
X784300Y933750D02*
Y946250D01*
X766700Y860000D02*
X773300D01*
X770000Y856700D02*
Y863300D01*
X764600Y940000D02*
X775400D01*
X770000Y934600D02*
Y945400D01*
X749450Y860000D02*
X761950D01*
X755700Y853750D02*
Y866250D01*
X778050Y860000D02*
X790550D01*
X784300Y853750D02*
Y866250D01*
X831030Y696100D02*
X850730D01*
X840880Y686250D02*
Y705950D01*
X986030Y696100D02*
X1005730D01*
X995880Y686250D02*
Y705950D01*
X386300Y396380D02*
X396300D01*
X391300Y391380D02*
Y401380D01*
X386300Y346380D02*
X396300D01*
X391300Y341380D02*
Y351380D01*
X411700Y346380D02*
X421700D01*
X416700Y341380D02*
Y351380D01*
X411700Y396380D02*
X421700D01*
X416700Y391380D02*
Y401380D01*
X337320Y346380D02*
X352560D01*
X344940Y338760D02*
Y354000D01*
X446987Y346380D02*
X462227D01*
X454607Y338760D02*
Y354000D01*
X714393Y1022070D02*
X721505D01*
X717949Y1018514D02*
Y1025626D01*
X708278Y942734D02*
X715390D01*
X711834Y939177D02*
Y946290D01*
X730556Y942698D02*
X737668D01*
X734112Y939141D02*
Y946254D01*
X692544Y1059320D02*
X699656D01*
X696100Y1055764D02*
Y1062876D01*
X677624Y1039570D02*
X684736D01*
X681180Y1036014D02*
Y1043126D01*
X632903Y706260D02*
X640015D01*
X636459Y702704D02*
Y709816D01*
X1021444Y1550000D02*
X1028556D01*
X1025000Y1546444D02*
Y1553556D01*
X959500Y1580000D02*
X1000500D01*
X980000Y1559500D02*
Y1600500D01*
X996444Y1500000D02*
X1003556D01*
X1000000Y1496444D02*
Y1503556D01*
X896444Y1500000D02*
X903556D01*
X900000Y1496444D02*
Y1503556D01*
X946444Y1500000D02*
X953556D01*
X950000Y1496444D02*
Y1503556D01*
X1021444Y1450000D02*
X1028556D01*
X1025000Y1446444D02*
Y1453556D01*
X996444Y1400000D02*
X1003556D01*
X1000000Y1396444D02*
Y1403556D01*
X921444Y1450000D02*
X928556D01*
X925000Y1446444D02*
Y1453556D01*
X971444Y1450000D02*
X978556D01*
X975000Y1446444D02*
Y1453556D01*
X846444Y1600000D02*
X853556D01*
X850000Y1596444D02*
Y1603556D01*
X821444Y1450000D02*
X828556D01*
X825000Y1446444D02*
Y1453556D01*
X796444Y1600000D02*
X803556D01*
X800000Y1596444D02*
Y1603556D01*
X746444Y1600000D02*
X753556D01*
X750000Y1596444D02*
Y1603556D01*
X771444Y1450000D02*
X778556D01*
X775000Y1446444D02*
Y1453556D01*
X846444Y1400000D02*
X853556D01*
X850000Y1396444D02*
Y1403556D01*
X821444Y1350000D02*
X828556D01*
X825000Y1346444D02*
Y1353556D01*
X746444Y1400000D02*
X753556D01*
X750000Y1396444D02*
Y1403556D01*
X796444Y1400000D02*
X803556D01*
X800000Y1396444D02*
Y1403556D01*
X1021444Y1150000D02*
X1028556D01*
X1025000Y1146444D02*
Y1153556D01*
X996444Y1200000D02*
X1003556D01*
X1000000Y1196444D02*
Y1203556D01*
X946444Y1200000D02*
X953556D01*
X950000Y1196444D02*
Y1203556D01*
X796444Y1100000D02*
X803556D01*
X800000Y1096444D02*
Y1103556D01*
X971444Y1050000D02*
X978556D01*
X975000Y1046444D02*
Y1053556D01*
X771444Y1250000D02*
X778556D01*
X775000Y1246444D02*
Y1253556D01*
X696444Y1600000D02*
X703556D01*
X700000Y1596444D02*
Y1603556D01*
X671444Y1550000D02*
X678556D01*
X675000Y1546444D02*
Y1553556D01*
X671444Y1450000D02*
X678556D01*
X675000Y1446444D02*
Y1453556D01*
X646444Y1500000D02*
X653556D01*
X650000Y1496444D02*
Y1503556D01*
X646444Y1600000D02*
X653556D01*
X650000Y1596444D02*
Y1603556D01*
X646444Y1400000D02*
X653556D01*
X650000Y1396444D02*
Y1403556D01*
X721444Y1250000D02*
X728556D01*
X725000Y1246444D02*
Y1253556D01*
X671444Y1250000D02*
X678556D01*
X675000Y1246444D02*
Y1253556D01*
X696444Y1200000D02*
X703556D01*
X700000Y1196444D02*
Y1203556D01*
X646444Y1300000D02*
X653556D01*
X650000Y1296444D02*
Y1303556D01*
X621444Y1250000D02*
X628556D01*
X625000Y1246444D02*
Y1253556D01*
X621444Y1550000D02*
X628556D01*
X625000Y1546444D02*
Y1553556D01*
X596444Y1600000D02*
X603556D01*
X600000Y1596444D02*
Y1603556D01*
X596444Y1500000D02*
X603556D01*
X600000Y1496444D02*
Y1503556D01*
X571444Y1550000D02*
X578556D01*
X575000Y1546444D02*
Y1553556D01*
X571444Y1450000D02*
X578556D01*
X575000Y1446444D02*
Y1453556D01*
X621444Y1350000D02*
X628556D01*
X625000Y1346444D02*
Y1353556D01*
X621444Y1450000D02*
X628556D01*
X625000Y1446444D02*
Y1453556D01*
X596444Y1200000D02*
X603556D01*
X600000Y1196444D02*
Y1203556D01*
X596444Y1300000D02*
X603556D01*
X600000Y1296444D02*
Y1303556D01*
X571444Y1250000D02*
X578556D01*
X575000Y1246444D02*
Y1253556D01*
X696444Y1100000D02*
X703556D01*
X700000Y1096444D02*
Y1103556D01*
X671444Y1150000D02*
X678556D01*
X675000Y1146444D02*
Y1153556D01*
X621444Y1150000D02*
X628556D01*
X625000Y1146444D02*
Y1153556D01*
X596444Y1100000D02*
X603556D01*
X600000Y1096444D02*
Y1103556D01*
X646444Y1000000D02*
X653556D01*
X650000Y996444D02*
Y1003556D01*
X621444Y1050000D02*
X628556D01*
X625000Y1046444D02*
Y1053556D01*
X571444Y950000D02*
X578556D01*
X575000Y946444D02*
Y953556D01*
X1021444Y850000D02*
X1028556D01*
X1025000Y846444D02*
Y853556D01*
X996444Y800000D02*
X1003556D01*
X1000000Y796444D02*
Y803556D01*
X1021444Y750000D02*
X1028556D01*
X1025000Y746444D02*
Y753556D01*
X971444Y850000D02*
X978556D01*
X975000Y846444D02*
Y853556D01*
X946444Y800000D02*
X953556D01*
X950000Y796444D02*
Y803556D01*
X971444Y750000D02*
X978556D01*
X975000Y746444D02*
Y753556D01*
X1021444Y650000D02*
X1028556D01*
X1025000Y646444D02*
Y653556D01*
X996444Y600000D02*
X1003556D01*
X1000000Y596444D02*
Y603556D01*
X971444Y650000D02*
X978556D01*
X975000Y646444D02*
Y653556D01*
X946444Y600000D02*
X953556D01*
X950000Y596444D02*
Y603556D01*
X946444Y900000D02*
X953556D01*
X950000Y896444D02*
Y903556D01*
X921444Y750000D02*
X928556D01*
X925000Y746444D02*
Y753556D01*
X896444Y800000D02*
X903556D01*
X900000Y796444D02*
Y803556D01*
X921444Y650000D02*
X928556D01*
X925000Y646444D02*
Y653556D01*
X871444Y650000D02*
X878556D01*
X875000Y646444D02*
Y653556D01*
X896444Y600000D02*
X903556D01*
X900000Y596444D02*
Y603556D01*
X846444Y600000D02*
X853556D01*
X850000Y596444D02*
Y603556D01*
X1021444Y450000D02*
X1028556D01*
X1025000Y446444D02*
Y453556D01*
X1021444Y550000D02*
X1028556D01*
X1025000Y546444D02*
Y553556D01*
X996444Y400000D02*
X1003556D01*
X1000000Y396444D02*
Y403556D01*
X971444Y550000D02*
X978556D01*
X975000Y546444D02*
Y553556D01*
X946444Y500000D02*
X953556D01*
X950000Y496444D02*
Y503556D01*
X996444Y500000D02*
X1003556D01*
X1000000Y496444D02*
Y503556D01*
X1021444Y350000D02*
X1028556D01*
X1025000Y346444D02*
Y353556D01*
X959500Y220000D02*
X1000500D01*
X980000Y199500D02*
Y240500D01*
X1021444Y250000D02*
X1028556D01*
X1025000Y246444D02*
Y253556D01*
X996444Y300000D02*
X1003556D01*
X1000000Y296444D02*
Y303556D01*
X921444Y250000D02*
X928556D01*
X925000Y246444D02*
Y253556D01*
X921444Y550000D02*
X928556D01*
X925000Y546444D02*
Y553556D01*
X896444Y500000D02*
X903556D01*
X900000Y496444D02*
Y503556D01*
X896444Y400000D02*
X903556D01*
X900000Y396444D02*
Y403556D01*
X871444Y550000D02*
X878556D01*
X875000Y546444D02*
Y553556D01*
X846444Y500000D02*
X853556D01*
X850000Y496444D02*
Y503556D01*
X896444Y300000D02*
X903556D01*
X900000Y296444D02*
Y303556D01*
X871444Y250000D02*
X878556D01*
X875000Y246444D02*
Y253556D01*
X896444Y200000D02*
X903556D01*
X900000Y196444D02*
Y203556D01*
X796444Y700000D02*
X803556D01*
X800000Y696444D02*
Y703556D01*
X721444Y850000D02*
X728556D01*
X725000Y846444D02*
Y853556D01*
X746444Y700000D02*
X753556D01*
X750000Y696444D02*
Y703556D01*
X821444Y650000D02*
X828556D01*
X825000Y646444D02*
Y653556D01*
X746444Y600000D02*
X753556D01*
X750000Y596444D02*
Y603556D01*
X796444Y600000D02*
X803556D01*
X800000Y596444D02*
Y603556D01*
X646444Y800000D02*
X653556D01*
X650000Y796444D02*
Y803556D01*
X596444Y800000D02*
X603556D01*
X600000Y796444D02*
Y803556D01*
X646444Y600000D02*
X653556D01*
X650000Y596444D02*
Y603556D01*
X571444Y650000D02*
X578556D01*
X575000Y646444D02*
Y653556D01*
X596444Y600000D02*
X603556D01*
X600000Y596444D02*
Y603556D01*
X821444Y550000D02*
X828556D01*
X825000Y546444D02*
Y553556D01*
X771444Y550000D02*
X778556D01*
X775000Y546444D02*
Y553556D01*
X796444Y500000D02*
X803556D01*
X800000Y496444D02*
Y503556D01*
X746444Y500000D02*
X753556D01*
X750000Y496444D02*
Y503556D01*
X671444Y450000D02*
X678556D01*
X675000Y446444D02*
Y453556D01*
X821444Y350000D02*
X828556D01*
X825000Y346444D02*
Y353556D01*
X821444Y450000D02*
X828556D01*
X825000Y446444D02*
Y453556D01*
X671444Y350000D02*
X678556D01*
X675000Y346444D02*
Y353556D01*
X621444Y450000D02*
X628556D01*
X625000Y446444D02*
Y453556D01*
X646444Y400000D02*
X653556D01*
X650000Y396444D02*
Y403556D01*
X571444Y550000D02*
X578556D01*
X575000Y546444D02*
Y553556D01*
X596444Y500000D02*
X603556D01*
X600000Y496444D02*
Y503556D01*
X646444Y300000D02*
X653556D01*
X650000Y296444D02*
Y303556D01*
X621444Y350000D02*
X628556D01*
X625000Y346444D02*
Y353556D01*
X596444Y200000D02*
X603556D01*
X600000Y196444D02*
Y203556D01*
X571444Y350000D02*
X578556D01*
X575000Y346444D02*
Y353556D01*
X571444Y250000D02*
X578556D01*
X575000Y246444D02*
Y253556D01*
X546444Y1600000D02*
X553556D01*
X550000Y1596444D02*
Y1603556D01*
X521444Y1550000D02*
X528556D01*
X525000Y1546444D02*
Y1553556D01*
X546444Y1500000D02*
X553556D01*
X550000Y1496444D02*
Y1503556D01*
X496444Y1600000D02*
X503556D01*
X500000Y1596444D02*
Y1603556D01*
X471444Y1550000D02*
X478556D01*
X475000Y1546444D02*
Y1553556D01*
X496444Y1500000D02*
X503556D01*
X500000Y1496444D02*
Y1503556D01*
X521444Y1450000D02*
X528556D01*
X525000Y1446444D02*
Y1453556D01*
X496444Y1400000D02*
X503556D01*
X500000Y1396444D02*
Y1403556D01*
X521444Y1350000D02*
X528556D01*
X525000Y1346444D02*
Y1353556D01*
X471444Y1450000D02*
X478556D01*
X475000Y1446444D02*
Y1453556D01*
X471444Y1350000D02*
X478556D01*
X475000Y1346444D02*
Y1353556D01*
X446444Y1600000D02*
X453556D01*
X450000Y1596444D02*
Y1603556D01*
X421444Y1550000D02*
X428556D01*
X425000Y1546444D02*
Y1553556D01*
X446444Y1500000D02*
X453556D01*
X450000Y1496444D02*
Y1503556D01*
X396444Y1600000D02*
X403556D01*
X400000Y1596444D02*
Y1603556D01*
X396444Y1500000D02*
X403556D01*
X400000Y1496444D02*
Y1503556D01*
X446444Y1400000D02*
X453556D01*
X450000Y1396444D02*
Y1403556D01*
X421444Y1450000D02*
X428556D01*
X425000Y1446444D02*
Y1453556D01*
X421444Y1350000D02*
X428556D01*
X425000Y1346444D02*
Y1353556D01*
X371444Y1450000D02*
X378556D01*
X375000Y1446444D02*
Y1453556D01*
X396444Y1400000D02*
X403556D01*
X400000Y1396444D02*
Y1403556D01*
X546444Y1200000D02*
X553556D01*
X550000Y1196444D02*
Y1203556D01*
X546444Y1300000D02*
X553556D01*
X550000Y1296444D02*
Y1303556D01*
X521444Y1150000D02*
X528556D01*
X525000Y1146444D02*
Y1153556D01*
X521444Y1250000D02*
X528556D01*
X525000Y1246444D02*
Y1253556D01*
X496444Y1300000D02*
X503556D01*
X500000Y1296444D02*
Y1303556D01*
X496444Y1200000D02*
X503556D01*
X500000Y1196444D02*
Y1203556D01*
X546444Y1100000D02*
X553556D01*
X550000Y1096444D02*
Y1103556D01*
X496444Y1000000D02*
X503556D01*
X500000Y996444D02*
Y1003556D01*
X546444Y1000000D02*
X553556D01*
X550000Y996444D02*
Y1003556D01*
X496444Y1100000D02*
X503556D01*
X500000Y1096444D02*
Y1103556D01*
X471444Y950000D02*
X478556D01*
X475000Y946444D02*
Y953556D01*
X471444Y1250000D02*
X478556D01*
X475000Y1246444D02*
Y1253556D01*
X446444Y1300000D02*
X453556D01*
X450000Y1296444D02*
Y1303556D01*
X446444Y1200000D02*
X453556D01*
X450000Y1196444D02*
Y1203556D01*
X396444Y1300000D02*
X403556D01*
X400000Y1296444D02*
Y1303556D01*
X421444Y1250000D02*
X428556D01*
X425000Y1246444D02*
Y1253556D01*
X471444Y1150000D02*
X478556D01*
X475000Y1146444D02*
Y1153556D01*
X446444Y1100000D02*
X453556D01*
X450000Y1096444D02*
Y1103556D01*
X446444Y1000000D02*
X453556D01*
X450000Y996444D02*
Y1003556D01*
X396444Y1100000D02*
X403556D01*
X400000Y1096444D02*
Y1103556D01*
X396444Y1000000D02*
X403556D01*
X400000Y996444D02*
Y1003556D01*
X371444Y1550000D02*
X378556D01*
X375000Y1546444D02*
Y1553556D01*
X346444Y1600000D02*
X353556D01*
X350000Y1596444D02*
Y1603556D01*
X346444Y1500000D02*
X353556D01*
X350000Y1496444D02*
Y1503556D01*
X321444Y1450000D02*
X328556D01*
X325000Y1446444D02*
Y1453556D01*
X321444Y1550000D02*
X328556D01*
X325000Y1546444D02*
Y1553556D01*
X296444Y1400000D02*
X303556D01*
X300000Y1396444D02*
Y1403556D01*
X371444Y1350000D02*
X378556D01*
X375000Y1346444D02*
Y1353556D01*
X346444Y1400000D02*
X353556D01*
X350000Y1396444D02*
Y1403556D01*
X346444Y1300000D02*
X353556D01*
X350000Y1296444D02*
Y1303556D01*
X321444Y1350000D02*
X328556D01*
X325000Y1346444D02*
Y1353556D01*
X296444Y1300000D02*
X303556D01*
X300000Y1296444D02*
Y1303556D01*
X271444Y1550000D02*
X278556D01*
X275000Y1546444D02*
Y1553556D01*
X199500Y1580000D02*
X240500D01*
X220000Y1559500D02*
Y1600500D01*
X296444Y1500000D02*
X303556D01*
X300000Y1496444D02*
Y1503556D01*
X196444Y1500000D02*
X203556D01*
X200000Y1496444D02*
Y1503556D01*
X246444Y1500000D02*
X253556D01*
X250000Y1496444D02*
Y1503556D01*
X271444Y1350000D02*
X278556D01*
X275000Y1346444D02*
Y1353556D01*
X271444Y1450000D02*
X278556D01*
X275000Y1446444D02*
Y1453556D01*
X246444Y1300000D02*
X253556D01*
X250000Y1296444D02*
Y1303556D01*
X221444Y1450000D02*
X228556D01*
X225000Y1446444D02*
Y1453556D01*
X196444Y1300000D02*
X203556D01*
X200000Y1296444D02*
Y1303556D01*
X371444Y1250000D02*
X378556D01*
X375000Y1246444D02*
Y1253556D01*
X346444Y1200000D02*
X353556D01*
X350000Y1196444D02*
Y1203556D01*
X321444Y1150000D02*
X328556D01*
X325000Y1146444D02*
Y1153556D01*
X321444Y1250000D02*
X328556D01*
X325000Y1246444D02*
Y1253556D01*
X296444Y1200000D02*
X303556D01*
X300000Y1196444D02*
Y1203556D01*
X271444Y1150000D02*
X278556D01*
X275000Y1146444D02*
Y1153556D01*
X346444Y1100000D02*
X353556D01*
X350000Y1096444D02*
Y1103556D01*
X296444Y1000000D02*
X303556D01*
X300000Y996444D02*
Y1003556D01*
X346444Y1000000D02*
X353556D01*
X350000Y996444D02*
Y1003556D01*
X296444Y1100000D02*
X303556D01*
X300000Y1096444D02*
Y1103556D01*
X271444Y950000D02*
X278556D01*
X275000Y946444D02*
Y953556D01*
X271444Y1250000D02*
X278556D01*
X275000Y1246444D02*
Y1253556D01*
X221444Y1250000D02*
X228556D01*
X225000Y1246444D02*
Y1253556D01*
X246444Y1200000D02*
X253556D01*
X250000Y1196444D02*
Y1203556D01*
X196444Y1200000D02*
X203556D01*
X200000Y1196444D02*
Y1203556D01*
X246444Y1000000D02*
X253556D01*
X250000Y996444D02*
Y1003556D01*
X246444Y1100000D02*
X253556D01*
X250000Y1096444D02*
Y1103556D01*
X221444Y950000D02*
X228556D01*
X225000Y946444D02*
Y953556D01*
X221444Y1150000D02*
X228556D01*
X225000Y1146444D02*
Y1153556D01*
X196444Y1100000D02*
X203556D01*
X200000Y1096444D02*
Y1103556D01*
X546444Y800000D02*
X553556D01*
X550000Y796444D02*
Y803556D01*
X546444Y900000D02*
X553556D01*
X550000Y896444D02*
Y903556D01*
X496444Y800000D02*
X503556D01*
X500000Y796444D02*
Y803556D01*
X496444Y900000D02*
X503556D01*
X500000Y896444D02*
Y903556D01*
X496444Y700000D02*
X503556D01*
X500000Y696444D02*
Y703556D01*
X546444Y700000D02*
X553556D01*
X550000Y696444D02*
Y703556D01*
X546444Y600000D02*
X553556D01*
X550000Y596444D02*
Y603556D01*
X471444Y650000D02*
X478556D01*
X475000Y646444D02*
Y653556D01*
X496444Y600000D02*
X503556D01*
X500000Y596444D02*
Y603556D01*
X446444Y900000D02*
X453556D01*
X450000Y896444D02*
Y903556D01*
X421444Y850000D02*
X428556D01*
X425000Y846444D02*
Y853556D01*
X471444Y850000D02*
X478556D01*
X475000Y846444D02*
Y853556D01*
X421444Y950000D02*
X428556D01*
X425000Y946444D02*
Y953556D01*
X371444Y850000D02*
X378556D01*
X375000Y846444D02*
Y853556D01*
X446444Y700000D02*
X453556D01*
X450000Y696444D02*
Y703556D01*
X446444Y800000D02*
X453556D01*
X450000Y796444D02*
Y803556D01*
X446444Y600000D02*
X453556D01*
X450000Y596444D02*
Y603556D01*
X371444Y750000D02*
X378556D01*
X375000Y746444D02*
Y753556D01*
X421444Y650000D02*
X428556D01*
X425000Y646444D02*
Y653556D01*
X546444Y500000D02*
X553556D01*
X550000Y496444D02*
Y503556D01*
X521444Y350000D02*
X528556D01*
X525000Y346444D02*
Y353556D01*
X521444Y450000D02*
X528556D01*
X525000Y446444D02*
Y453556D01*
X496444Y500000D02*
X503556D01*
X500000Y496444D02*
Y503556D01*
X496444Y400000D02*
X503556D01*
X500000Y396444D02*
Y403556D01*
X496444Y200000D02*
X503556D01*
X500000Y196444D02*
Y203556D01*
X471444Y250000D02*
X478556D01*
X475000Y246444D02*
Y253556D01*
X471444Y550000D02*
X478556D01*
X475000Y546444D02*
Y553556D01*
X421444Y550000D02*
X428556D01*
X425000Y546444D02*
Y553556D01*
X446444Y500000D02*
X453556D01*
X450000Y496444D02*
Y503556D01*
X371444Y550000D02*
X378556D01*
X375000Y546444D02*
Y553556D01*
X371444Y450000D02*
X378556D01*
X375000Y446444D02*
Y453556D01*
X471444Y450000D02*
X478556D01*
X475000Y446444D02*
Y453556D01*
X446444Y400000D02*
X453556D01*
X450000Y396444D02*
Y403556D01*
X446444Y200000D02*
X453556D01*
X450000Y196444D02*
Y203556D01*
X421444Y450000D02*
X428556D01*
X425000Y446444D02*
Y453556D01*
X396444Y300000D02*
X403556D01*
X400000Y296444D02*
Y303556D01*
X371444Y950000D02*
X378556D01*
X375000Y946444D02*
Y953556D01*
X346444Y900000D02*
X353556D01*
X350000Y896444D02*
Y903556D01*
X346444Y800000D02*
X353556D01*
X350000Y796444D02*
Y803556D01*
X321444Y850000D02*
X328556D01*
X325000Y846444D02*
Y853556D01*
X321444Y950000D02*
X328556D01*
X325000Y946444D02*
Y953556D01*
X346444Y700000D02*
X353556D01*
X350000Y696444D02*
Y703556D01*
X321444Y650000D02*
X328556D01*
X325000Y646444D02*
Y653556D01*
X346444Y600000D02*
X353556D01*
X350000Y596444D02*
Y603556D01*
X321444Y750000D02*
X328556D01*
X325000Y746444D02*
Y753556D01*
X296444Y700000D02*
X303556D01*
X300000Y696444D02*
Y703556D01*
X296444Y900000D02*
X303556D01*
X300000Y896444D02*
Y903556D01*
X246444Y900000D02*
X253556D01*
X250000Y896444D02*
Y903556D01*
X196444Y900000D02*
X203556D01*
X200000Y896444D02*
Y903556D01*
X221444Y850000D02*
X228556D01*
X225000Y846444D02*
Y853556D01*
X221444Y750000D02*
X228556D01*
X225000Y746444D02*
Y753556D01*
X196444Y600000D02*
X203556D01*
X200000Y596444D02*
Y603556D01*
X196444Y800000D02*
X203556D01*
X200000Y796444D02*
Y803556D01*
X196444Y700000D02*
X203556D01*
X200000Y696444D02*
Y703556D01*
X346444Y500000D02*
X353556D01*
X350000Y496444D02*
Y503556D01*
X321444Y550000D02*
X328556D01*
X325000Y546444D02*
Y553556D01*
X321444Y450000D02*
X328556D01*
X325000Y446444D02*
Y453556D01*
X296444Y500000D02*
X303556D01*
X300000Y496444D02*
Y503556D01*
X296444Y600000D02*
X303556D01*
X300000Y596444D02*
Y603556D01*
X296444Y400000D02*
X303556D01*
X300000Y396444D02*
Y403556D01*
X346444Y300000D02*
X353556D01*
X350000Y296444D02*
Y303556D01*
X346444Y400000D02*
X353556D01*
X350000Y396444D02*
Y403556D01*
X321444Y250000D02*
X328556D01*
X325000Y246444D02*
Y253556D01*
X296444Y300000D02*
X303556D01*
X300000Y296444D02*
Y303556D01*
X271444Y250000D02*
X278556D01*
X275000Y246444D02*
Y253556D01*
X271444Y550000D02*
X278556D01*
X275000Y546444D02*
Y553556D01*
X246444Y500000D02*
X253556D01*
X250000Y496444D02*
Y503556D01*
X271444Y450000D02*
X278556D01*
X275000Y446444D02*
Y453556D01*
X221444Y550000D02*
X228556D01*
X225000Y546444D02*
Y553556D01*
X196444Y500000D02*
X203556D01*
X200000Y496444D02*
Y503556D01*
X271444Y350000D02*
X278556D01*
X275000Y346444D02*
Y353556D01*
X246444Y300000D02*
X253556D01*
X250000Y296444D02*
Y303556D01*
X199500Y220000D02*
X240500D01*
X220000Y199500D02*
Y240500D01*
X221444Y350000D02*
X228556D01*
X225000Y346444D02*
Y353556D01*
X196444Y300000D02*
X203556D01*
X200000Y296444D02*
Y303556D01*
X654444Y1028840D02*
X661556D01*
X658000Y1025284D02*
Y1032396D01*
X870224Y862955D02*
X877336D01*
X873780Y859399D02*
Y866511D01*
X874632Y912660D02*
X881744D01*
X878188Y909104D02*
Y916216D01*
X870344Y1008230D02*
X877456D01*
X873900Y1004674D02*
Y1011786D01*
X870344Y1046240D02*
X877456D01*
X873900Y1042684D02*
Y1049796D01*
X837324Y912660D02*
X844436D01*
X840880Y909104D02*
Y916216D01*
X855104Y913160D02*
X862216D01*
X858660Y909604D02*
Y916716D01*
X795414Y1132980D02*
X802526D01*
X798970Y1129424D02*
Y1136536D01*
X706514Y912500D02*
X713626D01*
X710070Y908944D02*
Y916056D01*
X819544Y851040D02*
X826656D01*
X823100Y847484D02*
Y854596D01*
X851464Y866489D02*
X858576D01*
X855020Y862933D02*
Y870045D01*
X831864Y862955D02*
X838976D01*
X835420Y859399D02*
Y866511D01*
X800114Y887500D02*
X807226D01*
X803670Y883944D02*
Y891056D01*
X819544Y906920D02*
X826656D01*
X823100Y903364D02*
Y910476D01*
X802563Y384479D02*
X809675D01*
X806119Y380923D02*
Y388035D01*
X812461Y372891D02*
X819573D01*
X816017Y369335D02*
Y376447D01*
X829704Y391300D02*
X836816D01*
X833260Y387744D02*
Y394856D01*
X817004Y404000D02*
X824116D01*
X820560Y400444D02*
Y407556D01*
X740804Y1211720D02*
X747916D01*
X744360Y1208164D02*
Y1215276D01*
X755924Y1153300D02*
X763036D01*
X759480Y1149744D02*
Y1156856D01*
X733184Y1127900D02*
X740296D01*
X736740Y1124344D02*
Y1131456D01*
X832244Y1313320D02*
X839356D01*
X835800Y1309764D02*
Y1316876D01*
X857644Y1234580D02*
X864756D01*
X861200Y1231024D02*
Y1238136D01*
X697624Y876440D02*
X704736D01*
X701180Y872884D02*
Y879996D01*
X688824Y899172D02*
X695936D01*
X692380Y895616D02*
Y902728D01*
X732774Y927620D02*
X739886D01*
X736330Y924064D02*
Y931176D01*
X253124Y531000D02*
X260236D01*
X256680Y527444D02*
Y534556D01*
X387744Y531000D02*
X394856D01*
X391300Y527444D02*
Y534556D01*
X522364Y531000D02*
X529476D01*
X525920Y527444D02*
Y534556D01*
X730644Y883464D02*
X737756D01*
X734200Y879908D02*
Y887020D01*
X725564Y899300D02*
X732676D01*
X729120Y895744D02*
Y902856D01*
X199000Y410000D02*
X241000D01*
X220000Y389000D02*
Y431000D01*
X374000Y900000D02*
X426000D01*
X400000Y874000D02*
Y926000D01*
X559000Y410000D02*
X601000D01*
X580000Y389000D02*
Y431000D01*
X559000Y1390000D02*
X601000D01*
X580000Y1369000D02*
Y1411000D01*
X199000Y1390000D02*
X241000D01*
X220000Y1369000D02*
Y1411000D01*
M02*
