G04*
G04 #@! TF.GenerationSoftware,Altium Limited,Altium Designer,25.8.1 (18)*
G04*
G04 Layer_Color=8421504*
%FSLAX44Y44*%
%MOMM*%
G71*
G04*
G04 #@! TF.SameCoordinates,F16540CA-DAB0-446D-89C1-54077F02B76C*
G04*
G04*
G04 #@! TF.FilePolarity,Positive*
G04*
G01*
G75*
G04:AMPARAMS|DCode=10|XSize=1.6mm|YSize=1.82mm|CornerRadius=0.2mm|HoleSize=0mm|Usage=FLASHONLY|Rotation=0.000|XOffset=0mm|YOffset=0mm|HoleType=Round|Shape=RoundedRectangle|*
%AMROUNDEDRECTD10*
21,1,1.6000,1.4200,0,0,0.0*
21,1,1.2000,1.8200,0,0,0.0*
1,1,0.4000,0.6000,-0.7100*
1,1,0.4000,-0.6000,-0.7100*
1,1,0.4000,-0.6000,0.7100*
1,1,0.4000,0.6000,0.7100*
%
%ADD10ROUNDEDRECTD10*%
%ADD11R,0.7500X0.3000*%
%ADD12R,1.1500X0.3000*%
%ADD13R,1.4000X1.7300*%
%ADD14R,1.7300X1.4000*%
%ADD15R,0.8500X0.8500*%
%ADD16R,2.8500X2.8500*%
%ADD17R,0.3000X0.7500*%
G04:AMPARAMS|DCode=18|XSize=1.6mm|YSize=1.82mm|CornerRadius=0.2mm|HoleSize=0mm|Usage=FLASHONLY|Rotation=90.000|XOffset=0mm|YOffset=0mm|HoleType=Round|Shape=RoundedRectangle|*
%AMROUNDEDRECTD18*
21,1,1.6000,1.4200,0,0,90.0*
21,1,1.2000,1.8200,0,0,90.0*
1,1,0.4000,0.7100,0.6000*
1,1,0.4000,0.7100,-0.6000*
1,1,0.4000,-0.7100,-0.6000*
1,1,0.4000,-0.7100,0.6000*
%
%ADD18ROUNDEDRECTD18*%
%ADD19R,0.8500X0.8500*%
%ADD20R,1.3000X0.6000*%
%ADD21R,1.4500X1.0000*%
%ADD22R,2.6000X1.0600*%
%ADD23R,5.7000X5.6320*%
%ADD24R,0.7500X1.2500*%
%ADD25R,0.9000X1.4000*%
%ADD26R,1.1000X1.3000*%
%ADD27R,1.6000X1.6500*%
D10*
X658785Y943501D02*
D03*
X691985D02*
D03*
X987020Y1026413D02*
D03*
X704900Y995820D02*
D03*
X704269Y970420D02*
D03*
X659180Y919620D02*
D03*
X692380D02*
D03*
X738100Y995820D02*
D03*
X737470Y970420D02*
D03*
X953820Y1026413D02*
D03*
X928600Y1054240D02*
D03*
X895400D02*
D03*
D11*
X731980Y1049800D02*
D03*
Y1029800D02*
D03*
Y1034800D02*
D03*
Y1039800D02*
D03*
Y1044800D02*
D03*
Y1054800D02*
D03*
X771980D02*
D03*
Y1049800D02*
D03*
Y1044800D02*
D03*
Y1034800D02*
D03*
Y1029800D02*
D03*
Y1039800D02*
D03*
D12*
X784850Y907500D02*
D03*
Y927500D02*
D03*
X755150D02*
D03*
X784850Y872500D02*
D03*
X755150D02*
D03*
Y892500D02*
D03*
Y897500D02*
D03*
Y902500D02*
D03*
Y907500D02*
D03*
X784850Y902500D02*
D03*
Y897500D02*
D03*
Y892500D02*
D03*
X755150Y887500D02*
D03*
Y912500D02*
D03*
X784850Y887500D02*
D03*
Y912500D02*
D03*
D13*
X877995Y1510560D02*
D03*
X876768Y1546120D02*
D03*
X715400Y602007D02*
D03*
X555380Y327687D02*
D03*
X692620Y683513D02*
D03*
X659020D02*
D03*
X658940Y655347D02*
D03*
X692540D02*
D03*
X681800Y602007D02*
D03*
X811420Y1046733D02*
D03*
X845020D02*
D03*
X894920Y1026413D02*
D03*
X928520D02*
D03*
X844395Y1510560D02*
D03*
X843168Y1546120D02*
D03*
X521780Y327687D02*
D03*
X521480Y299973D02*
D03*
X555080D02*
D03*
D14*
X843533Y1416440D02*
D03*
X833147Y191660D02*
D03*
X861087D02*
D03*
X632713Y684920D02*
D03*
X711453Y575700D02*
D03*
X655573D02*
D03*
X805207Y191660D02*
D03*
X777267D02*
D03*
X627633Y575700D02*
D03*
X576607Y232300D02*
D03*
X513333Y265820D02*
D03*
X873787Y1416520D02*
D03*
Y1382920D02*
D03*
X716307Y683337D02*
D03*
Y649737D02*
D03*
X683513Y542100D02*
D03*
Y575700D02*
D03*
X711453Y542100D02*
D03*
X739167Y575780D02*
D03*
Y542180D02*
D03*
X777267Y225260D02*
D03*
X805207D02*
D03*
X833147D02*
D03*
X861087D02*
D03*
X632713Y651320D02*
D03*
X655573Y542100D02*
D03*
X627633D02*
D03*
X851153Y1024990D02*
D03*
Y991390D02*
D03*
X856233Y1154820D02*
D03*
Y1121220D02*
D03*
X899413Y1217740D02*
D03*
Y1251340D02*
D03*
X944907Y1408900D02*
D03*
Y1375300D02*
D03*
X922047Y1375880D02*
D03*
Y1342280D02*
D03*
X889140Y1343085D02*
D03*
Y1309484D02*
D03*
X843533Y1382840D02*
D03*
X576607Y265900D02*
D03*
X513333Y232220D02*
D03*
D15*
X992250Y1059320D02*
D03*
X958750D02*
D03*
D16*
X751980Y1042300D02*
D03*
D17*
X754480Y1022300D02*
D03*
X739480D02*
D03*
X764480D02*
D03*
X759480D02*
D03*
X749480D02*
D03*
X744480D02*
D03*
X739480Y1062300D02*
D03*
X749480D02*
D03*
X754480D02*
D03*
X759480D02*
D03*
X764480D02*
D03*
X744480D02*
D03*
D18*
X792620Y981760D02*
D03*
X658000Y1083540D02*
D03*
X843420Y788720D02*
D03*
X658000Y1050340D02*
D03*
X843420Y821920D02*
D03*
X792620Y1014960D02*
D03*
X546240Y265660D02*
D03*
Y232460D02*
D03*
D19*
X803670Y788250D02*
D03*
Y821750D02*
D03*
D20*
X495780Y317973D02*
D03*
X474780Y308473D02*
D03*
X495780Y298973D02*
D03*
D21*
X429750Y187220D02*
D03*
X378250D02*
D03*
Y204220D02*
D03*
X429750D02*
D03*
D22*
X907870Y942490D02*
D03*
Y988210D02*
D03*
X907460Y1112650D02*
D03*
Y1158370D02*
D03*
D23*
X973370Y965360D02*
D03*
X972960Y1135520D02*
D03*
D24*
X825640Y1121560D02*
D03*
Y1154560D02*
D03*
D25*
X790740Y1547000D02*
D03*
X809740D02*
D03*
D26*
X791008Y1510447D02*
D03*
X812008D02*
D03*
D27*
X421460Y270628D02*
D03*
X381460D02*
D03*
M02*
