M48
;Layer_Color=9474304
;FILE_FORMAT=4:4
METRIC,LZ
;TYPE=PLATED
T01F00S00C0.7112
T02F00S00C0.7620
T03F00S00C0.7800
T04F00S00C1.0000
T05F00S00C1.1000
T06F00S00C1.2500
T07F00S00C1.3000
T08F00S00C1.4600
T09F00S00C1.5240
T10F00S00C1.9700
T12F00S00C4.1000
T13F00S00C4.2000
T14F00S00C5.2000
;TYPE=NON_PLATED
T15F00S00C0.6600
T16F00S00C1.0800
T17F00S00C3.2000
%
T01
X002Y003
X0025
X003
X0035
X00325Y0025
X00275
Y0035
X00225
X004Y003
X00475Y0025
X005Y002
X0045
X006
X00575Y0025
Y0035
X00625
X00675
X0065Y003
X00525Y0035
X00825
X00816017Y00372891
X00806119Y00384479
X0083326Y003913
X009Y003
X00925Y0025
X00875
X009Y002
X01025Y0025
X01Y003
X01025Y0035
X01Y004
X01025Y0045
X01Y005
X0095
X009
X0085
X008
X00825Y0055
X00875
X00925
X00975
X01025
X01Y006
X0095
X009
X0085
X008
X00825Y0065
X00875
X00925
X00975
X01025
Y0075
X00975
X00925
X008Y007
X00825Y0045
X0082056Y00404
X009Y004
X0075Y005
X00775Y0055
X0075Y006
Y007
X00636459Y0070626
X0055Y007
X005
X0045
X00475Y0065
X00425
X0045Y006
X005
X0055
X006
X0065
X00575Y0065
Y0055
X0052592Y00531
X0055Y005
X006
X00625Y0045
X00675
X0065Y004
X005
X0045
X00475Y0045
X00525
X005Y005
X0045
X00475Y0055
X00425
Y0045
X00375
X00325
X00275
X003Y005
X0035
X003913Y00531
X00375Y0055
X00325
X00275
X0025668Y00531
X0025Y005
X002
X00225Y0055
X002Y006
Y007
X00225Y0075
X00325
X00375
X0035Y007
X003
X00325Y0065
X0035Y006
X003
Y004
X0035
Y008
X00375Y0085
X00325
X0035Y009
X003
X0025
X002
X00225Y0095
X00275
X00325
X00375
X0035Y01
X003
X0025
Y011
X003
X0035
X00325Y0115
X00275
X00225
X002Y011
X00225Y0085
X002Y008
X0045
X005
X0055
X006
X0065
X00725Y0085
X007342Y00883464
X0072912Y008993
X0071007Y009125
X0069238Y00899172
X0070118Y0087644
X00711834Y00942734
X00734112Y00942698
X0073633Y0092762
X00717949Y0102207
X0068118Y0103957
X00658Y0102884
X0065Y01
X00625Y0105
X006Y011
X0055
X005
X0045
X004
Y01
X0045
X005
X0055
X00575Y0095
X0055Y009
X005
X0045
X00475Y0095
X00425
Y0085
X00475
Y0115
X00525
X00625
X00675
X007Y011
X006961Y0105932
X0073674Y011279
X0075948Y011533
X0079897Y0113298
X008Y011
X008739Y0104624
Y0100823
X00878188Y0091266
X0085866Y0091316
X0084088Y0091266
X008231Y0090692
X0080367Y008875
X008231Y0085104
X0083542Y00862955
X0085502Y00866489
X0087378Y00862955
X009Y008
X0095
X01
X01025Y0085
X00975
X0095Y009
X00975Y0105
X01025Y0115
X01Y012
X0095
X008612Y0123458
X008358Y0131332
X00825Y0135
X0085Y014
X008
X00825Y0145
X00925
X00975
X01025
X01Y015
X0095
X009
X01025Y0155
X01Y014
X0075
X00775Y0145
X00675
X00625
X00575
X00525
X00475
X00425
X0045Y015
X005
X0055
X006
X0065
X00675Y0155
X00625
X00575
X00525
X00475
X00425
X004Y015
Y014
X0045
X005
X00525Y0135
X00475
X00425
X0045Y013
X005
X0055
X006
X0065
X00675Y0125
X00725
X00775
X0074436Y0121172
X007Y012
X006
X0055
X005
X0045
X00475Y0125
X00525
X00575
X00625
Y0135
X0065Y014
X004Y013
X00425Y0125
X00375
X00325
X00275
X00225
X0025Y013
X003
X0035
X00375Y0135
X00325
X00275
X003Y014
X0035
X00375Y0145
X00325
X00275
X00225
X002Y015
X0025
X003
X0035
X00375Y0155
X00325
X00275
X002Y013
Y012
X0025
X003
X0035
Y016
X004
X0045
X005
X0055
X006
X0065
X007
X0075
X008
X0085
T02
X007049Y0098422
X00774065Y009755
X0075198Y010423
X008009Y009247
T03
X007074Y0031604
Y0033604
Y0035604
Y0037604
Y0039604
X008661
Y0037604
Y0035604
Y0033604
Y0031604
Y0041604
X007074
T04
X003913Y0034638
Y0039638
X004167
Y0034638
X0018432Y0099582
X00184285Y0116727
X00579255
X0057926Y0099582
T05
X0101868Y012295
Y012549
Y012803
Y013057
Y013311
Y013565
Y013819
T06
X007557Y0086
X007843
Y0094
X007557
T07
X0092978Y0080786
Y0087136
T08
X007074Y0029454
X008661
Y0043754
X007074
T09
X0034494Y0034638
X00454607Y0034638
T10
X0084088Y0057164
Y006961
X0099588
Y0057164
T12
X0022Y0022
X0098
Y0158
X0022
T13
X0058Y0041
X0022
X0058Y0139
X0022
T14
X004Y009
T15
X0077Y0086
T16
X0077Y0094
T17
X00075Y00075
X01125
X00075Y01725
X01125
M30
