G04*
G04 #@! TF.GenerationSoftware,Altium Limited,Altium Designer,25.8.1 (18)*
G04*
G04 Layer_Color=65535*
%FSLAX44Y44*%
%MOMM*%
G71*
G04*
G04 #@! TF.SameCoordinates,F16540CA-DAB0-446D-89C1-54077F02B76C*
G04*
G04*
G04 #@! TF.FilePolarity,Positive*
G04*
G01*
G75*
%ADD28C,0.2540*%
%ADD56C,0.1000*%
%ADD57C,0.2000*%
%ADD58C,0.2500*%
%ADD59C,0.1270*%
%ADD60C,0.1524*%
%ADD61C,0.2032*%
G36*
X749787Y1386773D02*
X749988D01*
Y1386372D01*
X750189D01*
Y1385971D01*
X750389D01*
Y1385569D01*
X750590D01*
Y1385168D01*
X750790D01*
Y1384767D01*
X750991D01*
Y1384366D01*
X751192D01*
Y1383964D01*
X751393D01*
Y1383563D01*
X751593D01*
Y1383162D01*
X751794D01*
Y1382560D01*
X751994D01*
Y1382158D01*
X752195D01*
Y1381757D01*
X752396D01*
Y1381356D01*
X752596D01*
Y1380954D01*
X752797D01*
Y1380553D01*
X752998D01*
Y1380152D01*
X753198D01*
Y1379550D01*
X753399D01*
Y1379149D01*
X753600D01*
Y1378747D01*
X753800D01*
Y1378346D01*
X754001D01*
Y1377945D01*
X754202D01*
Y1377343D01*
X754402D01*
Y1376941D01*
X754603D01*
Y1376540D01*
X754804D01*
Y1376139D01*
X755004D01*
Y1375737D01*
X755205D01*
Y1375135D01*
X755406D01*
Y1374734D01*
X755606D01*
Y1374333D01*
X755807D01*
Y1374534D01*
X756008D01*
Y1374734D01*
X756409D01*
Y1374935D01*
X756609D01*
Y1375135D01*
X756810D01*
Y1375336D01*
X757211D01*
Y1375537D01*
X757412D01*
Y1375737D01*
X757613D01*
Y1375938D01*
X758014D01*
Y1376139D01*
X758215D01*
Y1376339D01*
X758616D01*
Y1376540D01*
X758817D01*
Y1376741D01*
X759017D01*
Y1376941D01*
X759419D01*
Y1377142D01*
X759619D01*
Y1377343D01*
X759820D01*
Y1377543D01*
X760221D01*
Y1377744D01*
X760422D01*
Y1377945D01*
X760823D01*
Y1378145D01*
X761024D01*
Y1378346D01*
X761225D01*
Y1378547D01*
X761626D01*
Y1378747D01*
X761826D01*
Y1378948D01*
X762027D01*
Y1379149D01*
X762428D01*
Y1379349D01*
X762629D01*
Y1379550D01*
X763030D01*
Y1379751D01*
X763231D01*
Y1379951D01*
X763432D01*
Y1380152D01*
X763833D01*
Y1380352D01*
X764034D01*
Y1380553D01*
X764435D01*
Y1380754D01*
X764636D01*
Y1380954D01*
X765037D01*
Y1381155D01*
X765238D01*
Y1381356D01*
X765438D01*
Y1381556D01*
X765839D01*
Y1381757D01*
X766040D01*
Y1381958D01*
X766441D01*
Y1382158D01*
X766642D01*
Y1382359D01*
X766843D01*
Y1382560D01*
X767244D01*
Y1382760D01*
X767445D01*
Y1382961D01*
X767846D01*
Y1383162D01*
X768047D01*
Y1383362D01*
X768247D01*
Y1383563D01*
X768649D01*
Y1383764D01*
X768849D01*
Y1383964D01*
X769050D01*
Y1382961D01*
X769251D01*
Y1380754D01*
X769451D01*
Y1378547D01*
X769652D01*
Y1376339D01*
X769853D01*
Y1373731D01*
X770053D01*
Y1371323D01*
X770254D01*
Y1369919D01*
X770454D01*
Y1370119D01*
X770856D01*
Y1370320D01*
X771458D01*
Y1370520D01*
X771859D01*
Y1370721D01*
X772260D01*
Y1370922D01*
X772862D01*
Y1371122D01*
X773264D01*
Y1371323D01*
X773665D01*
Y1371524D01*
X774066D01*
Y1371724D01*
X774668D01*
Y1371925D01*
X775070D01*
Y1372126D01*
X775471D01*
Y1372326D01*
X776073D01*
Y1372527D01*
X776474D01*
Y1372728D01*
X776875D01*
Y1372928D01*
X777477D01*
Y1373129D01*
X777879D01*
Y1373330D01*
X778280D01*
Y1373530D01*
X778882D01*
Y1373731D01*
X779283D01*
Y1373932D01*
X779685D01*
Y1374132D01*
X780286D01*
Y1374333D01*
X780688D01*
Y1374534D01*
X781089D01*
Y1374734D01*
X781691D01*
Y1374935D01*
X782092D01*
Y1375135D01*
X782494D01*
Y1375336D01*
X782895D01*
Y1375537D01*
X783497D01*
Y1375737D01*
X783898D01*
Y1375938D01*
X784299D01*
Y1376139D01*
X784902D01*
Y1376339D01*
X785303D01*
Y1376540D01*
X785704D01*
Y1376741D01*
X786105D01*
Y1376139D01*
X785905D01*
Y1375336D01*
X785704D01*
Y1374534D01*
X785503D01*
Y1373731D01*
X785303D01*
Y1373129D01*
X785102D01*
Y1372326D01*
X784902D01*
Y1371524D01*
X784701D01*
Y1370721D01*
X784500D01*
Y1369919D01*
X784299D01*
Y1369317D01*
X784099D01*
Y1368514D01*
X783898D01*
Y1367711D01*
X783698D01*
Y1366909D01*
X783497D01*
Y1366106D01*
X783296D01*
Y1365303D01*
X783096D01*
Y1364501D01*
X782895D01*
Y1363899D01*
X782694D01*
Y1363096D01*
X782494D01*
Y1362494D01*
X783096D01*
Y1362695D01*
X784099D01*
Y1362896D01*
X785102D01*
Y1363096D01*
X786105D01*
Y1363297D01*
X787109D01*
Y1363498D01*
X787911D01*
Y1363698D01*
X788915D01*
Y1363899D01*
X789918D01*
Y1364100D01*
X790921D01*
Y1364300D01*
X791924D01*
Y1364501D01*
X792928D01*
Y1364702D01*
X793931D01*
Y1364902D01*
X794734D01*
Y1365103D01*
X795737D01*
Y1365303D01*
X796740D01*
Y1365504D01*
X797743D01*
Y1365705D01*
X798746D01*
Y1365905D01*
X799148D01*
Y1365504D01*
X798947D01*
Y1365103D01*
X798746D01*
Y1364902D01*
X798546D01*
Y1364501D01*
X798345D01*
Y1364100D01*
X798145D01*
Y1363899D01*
X797944D01*
Y1363498D01*
X797743D01*
Y1363096D01*
X797543D01*
Y1362896D01*
X797342D01*
Y1362494D01*
X797141D01*
Y1362093D01*
X796941D01*
Y1361892D01*
X796740D01*
Y1361491D01*
X796539D01*
Y1361090D01*
X796339D01*
Y1360889D01*
X796138D01*
Y1360488D01*
X795937D01*
Y1360087D01*
X795737D01*
Y1359886D01*
X795536D01*
Y1359485D01*
X795335D01*
Y1359083D01*
X795135D01*
Y1358883D01*
X794934D01*
Y1358481D01*
X794734D01*
Y1358080D01*
X794533D01*
Y1357879D01*
X794332D01*
Y1357478D01*
X794131D01*
Y1357077D01*
X793931D01*
Y1356876D01*
X793730D01*
Y1356475D01*
X793530D01*
Y1356073D01*
X793329D01*
Y1355672D01*
X793128D01*
Y1355471D01*
X792928D01*
Y1355070D01*
X792727D01*
Y1354669D01*
X792526D01*
Y1354468D01*
X792326D01*
Y1354067D01*
X792125D01*
Y1353666D01*
X791924D01*
Y1353465D01*
X791724D01*
Y1353064D01*
X791523D01*
Y1352662D01*
X791322D01*
Y1352462D01*
X794131D01*
Y1352261D01*
X807174D01*
Y1351860D01*
X806973D01*
Y1351659D01*
X806773D01*
Y1351458D01*
X806572D01*
Y1351258D01*
X806371D01*
Y1351057D01*
X806171D01*
Y1350856D01*
X805970D01*
Y1350656D01*
X805769D01*
Y1350455D01*
X805569D01*
Y1350255D01*
X805368D01*
Y1350054D01*
X805167D01*
Y1349853D01*
X804967D01*
Y1349653D01*
X804766D01*
Y1349452D01*
X804566D01*
Y1349251D01*
X804365D01*
Y1349051D01*
X804164D01*
Y1348850D01*
X803963D01*
Y1348449D01*
X803763D01*
Y1348248D01*
X803562D01*
Y1348047D01*
X803362D01*
Y1347847D01*
X803161D01*
Y1347646D01*
X802960D01*
Y1347445D01*
X802760D01*
Y1347245D01*
X802559D01*
Y1347044D01*
X802358D01*
Y1346844D01*
X802158D01*
Y1346643D01*
X801957D01*
Y1346442D01*
X801756D01*
Y1346241D01*
X801556D01*
Y1346041D01*
X801355D01*
Y1345840D01*
X801154D01*
Y1345639D01*
X800954D01*
Y1345439D01*
X800753D01*
Y1345238D01*
X800552D01*
Y1345038D01*
X800352D01*
Y1344837D01*
X800151D01*
Y1344636D01*
X799950D01*
Y1344436D01*
X799750D01*
Y1344235D01*
X799549D01*
Y1344034D01*
X799349D01*
Y1343834D01*
X799148D01*
Y1343633D01*
X798947D01*
Y1343232D01*
X798746D01*
Y1343031D01*
X798546D01*
Y1342830D01*
X798345D01*
Y1342630D01*
X798145D01*
Y1342429D01*
X797944D01*
Y1342228D01*
X797743D01*
Y1342028D01*
X797543D01*
Y1341827D01*
X797342D01*
Y1341626D01*
X797141D01*
Y1341426D01*
X796941D01*
Y1341225D01*
X796740D01*
Y1341024D01*
X796539D01*
Y1340824D01*
X796339D01*
Y1340623D01*
X796138D01*
Y1340423D01*
X796740D01*
Y1340222D01*
X797543D01*
Y1340021D01*
X798345D01*
Y1339821D01*
X799148D01*
Y1339620D01*
X799950D01*
Y1339419D01*
X800552D01*
Y1339219D01*
X801355D01*
Y1339018D01*
X802158D01*
Y1338817D01*
X802960D01*
Y1338617D01*
X803763D01*
Y1338416D01*
X804365D01*
Y1338215D01*
X805167D01*
Y1338015D01*
X805970D01*
Y1337814D01*
X806572D01*
Y1337613D01*
X807375D01*
Y1337413D01*
X808177D01*
Y1337212D01*
X808779D01*
Y1337012D01*
X809582D01*
Y1336811D01*
X810184D01*
Y1336610D01*
X809983D01*
Y1336409D01*
X809782D01*
Y1336209D01*
X809381D01*
Y1336008D01*
X809181D01*
Y1335807D01*
X808779D01*
Y1335607D01*
X808578D01*
Y1335406D01*
X808378D01*
Y1335206D01*
X807977D01*
Y1335005D01*
X807776D01*
Y1334804D01*
X807375D01*
Y1334604D01*
X807174D01*
Y1334403D01*
X806773D01*
Y1334202D01*
X806572D01*
Y1334002D01*
X806171D01*
Y1333801D01*
X805970D01*
Y1333600D01*
X805769D01*
Y1333400D01*
X805368D01*
Y1333199D01*
X805167D01*
Y1332998D01*
X804766D01*
Y1332798D01*
X804566D01*
Y1332597D01*
X804164D01*
Y1332396D01*
X803963D01*
Y1332196D01*
X803562D01*
Y1331995D01*
X803362D01*
Y1331794D01*
X803161D01*
Y1331594D01*
X802760D01*
Y1331393D01*
X802559D01*
Y1331192D01*
X802158D01*
Y1330992D01*
X801957D01*
Y1330791D01*
X801556D01*
Y1330591D01*
X801355D01*
Y1330390D01*
X801154D01*
Y1330189D01*
X800753D01*
Y1329989D01*
X800552D01*
Y1329788D01*
X800151D01*
Y1329587D01*
X799950D01*
Y1329387D01*
X799549D01*
Y1329186D01*
X799349D01*
Y1328985D01*
X799148D01*
Y1328785D01*
X798746D01*
Y1328584D01*
X798546D01*
Y1328383D01*
X798145D01*
Y1328183D01*
X797944D01*
Y1327982D01*
X797543D01*
Y1327781D01*
X797342D01*
Y1327380D01*
X797743D01*
Y1327180D01*
X797944D01*
Y1326979D01*
X798345D01*
Y1326778D01*
X798746D01*
Y1326577D01*
X798947D01*
Y1326377D01*
X799349D01*
Y1326176D01*
X799750D01*
Y1325976D01*
X799950D01*
Y1325775D01*
X800352D01*
Y1325574D01*
X800753D01*
Y1325374D01*
X800954D01*
Y1325173D01*
X801355D01*
Y1324972D01*
X801756D01*
Y1324772D01*
X801957D01*
Y1324571D01*
X802358D01*
Y1324370D01*
X802760D01*
Y1324170D01*
X802960D01*
Y1323969D01*
X803362D01*
Y1323768D01*
X803763D01*
Y1323568D01*
X803963D01*
Y1323367D01*
X804365D01*
Y1323166D01*
X804766D01*
Y1322966D01*
X804967D01*
Y1322765D01*
X805368D01*
Y1322565D01*
X805769D01*
Y1322364D01*
X805970D01*
Y1322163D01*
X806371D01*
Y1321962D01*
X806773D01*
Y1321762D01*
X806973D01*
Y1321561D01*
X807375D01*
Y1321361D01*
X807575D01*
Y1321160D01*
X807977D01*
Y1320959D01*
X808378D01*
Y1320759D01*
X808578D01*
Y1320357D01*
X807977D01*
Y1320157D01*
X807575D01*
Y1319956D01*
X807174D01*
Y1319755D01*
X806773D01*
Y1319555D01*
X806171D01*
Y1319354D01*
X805769D01*
Y1319153D01*
X805368D01*
Y1318953D01*
X804967D01*
Y1318752D01*
X804365D01*
Y1318551D01*
X803963D01*
Y1318351D01*
X803562D01*
Y1318150D01*
X802960D01*
Y1317949D01*
X802559D01*
Y1317749D01*
X802158D01*
Y1317548D01*
X801756D01*
Y1317348D01*
X801154D01*
Y1317147D01*
X800753D01*
Y1316946D01*
X800352D01*
Y1316745D01*
X799750D01*
Y1316545D01*
X799349D01*
Y1316344D01*
X798947D01*
Y1316144D01*
X798546D01*
Y1315943D01*
X797944D01*
Y1315742D01*
X797543D01*
Y1315542D01*
X797141D01*
Y1315341D01*
X796539D01*
Y1315140D01*
X796138D01*
Y1314940D01*
X795737D01*
Y1314739D01*
X795335D01*
Y1314538D01*
X794734D01*
Y1314338D01*
X794934D01*
Y1314137D01*
X795135D01*
Y1313736D01*
X795335D01*
Y1313535D01*
X795536D01*
Y1313334D01*
X795737D01*
Y1313134D01*
X795937D01*
Y1312933D01*
X796138D01*
Y1312733D01*
X796339D01*
Y1312532D01*
X796539D01*
Y1312331D01*
X796740D01*
Y1312130D01*
X796941D01*
Y1311729D01*
X797141D01*
Y1311529D01*
X797342D01*
Y1311328D01*
X797543D01*
Y1311127D01*
X797743D01*
Y1310927D01*
X797944D01*
Y1310726D01*
X798145D01*
Y1310525D01*
X798345D01*
Y1310325D01*
X798546D01*
Y1310124D01*
X798746D01*
Y1309923D01*
X798947D01*
Y1309522D01*
X799148D01*
Y1309321D01*
X799349D01*
Y1309121D01*
X799549D01*
Y1308920D01*
X799750D01*
Y1308719D01*
X799950D01*
Y1308519D01*
X800151D01*
Y1308318D01*
X800352D01*
Y1307917D01*
X800552D01*
Y1307716D01*
X800753D01*
Y1307516D01*
X800954D01*
Y1307315D01*
X801154D01*
Y1307114D01*
X801355D01*
Y1306913D01*
X801556D01*
Y1306713D01*
X801756D01*
Y1306312D01*
X801957D01*
Y1306111D01*
X802158D01*
Y1305910D01*
X802358D01*
Y1305710D01*
X802559D01*
Y1305509D01*
X802760D01*
Y1305308D01*
X802960D01*
Y1305108D01*
X803161D01*
Y1304706D01*
X803362D01*
Y1304506D01*
X802760D01*
Y1304305D01*
X801756D01*
Y1304104D01*
X800753D01*
Y1303904D01*
X799750D01*
Y1303703D01*
X798746D01*
Y1303502D01*
X797543D01*
Y1303302D01*
X796539D01*
Y1303101D01*
X795536D01*
Y1302901D01*
X794533D01*
Y1302700D01*
X793329D01*
Y1302499D01*
X792326D01*
Y1302298D01*
X791122D01*
Y1302098D01*
X790118D01*
Y1301897D01*
X789115D01*
Y1301697D01*
X789316D01*
Y1301295D01*
X789517D01*
Y1300894D01*
X789717D01*
Y1300493D01*
X789918D01*
Y1299891D01*
X790118D01*
Y1299489D01*
X790319D01*
Y1299088D01*
X790520D01*
Y1298687D01*
X790720D01*
Y1298286D01*
X790921D01*
Y1297884D01*
X791122D01*
Y1297483D01*
X791322D01*
Y1297082D01*
X791523D01*
Y1296480D01*
X791724D01*
Y1296078D01*
X791924D01*
Y1295677D01*
X792125D01*
Y1295276D01*
X792326D01*
Y1294874D01*
X792526D01*
Y1294473D01*
X792727D01*
Y1293871D01*
X792928D01*
Y1293470D01*
X793128D01*
Y1293069D01*
X793329D01*
Y1292667D01*
X793530D01*
Y1292266D01*
X793730D01*
Y1291664D01*
X793931D01*
Y1291263D01*
X794131D01*
Y1290861D01*
X794332D01*
Y1290460D01*
X794533D01*
Y1290059D01*
X794734D01*
Y1289657D01*
X792727D01*
Y1289858D01*
X790319D01*
Y1290059D01*
X787711D01*
Y1290259D01*
X785102D01*
Y1290460D01*
X782494D01*
Y1290661D01*
X781089D01*
Y1289657D01*
X781290D01*
Y1288454D01*
X781490D01*
Y1287250D01*
X781691D01*
Y1286046D01*
X781892D01*
Y1285042D01*
X782092D01*
Y1283839D01*
X782293D01*
Y1282434D01*
X782494D01*
Y1281230D01*
X782694D01*
Y1280026D01*
X782895D01*
Y1278822D01*
X783096D01*
Y1277217D01*
X782895D01*
Y1277418D01*
X782494D01*
Y1277618D01*
X782092D01*
Y1277819D01*
X781691D01*
Y1278019D01*
X781290D01*
Y1278220D01*
X780888D01*
Y1278421D01*
X780487D01*
Y1278622D01*
X780086D01*
Y1278822D01*
X779685D01*
Y1279023D01*
X779484D01*
Y1279223D01*
X779083D01*
Y1279424D01*
X778681D01*
Y1279625D01*
X778481D01*
Y1279825D01*
X778079D01*
Y1280026D01*
X777678D01*
Y1280227D01*
X777477D01*
Y1280427D01*
X777076D01*
Y1280628D01*
X776675D01*
Y1280829D01*
X776474D01*
Y1281029D01*
X776073D01*
Y1281230D01*
X775872D01*
Y1281431D01*
X775471D01*
Y1281631D01*
X775070D01*
Y1281832D01*
X774869D01*
Y1282033D01*
X774467D01*
Y1282233D01*
X774267D01*
Y1282434D01*
X773866D01*
Y1282634D01*
X773665D01*
Y1282835D01*
X773264D01*
Y1283036D01*
X773063D01*
Y1283237D01*
X772662D01*
Y1283437D01*
X772260D01*
Y1283638D01*
X772060D01*
Y1283839D01*
X771658D01*
Y1284039D01*
X771458D01*
Y1284240D01*
X771056D01*
Y1284440D01*
X770856D01*
Y1284641D01*
X770454D01*
Y1284842D01*
X770254D01*
Y1285042D01*
X769853D01*
Y1285243D01*
X769652D01*
Y1285444D01*
X769251D01*
Y1285644D01*
X769050D01*
Y1285845D01*
X768649D01*
Y1286046D01*
X768448D01*
Y1286246D01*
X768047D01*
Y1286447D01*
X767645D01*
Y1286648D01*
X767445D01*
Y1286848D01*
X767043D01*
Y1287049D01*
X766642D01*
Y1287250D01*
X766241D01*
Y1287450D01*
X766040D01*
Y1287651D01*
X765639D01*
Y1287852D01*
X765238D01*
Y1288052D01*
X764836D01*
Y1288253D01*
X764435D01*
Y1288454D01*
X764034D01*
Y1288654D01*
X763632D01*
Y1288855D01*
X763231D01*
Y1289055D01*
X762830D01*
Y1289256D01*
X762228D01*
Y1289457D01*
X761826D01*
Y1289657D01*
X761225D01*
Y1289858D01*
X760622D01*
Y1290059D01*
X760221D01*
Y1290259D01*
X759419D01*
Y1290460D01*
X758616D01*
Y1290661D01*
X757813D01*
Y1290861D01*
X752797D01*
Y1290661D01*
X751794D01*
Y1290460D01*
X750790D01*
Y1290259D01*
X750189D01*
Y1290059D01*
X749386D01*
Y1289858D01*
X748784D01*
Y1289657D01*
X748182D01*
Y1289457D01*
X747781D01*
Y1289256D01*
X747179D01*
Y1289055D01*
X746777D01*
Y1288855D01*
X746376D01*
Y1288654D01*
X745975D01*
Y1288454D01*
X745774D01*
Y1288253D01*
X745373D01*
Y1288052D01*
X744972D01*
Y1287852D01*
X744570D01*
Y1287651D01*
X744370D01*
Y1287450D01*
X743968D01*
Y1287250D01*
X743768D01*
Y1287049D01*
X743567D01*
Y1286848D01*
X743166D01*
Y1286648D01*
X742965D01*
Y1286447D01*
X742764D01*
Y1286246D01*
X742564D01*
Y1286046D01*
X742162D01*
Y1285845D01*
X741962D01*
Y1285644D01*
X741761D01*
Y1285444D01*
X741561D01*
Y1285243D01*
X741360D01*
Y1285042D01*
X741159D01*
Y1284842D01*
X740958D01*
Y1284641D01*
X740758D01*
Y1284440D01*
X740557D01*
Y1284240D01*
X740357D01*
Y1284039D01*
X740156D01*
Y1283839D01*
X739755D01*
Y1284039D01*
X739554D01*
Y1284240D01*
X739353D01*
Y1284440D01*
X739153D01*
Y1284641D01*
X738952D01*
Y1284842D01*
X738751D01*
Y1285042D01*
X738551D01*
Y1285243D01*
X738350D01*
Y1285444D01*
X738149D01*
Y1285644D01*
X737949D01*
Y1285845D01*
X737748D01*
Y1286046D01*
X737347D01*
Y1286246D01*
X737146D01*
Y1286447D01*
X736945D01*
Y1286648D01*
X736745D01*
Y1286848D01*
X736344D01*
Y1287049D01*
X736143D01*
Y1287250D01*
X735742D01*
Y1287450D01*
X735541D01*
Y1287651D01*
X735340D01*
Y1287852D01*
X734939D01*
Y1288052D01*
X734538D01*
Y1288253D01*
X734136D01*
Y1288454D01*
X733936D01*
Y1288654D01*
X733534D01*
Y1288855D01*
X733133D01*
Y1289055D01*
X732531D01*
Y1289256D01*
X732130D01*
Y1289457D01*
X731729D01*
Y1289657D01*
X731126D01*
Y1289858D01*
X730525D01*
Y1290059D01*
X729722D01*
Y1290259D01*
X729120D01*
Y1290460D01*
X728117D01*
Y1290661D01*
X727113D01*
Y1290861D01*
X722097D01*
Y1290661D01*
X721294D01*
Y1290460D01*
X720492D01*
Y1290259D01*
X719689D01*
Y1290059D01*
X719288D01*
Y1289858D01*
X718686D01*
Y1289657D01*
X718084D01*
Y1289457D01*
X717683D01*
Y1289256D01*
X717081D01*
Y1289055D01*
X716680D01*
Y1288855D01*
X716278D01*
Y1288654D01*
X715877D01*
Y1288454D01*
X715476D01*
Y1288253D01*
X715074D01*
Y1288052D01*
X714673D01*
Y1287852D01*
X714272D01*
Y1287651D01*
X713870D01*
Y1287450D01*
X713469D01*
Y1287250D01*
X713268D01*
Y1287049D01*
X712867D01*
Y1286848D01*
X712466D01*
Y1286648D01*
X712265D01*
Y1286447D01*
X711864D01*
Y1286246D01*
X711463D01*
Y1286046D01*
X711262D01*
Y1285845D01*
X710861D01*
Y1285644D01*
X710660D01*
Y1285444D01*
X710259D01*
Y1285243D01*
X710058D01*
Y1285042D01*
X709657D01*
Y1284842D01*
X709456D01*
Y1284641D01*
X709055D01*
Y1284440D01*
X708854D01*
Y1284240D01*
X708453D01*
Y1284039D01*
X708252D01*
Y1283839D01*
X707851D01*
Y1283638D01*
X707449D01*
Y1283437D01*
X707249D01*
Y1283237D01*
X706848D01*
Y1283036D01*
X706647D01*
Y1282835D01*
X706246D01*
Y1282634D01*
X706045D01*
Y1282434D01*
X705644D01*
Y1282233D01*
X705443D01*
Y1282033D01*
X705042D01*
Y1281832D01*
X704841D01*
Y1281631D01*
X704440D01*
Y1281431D01*
X704038D01*
Y1281230D01*
X703838D01*
Y1281029D01*
X703437D01*
Y1280829D01*
X703236D01*
Y1280628D01*
X702834D01*
Y1280427D01*
X702433D01*
Y1280227D01*
X702233D01*
Y1280026D01*
X701831D01*
Y1279825D01*
X701430D01*
Y1279625D01*
X701229D01*
Y1279424D01*
X700828D01*
Y1279223D01*
X700427D01*
Y1279023D01*
X700226D01*
Y1278822D01*
X699825D01*
Y1278622D01*
X699423D01*
Y1278421D01*
X699022D01*
Y1278220D01*
X698621D01*
Y1278019D01*
X698220D01*
Y1277819D01*
X697818D01*
Y1277618D01*
X697417D01*
Y1277418D01*
X697016D01*
Y1277217D01*
X696614D01*
Y1277618D01*
X696815D01*
Y1278822D01*
X697016D01*
Y1280026D01*
X697216D01*
Y1281230D01*
X697417D01*
Y1282634D01*
X697617D01*
Y1283839D01*
X697818D01*
Y1285042D01*
X698019D01*
Y1286046D01*
X698220D01*
Y1287250D01*
X698420D01*
Y1288454D01*
X698621D01*
Y1289657D01*
X698821D01*
Y1290661D01*
X697417D01*
Y1290460D01*
X694808D01*
Y1290259D01*
X692200D01*
Y1290059D01*
X689591D01*
Y1289858D01*
X687184D01*
Y1289657D01*
X685177D01*
Y1290059D01*
X685378D01*
Y1290460D01*
X685578D01*
Y1290861D01*
X685779D01*
Y1291263D01*
X685980D01*
Y1291664D01*
X686180D01*
Y1292266D01*
X686381D01*
Y1292667D01*
X686582D01*
Y1293069D01*
X686782D01*
Y1293470D01*
X686983D01*
Y1294072D01*
X687184D01*
Y1294473D01*
X687384D01*
Y1294874D01*
X687585D01*
Y1295276D01*
X687785D01*
Y1295677D01*
X687986D01*
Y1296078D01*
X688187D01*
Y1296680D01*
X688388D01*
Y1297082D01*
X688588D01*
Y1297483D01*
X688789D01*
Y1297884D01*
X688989D01*
Y1298286D01*
X689190D01*
Y1298687D01*
X689391D01*
Y1299088D01*
X689591D01*
Y1299489D01*
X689792D01*
Y1300091D01*
X689993D01*
Y1300493D01*
X690193D01*
Y1300894D01*
X690394D01*
Y1301295D01*
X690595D01*
Y1301697D01*
X690795D01*
Y1301897D01*
X689792D01*
Y1302098D01*
X688789D01*
Y1302298D01*
X687585D01*
Y1302499D01*
X686582D01*
Y1302700D01*
X685378D01*
Y1302901D01*
X684374D01*
Y1303101D01*
X683371D01*
Y1303302D01*
X682167D01*
Y1303502D01*
X681164D01*
Y1303703D01*
X680161D01*
Y1303904D01*
X679157D01*
Y1304104D01*
X678154D01*
Y1304305D01*
X677151D01*
Y1304506D01*
X676549D01*
Y1304907D01*
X676750D01*
Y1305108D01*
X676950D01*
Y1305308D01*
X677151D01*
Y1305509D01*
X677352D01*
Y1305710D01*
X677552D01*
Y1305910D01*
X677753D01*
Y1306111D01*
X677954D01*
Y1306512D01*
X678154D01*
Y1306713D01*
X678355D01*
Y1306913D01*
X678556D01*
Y1307114D01*
X678756D01*
Y1307315D01*
X678957D01*
Y1307516D01*
X679157D01*
Y1307716D01*
X679358D01*
Y1308117D01*
X679559D01*
Y1308318D01*
X679759D01*
Y1308519D01*
X679960D01*
Y1308719D01*
X680161D01*
Y1308920D01*
X680361D01*
Y1309121D01*
X680562D01*
Y1309321D01*
X680763D01*
Y1309522D01*
X680963D01*
Y1309923D01*
X681164D01*
Y1310124D01*
X681365D01*
Y1310325D01*
X681565D01*
Y1310525D01*
X681766D01*
Y1310726D01*
X681967D01*
Y1310927D01*
X682167D01*
Y1311127D01*
X682368D01*
Y1311328D01*
X682569D01*
Y1311529D01*
X682769D01*
Y1311930D01*
X682970D01*
Y1312130D01*
X683170D01*
Y1312331D01*
X683371D01*
Y1312532D01*
X683572D01*
Y1312733D01*
X683773D01*
Y1312933D01*
X683973D01*
Y1313134D01*
X684174D01*
Y1313334D01*
X684374D01*
Y1313535D01*
X684575D01*
Y1313936D01*
X684776D01*
Y1314137D01*
X684976D01*
Y1314338D01*
X685177D01*
Y1314538D01*
X684575D01*
Y1314739D01*
X684174D01*
Y1314940D01*
X683773D01*
Y1315140D01*
X683371D01*
Y1315341D01*
X682769D01*
Y1315542D01*
X682368D01*
Y1315742D01*
X681967D01*
Y1315943D01*
X681365D01*
Y1316144D01*
X680963D01*
Y1316344D01*
X680562D01*
Y1316545D01*
X679960D01*
Y1316745D01*
X679559D01*
Y1316946D01*
X679157D01*
Y1317147D01*
X678756D01*
Y1317348D01*
X678154D01*
Y1317548D01*
X677753D01*
Y1317749D01*
X677352D01*
Y1317949D01*
X676950D01*
Y1318150D01*
X676348D01*
Y1318351D01*
X675947D01*
Y1318551D01*
X675546D01*
Y1318752D01*
X674944D01*
Y1318953D01*
X674542D01*
Y1319153D01*
X674141D01*
Y1319354D01*
X673740D01*
Y1319555D01*
X673138D01*
Y1319755D01*
X672737D01*
Y1319956D01*
X672335D01*
Y1320157D01*
X671934D01*
Y1320357D01*
X671332D01*
Y1320759D01*
X671533D01*
Y1320959D01*
X671934D01*
Y1321160D01*
X672335D01*
Y1321361D01*
X672536D01*
Y1321561D01*
X672937D01*
Y1321762D01*
X673138D01*
Y1321962D01*
X673539D01*
Y1322163D01*
X673941D01*
Y1322364D01*
X674141D01*
Y1322565D01*
X674542D01*
Y1322765D01*
X674944D01*
Y1322966D01*
X675144D01*
Y1323166D01*
X675546D01*
Y1323367D01*
X675947D01*
Y1323568D01*
X676148D01*
Y1323768D01*
X676549D01*
Y1323969D01*
X676750D01*
Y1324170D01*
X677151D01*
Y1324370D01*
X677552D01*
Y1324571D01*
X677753D01*
Y1324772D01*
X678154D01*
Y1324972D01*
X678556D01*
Y1325173D01*
X678957D01*
Y1325374D01*
X679157D01*
Y1325574D01*
X679559D01*
Y1325775D01*
X679960D01*
Y1325976D01*
X680161D01*
Y1326176D01*
X680562D01*
Y1326377D01*
X680963D01*
Y1326577D01*
X681164D01*
Y1326778D01*
X681565D01*
Y1326979D01*
X681967D01*
Y1327180D01*
X682167D01*
Y1327380D01*
X682569D01*
Y1327781D01*
X682167D01*
Y1327982D01*
X681967D01*
Y1328183D01*
X681766D01*
Y1328383D01*
X681365D01*
Y1328584D01*
X681164D01*
Y1328785D01*
X680763D01*
Y1328985D01*
X680562D01*
Y1329186D01*
X680361D01*
Y1329387D01*
X679960D01*
Y1329587D01*
X679759D01*
Y1329788D01*
X679358D01*
Y1329989D01*
X679157D01*
Y1330189D01*
X678756D01*
Y1330390D01*
X678556D01*
Y1330591D01*
X678355D01*
Y1330791D01*
X677954D01*
Y1330992D01*
X677753D01*
Y1331192D01*
X677352D01*
Y1331393D01*
X677151D01*
Y1331594D01*
X676750D01*
Y1331794D01*
X676549D01*
Y1331995D01*
X676348D01*
Y1332196D01*
X675947D01*
Y1332396D01*
X675746D01*
Y1332597D01*
X675345D01*
Y1332798D01*
X675144D01*
Y1332998D01*
X674743D01*
Y1333199D01*
X674542D01*
Y1333400D01*
X674141D01*
Y1333600D01*
X673941D01*
Y1333801D01*
X673740D01*
Y1334002D01*
X673338D01*
Y1334202D01*
X673138D01*
Y1334403D01*
X672737D01*
Y1334604D01*
X672536D01*
Y1334804D01*
X672135D01*
Y1335005D01*
X671934D01*
Y1335206D01*
X671533D01*
Y1335406D01*
X671332D01*
Y1335607D01*
X671131D01*
Y1335807D01*
X670730D01*
Y1336008D01*
X670529D01*
Y1336209D01*
X670128D01*
Y1336409D01*
X669927D01*
Y1336610D01*
X669727D01*
Y1336811D01*
X670329D01*
Y1337012D01*
X671131D01*
Y1337212D01*
X671733D01*
Y1337413D01*
X672536D01*
Y1337613D01*
X673338D01*
Y1337814D01*
X673941D01*
Y1338015D01*
X674743D01*
Y1338215D01*
X675546D01*
Y1338416D01*
X676148D01*
Y1338617D01*
X676950D01*
Y1338817D01*
X677753D01*
Y1339018D01*
X678556D01*
Y1339219D01*
X679358D01*
Y1339419D01*
X679960D01*
Y1339620D01*
X680763D01*
Y1339821D01*
X681565D01*
Y1340021D01*
X682368D01*
Y1340222D01*
X683170D01*
Y1340423D01*
X683773D01*
Y1340623D01*
X683572D01*
Y1340824D01*
X683371D01*
Y1341024D01*
X683170D01*
Y1341225D01*
X682970D01*
Y1341426D01*
X682769D01*
Y1341626D01*
X682569D01*
Y1341827D01*
X682368D01*
Y1342028D01*
X682167D01*
Y1342228D01*
X681967D01*
Y1342429D01*
X681766D01*
Y1342630D01*
X681565D01*
Y1342830D01*
X681365D01*
Y1343031D01*
X681164D01*
Y1343232D01*
X680963D01*
Y1343432D01*
X680763D01*
Y1343834D01*
X680562D01*
Y1344034D01*
X680361D01*
Y1344235D01*
X680161D01*
Y1344436D01*
X679960D01*
Y1344636D01*
X679759D01*
Y1344837D01*
X679559D01*
Y1345038D01*
X679358D01*
Y1345238D01*
X679157D01*
Y1345439D01*
X678957D01*
Y1345639D01*
X678756D01*
Y1345840D01*
X678556D01*
Y1346041D01*
X678355D01*
Y1346241D01*
X678154D01*
Y1346442D01*
X677954D01*
Y1346643D01*
X677753D01*
Y1346844D01*
X677552D01*
Y1347044D01*
X677352D01*
Y1347245D01*
X677151D01*
Y1347445D01*
X676950D01*
Y1347646D01*
X676750D01*
Y1347847D01*
X676549D01*
Y1348047D01*
X676348D01*
Y1348248D01*
X676148D01*
Y1348449D01*
X675947D01*
Y1348649D01*
X675746D01*
Y1348850D01*
X675546D01*
Y1349051D01*
X675345D01*
Y1349452D01*
X675144D01*
Y1349653D01*
X674944D01*
Y1349853D01*
X674743D01*
Y1350054D01*
X674542D01*
Y1350255D01*
X674342D01*
Y1350455D01*
X674141D01*
Y1350656D01*
X673941D01*
Y1350856D01*
X673740D01*
Y1351057D01*
X673539D01*
Y1351258D01*
X673338D01*
Y1351458D01*
X673138D01*
Y1351659D01*
X672937D01*
Y1351860D01*
X672737D01*
Y1352261D01*
X685779D01*
Y1352462D01*
X688588D01*
Y1352662D01*
X688388D01*
Y1353064D01*
X688187D01*
Y1353264D01*
X687986D01*
Y1353666D01*
X687785D01*
Y1354067D01*
X687585D01*
Y1354468D01*
X687384D01*
Y1354669D01*
X687184D01*
Y1355070D01*
X686983D01*
Y1355471D01*
X686782D01*
Y1355672D01*
X686582D01*
Y1356073D01*
X686381D01*
Y1356475D01*
X686180D01*
Y1356675D01*
X685980D01*
Y1357077D01*
X685779D01*
Y1357478D01*
X685578D01*
Y1357879D01*
X685378D01*
Y1358080D01*
X685177D01*
Y1358481D01*
X684976D01*
Y1358883D01*
X684776D01*
Y1359083D01*
X684575D01*
Y1359485D01*
X684374D01*
Y1359886D01*
X684174D01*
Y1360087D01*
X683973D01*
Y1360488D01*
X683773D01*
Y1360889D01*
X683572D01*
Y1361090D01*
X683371D01*
Y1361491D01*
X683170D01*
Y1361892D01*
X682970D01*
Y1362093D01*
X682769D01*
Y1362494D01*
X682569D01*
Y1362896D01*
X682368D01*
Y1363096D01*
X682167D01*
Y1363498D01*
X681967D01*
Y1363698D01*
X681766D01*
Y1364100D01*
X681565D01*
Y1364501D01*
X681365D01*
Y1364702D01*
X681164D01*
Y1365103D01*
X680963D01*
Y1365504D01*
X680763D01*
Y1365905D01*
X681164D01*
Y1365705D01*
X682167D01*
Y1365504D01*
X683170D01*
Y1365303D01*
X684174D01*
Y1365103D01*
X685177D01*
Y1364902D01*
X685980D01*
Y1364702D01*
X686983D01*
Y1364501D01*
X687986D01*
Y1364300D01*
X688989D01*
Y1364100D01*
X689993D01*
Y1363899D01*
X690996D01*
Y1363698D01*
X691799D01*
Y1363498D01*
X692802D01*
Y1363297D01*
X693805D01*
Y1363096D01*
X694808D01*
Y1362896D01*
X695812D01*
Y1362695D01*
X696815D01*
Y1362494D01*
X697417D01*
Y1362896D01*
X697216D01*
Y1363698D01*
X697016D01*
Y1364501D01*
X696815D01*
Y1365303D01*
X696614D01*
Y1366106D01*
X696414D01*
Y1366909D01*
X696213D01*
Y1367711D01*
X696012D01*
Y1368514D01*
X695812D01*
Y1369317D01*
X695611D01*
Y1369919D01*
X695410D01*
Y1370721D01*
X695210D01*
Y1371524D01*
X695009D01*
Y1372326D01*
X694808D01*
Y1373129D01*
X694608D01*
Y1373731D01*
X694407D01*
Y1374534D01*
X694206D01*
Y1375336D01*
X694006D01*
Y1376139D01*
X693805D01*
Y1376741D01*
X694206D01*
Y1376540D01*
X694608D01*
Y1376339D01*
X695009D01*
Y1376139D01*
X695611D01*
Y1375938D01*
X696012D01*
Y1375737D01*
X696414D01*
Y1375537D01*
X697016D01*
Y1375336D01*
X697417D01*
Y1375135D01*
X697818D01*
Y1374935D01*
X698220D01*
Y1374734D01*
X698821D01*
Y1374534D01*
X699223D01*
Y1374333D01*
X699624D01*
Y1374132D01*
X700226D01*
Y1373932D01*
X700627D01*
Y1373731D01*
X701029D01*
Y1373530D01*
X701631D01*
Y1373330D01*
X702032D01*
Y1373129D01*
X702433D01*
Y1372928D01*
X703035D01*
Y1372728D01*
X703437D01*
Y1372527D01*
X703838D01*
Y1372326D01*
X704440D01*
Y1372126D01*
X704841D01*
Y1371925D01*
X705242D01*
Y1371724D01*
X705644D01*
Y1371524D01*
X706246D01*
Y1371323D01*
X706647D01*
Y1371122D01*
X707048D01*
Y1370922D01*
X707650D01*
Y1370721D01*
X708052D01*
Y1370520D01*
X708453D01*
Y1370320D01*
X709055D01*
Y1370119D01*
X709456D01*
Y1369919D01*
X709657D01*
Y1371323D01*
X709857D01*
Y1373932D01*
X710058D01*
Y1376540D01*
X710259D01*
Y1378747D01*
X710459D01*
Y1380954D01*
X710660D01*
Y1383162D01*
X710861D01*
Y1383964D01*
X711061D01*
Y1383764D01*
X711262D01*
Y1383563D01*
X711463D01*
Y1383362D01*
X711864D01*
Y1383162D01*
X712065D01*
Y1382961D01*
X712466D01*
Y1382760D01*
X712666D01*
Y1382560D01*
X713068D01*
Y1382359D01*
X713268D01*
Y1382158D01*
X713469D01*
Y1381958D01*
X713870D01*
Y1381757D01*
X714071D01*
Y1381556D01*
X714472D01*
Y1381356D01*
X714673D01*
Y1381155D01*
X714874D01*
Y1380954D01*
X715275D01*
Y1380754D01*
X715476D01*
Y1380553D01*
X715877D01*
Y1380352D01*
X716078D01*
Y1380152D01*
X716479D01*
Y1379951D01*
X716680D01*
Y1379751D01*
X716880D01*
Y1379550D01*
X717281D01*
Y1379349D01*
X717482D01*
Y1379149D01*
X717884D01*
Y1378948D01*
X718084D01*
Y1378747D01*
X718285D01*
Y1378547D01*
X718686D01*
Y1378346D01*
X718887D01*
Y1378145D01*
X719087D01*
Y1377945D01*
X719489D01*
Y1377744D01*
X719689D01*
Y1377543D01*
X720091D01*
Y1377343D01*
X720291D01*
Y1377142D01*
X720492D01*
Y1376941D01*
X720893D01*
Y1376741D01*
X721094D01*
Y1376540D01*
X721294D01*
Y1376339D01*
X721696D01*
Y1376139D01*
X721897D01*
Y1375938D01*
X722298D01*
Y1375737D01*
X722498D01*
Y1375537D01*
X722699D01*
Y1375336D01*
X723100D01*
Y1375135D01*
X723301D01*
Y1374935D01*
X723502D01*
Y1374734D01*
X723903D01*
Y1374534D01*
X724104D01*
Y1374333D01*
X724304D01*
Y1374734D01*
X724505D01*
Y1375135D01*
X724706D01*
Y1375737D01*
X724906D01*
Y1376139D01*
X725107D01*
Y1376540D01*
X725308D01*
Y1376941D01*
X725508D01*
Y1377543D01*
X725709D01*
Y1377945D01*
X725910D01*
Y1378346D01*
X726110D01*
Y1378747D01*
X726311D01*
Y1379149D01*
X726512D01*
Y1379751D01*
X726712D01*
Y1380152D01*
X726913D01*
Y1380553D01*
X727113D01*
Y1380954D01*
X727314D01*
Y1381356D01*
X727515D01*
Y1381757D01*
X727715D01*
Y1382359D01*
X727916D01*
Y1382760D01*
X728117D01*
Y1383162D01*
X728317D01*
Y1383563D01*
X728518D01*
Y1383964D01*
X728719D01*
Y1384366D01*
X728919D01*
Y1384767D01*
X729120D01*
Y1385168D01*
X729321D01*
Y1385569D01*
X729521D01*
Y1385971D01*
X729722D01*
Y1386372D01*
X729923D01*
Y1386974D01*
X730123D01*
Y1387175D01*
X730324D01*
Y1386974D01*
X730525D01*
Y1386773D01*
X730725D01*
Y1386573D01*
X730926D01*
Y1386372D01*
X731126D01*
Y1385971D01*
X731327D01*
Y1385770D01*
X731528D01*
Y1385569D01*
X731729D01*
Y1385369D01*
X731929D01*
Y1385168D01*
X732130D01*
Y1384967D01*
X732330D01*
Y1384566D01*
X732531D01*
Y1384366D01*
X732732D01*
Y1384165D01*
X732932D01*
Y1383964D01*
X733133D01*
Y1383764D01*
X733334D01*
Y1383563D01*
X733534D01*
Y1383162D01*
X733735D01*
Y1382961D01*
X733936D01*
Y1382760D01*
X734136D01*
Y1382560D01*
X734337D01*
Y1382359D01*
X734538D01*
Y1382158D01*
X734738D01*
Y1381757D01*
X734939D01*
Y1381556D01*
X735140D01*
Y1381356D01*
X735340D01*
Y1381155D01*
X735541D01*
Y1380954D01*
X735742D01*
Y1380553D01*
X735942D01*
Y1380352D01*
X736143D01*
Y1380152D01*
X736344D01*
Y1379951D01*
X736544D01*
Y1379751D01*
X736745D01*
Y1379349D01*
X736945D01*
Y1379149D01*
X737146D01*
Y1378948D01*
X737347D01*
Y1378747D01*
X737547D01*
Y1378547D01*
X737748D01*
Y1378145D01*
X737949D01*
Y1377945D01*
X738149D01*
Y1377744D01*
X738350D01*
Y1377543D01*
X738551D01*
Y1377343D01*
X738751D01*
Y1376941D01*
X738952D01*
Y1376741D01*
X739153D01*
Y1376540D01*
X739353D01*
Y1376339D01*
X739554D01*
Y1375938D01*
X739755D01*
Y1375737D01*
X740156D01*
Y1375938D01*
X740357D01*
Y1376339D01*
X740557D01*
Y1376540D01*
X740758D01*
Y1376741D01*
X740958D01*
Y1376941D01*
X741159D01*
Y1377343D01*
X741360D01*
Y1377543D01*
X741561D01*
Y1377744D01*
X741761D01*
Y1377945D01*
X741962D01*
Y1378145D01*
X742162D01*
Y1378547D01*
X742363D01*
Y1378747D01*
X742564D01*
Y1378948D01*
X742764D01*
Y1379149D01*
X742965D01*
Y1379349D01*
X743166D01*
Y1379751D01*
X743366D01*
Y1379951D01*
X743567D01*
Y1380152D01*
X743768D01*
Y1380352D01*
X743968D01*
Y1380553D01*
X744169D01*
Y1380954D01*
X744370D01*
Y1381155D01*
X744570D01*
Y1381356D01*
X744771D01*
Y1381556D01*
X744972D01*
Y1381757D01*
X745172D01*
Y1382158D01*
X745373D01*
Y1382359D01*
X745574D01*
Y1382560D01*
X745774D01*
Y1382760D01*
X745975D01*
Y1382961D01*
X746176D01*
Y1383162D01*
X746376D01*
Y1383563D01*
X746577D01*
Y1383764D01*
X746777D01*
Y1383964D01*
X746978D01*
Y1384165D01*
X747179D01*
Y1384366D01*
X747379D01*
Y1384566D01*
X747580D01*
Y1384967D01*
X747781D01*
Y1385168D01*
X747981D01*
Y1385369D01*
X748182D01*
Y1385569D01*
X748383D01*
Y1385770D01*
X748583D01*
Y1385971D01*
X748784D01*
Y1386372D01*
X748985D01*
Y1386573D01*
X749185D01*
Y1386773D01*
X749386D01*
Y1386974D01*
X749587D01*
Y1387175D01*
X749787D01*
Y1386773D01*
D02*
G37*
G36*
X752998Y1278622D02*
X753800D01*
Y1278421D01*
X754202D01*
Y1278220D01*
X754603D01*
Y1278019D01*
X754804D01*
Y1277819D01*
X755004D01*
Y1277618D01*
X755406D01*
Y1277418D01*
X755606D01*
Y1277016D01*
X755807D01*
Y1276816D01*
X756008D01*
Y1276414D01*
X756208D01*
Y1276214D01*
X756409D01*
Y1275612D01*
X756609D01*
Y1273404D01*
Y1273204D01*
Y1273003D01*
X756409D01*
Y1272401D01*
X756208D01*
Y1272000D01*
X756008D01*
Y1271599D01*
X755807D01*
Y1271398D01*
X755606D01*
Y1271197D01*
X755406D01*
Y1270997D01*
X755205D01*
Y1270796D01*
X755004D01*
Y1270595D01*
X754804D01*
Y1270395D01*
X754402D01*
Y1270194D01*
X754001D01*
Y1269993D01*
X753399D01*
Y1269793D01*
X752195D01*
Y1269592D01*
X751794D01*
Y1269793D01*
X750590D01*
Y1269993D01*
X749988D01*
Y1270194D01*
X749587D01*
Y1270395D01*
X749386D01*
Y1270595D01*
X748985D01*
Y1270796D01*
X748784D01*
Y1270997D01*
X748583D01*
Y1271197D01*
X748383D01*
Y1271398D01*
X748182D01*
Y1271799D01*
X747981D01*
Y1272000D01*
X747781D01*
Y1272401D01*
X747580D01*
Y1273003D01*
X747379D01*
Y1275411D01*
X747580D01*
Y1276013D01*
X747781D01*
Y1276414D01*
X747981D01*
Y1276816D01*
X748182D01*
Y1277016D01*
X748383D01*
Y1277217D01*
X748583D01*
Y1277418D01*
X748784D01*
Y1277618D01*
X748985D01*
Y1277819D01*
X749185D01*
Y1278019D01*
X749386D01*
Y1278220D01*
X749787D01*
Y1278421D01*
X750189D01*
Y1278622D01*
X750991D01*
Y1278822D01*
X752998D01*
Y1278622D01*
D02*
G37*
G36*
X728919D02*
X729722D01*
Y1278421D01*
X730123D01*
Y1278220D01*
X730525D01*
Y1278019D01*
X730725D01*
Y1277819D01*
X730926D01*
Y1277618D01*
X731126D01*
Y1277418D01*
X731327D01*
Y1277217D01*
X731528D01*
Y1277016D01*
X731729D01*
Y1276816D01*
X731929D01*
Y1276414D01*
X732130D01*
Y1276013D01*
X732330D01*
Y1275411D01*
X732531D01*
Y1273204D01*
X732330D01*
Y1272602D01*
X732130D01*
Y1272201D01*
X731929D01*
Y1271799D01*
X731729D01*
Y1271398D01*
X731528D01*
Y1271197D01*
X731327D01*
Y1270997D01*
X731126D01*
Y1270796D01*
X730926D01*
Y1270595D01*
X730525D01*
Y1270395D01*
X730324D01*
Y1270194D01*
X729923D01*
Y1269993D01*
X729321D01*
Y1269793D01*
X728117D01*
Y1269592D01*
X727715D01*
Y1269793D01*
X726512D01*
Y1269993D01*
X725910D01*
Y1270194D01*
X725508D01*
Y1270395D01*
X725107D01*
Y1270595D01*
X724906D01*
Y1270796D01*
X724706D01*
Y1270997D01*
X724505D01*
Y1271197D01*
X724304D01*
Y1271398D01*
X724104D01*
Y1271599D01*
X723903D01*
Y1272000D01*
X723702D01*
Y1272401D01*
X723502D01*
Y1273003D01*
X723301D01*
Y1274007D01*
X723100D01*
Y1274408D01*
X723301D01*
Y1275612D01*
X723502D01*
Y1276214D01*
X723702D01*
Y1276414D01*
X723903D01*
Y1276816D01*
X724104D01*
Y1277016D01*
X724304D01*
Y1277418D01*
X724505D01*
Y1277618D01*
X724706D01*
Y1277819D01*
X725107D01*
Y1278019D01*
X725308D01*
Y1278220D01*
X725709D01*
Y1278421D01*
X726110D01*
Y1278622D01*
X726913D01*
Y1278822D01*
X728919D01*
Y1278622D01*
D02*
G37*
G36*
X740758Y1263773D02*
X741561D01*
Y1263572D01*
X741962D01*
Y1263372D01*
X742363D01*
Y1263171D01*
X742764D01*
Y1262971D01*
X742965D01*
Y1262770D01*
X743166D01*
Y1262569D01*
X743366D01*
Y1262369D01*
X743567D01*
Y1262168D01*
X743768D01*
Y1261967D01*
X743968D01*
Y1261566D01*
X744169D01*
Y1261165D01*
X744370D01*
Y1260563D01*
X744570D01*
Y1258155D01*
X744370D01*
Y1257553D01*
X744169D01*
Y1257152D01*
X743968D01*
Y1256750D01*
X743768D01*
Y1256550D01*
X743567D01*
Y1256349D01*
X743366D01*
Y1256148D01*
X743166D01*
Y1255948D01*
X742965D01*
Y1255747D01*
X742764D01*
Y1255546D01*
X742363D01*
Y1255346D01*
X741962D01*
Y1255145D01*
X741360D01*
Y1254945D01*
X740557D01*
Y1254744D01*
X739353D01*
Y1254945D01*
X738551D01*
Y1255145D01*
X737949D01*
Y1255346D01*
X737547D01*
Y1255546D01*
X737146D01*
Y1255747D01*
X736945D01*
Y1255948D01*
X736745D01*
Y1256148D01*
X736544D01*
Y1256349D01*
X736344D01*
Y1256550D01*
X736143D01*
Y1256750D01*
X735942D01*
Y1257152D01*
X735742D01*
Y1257553D01*
X735541D01*
Y1258155D01*
X735340D01*
Y1260563D01*
X735541D01*
Y1261165D01*
X735742D01*
Y1261566D01*
X735942D01*
Y1261967D01*
X736143D01*
Y1262168D01*
X736344D01*
Y1262369D01*
X736544D01*
Y1262569D01*
X736745D01*
Y1262770D01*
X736945D01*
Y1262971D01*
X737146D01*
Y1263171D01*
X737547D01*
Y1263372D01*
X737748D01*
Y1263572D01*
X738350D01*
Y1263773D01*
X738952D01*
Y1263974D01*
X740758D01*
Y1263773D01*
D02*
G37*
D28*
X693560Y1529220D02*
X772300D01*
X693560Y1496200D02*
Y1529220D01*
Y1496200D02*
Y1562240D01*
Y1496200D02*
X767220D01*
X772300Y1501280D01*
Y1509447D01*
Y1557160D01*
X767220Y1562240D02*
X772300Y1557160D01*
X693560Y1562240D02*
X767220D01*
X955180Y1215300D02*
X1002730D01*
X955180D02*
Y1239660D01*
X953605Y1241235D02*
X955180Y1239660D01*
X922160Y1241235D02*
X953605D01*
X922160D02*
Y1270140D01*
X952640D01*
X955180Y1272680D01*
Y1395223D01*
X956057Y1396100D01*
X1005230D01*
X617360Y172860D02*
Y259220D01*
Y172860D02*
X751980D01*
Y259220D01*
X617360D02*
X751980D01*
X972960Y294780D02*
Y458490D01*
X972720Y294540D02*
X972960Y294780D01*
X912240Y294540D02*
X972720D01*
X912000Y294780D02*
X912240Y294540D01*
X912000Y294780D02*
Y458490D01*
X972960D01*
X751980D02*
X812940D01*
X751980Y294780D02*
Y458490D01*
Y294780D02*
X752220Y294540D01*
X812700D01*
X812940Y294780D01*
Y458490D01*
X629666Y948580D02*
X627127Y951119D01*
X622049D01*
X619509Y948580D01*
Y938423D01*
X622049Y935884D01*
X627127D01*
X629666Y938423D01*
X634744D02*
X637284Y935884D01*
X642362D01*
X644901Y938423D01*
Y948580D01*
X642362Y951119D01*
X637284D01*
X634744Y948580D01*
Y946041D01*
X637284Y943502D01*
X644901D01*
X658835Y1114510D02*
X656295Y1117049D01*
X651217D01*
X648678Y1114510D01*
Y1104353D01*
X651217Y1101814D01*
X656295D01*
X658835Y1104353D01*
X663913Y1101814D02*
X668991D01*
X666452D01*
Y1117049D01*
X663913Y1114510D01*
X676609D02*
X679148Y1117049D01*
X684227D01*
X686766Y1114510D01*
Y1111971D01*
X684227Y1109432D01*
X681687D01*
X684227D01*
X686766Y1106892D01*
Y1104353D01*
X684227Y1101814D01*
X679148D01*
X676609Y1104353D01*
X698640Y1546636D02*
X705170D01*
X707347Y1547361D01*
X708072Y1548087D01*
X708798Y1549538D01*
Y1551714D01*
X708072Y1553166D01*
X707347Y1553891D01*
X705170Y1554617D01*
X698640D01*
Y1539380D01*
X716561Y1554617D02*
X715110Y1553891D01*
X713659Y1552440D01*
X712934Y1550989D01*
X712208Y1548812D01*
Y1545184D01*
X712934Y1543008D01*
X713659Y1541557D01*
X715110Y1540106D01*
X716561Y1539380D01*
X719464D01*
X720915Y1540106D01*
X722366Y1541557D01*
X723091Y1543008D01*
X723817Y1545184D01*
Y1548812D01*
X723091Y1550989D01*
X722366Y1552440D01*
X720915Y1553891D01*
X719464Y1554617D01*
X716561D01*
X727372D02*
X731000Y1539380D01*
X734628Y1554617D02*
X731000Y1539380D01*
X734628Y1554617D02*
X738255Y1539380D01*
X741883Y1554617D02*
X738255Y1539380D01*
X754363Y1554617D02*
X744931D01*
Y1539380D01*
X754363D01*
X744931Y1547361D02*
X750735D01*
X756902Y1554617D02*
Y1539380D01*
Y1554617D02*
X763432D01*
X765609Y1553891D01*
X766335Y1553166D01*
X767060Y1551714D01*
Y1550263D01*
X766335Y1548812D01*
X765609Y1548087D01*
X763432Y1547361D01*
X756902D01*
X761981D02*
X767060Y1539380D01*
X703720Y1519057D02*
Y1503820D01*
Y1519057D02*
X713152D01*
X703720Y1511801D02*
X709525D01*
X726503Y1503820D02*
X720698Y1519057D01*
X714894Y1503820D01*
X717070Y1508899D02*
X724326D01*
X730058Y1519057D02*
Y1508173D01*
X730783Y1505997D01*
X732234Y1504546D01*
X734411Y1503820D01*
X735862D01*
X738039Y1504546D01*
X739490Y1505997D01*
X740216Y1508173D01*
Y1519057D01*
X744424D02*
Y1503820D01*
X753131D01*
X759878Y1519057D02*
Y1503820D01*
X754799Y1519057D02*
X764957D01*
X963808Y1234577D02*
X971789D01*
X967436Y1228772D01*
X969613D01*
X971064Y1228047D01*
X971789Y1227321D01*
X972515Y1225145D01*
Y1223693D01*
X971789Y1221517D01*
X970338Y1220066D01*
X968161Y1219340D01*
X965985D01*
X963808Y1220066D01*
X963083Y1220791D01*
X962357Y1222242D01*
X975925Y1234577D02*
X981729Y1219340D01*
X987534Y1234577D02*
X981729Y1219340D01*
X990944Y1234577D02*
X998925D01*
X994572Y1228772D01*
X996749D01*
X998200Y1228047D01*
X998925Y1227321D01*
X999651Y1225145D01*
Y1223693D01*
X998925Y1221517D01*
X997474Y1220066D01*
X995297Y1219340D01*
X993121D01*
X990944Y1220066D01*
X990219Y1220791D01*
X989493Y1222242D01*
X927240Y1260823D02*
Y1245587D01*
X937398Y1260823D02*
Y1245587D01*
X927240Y1253568D02*
X937398D01*
X941606Y1252842D02*
X948136D01*
X950313Y1253568D01*
X951038Y1254293D01*
X951764Y1255744D01*
Y1257921D01*
X951038Y1259372D01*
X950313Y1260098D01*
X948136Y1260823D01*
X941606D01*
Y1245587D01*
X955174Y1260823D02*
Y1245587D01*
X958366Y1252117D02*
X971426D01*
X975925Y1260823D02*
Y1245587D01*
X979117Y1260823D02*
Y1245587D01*
Y1260823D02*
X989275Y1245587D01*
Y1260823D02*
Y1245587D01*
X998562Y1260823D02*
Y1245587D01*
X993484Y1260823D02*
X1003641D01*
X967799Y1283442D02*
X967073Y1284893D01*
X965622Y1286344D01*
X964171Y1287070D01*
X961269D01*
X959818Y1286344D01*
X958366Y1284893D01*
X957641Y1283442D01*
X956915Y1281266D01*
Y1277638D01*
X957641Y1275461D01*
X958366Y1274010D01*
X959818Y1272559D01*
X961269Y1271833D01*
X964171D01*
X965622Y1272559D01*
X967073Y1274010D01*
X967799Y1275461D01*
Y1277638D01*
X964171D02*
X967799D01*
X971281Y1279089D02*
X977811D01*
X979988Y1279815D01*
X980714Y1280540D01*
X981439Y1281991D01*
Y1284168D01*
X980714Y1285619D01*
X979988Y1286344D01*
X977811Y1287070D01*
X971281D01*
Y1271833D01*
X984849Y1287070D02*
Y1271833D01*
X992395Y1287070D02*
X990944Y1286344D01*
X989493Y1284893D01*
X988767Y1283442D01*
X988042Y1281266D01*
Y1277638D01*
X988767Y1275461D01*
X989493Y1274010D01*
X990944Y1272559D01*
X992395Y1271833D01*
X995297D01*
X996749Y1272559D01*
X998200Y1274010D01*
X998925Y1275461D01*
X999651Y1277638D01*
Y1281266D01*
X998925Y1283442D01*
X998200Y1284893D01*
X996749Y1286344D01*
X995297Y1287070D01*
X992395D01*
X964751Y1313317D02*
Y1298080D01*
Y1313317D02*
X974184D01*
X964751Y1306061D02*
X970556D01*
X975925Y1313317D02*
Y1298080D01*
X984632D01*
X986301Y1313317D02*
Y1298080D01*
X989493Y1305336D02*
X996023D01*
X998200Y1306061D01*
X998925Y1306787D01*
X999651Y1308238D01*
Y1310414D01*
X998925Y1311866D01*
X998200Y1312591D01*
X996023Y1313317D01*
X989493D01*
Y1298080D01*
X971644Y1388429D02*
X970919Y1389880D01*
X969467Y1391331D01*
X968016Y1392057D01*
X965114D01*
X963663Y1391331D01*
X962212Y1389880D01*
X961486Y1388429D01*
X960761Y1386252D01*
Y1382624D01*
X961486Y1380448D01*
X962212Y1378997D01*
X963663Y1377545D01*
X965114Y1376820D01*
X968016D01*
X969467Y1377545D01*
X970919Y1378997D01*
X971644Y1380448D01*
Y1382624D01*
X968016D02*
X971644D01*
X975127Y1392057D02*
Y1376820D01*
Y1392057D02*
X985285Y1376820D01*
Y1392057D02*
Y1376820D01*
X989493Y1392057D02*
Y1376820D01*
Y1392057D02*
X994572D01*
X996749Y1391331D01*
X998200Y1389880D01*
X998925Y1388429D01*
X999651Y1386252D01*
Y1382624D01*
X998925Y1380448D01*
X998200Y1378997D01*
X996749Y1377545D01*
X994572Y1376820D01*
X989493D01*
X971064Y1337387D02*
X969613Y1338838D01*
X967436Y1339563D01*
X964534D01*
X962357Y1338838D01*
X960906Y1337387D01*
Y1335936D01*
X961631Y1334485D01*
X962357Y1333759D01*
X963808Y1333033D01*
X968161Y1331582D01*
X969613Y1330857D01*
X970338Y1330131D01*
X971064Y1328680D01*
Y1326503D01*
X969613Y1325052D01*
X967436Y1324327D01*
X964534D01*
X962357Y1325052D01*
X960906Y1326503D01*
X974474Y1339563D02*
Y1324327D01*
Y1339563D02*
X979553D01*
X981729Y1338838D01*
X983181Y1337387D01*
X983906Y1335936D01*
X984632Y1333759D01*
Y1330131D01*
X983906Y1327954D01*
X983181Y1326503D01*
X981729Y1325052D01*
X979553Y1324327D01*
X974474D01*
X999651D02*
X993846Y1339563D01*
X988042Y1324327D01*
X990219Y1329406D02*
X997474D01*
X972370Y1363633D02*
X970919Y1365085D01*
X968742Y1365810D01*
X965840D01*
X963663Y1365085D01*
X962212Y1363633D01*
Y1362182D01*
X962937Y1360731D01*
X963663Y1360006D01*
X965114Y1359280D01*
X969467Y1357829D01*
X970919Y1357103D01*
X971644Y1356378D01*
X972370Y1354927D01*
Y1352750D01*
X970919Y1351299D01*
X968742Y1350573D01*
X965840D01*
X963663Y1351299D01*
X962212Y1352750D01*
X986663Y1362182D02*
X985938Y1363633D01*
X984487Y1365085D01*
X983035Y1365810D01*
X980133D01*
X978682Y1365085D01*
X977231Y1363633D01*
X976505Y1362182D01*
X975780Y1360006D01*
Y1356378D01*
X976505Y1354201D01*
X977231Y1352750D01*
X978682Y1351299D01*
X980133Y1350573D01*
X983035D01*
X984487Y1351299D01*
X985938Y1352750D01*
X986663Y1354201D01*
X990944Y1365810D02*
Y1350573D01*
X999651D01*
X1028840Y802780D02*
X1038997D01*
X917080Y449717D02*
Y434480D01*
X928254Y442461D02*
X927528Y443912D01*
X925351Y444638D01*
X923175D01*
X920998Y443912D01*
X920273Y442461D01*
X920998Y441010D01*
X922449Y440285D01*
X926077Y439559D01*
X927528Y438833D01*
X928254Y437382D01*
Y436657D01*
X927528Y435206D01*
X925351Y434480D01*
X923175D01*
X920998Y435206D01*
X920273Y436657D01*
X932897Y449717D02*
X933623Y448991D01*
X934348Y449717D01*
X933623Y450442D01*
X932897Y449717D01*
X933623Y444638D02*
Y434480D01*
X937033Y444638D02*
Y434480D01*
Y441736D02*
X939210Y443912D01*
X940661Y444638D01*
X942837D01*
X944288Y443912D01*
X945014Y441736D01*
Y434480D01*
X949005Y449717D02*
Y434480D01*
X956260Y444638D02*
X949005Y437382D01*
X951907Y440285D02*
X956986Y434480D01*
X917806Y374122D02*
Y374848D01*
X918531Y376299D01*
X919257Y377024D01*
X920708Y377750D01*
X923610D01*
X925061Y377024D01*
X925787Y376299D01*
X926512Y374848D01*
Y373397D01*
X925787Y371946D01*
X924336Y369769D01*
X917080Y362513D01*
X927238D01*
X942257D02*
X936452Y377750D01*
X930648Y362513D01*
X932825Y367592D02*
X940080D01*
X925787Y320177D02*
X918531D01*
X917806Y313647D01*
X918531Y314372D01*
X920708Y315098D01*
X922885D01*
X925061Y314372D01*
X926512Y312921D01*
X927238Y310744D01*
Y309293D01*
X926512Y307117D01*
X925061Y305666D01*
X922885Y304940D01*
X920708D01*
X918531Y305666D01*
X917806Y306391D01*
X917080Y307842D01*
X942257Y304940D02*
X936452Y320177D01*
X930648Y304940D01*
X932825Y310019D02*
X940080D01*
X918531Y348963D02*
X926512D01*
X922159Y343159D01*
X924336D01*
X925787Y342433D01*
X926512Y341708D01*
X927238Y339531D01*
Y338080D01*
X926512Y335903D01*
X925061Y334452D01*
X922885Y333727D01*
X920708D01*
X918531Y334452D01*
X917806Y335178D01*
X917080Y336629D01*
X942257Y333727D02*
X936452Y348963D01*
X930648Y333727D01*
X932825Y338806D02*
X940080D01*
X917080Y403634D02*
X918531Y404360D01*
X920708Y406537D01*
Y391300D01*
X939863D02*
X934058Y406537D01*
X928254Y391300D01*
X930430Y396379D02*
X937686D01*
X765767Y406537D02*
X758511D01*
X757786Y400007D01*
X758511Y400732D01*
X760688Y401458D01*
X762865D01*
X765041Y400732D01*
X766492Y399281D01*
X767218Y397104D01*
Y395653D01*
X766492Y393477D01*
X765041Y392025D01*
X762865Y391300D01*
X760688D01*
X758511Y392025D01*
X757786Y392751D01*
X757060Y394202D01*
X770628Y406537D02*
X776432Y391300D01*
X782237Y406537D02*
X776432Y391300D01*
X757060Y346061D02*
X758511Y346787D01*
X760688Y348963D01*
Y333727D01*
X776940Y348963D02*
X769685D01*
X768959Y342433D01*
X769685Y343159D01*
X771861Y343885D01*
X774038D01*
X776215Y343159D01*
X777666Y341708D01*
X778391Y339531D01*
Y338080D01*
X777666Y335903D01*
X776215Y334452D01*
X774038Y333727D01*
X771861D01*
X769685Y334452D01*
X768959Y335178D01*
X768234Y336629D01*
X781802Y348963D02*
X787606Y333727D01*
X793410Y348963D02*
X787606Y333727D01*
X757786Y316549D02*
Y317274D01*
X758511Y318726D01*
X759237Y319451D01*
X760688Y320177D01*
X763590D01*
X765041Y319451D01*
X765767Y318726D01*
X766492Y317274D01*
Y315823D01*
X765767Y314372D01*
X764316Y312196D01*
X757060Y304940D01*
X767218D01*
X774981Y320177D02*
X772805Y319451D01*
X771354Y317274D01*
X770628Y313647D01*
Y311470D01*
X771354Y307842D01*
X772805Y305666D01*
X774981Y304940D01*
X776432D01*
X778609Y305666D01*
X780060Y307842D01*
X780786Y311470D01*
Y313647D01*
X780060Y317274D01*
X778609Y319451D01*
X776432Y320177D01*
X774981D01*
X784196D02*
X790000Y304940D01*
X795805Y320177D02*
X790000Y304940D01*
X766492Y372671D02*
X765767Y370494D01*
X764316Y369043D01*
X762139Y368318D01*
X761413D01*
X759237Y369043D01*
X757786Y370494D01*
X757060Y372671D01*
Y373397D01*
X757786Y375573D01*
X759237Y377024D01*
X761413Y377750D01*
X762139D01*
X764316Y377024D01*
X765767Y375573D01*
X766492Y372671D01*
Y369043D01*
X765767Y365416D01*
X764316Y363239D01*
X762139Y362513D01*
X760688D01*
X758511Y363239D01*
X757786Y364690D01*
X770628Y377750D02*
X776432Y362513D01*
X782237Y377750D02*
X776432Y362513D01*
X757060Y449717D02*
X762865Y434480D01*
X768669Y449717D02*
X762865Y434480D01*
X774256Y444638D02*
X772805Y443912D01*
X771354Y442461D01*
X770628Y440285D01*
Y438833D01*
X771354Y436657D01*
X772805Y435206D01*
X774256Y434480D01*
X776432D01*
X777884Y435206D01*
X779335Y436657D01*
X780060Y438833D01*
Y440285D01*
X779335Y442461D01*
X777884Y443912D01*
X776432Y444638D01*
X774256D01*
X783398D02*
Y437382D01*
X784123Y435206D01*
X785574Y434480D01*
X787751D01*
X789202Y435206D01*
X791379Y437382D01*
Y444638D02*
Y434480D01*
X797546Y449717D02*
Y437382D01*
X798272Y435206D01*
X799723Y434480D01*
X801174D01*
X795369Y444638D02*
X800448D01*
X1026300Y870405D02*
X1039629D01*
X1032964Y877069D02*
Y863740D01*
X845967Y1559702D02*
Y1574937D01*
X853584D01*
X856123Y1572398D01*
Y1567320D01*
X853584Y1564781D01*
X845967D01*
X851045D02*
X856123Y1559702D01*
X871358D02*
X861202D01*
X871358Y1569859D01*
Y1572398D01*
X868819Y1574937D01*
X863741D01*
X861202Y1572398D01*
X876437D02*
X878976Y1574937D01*
X884054D01*
X886593Y1572398D01*
Y1569859D01*
X884054Y1567320D01*
X886593Y1564781D01*
Y1562242D01*
X884054Y1559702D01*
X878976D01*
X876437Y1562242D01*
Y1564781D01*
X878976Y1567320D01*
X876437Y1569859D01*
Y1572398D01*
X878976Y1567320D02*
X884054D01*
X778139Y1577478D02*
Y1562242D01*
X788296D01*
X803531Y1577478D02*
X793374D01*
Y1562242D01*
X803531D01*
X793374Y1569860D02*
X798453D01*
X808609Y1577478D02*
Y1562242D01*
X816227D01*
X818766Y1564782D01*
Y1574938D01*
X816227Y1577478D01*
X808609D01*
X834001Y1562242D02*
X823844D01*
X834001Y1572399D01*
Y1574938D01*
X831462Y1577478D01*
X826384D01*
X823844Y1574938D01*
X858664Y1480963D02*
Y1496198D01*
X866282D01*
X868821Y1493658D01*
Y1488580D01*
X866282Y1486041D01*
X858664D01*
X863743D02*
X868821Y1480963D01*
X884056Y1496198D02*
X878978Y1493658D01*
X873899Y1488580D01*
Y1483502D01*
X876438Y1480963D01*
X881517D01*
X884056Y1483502D01*
Y1486041D01*
X881517Y1488580D01*
X873899D01*
X1016241Y782458D02*
X1011162D01*
X1013702D01*
Y769762D01*
X1011162Y767223D01*
X1008623D01*
X1006084Y769762D01*
X1031476Y782458D02*
X1021319D01*
Y774840D01*
X1026398Y777379D01*
X1028937D01*
X1031476Y774840D01*
Y769762D01*
X1028937Y767223D01*
X1023858D01*
X1021319Y769762D01*
X1026301Y518298D02*
X1021223D01*
X1023762D01*
Y505602D01*
X1021223Y503063D01*
X1018683D01*
X1016144Y505602D01*
X1038997Y503063D02*
Y518298D01*
X1031379Y510680D01*
X1041536D01*
X1026301Y642917D02*
X1021223D01*
X1023762D01*
Y630222D01*
X1021223Y627682D01*
X1018683D01*
X1016144Y630222D01*
X1031379Y640378D02*
X1033918Y642917D01*
X1038997D01*
X1041536Y640378D01*
Y637839D01*
X1038997Y635300D01*
X1036458D01*
X1038997D01*
X1041536Y632761D01*
Y630222D01*
X1038997Y627682D01*
X1033918D01*
X1031379Y630222D01*
X818027Y1427733D02*
Y1442968D01*
X825644D01*
X828183Y1440428D01*
Y1435350D01*
X825644Y1432811D01*
X818027D01*
X823105D02*
X828183Y1427733D01*
X843418D02*
X833262D01*
X843418Y1437889D01*
Y1440428D01*
X840879Y1442968D01*
X835801D01*
X833262Y1440428D01*
X848497Y1442968D02*
X858653D01*
Y1440428D01*
X848497Y1430272D01*
Y1427733D01*
X619897Y647847D02*
X604662D01*
Y655464D01*
X607202Y658003D01*
X612280D01*
X614819Y655464D01*
Y647847D01*
Y652925D02*
X619897Y658003D01*
Y673238D02*
Y663082D01*
X609741Y673238D01*
X607202D01*
X604662Y670699D01*
Y665621D01*
X607202Y663082D01*
X604662Y688473D02*
X607202Y683395D01*
X612280Y678317D01*
X617358D01*
X619897Y680856D01*
Y685934D01*
X617358Y688473D01*
X614819D01*
X612280Y685934D01*
Y678317D01*
X662122Y627523D02*
Y642757D01*
X669739D01*
X672278Y640218D01*
Y635140D01*
X669739Y632601D01*
X662122D01*
X667200D02*
X672278Y627523D01*
X687514D02*
X677357D01*
X687514Y637679D01*
Y640218D01*
X684974Y642757D01*
X679896D01*
X677357Y640218D01*
X702749Y642757D02*
X692592D01*
Y635140D01*
X697670Y637679D01*
X700209D01*
X702749Y635140D01*
Y630062D01*
X700209Y627523D01*
X695131D01*
X692592Y630062D01*
X866287Y1427623D02*
Y1442858D01*
X873904D01*
X876443Y1440318D01*
Y1435240D01*
X873904Y1432701D01*
X866287D01*
X871365D02*
X876443Y1427623D01*
X891678D02*
X881522D01*
X891678Y1437779D01*
Y1440318D01*
X889139Y1442858D01*
X884061D01*
X881522Y1440318D01*
X904374Y1427623D02*
Y1442858D01*
X896757Y1435240D01*
X906914D01*
X648722Y698643D02*
Y713877D01*
X656339D01*
X658878Y711338D01*
Y706260D01*
X656339Y703721D01*
X648722D01*
X653800D02*
X658878Y698643D01*
X674113D02*
X663957D01*
X674113Y708799D01*
Y711338D01*
X671574Y713877D01*
X666496D01*
X663957Y711338D01*
X679192D02*
X681731Y713877D01*
X686809D01*
X689349Y711338D01*
Y708799D01*
X686809Y706260D01*
X684270D01*
X686809D01*
X689349Y703721D01*
Y701182D01*
X686809Y698643D01*
X681731D01*
X679192Y701182D01*
X727354Y597043D02*
Y612277D01*
X734971D01*
X737511Y609738D01*
Y604660D01*
X734971Y602121D01*
X727354D01*
X732432D02*
X737511Y597043D01*
X752746D02*
X742589D01*
X752746Y607199D01*
Y609738D01*
X750206Y612277D01*
X745128D01*
X742589Y609738D01*
X767981Y597043D02*
X757824D01*
X767981Y607199D01*
Y609738D01*
X765441Y612277D01*
X760363D01*
X757824Y609738D01*
X718958Y492906D02*
X703723D01*
Y500523D01*
X706262Y503063D01*
X711340D01*
X713879Y500523D01*
Y492906D01*
Y497984D02*
X718958Y503063D01*
Y518298D02*
Y508141D01*
X708801Y518298D01*
X706262D01*
X703723Y515758D01*
Y510680D01*
X706262Y508141D01*
X718958Y523376D02*
Y528454D01*
Y525915D01*
X703723D01*
X706262Y523376D01*
X691018Y487827D02*
X675782D01*
Y495444D01*
X678322Y497983D01*
X683400D01*
X685939Y495444D01*
Y487827D01*
Y492905D02*
X691018Y497983D01*
Y513218D02*
Y503062D01*
X680861Y513218D01*
X678322D01*
X675782Y510679D01*
Y505601D01*
X678322Y503062D01*
Y518297D02*
X675782Y520836D01*
Y525914D01*
X678322Y528453D01*
X688478D01*
X691018Y525914D01*
Y520836D01*
X688478Y518297D01*
X678322D01*
X660537Y588156D02*
X645302D01*
Y595774D01*
X647842Y598313D01*
X652920D01*
X655459Y595774D01*
Y588156D01*
Y593234D02*
X660537Y598313D01*
Y603391D02*
Y608470D01*
Y605930D01*
X645302D01*
X647842Y603391D01*
X657998Y616087D02*
X660537Y618626D01*
Y623705D01*
X657998Y626244D01*
X647842D01*
X645302Y623705D01*
Y618626D01*
X647842Y616087D01*
X650381D01*
X652920Y618626D01*
Y626244D01*
X868818Y237636D02*
X853583D01*
Y245254D01*
X856122Y247793D01*
X861200D01*
X863739Y245254D01*
Y237636D01*
Y242715D02*
X868818Y247793D01*
Y252871D02*
Y257950D01*
Y255410D01*
X853583D01*
X856122Y252871D01*
Y265567D02*
X853583Y268106D01*
Y273185D01*
X856122Y275724D01*
X858661D01*
X861200Y273185D01*
X863739Y275724D01*
X866278D01*
X868818Y273185D01*
Y268106D01*
X866278Y265567D01*
X863739D01*
X861200Y268106D01*
X858661Y265567D01*
X856122D01*
X861200Y268106D02*
Y273185D01*
X841718Y237636D02*
X826482D01*
Y245254D01*
X829022Y247793D01*
X834100D01*
X836639Y245254D01*
Y237636D01*
Y242715D02*
X841718Y247793D01*
Y252871D02*
Y257950D01*
Y255410D01*
X826482D01*
X829022Y252871D01*
X826482Y265567D02*
Y275724D01*
X829022D01*
X839178Y265567D01*
X841718D01*
X812937Y237636D02*
X797702D01*
Y245254D01*
X800242Y247793D01*
X805320D01*
X807859Y245254D01*
Y237636D01*
Y242715D02*
X812937Y247793D01*
Y252871D02*
Y257950D01*
Y255410D01*
X797702D01*
X800242Y252871D01*
X797702Y275724D02*
X800242Y270646D01*
X805320Y265567D01*
X810398D01*
X812937Y268106D01*
Y273185D01*
X810398Y275724D01*
X807859D01*
X805320Y273185D01*
Y265567D01*
X784997Y237636D02*
X769762D01*
Y245254D01*
X772302Y247793D01*
X777380D01*
X779919Y245254D01*
Y237636D01*
Y242715D02*
X784997Y247793D01*
Y252871D02*
Y257950D01*
Y255410D01*
X769762D01*
X772302Y252871D01*
X769762Y275724D02*
Y265567D01*
X777380D01*
X774841Y270646D01*
Y273185D01*
X777380Y275724D01*
X782458D01*
X784997Y273185D01*
Y268106D01*
X782458Y265567D01*
X746784Y492096D02*
X731549D01*
Y499714D01*
X734088Y502253D01*
X739167D01*
X741706Y499714D01*
Y492096D01*
Y497174D02*
X746784Y502253D01*
Y507331D02*
Y512410D01*
Y509870D01*
X731549D01*
X734088Y507331D01*
X746784Y527645D02*
X731549D01*
X739167Y520027D01*
Y530184D01*
X635251Y588826D02*
X620015D01*
Y596444D01*
X622555Y598983D01*
X627633D01*
X630172Y596444D01*
Y588826D01*
Y593905D02*
X635251Y598983D01*
Y604061D02*
Y609140D01*
Y606600D01*
X620015D01*
X622555Y604061D01*
Y616757D02*
X620015Y619296D01*
Y624375D01*
X622555Y626914D01*
X625094D01*
X627633Y624375D01*
Y621836D01*
Y624375D01*
X630172Y626914D01*
X632711D01*
X635251Y624375D01*
Y619296D01*
X632711Y616757D01*
X728559Y660863D02*
Y676097D01*
X736177D01*
X738716Y673558D01*
Y668480D01*
X736177Y665941D01*
X728559D01*
X733638D02*
X738716Y660863D01*
X743794D02*
X748873D01*
X746334D01*
Y676097D01*
X743794Y673558D01*
X766647Y660863D02*
X756490D01*
X766647Y671019D01*
Y673558D01*
X764108Y676097D01*
X759029D01*
X756490Y673558D01*
X673241Y454798D02*
X670702Y457337D01*
X665623D01*
X663084Y454798D01*
Y452259D01*
X665623Y449720D01*
X670702D01*
X673241Y447181D01*
Y444642D01*
X670702Y442103D01*
X665623D01*
X663084Y444642D01*
X688476Y457337D02*
X683398Y454798D01*
X678319Y449720D01*
Y444642D01*
X680858Y442103D01*
X685937D01*
X688476Y444642D01*
Y447181D01*
X685937Y449720D01*
X678319D01*
X835800Y454798D02*
X833261Y457337D01*
X828183D01*
X825643Y454798D01*
Y452259D01*
X828183Y449720D01*
X833261D01*
X835800Y447181D01*
Y444642D01*
X833261Y442103D01*
X828183D01*
X825643Y444642D01*
X840878Y442103D02*
X845957D01*
X843418D01*
Y457337D01*
X840878Y454798D01*
X919902Y1418253D02*
Y1433488D01*
X927520D01*
X930059Y1430949D01*
Y1425870D01*
X927520Y1423331D01*
X919902D01*
X924981D02*
X930059Y1418253D01*
X935138D02*
X940216D01*
X937677D01*
Y1433488D01*
X935138Y1430949D01*
X947833Y1418253D02*
X952912D01*
X950373D01*
Y1433488D01*
X947833Y1430949D01*
X905656Y1313322D02*
Y1328557D01*
X913274D01*
X915813Y1326018D01*
Y1320940D01*
X913274Y1318401D01*
X905656D01*
X910734D02*
X915813Y1313322D01*
X920891D02*
X925970D01*
X923430D01*
Y1328557D01*
X920891Y1326018D01*
X933587D02*
X936126Y1328557D01*
X941205D01*
X943744Y1326018D01*
Y1315862D01*
X941205Y1313322D01*
X936126D01*
X933587Y1315862D01*
Y1326018D01*
X877932Y1280302D02*
Y1295538D01*
X885550D01*
X888089Y1292998D01*
Y1287920D01*
X885550Y1285381D01*
X877932D01*
X883010D02*
X888089Y1280302D01*
X893167Y1282842D02*
X895706Y1280302D01*
X900785D01*
X903324Y1282842D01*
Y1292998D01*
X900785Y1295538D01*
X895706D01*
X893167Y1292998D01*
Y1290459D01*
X895706Y1287920D01*
X903324D01*
X861204Y1204393D02*
Y1219628D01*
X868822D01*
X871361Y1217088D01*
Y1212010D01*
X868822Y1209471D01*
X861204D01*
X866283D02*
X871361Y1204393D01*
X876439Y1217088D02*
X878978Y1219628D01*
X884057D01*
X886596Y1217088D01*
Y1214549D01*
X884057Y1212010D01*
X886596Y1209471D01*
Y1206932D01*
X884057Y1204393D01*
X878978D01*
X876439Y1206932D01*
Y1209471D01*
X878978Y1212010D01*
X876439Y1214549D01*
Y1217088D01*
X878978Y1212010D02*
X884057D01*
X784848Y1498737D02*
Y1483503D01*
X795005D01*
X810240Y1498737D02*
X800083D01*
Y1483503D01*
X810240D01*
X800083Y1491120D02*
X805162D01*
X815319Y1498737D02*
Y1483503D01*
X822936D01*
X825475Y1486042D01*
Y1496198D01*
X822936Y1498737D01*
X815319D01*
X830554Y1483503D02*
X835632D01*
X833093D01*
Y1498737D01*
X830554Y1496198D01*
X1032091Y1417278D02*
X1027013D01*
X1029552D01*
Y1404582D01*
X1027013Y1402042D01*
X1024473D01*
X1021934Y1404582D01*
X1047326Y1402042D02*
X1037169D01*
X1047326Y1412199D01*
Y1414738D01*
X1044787Y1417278D01*
X1039709D01*
X1037169Y1414738D01*
X846727Y1168542D02*
Y1183777D01*
X854345D01*
X856884Y1181238D01*
Y1176160D01*
X854345Y1173621D01*
X846727D01*
X851806D02*
X856884Y1168542D01*
X872119Y1183777D02*
X861962D01*
Y1176160D01*
X867041Y1178699D01*
X869580D01*
X872119Y1176160D01*
Y1171082D01*
X869580Y1168542D01*
X864501D01*
X861962Y1171082D01*
X892329Y998363D02*
Y1013597D01*
X899947D01*
X902486Y1011058D01*
Y1005980D01*
X899947Y1003441D01*
X892329D01*
X897408D02*
X902486Y998363D01*
X915182D02*
Y1013597D01*
X907564Y1005980D01*
X917721D01*
X841637Y965623D02*
Y980858D01*
X849255D01*
X851794Y978319D01*
Y973240D01*
X849255Y970701D01*
X841637D01*
X846715D02*
X851794Y965623D01*
X856872Y980858D02*
X867029D01*
Y978319D01*
X856872Y968162D01*
Y965623D01*
X989194Y1173312D02*
Y1183468D01*
X986655Y1186008D01*
X981576D01*
X979037Y1183468D01*
Y1173312D01*
X981576Y1170773D01*
X986655D01*
X984115Y1175851D02*
X989194Y1170773D01*
X986655D02*
X989194Y1173312D01*
X1004429Y1170773D02*
X994272D01*
X1004429Y1180929D01*
Y1183468D01*
X1001890Y1186008D01*
X996811D01*
X994272Y1183468D01*
X1016140Y967882D02*
Y978038D01*
X1013601Y980577D01*
X1008522D01*
X1005983Y978038D01*
Y967882D01*
X1008522Y965342D01*
X1013601D01*
X1011062Y970421D02*
X1016140Y965342D01*
X1013601D02*
X1016140Y967882D01*
X1021218Y965342D02*
X1026297D01*
X1023758D01*
Y980577D01*
X1021218Y978038D01*
X733880Y853577D02*
X728801D01*
X731340D01*
Y840882D01*
X728801Y838343D01*
X726262D01*
X723723Y840882D01*
X738958Y838343D02*
X744036D01*
X741497D01*
Y853577D01*
X738958Y851038D01*
X767224Y815599D02*
Y800364D01*
X774842D01*
X777381Y802903D01*
Y813060D01*
X774842Y815599D01*
X767224D01*
X790077Y800364D02*
Y815599D01*
X782459Y807981D01*
X792616D01*
X990744Y1087258D02*
Y1072022D01*
X998362D01*
X1000901Y1074562D01*
Y1084718D01*
X998362Y1087258D01*
X990744D01*
X1005979Y1084718D02*
X1008518Y1087258D01*
X1013597D01*
X1016136Y1084718D01*
Y1082179D01*
X1013597Y1079640D01*
X1011058D01*
X1013597D01*
X1016136Y1077101D01*
Y1074562D01*
X1013597Y1072022D01*
X1008518D01*
X1005979Y1074562D01*
X810404Y1183777D02*
Y1168542D01*
X818022D01*
X820561Y1171082D01*
Y1181238D01*
X818022Y1183777D01*
X810404D01*
X835796Y1168542D02*
X825639D01*
X835796Y1178699D01*
Y1181238D01*
X833257Y1183777D01*
X828178D01*
X825639Y1181238D01*
X630061Y924698D02*
X627522Y927237D01*
X622443D01*
X619904Y924698D01*
Y914542D01*
X622443Y912002D01*
X627522D01*
X630061Y914542D01*
X635139Y924698D02*
X637678Y927237D01*
X642757D01*
X645296Y924698D01*
Y922159D01*
X642757Y919620D01*
X645296Y917081D01*
Y914542D01*
X642757Y912002D01*
X637678D01*
X635139Y914542D01*
Y917081D01*
X637678Y919620D01*
X635139Y922159D01*
Y924698D01*
X637678Y919620D02*
X642757D01*
X815481Y1003438D02*
X812942Y1005977D01*
X807863D01*
X805324Y1003438D01*
Y993282D01*
X807863Y990742D01*
X812942D01*
X815481Y993282D01*
X820559Y1005977D02*
X830716D01*
Y1003438D01*
X820559Y993282D01*
Y990742D01*
X675151Y975498D02*
X672611Y978037D01*
X667533D01*
X664994Y975498D01*
Y965342D01*
X667533Y962803D01*
X672611D01*
X675151Y965342D01*
X690386Y978037D02*
X685307Y975498D01*
X680229Y970420D01*
Y965342D01*
X682768Y962803D01*
X687846D01*
X690386Y965342D01*
Y967881D01*
X687846Y970420D01*
X680229D01*
X678641Y1000898D02*
X676102Y1003438D01*
X671023D01*
X668484Y1000898D01*
Y990742D01*
X671023Y988203D01*
X676102D01*
X678641Y990742D01*
X691337Y988203D02*
Y1003438D01*
X683719Y995820D01*
X693876D01*
X848881Y845699D02*
X846341Y848238D01*
X841263D01*
X838724Y845699D01*
Y835542D01*
X841263Y833003D01*
X846341D01*
X848881Y835542D01*
X853959Y845699D02*
X856498Y848238D01*
X861577D01*
X864116Y845699D01*
Y843159D01*
X861577Y840620D01*
X859037D01*
X861577D01*
X864116Y838081D01*
Y835542D01*
X861577Y833003D01*
X856498D01*
X853959Y835542D01*
X815484Y1060933D02*
Y1076168D01*
X823102D01*
X825641Y1073628D01*
Y1068550D01*
X823102Y1066011D01*
X815484D01*
X820563D02*
X825641Y1060933D01*
X830719Y1073628D02*
X833258Y1076168D01*
X838337D01*
X840876Y1073628D01*
Y1071089D01*
X838337Y1068550D01*
X835798D01*
X838337D01*
X840876Y1066011D01*
Y1063472D01*
X838337Y1060933D01*
X833258D01*
X830719Y1063472D01*
X727856Y1087258D02*
X732934D01*
X730395D01*
Y1072022D01*
X727856D01*
X732934D01*
X750709Y1084718D02*
X748170Y1087258D01*
X743091D01*
X740552Y1084718D01*
Y1074562D01*
X743091Y1072022D01*
X748170D01*
X750709Y1074562D01*
X765944Y1072022D02*
X755787D01*
X765944Y1082179D01*
Y1084718D01*
X763405Y1087258D01*
X758326D01*
X755787Y1084718D01*
X381148Y233818D02*
Y218582D01*
X388766D01*
X391305Y221122D01*
Y223661D01*
X388766Y226200D01*
X381148D01*
X388766D01*
X391305Y228739D01*
Y231278D01*
X388766Y233818D01*
X381148D01*
X396383D02*
X406540D01*
X401462D01*
Y218582D01*
X411618D02*
Y233818D01*
X421775Y218582D01*
Y233818D01*
X426853Y218582D02*
X431932D01*
X429393D01*
Y233818D01*
X426853Y231278D01*
X489241Y331109D02*
Y341265D01*
X486702Y343805D01*
X481623D01*
X479084Y341265D01*
Y331109D01*
X481623Y328569D01*
X486702D01*
X484163Y333648D02*
X489241Y328569D01*
X486702D02*
X489241Y331109D01*
X494319Y343805D02*
X504476D01*
Y341265D01*
X494319Y331109D01*
Y328569D01*
X569104Y205882D02*
Y221117D01*
X576722D01*
X579261Y218578D01*
Y213500D01*
X576722Y210961D01*
X569104D01*
X574183D02*
X579261Y205882D01*
X594496D02*
X584339D01*
X594496Y216039D01*
Y218578D01*
X591957Y221117D01*
X586878D01*
X584339Y218578D01*
X477663Y241443D02*
Y256677D01*
X485281D01*
X487820Y254138D01*
Y249060D01*
X485281Y246521D01*
X477663D01*
X482742D02*
X487820Y241443D01*
X492898D02*
X497977D01*
X495438D01*
Y256677D01*
X492898Y254138D01*
X543702Y188103D02*
X541162Y185564D01*
Y180486D01*
X543702Y177947D01*
X553858D01*
X556398Y180486D01*
Y185564D01*
X553858Y188103D01*
X543702Y193182D02*
X541162Y195721D01*
Y200799D01*
X543702Y203338D01*
X546241D01*
X548780Y200799D01*
Y198260D01*
Y200799D01*
X551319Y203338D01*
X553858D01*
X556398Y200799D01*
Y195721D01*
X553858Y193182D01*
X541162Y208417D02*
Y218573D01*
X543702D01*
X553858Y208417D01*
X556398D01*
X316376Y381143D02*
Y396377D01*
X323994D01*
X326533Y393838D01*
Y388760D01*
X323994Y386221D01*
X316376D01*
X331611Y381143D02*
X336690D01*
X334150D01*
Y396377D01*
X331611Y393838D01*
X344307D02*
X346846Y396377D01*
X351925D01*
X354464Y393838D01*
Y391299D01*
X351925Y388760D01*
X349385D01*
X351925D01*
X354464Y386221D01*
Y383682D01*
X351925Y381143D01*
X346846D01*
X344307Y383682D01*
X330347Y278245D02*
Y263010D01*
X337964D01*
X340503Y265549D01*
Y275706D01*
X337964Y278245D01*
X330347D01*
X355738Y275706D02*
X353199Y278245D01*
X348121D01*
X345582Y275706D01*
Y273167D01*
X348121Y270628D01*
X353199D01*
X355738Y268089D01*
Y265549D01*
X353199Y263010D01*
X348121D01*
X345582Y265549D01*
X360817Y278245D02*
X370974D01*
Y275706D01*
X360817Y265549D01*
Y263010D01*
X566567Y320182D02*
Y335418D01*
X574184D01*
X576723Y332878D01*
Y327800D01*
X574184Y325261D01*
X566567D01*
X571645D02*
X576723Y320182D01*
X581802Y335418D02*
X591958D01*
Y332878D01*
X581802Y322722D01*
Y320182D01*
X607193Y335418D02*
X597037D01*
Y327800D01*
X602115Y330339D01*
X604654D01*
X607193Y327800D01*
Y322722D01*
X604654Y320182D01*
X599576D01*
X597037Y322722D01*
X567444Y292355D02*
Y307591D01*
X575061D01*
X577600Y305051D01*
Y299973D01*
X575061Y297434D01*
X567444D01*
X572522D02*
X577600Y292355D01*
X592835Y307591D02*
X587757Y305051D01*
X582679Y299973D01*
Y294895D01*
X585218Y292355D01*
X590296D01*
X592835Y294895D01*
Y297434D01*
X590296Y299973D01*
X582679D01*
X597914Y305051D02*
X600453Y307591D01*
X605531D01*
X608070Y305051D01*
Y302512D01*
X605531Y299973D01*
X602992D01*
X605531D01*
X608070Y297434D01*
Y294895D01*
X605531Y292355D01*
X600453D01*
X597914Y294895D01*
X912001Y1082149D02*
X909462Y1084688D01*
X904383D01*
X901844Y1082149D01*
Y1071992D01*
X904383Y1069453D01*
X909462D01*
X912001Y1071992D01*
X927236Y1069453D02*
X917079D01*
X927236Y1079609D01*
Y1082149D01*
X924697Y1084688D01*
X919618D01*
X917079Y1082149D01*
X1011870Y1031492D02*
X1009331Y1034031D01*
X1004253D01*
X1001713Y1031492D01*
Y1021335D01*
X1004253Y1018796D01*
X1009331D01*
X1011870Y1021335D01*
X1016948Y1018796D02*
X1022027D01*
X1019488D01*
Y1034031D01*
X1016948Y1031492D01*
D56*
X929780Y770860D02*
G03*
X929780Y769860I0J-500D01*
G01*
D02*
G03*
X929780Y770860I0J500D01*
G01*
X366000Y186720D02*
G03*
X366000Y187720I0J500D01*
G01*
D02*
G03*
X366000Y186720I0J-500D01*
G01*
X893100Y416040D02*
G03*
X892100Y416040I-500J0D01*
G01*
D02*
G03*
X893100Y416040I500J0D01*
G01*
X734400D02*
G03*
X733400Y416040I-500J0D01*
G01*
D02*
G03*
X734400Y416040I500J0D01*
G01*
X740000Y872500D02*
G03*
X741000Y872500I500J0D01*
G01*
D02*
G03*
X740000Y872500I-500J0D01*
G01*
X822508Y1510447D02*
G03*
X821508Y1510447I-500J0D01*
G01*
D02*
G03*
X822508Y1510447I500J0D01*
G01*
X380000Y213220D02*
X427500D01*
X380000Y178220D02*
X427500D01*
X1038380Y521140D02*
Y622140D01*
X798380Y521140D02*
X1038380D01*
X798380D02*
Y622140D01*
X1038380D01*
Y645300D02*
Y752600D01*
X798380D02*
X1038380D01*
X798380Y645300D02*
Y752600D01*
Y645300D02*
X1038380D01*
X795920Y791500D02*
Y818500D01*
X811420Y791500D02*
Y818500D01*
X987720Y997850D02*
X988220D01*
X987720D02*
Y998230D01*
X988220D01*
Y997850D02*
Y998230D01*
X927220Y932480D02*
X988220D01*
X927220D02*
X988220D01*
X927220Y932850D02*
Y997850D01*
Y932850D02*
Y997850D01*
Y998230D02*
X987720D01*
X927220D02*
X987720D01*
X962000Y1067070D02*
X989000D01*
X962000Y1051570D02*
X989000D01*
X987310Y1168010D02*
X987810D01*
X987310D02*
Y1168390D01*
X987810D01*
Y1168010D02*
Y1168390D01*
X926810Y1102640D02*
X987810D01*
X926810D02*
X987810D01*
X926810Y1103010D02*
Y1168010D01*
Y1103010D02*
Y1168010D01*
Y1168390D02*
X987310D01*
X926810D02*
X987310D01*
D57*
X1055880Y571640D02*
G03*
X1054880Y571640I-500J0D01*
G01*
D02*
G03*
X1055880Y571640I500J0D01*
G01*
D02*
G03*
X1054880Y571640I-500J0D01*
G01*
X803670Y834000D02*
G03*
X803670Y832000I0J-1000D01*
G01*
D02*
G03*
X803670Y834000I0J1000D01*
G01*
X880720Y989350D02*
G03*
X881720Y989350I500J0D01*
G01*
D02*
G03*
X880720Y989350I-500J0D01*
G01*
D02*
G03*
X881720Y989350I500J0D01*
G01*
X948500Y1059320D02*
G03*
X946500Y1059320I-1000J0D01*
G01*
D02*
G03*
X948500Y1059320I1000J0D01*
G01*
X880310Y1159510D02*
G03*
X881310Y1159510I500J0D01*
G01*
D02*
G03*
X880310Y1159510I-500J0D01*
G01*
D02*
G03*
X881310Y1159510I500J0D01*
G01*
X1005230Y1229500D02*
Y1396100D01*
X1032130D01*
Y1215300D02*
Y1396100D01*
X1018680Y1215300D02*
X1032130D01*
X883780Y776160D02*
X1008780D01*
X883780D02*
Y903160D01*
X1008780D01*
Y776160D02*
Y903160D01*
X844100Y292540D02*
X852100D01*
X844100D02*
Y439540D01*
X852100D01*
X880100Y292540D02*
X888100D01*
Y439540D01*
X880100D02*
X888100D01*
X685400Y292540D02*
X693400D01*
X685400D02*
Y439540D01*
X693400D01*
X721400Y292540D02*
X729400D01*
Y439540D01*
X721400D02*
X729400D01*
X817890Y1115310D02*
Y1151560D01*
X833390Y1124560D02*
Y1151560D01*
X790740Y1557500D02*
X817740D01*
Y1536500D02*
Y1557500D01*
X790740Y1536500D02*
X817740D01*
X489280Y293473D02*
X502280D01*
X485780Y293873D02*
Y323073D01*
X484780D02*
X485780D01*
X484780Y293873D02*
Y323073D01*
Y293873D02*
X485780D01*
D58*
X776980Y1022300D02*
G03*
X776980Y1022300I-1250J0D01*
G01*
D59*
X669986Y935501D02*
X680785D01*
X669986Y951501D02*
X680785D01*
X666000Y1061540D02*
Y1072340D01*
X650000Y1061540D02*
Y1072340D01*
X882287Y1393024D02*
Y1406425D01*
X865287Y1393024D02*
Y1406425D01*
X724807Y659842D02*
Y673242D01*
X707807Y659842D02*
Y673242D01*
X669125Y675013D02*
X682524D01*
X669125Y692013D02*
X682524D01*
X669035Y663847D02*
X682435D01*
X669035Y646847D02*
X682435D01*
X691895Y610507D02*
X705295D01*
X691895Y593507D02*
X705295D01*
X675013Y552195D02*
Y565595D01*
X692013Y552195D02*
Y565595D01*
X702953Y552195D02*
Y565595D01*
X719953Y552195D02*
Y565595D01*
X747667Y552285D02*
Y565685D01*
X730667Y552285D02*
Y565685D01*
X785767Y201765D02*
Y215165D01*
X768767Y201765D02*
Y215165D01*
X813707Y201765D02*
Y215165D01*
X796707Y201765D02*
Y215165D01*
X841647Y201765D02*
Y215165D01*
X824647Y201765D02*
Y215165D01*
X869587Y201765D02*
Y215165D01*
X852587Y201765D02*
Y215165D01*
X624213Y661415D02*
Y674815D01*
X641213Y661415D02*
Y674815D01*
X647073Y552195D02*
Y565595D01*
X664073Y552195D02*
Y565595D01*
X619133Y552195D02*
Y565595D01*
X636133Y552195D02*
Y565595D01*
X851420Y799920D02*
Y810720D01*
X835420Y799920D02*
Y810720D01*
X670380Y911620D02*
X681180D01*
X670380Y927620D02*
X681180D01*
X716100Y987820D02*
X726900D01*
X716100Y1003820D02*
X726900D01*
X715470Y962420D02*
X726269D01*
X715470Y978420D02*
X726269D01*
X800620Y992960D02*
Y1003760D01*
X784620Y992960D02*
Y1003760D01*
X821525Y1055233D02*
X834924D01*
X821525Y1038233D02*
X834924D01*
X859653Y1001485D02*
Y1014885D01*
X842653Y1001485D02*
Y1014885D01*
X905025Y1034913D02*
X918425D01*
X905025Y1017913D02*
X918425D01*
X864733Y1131315D02*
Y1144715D01*
X847733Y1131315D02*
Y1144715D01*
X890913Y1227835D02*
Y1241235D01*
X907913Y1227835D02*
Y1241235D01*
X953407Y1385405D02*
Y1398804D01*
X936407Y1385405D02*
Y1398804D01*
X930547Y1352384D02*
Y1365784D01*
X913547Y1352384D02*
Y1365784D01*
X897640Y1319589D02*
Y1332989D01*
X880640Y1319589D02*
Y1332989D01*
X835033Y1392935D02*
Y1406335D01*
X852033Y1392935D02*
Y1406335D01*
X854500Y1502060D02*
X867900D01*
X854500Y1519060D02*
X867900D01*
X853273Y1537620D02*
X866673D01*
X853273Y1554620D02*
X866673D01*
X531875Y319187D02*
X545275D01*
X531875Y336187D02*
X545275D01*
X531585Y308473D02*
X544985D01*
X531585Y291473D02*
X544985D01*
X568107Y242405D02*
Y255805D01*
X585107Y242405D02*
Y255805D01*
X521833Y242315D02*
Y255715D01*
X504833Y242315D02*
Y255715D01*
X554240Y243660D02*
Y254460D01*
X538240Y243660D02*
Y254460D01*
X965020Y1034413D02*
X975820D01*
X965020Y1018413D02*
X975820D01*
X906600Y1046240D02*
X917400D01*
X906600Y1062240D02*
X917400D01*
D60*
X378600Y266628D02*
X388600Y256628D01*
X378600Y284628D02*
X424320D01*
X378600Y256628D02*
X424320D01*
X378600D02*
Y284628D01*
X424320Y256628D02*
Y284628D01*
D61*
X629188Y251245D02*
X628704Y252213D01*
X627737Y253180D01*
X626769Y253664D01*
X624834D01*
X623867Y253180D01*
X622899Y252213D01*
X622416Y251245D01*
X621932Y249794D01*
Y247376D01*
X622416Y245925D01*
X622899Y244957D01*
X623867Y243990D01*
X624834Y243506D01*
X626769D01*
X627737Y243990D01*
X628704Y244957D01*
X629188Y245925D01*
X639781Y243506D02*
X635911Y253664D01*
X632042Y243506D01*
X633493Y246892D02*
X638330D01*
X642151Y253664D02*
Y246408D01*
X642635Y244957D01*
X643602Y243990D01*
X645053Y243506D01*
X646021D01*
X647472Y243990D01*
X648439Y244957D01*
X648923Y246408D01*
Y253664D01*
X655114D02*
Y243506D01*
X651728Y253664D02*
X658500D01*
X659709D02*
Y243506D01*
X664740Y253664D02*
X663773Y253180D01*
X662805Y252213D01*
X662321Y251245D01*
X661838Y249794D01*
Y247376D01*
X662321Y245925D01*
X662805Y244957D01*
X663773Y243990D01*
X664740Y243506D01*
X666675D01*
X667642Y243990D01*
X668610Y244957D01*
X669093Y245925D01*
X669577Y247376D01*
Y249794D01*
X669093Y251245D01*
X668610Y252213D01*
X667642Y253180D01*
X666675Y253664D01*
X664740D01*
X671947D02*
Y243506D01*
Y253664D02*
X678719Y243506D01*
Y253664D02*
Y243506D01*
X682008Y253664D02*
Y246892D01*
Y244474D02*
X681525Y243990D01*
X682008Y243506D01*
X682492Y243990D01*
X682008Y244474D01*
X628704Y235147D02*
X627737Y236114D01*
X626285Y236598D01*
X624351D01*
X622899Y236114D01*
X621932Y235147D01*
Y234179D01*
X622416Y233212D01*
X622899Y232728D01*
X623867Y232244D01*
X626769Y231277D01*
X627737Y230793D01*
X628220Y230310D01*
X628704Y229342D01*
Y227891D01*
X627737Y226924D01*
X626285Y226440D01*
X624351D01*
X622899Y226924D01*
X621932Y227891D01*
X630977Y230310D02*
X636782D01*
Y231277D01*
X636298Y232244D01*
X635814Y232728D01*
X634847Y233212D01*
X633396D01*
X632428Y232728D01*
X631461Y231761D01*
X630977Y230310D01*
Y229342D01*
X631461Y227891D01*
X632428Y226924D01*
X633396Y226440D01*
X634847D01*
X635814Y226924D01*
X636782Y227891D01*
X640410Y236598D02*
Y228375D01*
X640893Y226924D01*
X641861Y226440D01*
X642828D01*
X638958Y233212D02*
X642344D01*
X652260Y236598D02*
X656130Y226440D01*
X660000Y236598D02*
X656130Y226440D01*
X675091Y233212D02*
Y226440D01*
Y231761D02*
X674124Y232728D01*
X673156Y233212D01*
X671705D01*
X670738Y232728D01*
X669771Y231761D01*
X669287Y230310D01*
Y229342D01*
X669771Y227891D01*
X670738Y226924D01*
X671705Y226440D01*
X673156D01*
X674124Y226924D01*
X675091Y227891D01*
X677800Y233212D02*
Y226440D01*
Y231277D02*
X679251Y232728D01*
X680219Y233212D01*
X681670D01*
X682637Y232728D01*
X683121Y231277D01*
Y226440D01*
X691586Y236598D02*
Y226440D01*
Y231761D02*
X690618Y232728D01*
X689651Y233212D01*
X688200D01*
X687232Y232728D01*
X686265Y231761D01*
X685781Y230310D01*
Y229342D01*
X686265Y227891D01*
X687232Y226924D01*
X688200Y226440D01*
X689651D01*
X690618Y226924D01*
X691586Y227891D01*
X702275Y236598D02*
Y226440D01*
X714803Y233212D02*
X713836Y232728D01*
X712869Y231761D01*
X712385Y230310D01*
Y229342D01*
X712869Y227891D01*
X713836Y226924D01*
X714803Y226440D01*
X716255D01*
X717222Y226924D01*
X718189Y227891D01*
X718673Y229342D01*
Y230310D01*
X718189Y231761D01*
X717222Y232728D01*
X716255Y233212D01*
X714803D01*
X720898D02*
Y226440D01*
Y231277D02*
X722349Y232728D01*
X723317Y233212D01*
X724768D01*
X725735Y232728D01*
X726219Y231277D01*
Y226440D01*
X728879Y236598D02*
Y226440D01*
X731491Y233212D02*
X734394Y226440D01*
X737296Y233212D02*
X734394Y226440D01*
X733426Y224505D01*
X732459Y223538D01*
X731491Y223054D01*
X731008D01*
X621932Y215662D02*
Y205504D01*
Y210825D02*
X622899Y211792D01*
X623867Y212276D01*
X625318D01*
X626285Y211792D01*
X627253Y210825D01*
X627737Y209374D01*
Y208406D01*
X627253Y206955D01*
X626285Y205988D01*
X625318Y205504D01*
X623867D01*
X622899Y205988D01*
X621932Y206955D01*
X629913Y209374D02*
X635718D01*
Y210341D01*
X635234Y211309D01*
X634750Y211792D01*
X633783Y212276D01*
X632332D01*
X631364Y211792D01*
X630397Y210825D01*
X629913Y209374D01*
Y208406D01*
X630397Y206955D01*
X631364Y205988D01*
X632332Y205504D01*
X633783D01*
X634750Y205988D01*
X635718Y206955D01*
X641764Y215662D02*
X640797D01*
X639829Y215178D01*
X639345Y213727D01*
Y205504D01*
X637894Y212276D02*
X641280D01*
X645634D02*
X644666Y211792D01*
X643699Y210825D01*
X643215Y209374D01*
Y208406D01*
X643699Y206955D01*
X644666Y205988D01*
X645634Y205504D01*
X647085D01*
X648052Y205988D01*
X649019Y206955D01*
X649503Y208406D01*
Y209374D01*
X649019Y210825D01*
X648052Y211792D01*
X647085Y212276D01*
X645634D01*
X651728D02*
Y205504D01*
Y209374D02*
X652212Y210825D01*
X653179Y211792D01*
X654147Y212276D01*
X655598D01*
X656517Y209374D02*
X662321D01*
Y210341D01*
X661838Y211309D01*
X661354Y211792D01*
X660387Y212276D01*
X658935D01*
X657968Y211792D01*
X657001Y210825D01*
X656517Y209374D01*
Y208406D01*
X657001Y206955D01*
X657968Y205988D01*
X658935Y205504D01*
X660387D01*
X661354Y205988D01*
X662321Y206955D01*
X678284Y210825D02*
X677316Y211792D01*
X676349Y212276D01*
X674898D01*
X673930Y211792D01*
X672963Y210825D01*
X672479Y209374D01*
Y208406D01*
X672963Y206955D01*
X673930Y205988D01*
X674898Y205504D01*
X676349D01*
X677316Y205988D01*
X678284Y206955D01*
X682879Y212276D02*
X681911Y211792D01*
X680944Y210825D01*
X680460Y209374D01*
Y208406D01*
X680944Y206955D01*
X681911Y205988D01*
X682879Y205504D01*
X684330D01*
X685297Y205988D01*
X686265Y206955D01*
X686749Y208406D01*
Y209374D01*
X686265Y210825D01*
X685297Y211792D01*
X684330Y212276D01*
X682879D01*
X688974D02*
Y205504D01*
Y210341D02*
X690425Y211792D01*
X691392Y212276D01*
X692843D01*
X693811Y211792D01*
X694294Y210341D01*
Y205504D01*
X696955Y212276D02*
Y205504D01*
Y210341D02*
X698406Y211792D01*
X699373Y212276D01*
X700824D01*
X701792Y211792D01*
X702275Y210341D01*
Y205504D01*
X704936Y209374D02*
X710740D01*
Y210341D01*
X710257Y211309D01*
X709773Y211792D01*
X708805Y212276D01*
X707354D01*
X706387Y211792D01*
X705420Y210825D01*
X704936Y209374D01*
Y208406D01*
X705420Y206955D01*
X706387Y205988D01*
X707354Y205504D01*
X708805D01*
X709773Y205988D01*
X710740Y206955D01*
X718721Y210825D02*
X717754Y211792D01*
X716787Y212276D01*
X715335D01*
X714368Y211792D01*
X713401Y210825D01*
X712917Y209374D01*
Y208406D01*
X713401Y206955D01*
X714368Y205988D01*
X715335Y205504D01*
X716787D01*
X717754Y205988D01*
X718721Y206955D01*
X722349Y215662D02*
Y207439D01*
X722833Y205988D01*
X723800Y205504D01*
X724768D01*
X720898Y212276D02*
X724284D01*
X727186Y215662D02*
X727670Y215178D01*
X728154Y215662D01*
X727670Y216146D01*
X727186Y215662D01*
X727670Y212276D02*
Y205504D01*
X729943Y212276D02*
Y205504D01*
Y210341D02*
X731395Y211792D01*
X732362Y212276D01*
X733813D01*
X734781Y211792D01*
X735264Y210341D01*
Y205504D01*
X743729Y212276D02*
Y204537D01*
X743245Y203086D01*
X742762Y202602D01*
X741794Y202118D01*
X740343D01*
X739376Y202602D01*
X743729Y210825D02*
X742762Y211792D01*
X741794Y212276D01*
X740343D01*
X739376Y211792D01*
X738408Y210825D01*
X737925Y209374D01*
Y208406D01*
X738408Y206955D01*
X739376Y205988D01*
X740343Y205504D01*
X741794D01*
X742762Y205988D01*
X743729Y206955D01*
X623383Y195210D02*
Y186987D01*
X623867Y185536D01*
X624834Y185052D01*
X625802D01*
X621932Y191824D02*
X625318D01*
X627253Y195210D02*
Y185052D01*
Y189889D02*
X628704Y191340D01*
X629671Y191824D01*
X631122D01*
X632090Y191340D01*
X632574Y189889D01*
Y185052D01*
X635234Y188922D02*
X641038D01*
Y189889D01*
X640555Y190856D01*
X640071Y191340D01*
X639104Y191824D01*
X637652D01*
X636685Y191340D01*
X635718Y190373D01*
X635234Y188922D01*
Y187954D01*
X635718Y186503D01*
X636685Y185536D01*
X637652Y185052D01*
X639104D01*
X640071Y185536D01*
X641038Y186503D01*
X651196Y195210D02*
Y185052D01*
X655743Y191824D02*
X654776Y191340D01*
X653808Y190373D01*
X653325Y188922D01*
Y187954D01*
X653808Y186503D01*
X654776Y185536D01*
X655743Y185052D01*
X657194D01*
X658161Y185536D01*
X659129Y186503D01*
X659613Y187954D01*
Y188922D01*
X659129Y190373D01*
X658161Y191340D01*
X657194Y191824D01*
X655743D01*
X667642D02*
Y185052D01*
Y190373D02*
X666675Y191340D01*
X665707Y191824D01*
X664256D01*
X663289Y191340D01*
X662321Y190373D01*
X661838Y188922D01*
Y187954D01*
X662321Y186503D01*
X663289Y185536D01*
X664256Y185052D01*
X665707D01*
X666675Y185536D01*
X667642Y186503D01*
X676155Y195210D02*
Y185052D01*
Y190373D02*
X675188Y191340D01*
X674221Y191824D01*
X672769D01*
X671802Y191340D01*
X670835Y190373D01*
X670351Y188922D01*
Y187954D01*
X670835Y186503D01*
X671802Y185536D01*
X672769Y185052D01*
X674221D01*
X675188Y185536D01*
X676155Y186503D01*
M02*
